<svg width="20" height="20" viewBox="0 0 20 20" fill="none" xmlns="http://www.w3.org/2000/svg">
<path opacity="0.4" d="M8.32484 14.9833C12.0021 14.9833 14.9832 12.0023 14.9832 8.325C14.9832 4.6477 12.0021 1.66666 8.32484 1.66666C4.64754 1.66666 1.6665 4.6477 1.6665 8.325C1.6665 12.0023 4.64754 14.9833 8.32484 14.9833Z" fill="#0393FB"/>
<path d="M18.3084 13.325C18.3084 16.075 16.0751 18.3083 13.3251 18.3083C11.6251 18.3083 10.1334 17.4583 9.2334 16.1667C12.8667 15.7583 15.7584 12.8667 16.1667 9.23334C17.4584 10.1333 18.3084 11.625 18.3084 13.325Z" fill="#0393FB"/>
<path d="M9.5415 8.09167L7.5415 7.39167C7.3415 7.325 7.29984 7.30833 7.29984 7.01667C7.29984 6.8 7.44984 6.625 7.6415 6.625H8.8915C9.15817 6.625 9.37484 6.86667 9.37484 7.16667C9.37484 7.50833 9.65817 7.79167 9.99984 7.79167C10.3415 7.79167 10.6248 7.50833 10.6248 7.16667C10.6248 6.20833 9.88317 5.425 8.95817 5.38333V5.34167C8.95817 5 8.67484 4.71667 8.33317 4.71667C7.9915 4.71667 7.70817 4.99167 7.70817 5.34167V5.38333H7.63317C6.75817 5.38333 6.0415 6.11667 6.0415 7.025C6.0415 7.81667 6.3915 8.325 7.1165 8.575L9.12484 9.275C9.32484 9.34167 9.3665 9.35833 9.3665 9.65C9.3665 9.86667 9.2165 10.0417 9.02484 10.0417H7.77484C7.50817 10.0417 7.2915 9.8 7.2915 9.5C7.2915 9.15833 7.00817 8.875 6.6665 8.875C6.32484 8.875 6.0415 9.15833 6.0415 9.5C6.0415 10.4583 6.78317 11.2417 7.70817 11.2833V11.3333C7.70817 11.675 7.9915 11.9583 8.33317 11.9583C8.67484 11.9583 8.95817 11.675 8.95817 11.3333V11.2917H9.03317C9.90817 11.2917 10.6248 10.5583 10.6248 9.65C10.6248 8.85833 10.2665 8.35 9.5415 8.09167Z" fill="#0393FB"/>
</svg>
