<svg width="24" height="25" viewBox="0 0 24 25" fill="none" xmlns="http://www.w3.org/2000/svg">
<path opacity="0.4" d="M20.83 8.50999L14.28 3.26999C13 2.24999 11 2.23999 9.72996 3.25999L3.17996 8.50999C2.23996 9.25999 1.66996 10.76 1.86996 11.94L3.12996 19.48C3.41996 21.17 4.98996 22.5 6.69996 22.5H17.3C18.99 22.5 20.59 21.14 20.88 19.47L22.14 11.93C22.32 10.76 21.75 9.25999 20.83 8.50999Z" fill="#282828"/>
<path d="M12 19.25C11.59 19.25 11.25 18.91 11.25 18.5V15.5C11.25 15.09 11.59 14.75 12 14.75C12.41 14.75 12.75 15.09 12.75 15.5V18.5C12.75 18.91 12.41 19.25 12 19.25Z" fill="#282828"/>
</svg>
