<svg width="24" height="24" viewBox="0 0 24 24" fill="none" xmlns="http://www.w3.org/2000/svg">
<path opacity="0.4" d="M9 7.2V16.79C9 20 11 22 14.2 22H16.79C19.99 22 21.99 20 21.99 16.8V7.2C22 4 20 2 16.8 2H14.2C11 2 9 4 9 7.2Z" fill="#ED192D"/>
<path d="M12.43 8.11999L15.78 11.47C16.07 11.76 16.07 12.24 15.78 12.53L12.43 15.88C12.14 16.17 11.66 16.17 11.37 15.88C11.08 15.59 11.08 15.11 11.37 14.82L13.44 12.75H2.75C2.34 12.75 2 12.41 2 12C2 11.59 2.34 11.25 2.75 11.25H13.44L11.37 9.17999C11.22 9.02999 11.15 8.83999 11.15 8.64999C11.15 8.45999 11.22 8.26999 11.37 8.11999C11.66 7.81999 12.13 7.81999 12.43 8.11999Z" fill="#ED192D"/>
</svg>
