<svg width="20" height="20" viewBox="0 0 20 20" fill="none" xmlns="http://www.w3.org/2000/svg">
<path opacity="0.8" d="M10.7502 2.1L10.7252 2.15833L8.3085 7.76667H5.9335C5.36683 7.76667 4.8335 7.875 4.3335 8.09167L5.79183 4.60833L5.82516 4.53333L5.87516 4.4C5.90016 4.34167 5.91683 4.29167 5.94183 4.25C7.0335 1.725 8.26683 1.15 10.7502 2.1Z" fill="#0393FB"/>
<path d="M15.2414 7.93333C14.8664 7.825 14.4748 7.76666 14.0664 7.76666H8.30811L10.7248 2.15833L10.7498 2.1C10.8664 2.14167 10.9914 2.2 11.1164 2.24167L12.9581 3.01667C13.9831 3.44167 14.6998 3.88333 15.1414 4.41667C15.2164 4.51667 15.2831 4.60833 15.3498 4.71667C15.4248 4.83333 15.4831 4.95 15.5164 5.075C15.5498 5.15 15.5748 5.21667 15.5914 5.29167C15.8081 6 15.6748 6.85833 15.2414 7.93333Z" fill="#0393FB"/>
<path opacity="0.4" d="M18.1334 11.8333V13.4583C18.1334 13.625 18.125 13.7917 18.1167 13.95C17.9584 16.8667 16.3334 18.3333 13.25 18.3333H6.75003C6.5417 18.3333 6.35003 18.3167 6.15837 18.2917C3.50837 18.1167 2.0917 16.7 1.90837 14.05C1.88337 13.85 1.8667 13.6583 1.8667 13.4583V11.8333C1.8667 10.1583 2.88337 8.71666 4.33337 8.09166C4.83337 7.875 5.3667 7.76666 5.93337 7.76666H14.0667C14.475 7.76666 14.8667 7.825 15.2417 7.93333C16.9084 8.44166 18.1334 9.99166 18.1334 11.8333Z" fill="#0393FB"/>
<path opacity="0.6" d="M5.7917 4.60834L4.33337 8.09167C2.88337 8.71667 1.8667 10.1583 1.8667 11.8333V9.39167C1.8667 7.025 3.55003 5.05 5.7917 4.60834Z" fill="#0393FB"/>
<path opacity="0.6" d="M18.1334 9.39166V11.8333C18.1334 9.99166 16.9084 8.44166 15.2417 7.93333C15.675 6.85833 15.8084 6 15.5917 5.29166C15.575 5.21666 15.55 5.15 15.5167 5.075C17.075 5.88333 18.1334 7.525 18.1334 9.39166Z" fill="#0393FB"/>
</svg>
