<svg width="59" height="47" viewBox="0 0 59 47" fill="none" xmlns="http://www.w3.org/2000/svg">
<g opacity="0.05">
<path d="M18.6616 46.4567C15.1538 46.4567 12.0311 45.4728 9.29328 43.505C6.5555 41.4944 4.39522 38.7567 2.81244 35.2917C1.27244 31.7839 0.502441 27.7628 0.502441 23.2283C0.502441 18.6939 1.27244 14.6942 2.81244 11.2292C4.39522 7.72139 6.53411 4.98361 9.22911 3.01583C11.9669 1.00528 15.1111 0 18.6616 0C22.2122 0 25.3563 1.00528 28.0941 3.01583C30.8319 4.98361 32.9708 7.72139 34.5108 11.2292C36.0936 14.6942 36.8849 18.6939 36.8849 23.2283C36.8849 27.7628 36.0936 31.7839 34.5108 35.2917C32.9708 38.7567 30.8319 41.4944 28.0941 43.505C25.3991 45.4728 22.2549 46.4567 18.6616 46.4567ZM18.7258 39.7192C20.8219 39.7192 22.6827 39.0133 24.3083 37.6017C25.9766 36.19 27.2599 34.2436 28.1583 31.7625C29.0994 29.2814 29.5699 26.4367 29.5699 23.2283C29.5699 20.02 29.0994 17.1753 28.1583 14.6942C27.2599 12.1703 25.9766 10.2025 24.3083 8.79083C22.6827 7.37917 20.8005 6.67333 18.6616 6.67333C16.5227 6.67333 14.6405 7.37917 13.0149 8.79083C11.3894 10.2025 10.1061 12.1489 9.16494 14.63C8.26661 17.1111 7.81744 19.9772 7.81744 23.2283C7.81744 26.4367 8.26661 29.2814 9.16494 31.7625C10.1061 34.2436 11.3894 36.19 13.0149 37.6017C14.6833 39.0133 16.5869 39.7192 18.7258 39.7192Z" fill="#0393FB"/>
<path d="M51.7415 45.6867L51.8057 4.74833L52.5115 0.769998H58.9924L58.9282 45.6867H51.7415ZM42.0524 13.9242V7.18667C43.0363 7.22944 44.1485 6.95139 45.389 6.3525C46.6724 5.71083 47.9343 4.87667 49.1749 3.85C50.4154 2.82333 51.5276 1.77528 52.5115 0.705832L57.1315 5.51833C55.6343 7.10111 54.0729 8.55555 52.4474 9.88167C50.8218 11.2078 49.1321 12.2344 47.3782 12.9617C45.6671 13.6889 43.8918 14.0097 42.0524 13.9242Z" fill="#0393FB"/>
</g>
</svg>
