<svg width="75" height="75" viewBox="0 0 75 75" fill="none" xmlns="http://www.w3.org/2000/svg">
<path opacity="0.4" d="M54.7817 24.2813C54.563 24.25 54.3442 24.25 54.1255 24.2813C49.2817 24.125 45.438 20.1562 45.438 15.2812C45.438 10.3125 49.4692 6.25 54.4692 6.25C59.438 6.25 63.5005 10.2812 63.5005 15.2812C63.4692 20.1562 59.6255 24.125 54.7817 24.2813Z" fill="#2299F5"/>
<path opacity="0.4" d="M64.9688 45.9374C61.4688 48.2811 56.5625 49.1561 52.0313 48.5624C53.2188 45.9999 53.8438 43.1562 53.875 40.1562C53.875 37.0312 53.1875 34.0624 51.875 31.4687C56.5 30.8437 61.4063 31.7186 64.9375 34.0624C69.875 37.3124 69.875 42.6561 64.9688 45.9374Z" fill="#2299F5"/>
<path opacity="0.4" d="M20.125 24.2813C20.3437 24.25 20.5625 24.25 20.7812 24.2813C25.625 24.125 29.4687 20.1562 29.4687 15.2812C29.4687 10.3125 25.4375 6.25 20.4375 6.25C15.4687 6.25 11.4062 10.2812 11.4062 15.2812C11.4375 20.1562 15.2812 24.125 20.125 24.2813Z" fill="#2299F5"/>
<path opacity="0.4" d="M20.4692 40.1562C20.4692 43.1874 21.1255 46.0624 22.313 48.6562C17.9067 49.1249 13.313 48.1874 9.93799 45.9687C5.00049 42.6874 5.00049 37.3436 9.93799 34.0624C13.2817 31.8124 18.0005 30.9061 22.438 31.4061C21.1567 34.0311 20.4692 36.9999 20.4692 40.1562Z" fill="#2299F5"/>
<path d="M37.875 49.5936C37.625 49.5624 37.3438 49.5624 37.0625 49.5936C31.3125 49.4061 26.7188 44.6874 26.7188 38.8749C26.7188 32.9374 31.5 28.1249 37.4688 28.1249C43.4063 28.1249 48.2188 32.9374 48.2188 38.8749C48.2188 44.6874 43.6562 49.4061 37.875 49.5936Z" fill="#2299F5"/>
<path d="M27.7183 56.0624C22.9995 59.2186 22.9995 64.4061 27.7183 67.5311C33.0933 71.1249 41.9058 71.1249 47.2808 67.5311C51.9995 64.3749 51.9995 59.1874 47.2808 56.0624C41.937 52.4686 33.1245 52.4686 27.7183 56.0624Z" fill="#2299F5"/>
</svg>
