<svg width="1920" height="1294" viewBox="0 0 1920 1294" fill="none" xmlns="http://www.w3.org/2000/svg">
<path opacity="0.2" d="M1920 262.867L1423.24 552.168L1041.34 331.88L1616.67 0H1531.34L998.4 306.986L474.545 0H389.211L955.642 331.88L590.811 544.466L0 198.044V247.339L972.708 814.635L808.716 909.62L0 439.467V489.255L765.988 934.484L140.891 1294H226.225L501.303 1137.83L641.493 1222.18L948.388 1043.15L1379.5 1294H1464.29L1358.63 1235.92L1523.5 1140.41L1793.89 1294H1877.33C1879.2 1293.99 1881.06 1293.86 1882.91 1293.6L1468.43 1057.23L1835.22 846.368L1919.88 894.277V844.089L1465.78 577.062L1919.88 312.624L1920 262.867ZM633.57 569.452L998.4 356.867L1380.33 577.155L1015.5 789.741L633.57 569.452ZM641.402 1171.78L544.183 1112.96L808.686 959.409L905.905 1018.22L641.402 1171.78ZM1480.96 1115.52L1316.14 1211.03L851.413 934.545L1015.5 839.498L1480.96 1115.52ZM1790.63 819.749L1425.8 1032.33L1058.26 814.635L1423.09 602.049L1790.63 819.749Z" fill="#2299F5"/>
</svg>
