<svg width="17" height="17" viewBox="0 0 17 17" fill="none" xmlns="http://www.w3.org/2000/svg">
<path opacity="0.4" fill-rule="evenodd" clip-rule="evenodd" d="M15.5833 10.0938C15.8767 10.0938 16.1146 10.3316 16.1146 10.625C16.1146 13.6597 13.6597 16.1146 10.625 16.1146C10.4336 16.1146 10.257 16.0116 10.1627 15.8451C10.0684 15.6785 10.071 15.4741 10.1695 15.31L10.9132 14.0704C11.0641 13.8188 11.3905 13.7373 11.6421 13.8882C11.8937 14.0392 11.9752 14.3655 11.8243 14.6171L11.6321 14.9374C13.5936 14.4823 15.0521 12.7263 15.0521 10.625C15.0521 10.3316 15.2899 10.0938 15.5833 10.0938Z" fill="#282828"/>
<path opacity="0.4" fill-rule="evenodd" clip-rule="evenodd" d="M5.36724 2.06262C3.4058 2.51768 1.94727 4.27367 1.94727 6.375C1.94727 6.6684 1.70942 6.90625 1.41602 6.90625C1.12261 6.90625 0.884766 6.6684 0.884766 6.375C0.884766 3.34035 3.3397 0.885418 6.37435 0.885418C6.56574 0.885418 6.74234 0.98837 6.83664 1.15492C6.93094 1.32147 6.92836 1.52587 6.82989 1.68999L6.08615 2.92957C5.9352 3.18117 5.60887 3.26275 5.35728 3.1118C5.10569 2.96084 5.02411 2.63452 5.17506 2.38293L5.36724 2.06262Z" fill="#282828"/>
<path opacity="0.4" d="M8.49935 11.1208V11.5529H1.41602V11.1208C1.41602 9.87417 1.72768 9.5625 2.98852 9.5625H6.92685C8.18768 9.5625 8.49935 9.87417 8.49935 11.1208Z" fill="#282828"/>
<path d="M1.41602 11.5529V12.6154V14.025C1.41602 15.2717 1.72768 15.5833 2.98852 15.5833H6.92685C8.18768 15.5833 8.49935 15.2717 8.49935 14.025V12.6154V11.5529H1.41602Z" fill="#282828"/>
<path opacity="0.4" d="M15.5833 2.975V3.40708H8.5V2.975C8.5 1.72833 8.81167 1.41667 10.0725 1.41667H14.0108C15.2717 1.41667 15.5833 1.72833 15.5833 2.975Z" fill="#282828"/>
<path d="M8.5 3.40708V4.46958V5.87916C8.5 7.12583 8.81167 7.4375 10.0725 7.4375H14.0108C15.2717 7.4375 15.5833 7.12583 15.5833 5.87916V4.46958V3.40708H8.5Z" fill="#282828"/>
</svg>
