<svg width="89" height="28" viewBox="0 0 89 28" fill="none" xmlns="http://www.w3.org/2000/svg">
<path d="M66.2655 9.82632H74.1063L77.787 13.8827L81.3312 9.82632H88.8985L81.5024 18.143L89 26.5274H81.127L77.4797 22.4377L73.8669 26.5274H66.2655L73.6968 18.1774L66.2655 9.82632ZM57.8489 9.82632H66.2655V15.4685H57.8489V20.6473H66.2655V26.5274H51.6627V0.21875H66.2655V6.08255H57.8489V9.82632Z" fill="#FF6600"/>
<path d="M45.5025 0.21875V10.9855H45.4347C44.0709 9.41796 42.367 8.87323 40.3899 8.87323C36.3401 8.87323 33.2894 11.6263 32.2186 15.2663C30.9974 11.2556 27.8479 8.79807 23.1778 8.79807C19.3852 8.79807 16.3904 10.5005 14.8275 13.2745V9.82671H6.98813V6.08333H15.543V0.21875H0V26.5278H6.98813V15.4685H13.9534C13.739 16.3185 13.632 17.192 13.6349 18.0686C13.6349 23.5566 17.8274 27.4073 23.1778 27.4073C27.6771 27.4073 30.6421 25.295 32.2104 21.4439H26.2219C25.4117 22.6008 24.7973 22.9444 23.1778 22.9444C21.2999 22.9444 19.6808 21.306 19.6808 19.3638H31.8749C32.4038 23.7228 35.7992 27.482 40.4589 27.482C42.4689 27.482 44.3092 26.4933 45.4347 24.8239H45.5025V26.527H51.6627V0.21875H45.5025ZM19.8753 15.5472C20.2639 13.8762 21.5599 12.784 23.1778 12.784C24.9588 12.784 26.1889 13.8425 26.5124 15.5472H19.8753ZM41.7641 22.5217C39.4934 22.5217 38.0824 20.406 38.0824 18.1968C38.0824 15.8354 39.3097 13.5647 41.7641 13.5647C44.3092 13.5647 45.3231 15.8354 45.3231 18.1968C45.3227 20.4362 44.2484 22.5217 41.7641 22.5217Z" fill="#652C8F"/>
</svg>
