<svg width="990" height="473" viewBox="0 0 990 473" fill="none" xmlns="http://www.w3.org/2000/svg">
<rect width="990" height="473" rx="8" fill="#FAFAFA"/>
<rect x="0.5" y="0.5" width="989" height="472" rx="7.5" stroke="#282828" stroke-opacity="0.1"/>
<path d="M779.88 417V415.528C780.424 415.528 780.931 415.427 781.4 415.224C781.869 415.011 782.28 414.717 782.632 414.344C782.995 413.96 783.272 413.517 783.464 413.016C783.667 412.515 783.768 411.976 783.768 411.4C783.768 410.824 783.667 410.285 783.464 409.784C783.272 409.283 782.995 408.845 782.632 408.472C782.28 408.088 781.869 407.795 781.4 407.592C780.931 407.379 780.424 407.272 779.88 407.272V405.8C780.947 405.8 781.891 406.04 782.712 406.52C783.544 406.989 784.195 407.645 784.664 408.488C785.133 409.331 785.368 410.301 785.368 411.4C785.368 412.488 785.133 413.453 784.664 414.296C784.195 415.139 783.544 415.8 782.712 416.28C781.891 416.76 780.947 417 779.88 417ZM777.56 417V415.528H779.88V417H777.56ZM776.424 417V405.8H777.992V417H776.424ZM777.56 407.272V405.8H779.88V407.272H777.56ZM795.071 417L790.639 405.8H792.239L796.751 417H795.071ZM786.047 417L790.559 405.8H792.159L787.727 417H786.047ZM788.175 414.008V412.6H794.623V414.008H788.175ZM801.767 417.192C801.17 417.192 800.626 417.123 800.135 416.984C799.655 416.845 799.234 416.659 798.871 416.424C798.519 416.179 798.226 415.907 797.991 415.608C797.756 415.309 797.591 414.995 797.495 414.664L799.015 414.168C799.175 414.605 799.479 414.984 799.927 415.304C800.375 415.624 800.924 415.789 801.575 415.8C802.364 415.8 802.983 415.645 803.431 415.336C803.89 415.016 804.119 414.595 804.119 414.072C804.119 413.592 803.922 413.203 803.527 412.904C803.132 412.595 802.61 412.36 801.959 412.2L800.663 411.864C800.151 411.725 799.682 411.528 799.255 411.272C798.839 411.016 798.508 410.691 798.263 410.296C798.018 409.901 797.895 409.427 797.895 408.872C797.895 407.848 798.226 407.048 798.887 406.472C799.559 405.896 800.524 405.608 801.783 405.608C802.508 405.608 803.138 405.725 803.671 405.96C804.204 406.184 804.642 406.483 804.983 406.856C805.335 407.229 805.586 407.64 805.735 408.088L804.215 408.6C804.034 408.12 803.724 407.736 803.287 407.448C802.85 407.149 802.311 407 801.671 407C800.999 407 800.466 407.16 800.071 407.48C799.687 407.8 799.495 408.237 799.495 408.792C799.495 409.261 799.644 409.624 799.943 409.88C800.252 410.125 800.663 410.312 801.175 410.44L802.471 410.76C803.516 411.016 804.322 411.443 804.887 412.04C805.463 412.627 805.751 413.272 805.751 413.976C805.751 414.584 805.596 415.133 805.287 415.624C804.988 416.104 804.54 416.488 803.943 416.776C803.356 417.053 802.631 417.192 801.767 417.192ZM815.388 417V405.8H816.956V417H815.388ZM807.788 417V405.8H809.356V417H807.788ZM809.1 411.96V410.52H815.884V411.96H809.1ZM820.587 417V415.576H823.611C824.273 415.576 824.785 415.421 825.147 415.112C825.521 414.792 825.707 414.365 825.707 413.832C825.707 413.235 825.494 412.771 825.067 412.44C824.651 412.109 824.065 411.949 823.307 411.96H820.587V410.664L822.523 410.68C823.505 410.68 824.353 410.797 825.067 411.032C825.793 411.267 826.347 411.624 826.731 412.104C827.115 412.584 827.307 413.187 827.307 413.912C827.307 414.563 827.158 415.123 826.859 415.592C826.571 416.051 826.161 416.403 825.627 416.648C825.094 416.883 824.454 417 823.707 417H820.587ZM819.643 417V405.8H821.195V417H819.643ZM820.555 412.008V410.616H823.499C824.075 410.616 824.529 410.461 824.859 410.152C825.201 409.843 825.371 409.416 825.371 408.872C825.371 408.307 825.179 407.869 824.795 407.56C824.411 407.251 823.873 407.101 823.179 407.112H820.555V405.816L823.243 405.784C824.011 405.784 824.667 405.907 825.211 406.152C825.766 406.387 826.193 406.733 826.491 407.192C826.801 407.651 826.955 408.216 826.955 408.888C826.955 409.485 826.785 410.013 826.443 410.472C826.113 410.931 825.638 411.288 825.019 411.544C824.401 411.8 823.67 411.928 822.827 411.928L820.555 412.008ZM834.113 417.192C833.025 417.192 832.059 416.947 831.217 416.456C830.374 415.965 829.713 415.283 829.233 414.408C828.763 413.533 828.529 412.531 828.529 411.4C828.529 410.269 828.763 409.272 829.233 408.408C829.713 407.533 830.369 406.851 831.201 406.36C832.033 405.859 832.993 405.608 834.081 405.608C835.169 405.608 836.129 405.859 836.961 406.36C837.793 406.851 838.443 407.533 838.913 408.408C839.382 409.272 839.617 410.269 839.617 411.4C839.617 412.531 839.382 413.533 838.913 414.408C838.443 415.283 837.793 415.965 836.961 416.456C836.139 416.947 835.19 417.192 834.113 417.192ZM834.113 415.752C834.881 415.752 835.558 415.565 836.145 415.192C836.731 414.819 837.19 414.307 837.521 413.656C837.851 413.005 838.017 412.253 838.017 411.4C838.017 410.557 837.846 409.811 837.505 409.16C837.174 408.499 836.71 407.981 836.113 407.608C835.526 407.235 834.849 407.048 834.081 407.048C833.313 407.048 832.63 407.235 832.033 407.608C831.435 407.981 830.966 408.499 830.625 409.16C830.294 409.811 830.129 410.557 830.129 411.4C830.129 412.253 830.299 413.005 830.641 413.656C830.982 414.307 831.451 414.819 832.049 415.192C832.657 415.565 833.345 415.752 834.113 415.752ZM849.317 417L844.885 405.8H846.485L850.997 417H849.317ZM840.293 417L844.805 405.8H846.405L841.973 417H840.293ZM842.421 414.008V412.6H848.869V414.008H842.421ZM853.854 412.712V411.272H856.318C856.702 411.272 857.043 411.187 857.342 411.016C857.651 410.835 857.896 410.595 858.078 410.296C858.27 409.987 858.366 409.64 858.366 409.256C858.366 408.659 858.158 408.173 857.742 407.8C857.326 407.427 856.787 407.24 856.126 407.24H853.854V405.8L856.174 405.784C856.92 405.773 857.576 405.917 858.142 406.216C858.718 406.515 859.166 406.925 859.486 407.448C859.816 407.971 859.982 408.573 859.982 409.256C859.982 409.928 859.806 410.525 859.454 411.048C859.112 411.571 858.643 411.981 858.046 412.28C857.448 412.568 856.776 412.712 856.03 412.712H853.854ZM852.398 417V405.8H853.966V417H852.398ZM858.654 417L855.998 412.424L857.246 411.592L860.43 417H858.654ZM865.788 417V415.528C866.332 415.528 866.838 415.427 867.308 415.224C867.777 415.011 868.188 414.717 868.54 414.344C868.902 413.96 869.18 413.517 869.372 413.016C869.574 412.515 869.676 411.976 869.676 411.4C869.676 410.824 869.574 410.285 869.372 409.784C869.18 409.283 868.902 408.845 868.54 408.472C868.188 408.088 867.777 407.795 867.308 407.592C866.838 407.379 866.332 407.272 865.788 407.272V405.8C866.854 405.8 867.798 406.04 868.62 406.52C869.452 406.989 870.102 407.645 870.572 408.488C871.041 409.331 871.276 410.301 871.276 411.4C871.276 412.488 871.041 413.453 870.572 414.296C870.102 415.139 869.452 415.8 868.62 416.28C867.798 416.76 866.854 417 865.788 417ZM863.468 417V415.528H865.788V417H863.468ZM862.332 417V405.8H863.9V417H862.332ZM863.468 407.272V405.8H865.788V407.272H863.468ZM876.98 417V405.8H878.548V417H876.98ZM886.602 413.944L881.418 406.312L882.09 406.024L882.906 405.8L887.386 412.44L886.602 413.944ZM881.242 417V405.8H882.81V417H881.242ZM886.602 413.944L885.834 412.44L890.314 405.8L891.13 406.024L891.786 406.296L886.602 413.944ZM890.41 417V405.8H891.978V417H890.41ZM902.404 417L897.972 405.8H899.572L904.084 417H902.404ZM893.38 417L897.892 405.8H899.492L895.06 417H893.38ZM895.508 414.008V412.6H901.956V414.008H895.508ZM910.104 417.192C908.973 417.192 907.965 416.947 907.08 416.456C906.205 415.955 905.517 415.272 905.016 414.408C904.525 413.533 904.28 412.536 904.28 411.416C904.28 410.275 904.525 409.272 905.016 408.408C905.517 407.533 906.205 406.851 907.08 406.36C907.965 405.859 908.973 405.608 910.104 405.608C910.723 405.608 911.315 405.709 911.88 405.912C912.456 406.104 912.973 406.376 913.432 406.728C913.901 407.069 914.28 407.464 914.568 407.912L913.304 408.744C913.091 408.413 912.813 408.12 912.472 407.864C912.131 407.608 911.752 407.411 911.336 407.272C910.931 407.123 910.52 407.048 910.104 407.048C909.283 407.048 908.552 407.235 907.912 407.608C907.283 407.981 906.787 408.493 906.424 409.144C906.061 409.795 905.88 410.552 905.88 411.416C905.88 412.259 906.056 413.005 906.408 413.656C906.771 414.307 907.272 414.819 907.912 415.192C908.563 415.565 909.304 415.752 910.136 415.752C910.808 415.752 911.405 415.613 911.928 415.336C912.461 415.059 912.877 414.669 913.176 414.168C913.485 413.667 913.64 413.085 913.64 412.424L915.16 412.28C915.16 413.272 914.941 414.136 914.504 414.872C914.077 415.608 913.485 416.179 912.728 416.584C911.971 416.989 911.096 417.192 910.104 417.192ZM910.92 412.52V411.208H915.16V412.36L914.36 412.52H910.92ZM916.95 417V405.8H918.518V417H916.95ZM918.262 417V415.56H923.718V417H918.262ZM918.262 411.976V410.568H923.174V411.976H918.262ZM918.262 407.24V405.8H923.686V407.24H918.262ZM937.589 417V405.8H939.157V417H937.589ZM929.989 417V405.8H931.557V417H929.989ZM931.301 411.96V410.52H938.085V411.96H931.301ZM941.845 417V405.8H943.413V417H941.845ZM943.157 417V415.56H948.613V417H943.157ZM943.157 411.976V410.568H948.069V411.976H943.157ZM943.157 407.24V405.8H948.581V407.24H943.157ZM952.594 412.712V411.272H955.058C955.442 411.272 955.783 411.187 956.082 411.016C956.391 410.835 956.636 410.595 956.818 410.296C957.01 409.987 957.106 409.64 957.106 409.256C957.106 408.659 956.898 408.173 956.482 407.8C956.066 407.427 955.527 407.24 954.866 407.24H952.594V405.8L954.914 405.784C955.66 405.773 956.316 405.917 956.882 406.216C957.458 406.515 957.906 406.925 958.226 407.448C958.556 407.971 958.722 408.573 958.722 409.256C958.722 409.928 958.546 410.525 958.194 411.048C957.852 411.571 957.383 411.981 956.786 412.28C956.188 412.568 955.516 412.712 954.77 412.712H952.594ZM951.138 417V405.8H952.706V417H951.138ZM957.394 417L954.738 412.424L955.986 411.592L959.17 417H957.394ZM961.072 417V405.8H962.64V417H961.072ZM962.384 417V415.56H967.84V417H962.384ZM962.384 411.976V410.568H967.296V411.976H962.384ZM962.384 407.24V405.8H967.808V407.24H962.384Z" fill="black"/>
<path d="M816.352 441.192C815.776 441.192 815.253 441.107 814.784 440.936C814.315 440.765 813.92 440.531 813.6 440.232C813.28 439.933 813.035 439.608 812.864 439.256L814.224 438.632C814.331 438.781 814.464 438.952 814.624 439.144C814.784 439.325 814.997 439.48 815.264 439.608C815.531 439.736 815.861 439.8 816.256 439.8C816.928 439.8 817.461 439.608 817.856 439.224C818.261 438.84 818.464 438.355 818.464 437.768C818.464 437.331 818.347 436.963 818.112 436.664C817.877 436.355 817.531 436.12 817.072 435.96C816.624 435.8 816.075 435.72 815.424 435.72H815.024V434.536H815.392C816.053 434.536 816.661 434.611 817.216 434.76C817.781 434.909 818.277 435.133 818.704 435.432C819.131 435.72 819.461 436.072 819.696 436.488C819.931 436.904 820.048 437.379 820.048 437.912C820.048 438.573 819.877 439.155 819.536 439.656C819.205 440.147 818.757 440.525 818.192 440.792C817.637 441.059 817.024 441.192 816.352 441.192ZM815.024 435.528V434.392H815.424C816.299 434.392 816.981 434.243 817.472 433.944C817.963 433.645 818.208 433.224 818.208 432.68C818.208 432.371 818.123 432.093 817.952 431.848C817.792 431.592 817.563 431.389 817.264 431.24C816.976 431.08 816.629 431 816.224 431C815.968 431 815.717 431.043 815.472 431.128C815.237 431.203 815.019 431.32 814.816 431.48C814.613 431.629 814.437 431.827 814.288 432.072L812.976 431.48C813.157 431.085 813.413 430.749 813.744 430.472C814.075 430.195 814.459 429.981 814.896 429.832C815.333 429.683 815.797 429.608 816.288 429.608C816.96 429.608 817.557 429.736 818.08 429.992C818.603 430.248 819.013 430.6 819.312 431.048C819.621 431.496 819.776 432.003 819.776 432.568C819.776 433.048 819.659 433.475 819.424 433.848C819.2 434.211 818.885 434.52 818.48 434.776C818.075 435.021 817.605 435.208 817.072 435.336C816.549 435.464 815.984 435.528 815.376 435.528H815.024ZM829.216 441V439.528C829.76 439.528 830.267 439.427 830.736 439.224C831.206 439.011 831.616 438.717 831.968 438.344C832.331 437.96 832.608 437.517 832.8 437.016C833.003 436.515 833.104 435.976 833.104 435.4C833.104 434.824 833.003 434.285 832.8 433.784C832.608 433.283 832.331 432.845 831.968 432.472C831.616 432.088 831.206 431.795 830.736 431.592C830.267 431.379 829.76 431.272 829.216 431.272V429.8C830.283 429.8 831.227 430.04 832.048 430.52C832.88 430.989 833.531 431.645 834 432.488C834.47 433.331 834.704 434.301 834.704 435.4C834.704 436.488 834.47 437.453 834 438.296C833.531 439.139 832.88 439.8 832.048 440.28C831.227 440.76 830.283 441 829.216 441ZM826.896 441V439.528H829.216V441H826.896ZM825.76 441V429.8H827.328V441H825.76ZM826.896 431.272V429.8H829.216V431.272H826.896ZM836.663 441V429.8H838.231V441H836.663ZM840.925 441V429.8H842.493V441H840.925ZM842.285 436.2V434.76H847.037V436.2H842.285ZM842.285 431.24V429.8H847.709V431.24H842.285ZM849.499 441V429.8H851.067V441H849.499ZM850.859 436.2V434.76H855.611V436.2H850.859ZM850.859 431.24V429.8H856.283V431.24H850.859ZM858.073 441V429.8H859.641V441H858.073ZM859.385 441V439.56H864.841V441H859.385ZM859.385 435.976V434.568H864.297V435.976H859.385ZM859.385 431.24V429.8H864.809V431.24H859.385ZM868.823 436.712V435.272H871.287C871.671 435.272 872.012 435.187 872.311 435.016C872.62 434.835 872.865 434.595 873.047 434.296C873.239 433.987 873.335 433.64 873.335 433.256C873.335 432.659 873.127 432.173 872.711 431.8C872.295 431.427 871.756 431.24 871.095 431.24H868.823V429.8L871.143 429.784C871.889 429.773 872.545 429.917 873.111 430.216C873.687 430.515 874.135 430.925 874.455 431.448C874.785 431.971 874.951 432.573 874.951 433.256C874.951 433.928 874.775 434.525 874.423 435.048C874.081 435.571 873.612 435.981 873.015 436.28C872.417 436.568 871.745 436.712 870.999 436.712H868.823ZM867.367 441V429.8H868.935V441H867.367ZM873.623 441L870.967 436.424L872.215 435.592L875.399 441H873.623ZM877.3 441V429.8H878.868V441H877.3ZM878.612 441V439.56H884.068V441H878.612ZM878.612 435.976V434.568H883.524V435.976H878.612ZM878.612 431.24V429.8H884.036V431.24H878.612ZM894.545 441L886.961 430.68L888.209 429.8L895.793 440.104L894.545 441ZM886.593 441V429.8H888.209L888.161 431.112V441H886.593ZM894.545 441V429.8H896.129V441H894.545ZM901.096 441V430.728H902.68V441H901.096ZM897.592 431.24V429.8H906.184V431.24H897.592ZM911.379 441V429.8H912.947V441H911.379ZM921.001 437.944L915.817 430.312L916.489 430.024L917.305 429.8L921.785 436.44L921.001 437.944ZM915.641 441V429.8H917.209V441H915.641ZM921.001 437.944L920.233 436.44L924.713 429.8L925.529 430.024L926.185 430.296L921.001 437.944ZM924.809 441V429.8H926.377V441H924.809ZM936.803 441L932.371 429.8H933.971L938.483 441H936.803ZM927.779 441L932.291 429.8H933.891L929.459 441H927.779ZM929.907 438.008V436.6H936.355V438.008H929.907ZM944.503 441.192C943.372 441.192 942.364 440.947 941.479 440.456C940.604 439.955 939.916 439.272 939.415 438.408C938.924 437.533 938.679 436.536 938.679 435.416C938.679 434.275 938.924 433.272 939.415 432.408C939.916 431.533 940.604 430.851 941.479 430.36C942.364 429.859 943.372 429.608 944.503 429.608C945.121 429.608 945.713 429.709 946.279 429.912C946.855 430.104 947.372 430.376 947.831 430.728C948.3 431.069 948.679 431.464 948.967 431.912L947.703 432.744C947.489 432.413 947.212 432.12 946.871 431.864C946.529 431.608 946.151 431.411 945.735 431.272C945.329 431.123 944.919 431.048 944.503 431.048C943.681 431.048 942.951 431.235 942.311 431.608C941.681 431.981 941.185 432.493 940.823 433.144C940.46 433.795 940.279 434.552 940.279 435.416C940.279 436.259 940.455 437.005 940.807 437.656C941.169 438.307 941.671 438.819 942.311 439.192C942.961 439.565 943.703 439.752 944.535 439.752C945.207 439.752 945.804 439.613 946.327 439.336C946.86 439.059 947.276 438.669 947.575 438.168C947.884 437.667 948.039 437.085 948.039 436.424L949.559 436.28C949.559 437.272 949.34 438.136 948.903 438.872C948.476 439.608 947.884 440.179 947.127 440.584C946.369 440.989 945.495 441.192 944.503 441.192ZM945.319 436.52V435.208H949.559V436.36L948.759 436.52H945.319ZM951.348 441V429.8H952.916V441H951.348ZM952.66 441V439.56H958.116V441H952.66ZM952.66 435.976V434.568H957.572V435.976H952.66ZM952.66 431.24V429.8H958.084V431.24H952.66ZM964.257 441.192C963.66 441.192 963.116 441.123 962.625 440.984C962.145 440.845 961.724 440.659 961.361 440.424C961.009 440.179 960.716 439.907 960.481 439.608C960.247 439.309 960.081 438.995 959.985 438.664L961.505 438.168C961.665 438.605 961.969 438.984 962.417 439.304C962.865 439.624 963.415 439.789 964.065 439.8C964.855 439.8 965.473 439.645 965.921 439.336C966.38 439.016 966.609 438.595 966.609 438.072C966.609 437.592 966.412 437.203 966.017 436.904C965.623 436.595 965.1 436.36 964.449 436.2L963.153 435.864C962.641 435.725 962.172 435.528 961.745 435.272C961.329 435.016 960.999 434.691 960.753 434.296C960.508 433.901 960.385 433.427 960.385 432.872C960.385 431.848 960.716 431.048 961.377 430.472C962.049 429.896 963.015 429.608 964.273 429.608C964.999 429.608 965.628 429.725 966.161 429.96C966.695 430.184 967.132 430.483 967.473 430.856C967.825 431.229 968.076 431.64 968.225 432.088L966.705 432.6C966.524 432.12 966.215 431.736 965.777 431.448C965.34 431.149 964.801 431 964.161 431C963.489 431 962.956 431.16 962.561 431.48C962.177 431.8 961.985 432.237 961.985 432.792C961.985 433.261 962.135 433.624 962.433 433.88C962.743 434.125 963.153 434.312 963.665 434.44L964.961 434.76C966.007 435.016 966.812 435.443 967.377 436.04C967.953 436.627 968.241 437.272 968.241 437.976C968.241 438.584 968.087 439.133 967.777 439.624C967.479 440.104 967.031 440.488 966.433 440.776C965.847 441.053 965.121 441.192 964.257 441.192Z" fill="black"/>
</svg>
