<svg width="41" height="41" viewBox="0 0 41 41" fill="none" xmlns="http://www.w3.org/2000/svg">
<rect width="41" height="41" rx="6.30769" fill="#0393FB"/>
<path opacity="0.4" d="M29.5 18.69H26.61C24.24 18.69 22.31 16.76 22.31 14.39V11.5C22.31 10.95 21.86 10.5 21.31 10.5H17.07C13.99 10.5 11.5 12.5 11.5 16.07V24.93C11.5 28.5 13.99 30.5 17.07 30.5H24.93C28.01 30.5 30.5 28.5 30.5 24.93V19.69C30.5 19.14 30.05 18.69 29.5 18.69Z" fill="white"/>
<path d="M24.8001 10.7105C24.3901 10.3005 23.6801 10.5805 23.6801 11.1505V14.6405C23.6801 16.1005 24.9201 17.3105 26.4301 17.3105C27.3801 17.3205 28.7001 17.3205 29.8301 17.3205C30.4001 17.3205 30.7001 16.6505 30.3001 16.2505C28.8601 14.8005 26.2801 12.1905 24.8001 10.7105Z" fill="white"/>
<path d="M22.5 22.25H16.5C16.09 22.25 15.75 21.91 15.75 21.5C15.75 21.09 16.09 20.75 16.5 20.75H22.5C22.91 20.75 23.25 21.09 23.25 21.5C23.25 21.91 22.91 22.25 22.5 22.25Z" fill="white"/>
<path d="M20.5 26.25H16.5C16.09 26.25 15.75 25.91 15.75 25.5C15.75 25.09 16.09 24.75 16.5 24.75H20.5C20.91 24.75 21.25 25.09 21.25 25.5C21.25 25.91 20.91 26.25 20.5 26.25Z" fill="white"/>
</svg>
