<svg width="347" height="231" viewBox="0 0 347 231" fill="none" xmlns="http://www.w3.org/2000/svg">
<path d="M23.033 138.673L4.91175 128.788L61.6551 45.8699L76.6646 59.9643L23.033 138.673ZM4.91175 148.74V128.788L19.0061 127.324H110.528V148.74H4.91175ZM64.5837 174V59.5982L61.8381 45.8699H88.1963V174H64.5837ZM173.46 176.197C163.088 176.197 153.935 173.39 146.004 167.777C138.072 162.041 131.848 154.231 127.333 144.347C122.818 134.341 120.561 122.87 120.561 109.935C120.561 96.9999 122.818 85.5903 127.333 75.706C131.848 65.6996 138.011 57.8898 145.82 52.2765C153.752 46.5411 162.904 43.6734 173.277 43.6734C183.649 43.6734 192.801 46.5411 200.733 52.2765C208.787 57.8898 215.072 65.6996 219.587 75.706C224.102 85.5903 226.359 96.9999 226.359 109.935C226.359 122.87 224.102 134.341 219.587 144.347C215.072 154.231 208.848 162.041 200.916 167.777C192.985 173.39 183.832 176.197 173.46 176.197ZM173.46 153.499C178.951 153.499 183.832 151.669 188.103 148.008C192.496 144.225 195.913 139.1 198.354 132.632C200.794 126.043 202.015 118.477 202.015 109.935C202.015 101.393 200.794 93.8272 198.354 87.2376C195.913 80.6481 192.496 75.5229 188.103 71.862C183.832 68.0792 178.89 66.1877 173.277 66.1877C167.786 66.1877 162.904 68.0792 158.633 71.862C154.362 75.5229 151.007 80.6481 148.566 87.2376C146.248 93.8272 145.088 101.393 145.088 109.935C145.088 118.477 146.248 126.043 148.566 132.632C151.007 139.1 154.362 144.225 158.633 148.008C163.027 151.669 167.969 153.499 173.46 153.499ZM253.896 138.673L235.775 128.788L292.518 45.8699L307.527 59.9643L253.896 138.673ZM235.775 148.74V128.788L249.869 127.324H341.39V148.74H235.775ZM295.447 174V59.5982L292.701 45.8699H319.059V174H295.447Z" fill="#0066AF"/>
<path d="M23.033 149.222L4.91175 139.338L61.6551 56.4193L76.6646 70.5136L23.033 149.222ZM4.91175 159.289V139.338L19.0061 137.873H110.528V159.289H4.91175ZM64.5837 184.549V70.1475L61.8381 56.4193H88.1963V184.549H64.5837ZM173.46 186.746C163.088 186.746 153.935 183.939 146.004 178.326C138.072 172.591 131.848 164.781 127.333 154.896C122.818 144.89 120.561 133.419 120.561 120.484C120.561 107.549 122.818 96.1396 127.333 86.2553C131.848 76.2489 138.011 68.4391 145.82 62.8258C153.752 57.0904 162.904 54.2228 173.277 54.2228C183.649 54.2228 192.801 57.0904 200.733 62.8258C208.787 68.4391 215.072 76.2489 219.587 86.2553C224.102 96.1396 226.359 107.549 226.359 120.484C226.359 133.419 224.102 144.89 219.587 154.896C215.072 164.781 208.848 172.591 200.916 178.326C192.985 183.939 183.832 186.746 173.46 186.746ZM173.46 164.049C178.951 164.049 183.832 162.218 188.103 158.557C192.496 154.774 195.913 149.649 198.354 143.182C200.794 136.592 202.015 129.026 202.015 120.484C202.015 111.942 200.794 104.377 198.354 97.787C195.913 91.1974 192.496 86.0722 188.103 82.4114C183.832 78.6285 178.89 76.737 173.277 76.737C167.786 76.737 162.904 78.6285 158.633 82.4114C154.362 86.0722 151.007 91.1974 148.566 97.787C146.248 104.377 145.088 111.942 145.088 120.484C145.088 129.026 146.248 136.592 148.566 143.182C151.007 149.649 154.362 154.774 158.633 158.557C163.027 162.218 167.969 164.049 173.46 164.049ZM253.896 149.222L235.775 139.338L292.518 56.4193L307.527 70.5136L253.896 149.222ZM235.775 159.289V139.338L249.869 137.873H341.39V159.289H235.775ZM295.447 184.549V70.1475L292.701 56.4193H319.059V184.549H295.447Z" fill="#0393FB"/>
</svg>
