<svg width="145" height="46" viewBox="0 0 145 46" fill="none" xmlns="http://www.w3.org/2000/svg">
<path d="M108.057 25.5732V16.4037H94.3799V10.3215H108.057V0.79248H84.3286V43.5425H108.057V33.9874H94.3799V25.5732H108.057Z" fill="#FF5900"/>
<path d="M126.779 22.9961L120.798 16.4037H108.057L120.133 29.9741L108.057 43.5425H120.41L126.281 36.8979L132.207 43.5425H145L132.817 29.9179L144.835 16.4037H132.538L126.779 22.9961Z" fill="#FF5900"/>
<path d="M74.3197 0.79248V18.2878H74.2093C71.9917 15.7408 69.2238 14.855 66.012 14.855C59.4316 14.855 54.4743 19.3303 52.7348 25.2438C50.7482 18.7277 45.6302 14.7325 38.0415 14.7325C31.879 14.7325 27.0121 17.4984 24.4731 22.0058V16.4037H11.7343V10.3215H25.6361V0.79248H0.379395V43.5425H11.7343V25.5732H23.053C22.7156 26.8929 22.5348 28.3069 22.5348 29.7994C22.5348 38.7158 29.3481 44.9747 38.0415 44.9747C45.353 44.9747 50.1718 41.5419 52.7187 35.285H42.9868C41.6712 37.1671 40.6729 37.7235 38.0415 37.7235C34.9904 37.7235 32.3591 35.062 32.3591 31.9064H52.1744C53.0341 38.9889 58.5518 45.0972 66.1224 45.0972C69.3885 45.0972 72.3794 43.4903 74.2073 40.7786H74.3177V43.5466H84.3268V0.79248H74.3197ZM32.6764 25.6997C33.3072 22.984 35.4142 21.2104 38.0436 21.2104C40.938 21.2104 42.9366 22.9298 43.4629 25.6997C43.6838 25.6997 32.6764 25.6997 32.6764 25.6997ZM68.2436 37.0345C64.5537 37.0345 62.2598 33.5957 62.2598 30.0063C62.2598 26.1697 64.2544 22.4799 68.2436 22.4799C72.3794 22.4799 74.0265 26.1697 74.0265 30.0063C74.0265 33.6439 72.281 37.0345 68.2436 37.0345Z" fill="white"/>
</svg>
