<svg width="43" height="38" viewBox="0 0 43 38" fill="none" xmlns="http://www.w3.org/2000/svg">
<path d="M4.44516 20.9647V4.93122L4.83203 2.91092H8.09889L8.05591 20.9647H4.44516ZM0.662476 8.84286V5.40406C1.29292 5.43272 1.98068 5.20346 2.72576 4.7163C3.49949 4.20048 4.20158 3.59868 4.83203 2.91092L7.23919 5.23212C6.15024 6.4357 5.07561 7.36704 4.01531 8.02615C2.95501 8.6566 1.8374 8.92883 0.662476 8.84286Z" fill="#0393FB"/>
<path d="M11.4195 36.6112L23.2834 0.890625H27.9687L16.1908 36.6112H11.4195Z" fill="#0393FB"/>
<path d="M33.3865 35.0638L29.6468 34.5479C29.6468 34.0321 29.8045 33.4876 30.1197 32.9145C30.4636 32.3127 30.9221 31.6966 31.4952 31.0662C32.0683 30.4357 32.7274 29.8626 33.4725 29.3467L36.0086 27.5844C36.5245 27.2118 37.0259 26.7676 37.5131 26.2518C38.0003 25.7073 38.2439 25.1629 38.2439 24.6184C38.2439 23.9879 38.0146 23.4721 37.5561 23.0709C37.0976 22.6411 36.4385 22.4261 35.5788 22.4261C34.8624 22.4261 34.2749 22.6411 33.8164 23.0709C33.3579 23.4721 33.0427 23.9593 32.8707 24.5324L28.9591 23.8876C29.131 22.9993 29.5036 22.1826 30.0767 21.4375C30.6785 20.6924 31.4379 20.0906 32.3549 19.6321C33.3006 19.1736 34.3609 18.9444 35.5358 18.9444C37.5704 18.9444 39.1752 19.4745 40.3501 20.5348C41.5251 21.5664 42.1125 22.9133 42.1125 24.5754C42.1125 25.7503 41.7973 26.7676 41.1668 27.6273C40.5364 28.4584 39.6767 29.2608 38.5877 30.0345L36.1376 31.7969C35.7364 32.0835 35.3352 32.4273 34.934 32.8285C34.5328 33.2297 34.1889 33.6166 33.9024 33.9891C33.6158 34.3903 33.4439 34.7485 33.3865 35.0638ZM29.6468 37.299V34.5479L32.4839 33.9462H42.3274V37.299H29.6468Z" fill="#0393FB"/>
</svg>
