<svg width="1068" height="831" viewBox="0 0 1068 831" fill="none" xmlns="http://www.w3.org/2000/svg">
<g clip-path="url(#clip0_6_2721)">
<path d="M431.816 643.185C406.86 643.185 384.401 625.861 378.87 600.492C372.494 571.221 391.052 542.324 420.329 535.947C494.015 519.782 561.275 482.182 613.641 427.879C640.5 399.912 662.895 367.978 680.039 333.198C714.418 263.625 726.721 185.21 715.302 108.451C710.859 78.8377 731.268 51.1981 760.894 46.7559C790.52 42.3137 818.15 62.7251 822.591 92.3515C829.975 141.617 829.753 191.726 821.933 240.924C814.208 289.666 799.163 336.961 777.31 381.208C732.115 472.883 659.178 547.982 568.863 595.835C529.355 616.872 487.144 632.385 443.415 641.938C439.605 642.769 435.716 643.186 431.816 643.185Z" fill="url(#paint0_radial_6_2721)"/>
<path d="M339.423 653.07C319.15 653.07 298.896 651.8 278.782 649.267C182.596 637.018 92.1943 596.553 18.9826 532.978C-3.61496 513.312 -5.99145 479.051 13.672 456.454C33.3353 433.856 67.5981 431.477 90.198 451.14C147.175 500.583 217.505 532.066 292.335 541.627C330.809 546.464 369.799 545.349 407.934 538.323C445.735 531.384 482.272 518.776 516.306 500.924C550.612 482.959 581.956 459.834 609.244 432.358C630.346 411.096 664.69 410.97 685.95 432.074C707.21 453.18 707.336 487.523 686.231 508.783C651.133 544.136 610.813 573.888 566.682 597C522.98 619.927 476.064 636.119 427.523 645.028C398.461 650.373 368.972 653.065 339.423 653.07Z" fill="url(#paint1_radial_6_2721)"/>
<path d="M532.544 434.739C524.897 434.751 517.335 433.141 510.355 430.016C503.376 426.891 497.138 422.322 492.053 416.61C472.108 394.258 474.06 359.97 496.411 340.025C532.644 307.681 557.952 264.893 568.843 217.56C579.736 170.228 575.676 120.683 557.225 75.7544C545.873 48.0362 559.118 16.3549 586.839 4.99053C614.559 -6.37385 646.238 6.88286 657.603 34.6042C672.69 71.3114 681.278 110.362 682.983 150.013C684.758 191.099 679.144 231.909 666.294 271.307C647.575 328.965 613.876 380.616 568.641 420.973C558.716 429.853 545.862 434.754 532.544 434.739Z" fill="url(#paint2_radial_6_2721)"/>
<path d="M339.382 508.335C289.66 508.36 240.531 497.533 195.425 476.609C168.247 464.008 156.434 431.765 169.02 404.584C181.606 377.404 213.868 365.593 241.045 378.179C259.426 386.703 278.838 392.8 298.791 396.315C340.586 403.595 383.568 399.529 423.255 384.539C442.407 377.272 460.519 367.518 477.126 355.527C510.071 331.706 536.322 299.797 553.347 262.879C565.875 235.669 598.09 223.761 625.3 236.298C652.51 248.835 664.412 281.044 651.88 308.254C627.034 362.134 588.723 408.703 540.643 443.469C516.327 461.034 489.807 475.325 461.765 485.974C432.773 496.96 402.43 503.978 371.56 506.838C360.839 507.838 350.113 508.336 339.382 508.335Z" fill="url(#paint3_radial_6_2721)"/>
</g>
<g filter="url(#filter0_d_6_2721)">
<g clip-path="url(#clip1_6_2721)">
<rect x="219" y="119.188" width="1079" height="660.888" rx="8.42969" fill="white"/>
<rect x="219" y="163.865" width="1079" height="616.21" fill="white"/>
<g filter="url(#filter1_di_6_2721)">
<path d="M219 127.617C219 122.962 222.774 119.188 227.43 119.188H1289.57C1294.23 119.188 1298 122.962 1298 127.617V163.865H219V127.617Z" fill="white"/>
<g clip-path="url(#clip2_6_2721)">
<path d="M348.197 146.995L342.648 141.579C342.515 141.446 342.445 141.285 342.445 141.11C342.445 140.928 342.522 140.753 342.655 140.641L348.197 135.218C348.316 135.099 348.47 135.029 348.652 135.029C349.016 135.029 349.289 135.309 349.289 135.673C349.289 135.841 349.219 136.009 349.107 136.128L344.013 141.11L349.107 146.092C349.219 146.211 349.289 146.372 349.289 146.547C349.289 146.911 349.016 147.184 348.652 147.184C348.47 147.184 348.316 147.114 348.197 146.995Z" fill="#737373"/>
<path d="M370.9 147.191C371.082 147.191 371.236 147.121 371.355 147.002L376.904 141.579C377.037 141.446 377.107 141.285 377.107 141.11C377.107 140.928 377.037 140.76 376.904 140.641L371.362 135.225C371.236 135.099 371.082 135.029 370.9 135.029C370.536 135.029 370.263 135.309 370.263 135.673C370.263 135.841 370.333 136.009 370.445 136.128L375.539 141.11L370.445 146.092C370.333 146.211 370.263 146.372 370.263 146.547C370.263 146.911 370.536 147.191 370.9 147.191Z" fill="#BFBFBF"/>
</g>
<path d="M304.409 147.563H316.515C317.984 147.563 318.712 146.835 318.712 145.394V136.85C318.712 135.408 317.984 134.681 316.515 134.681H304.409C302.947 134.681 302.212 135.401 302.212 136.85V145.394C302.212 146.842 302.947 147.563 304.409 147.563ZM304.423 146.436C303.724 146.436 303.339 146.065 303.339 145.338V136.906C303.339 136.178 303.724 135.807 304.423 135.807H307.544V146.436H304.423ZM316.501 135.807C317.194 135.807 317.585 136.178 317.585 136.906V145.338C317.585 146.065 317.194 146.436 316.501 146.436H308.643V135.807H316.501ZM306.194 138.403C306.411 138.403 306.593 138.214 306.593 138.011C306.593 137.801 306.411 137.62 306.194 137.62H304.696C304.486 137.62 304.298 137.801 304.298 138.011C304.298 138.214 304.486 138.403 304.696 138.403H306.194ZM306.194 140.216C306.411 140.216 306.593 140.027 306.593 139.817C306.593 139.607 306.411 139.432 306.194 139.432H304.696C304.486 139.432 304.298 139.607 304.298 139.817C304.298 140.027 304.486 140.216 304.696 140.216H306.194ZM306.194 142.021C306.411 142.021 306.593 141.846 306.593 141.636C306.593 141.426 306.411 141.244 306.194 141.244H304.696C304.486 141.244 304.298 141.426 304.298 141.636C304.298 141.846 304.486 142.021 304.696 142.021H306.194Z" fill="#737373"/>
<g filter="url(#filter2_i_6_2721)">
<path fill-rule="evenodd" clip-rule="evenodd" d="M241.76 146.163C244.554 146.163 246.818 143.898 246.818 141.105C246.818 138.311 244.554 136.047 241.76 136.047C238.967 136.047 236.702 138.311 236.702 141.105C236.702 143.898 238.967 146.163 241.76 146.163Z" fill="#EE6A5F"/>
</g>
<path d="M246.607 141.105C246.607 143.782 244.437 145.952 241.76 145.952C239.083 145.952 236.913 143.782 236.913 141.105C236.913 138.428 239.083 136.258 241.76 136.258C244.437 136.258 246.607 138.428 246.607 141.105Z" stroke="#CE5347" stroke-width="0.421484"/>
<g filter="url(#filter3_i_6_2721)">
<path fill-rule="evenodd" clip-rule="evenodd" d="M258.62 146.163C261.413 146.163 263.677 143.898 263.677 141.105C263.677 138.311 261.413 136.047 258.62 136.047C255.826 136.047 253.562 138.311 253.562 141.105C253.562 143.898 255.826 146.163 258.62 146.163Z" fill="#F5BD4F"/>
</g>
<path d="M263.467 141.105C263.467 143.782 261.297 145.952 258.62 145.952C255.943 145.952 253.773 143.782 253.773 141.105C253.773 138.428 255.943 136.258 258.62 136.258C261.297 136.258 263.467 138.428 263.467 141.105Z" stroke="#D6A243" stroke-width="0.421484"/>
<g filter="url(#filter4_i_6_2721)">
<path fill-rule="evenodd" clip-rule="evenodd" d="M275.479 146.163C278.272 146.163 280.537 143.898 280.537 141.105C280.537 138.311 278.272 136.047 275.479 136.047C272.686 136.047 270.421 138.311 270.421 141.105C270.421 143.898 272.686 146.163 275.479 146.163Z" fill="#61C454"/>
</g>
<path d="M280.326 141.105C280.326 143.782 278.156 145.952 275.479 145.952C272.802 145.952 270.632 143.782 270.632 141.105C270.632 138.428 272.802 136.258 275.479 136.258C278.156 136.258 280.326 138.428 280.326 141.105Z" stroke="#58A942" stroke-width="0.421484"/>
<g clip-path="url(#clip3_6_2721)">
<path d="M519.518 148.367C519.63 148.367 519.812 148.325 519.987 148.227C523.969 145.995 525.333 145.05 525.333 142.496V137.143C525.333 136.409 525.018 136.178 524.424 135.926C523.598 135.583 520.932 134.624 520.106 134.337C519.917 134.274 519.714 134.232 519.518 134.232C519.323 134.232 519.12 134.288 518.938 134.337C518.112 134.575 515.439 135.59 514.613 135.926C514.026 136.171 513.704 136.409 513.704 137.143V142.496C513.704 145.05 515.075 145.988 519.05 148.227C519.232 148.325 519.406 148.367 519.518 148.367ZM519.798 135.422C520.855 135.842 522.905 136.584 523.99 136.954C524.179 137.024 524.221 137.122 524.221 137.36V142.237C524.221 144.399 523.185 144.966 519.952 146.933C519.749 147.058 519.637 147.093 519.525 147.1V135.359C519.595 135.359 519.686 135.38 519.798 135.422Z" fill="#737373"/>
<rect x="541.014" y="129.303" width="434.972" height="23.6031" rx="5.05781" fill="black" fill-opacity="0.05"/>
<g clip-path="url(#clip4_6_2721)">
<path d="M700.12 145.923H704.822C705.459 145.923 705.771 145.607 705.771 144.915V141.29C705.771 140.667 705.514 140.346 704.985 140.292V139.047C704.985 137.185 703.765 136.286 702.471 136.286C701.177 136.286 699.957 137.185 699.957 139.047V140.317C699.473 140.391 699.172 140.707 699.172 141.29V144.915C699.172 145.607 699.483 145.923 700.12 145.923ZM700.752 138.943C700.752 137.704 701.548 137.047 702.471 137.047C703.395 137.047 704.19 137.704 704.19 138.943V140.287L700.752 140.292V138.943Z" fill="#9E9E9E"/>
<path d="M713.541 144.701C714.344 144.701 714.981 144.305 715.339 143.663H715.355V144.604H716.244V136.883H715.312V139.944H715.291C714.959 139.334 714.317 138.943 713.52 138.943C712.118 138.943 711.16 140.078 711.16 141.822C711.16 143.566 712.123 144.701 713.541 144.701ZM713.718 139.762C714.676 139.762 715.318 140.581 715.318 141.822C715.318 143.069 714.676 143.882 713.718 143.882C712.733 143.882 712.113 143.085 712.113 141.822C712.113 140.565 712.733 139.762 713.718 139.762ZM719.292 143.909C718.624 143.909 718.18 143.561 718.18 143.031C718.18 142.507 718.608 142.175 719.357 142.127L720.844 142.036V142.491C720.844 143.294 720.17 143.909 719.292 143.909ZM719.084 144.701C719.833 144.701 720.539 144.283 720.871 143.647H720.892V144.604H721.775V140.757C721.775 139.65 720.951 138.943 719.646 138.943C718.329 138.943 717.505 139.682 717.441 140.645H718.34C718.458 140.099 718.907 139.762 719.624 139.762C720.395 139.762 720.844 140.169 720.844 140.848V141.314L719.25 141.405C717.965 141.48 717.232 142.079 717.232 143.031C717.232 144.032 717.976 144.701 719.084 144.701ZM722.818 140.575C722.818 141.335 723.299 141.838 724.278 142.09L725.258 142.341C725.884 142.507 726.114 142.721 726.114 143.117C726.114 143.62 725.648 143.941 724.894 143.941C724.139 143.941 723.701 143.631 723.599 143.053H722.668C722.764 144.037 723.615 144.701 724.835 144.701C726.135 144.701 727.05 144.016 727.05 143.047C727.05 142.229 726.644 141.822 725.52 141.538L724.658 141.33C724.027 141.169 723.733 140.912 723.733 140.527C723.733 140.04 724.182 139.703 724.862 139.703C725.547 139.703 725.98 140.035 726.044 140.57H726.933C726.89 139.628 726.044 138.943 724.894 138.943C723.668 138.943 722.818 139.623 722.818 140.575ZM728.023 144.604H728.954V141.362C728.954 140.399 729.527 139.767 730.452 139.767C731.325 139.767 731.769 140.297 731.769 141.18V144.604H732.7V141.009C732.7 139.767 731.961 138.943 730.741 138.943C729.896 138.943 729.286 139.307 728.976 139.928H728.954V136.883H728.023V144.604ZM736.605 144.701C738.028 144.701 738.97 143.572 738.97 141.822C738.97 140.078 738.023 138.943 736.621 138.943C735.834 138.943 735.187 139.334 734.839 139.971H734.818V136.883H733.887V144.604H734.775V143.663H734.796C735.155 144.305 735.792 144.701 736.605 144.701ZM736.423 139.762C737.407 139.762 738.017 140.559 738.017 141.822C738.017 143.096 737.407 143.882 736.423 143.882C735.481 143.882 734.812 143.063 734.812 141.822C734.812 140.586 735.481 139.762 736.423 139.762ZM742.179 144.701C743.715 144.701 744.753 143.593 744.753 141.822C744.753 140.046 743.715 138.943 742.179 138.943C740.638 138.943 739.6 140.046 739.6 141.822C739.6 143.593 740.638 144.701 742.179 144.701ZM742.179 143.882C741.195 143.882 740.547 143.133 740.547 141.822C740.547 140.511 741.195 139.762 742.179 139.762C743.164 139.762 743.806 140.511 743.806 141.822C743.806 143.133 743.164 143.882 742.179 143.882ZM747.486 143.909C746.818 143.909 746.373 143.561 746.373 143.031C746.373 142.507 746.802 142.175 747.551 142.127L749.038 142.036V142.491C749.038 143.294 748.364 143.909 747.486 143.909ZM747.278 144.701C748.027 144.701 748.733 144.283 749.065 143.647H749.086V144.604H749.969V140.757C749.969 139.65 749.145 138.943 747.84 138.943C746.523 138.943 745.699 139.682 745.635 140.645H746.534C746.652 140.099 747.101 139.762 747.818 139.762C748.589 139.762 749.038 140.169 749.038 140.848V141.314L747.444 141.405C746.159 141.48 745.426 142.079 745.426 143.031C745.426 144.032 746.17 144.701 747.278 144.701ZM751.108 144.604H752.039V141.137C752.039 140.351 752.51 139.832 753.232 139.832C753.457 139.832 753.655 139.858 753.73 139.885V138.981C753.655 138.97 753.516 138.943 753.355 138.943C752.703 138.943 752.189 139.334 752.007 139.949H751.986V139.04H751.108V144.604ZM756.287 144.701C757.089 144.701 757.726 144.305 758.084 143.663H758.101V144.604H758.989V136.883H758.058V139.944H758.036C757.705 139.334 757.062 138.943 756.265 138.943C754.863 138.943 753.905 140.078 753.905 141.822C753.905 143.566 754.869 144.701 756.287 144.701ZM756.463 139.762C757.421 139.762 758.063 140.581 758.063 141.822C758.063 143.069 757.421 143.882 756.463 143.882C755.479 143.882 754.858 143.085 754.858 141.822C754.858 140.565 755.479 139.762 756.463 139.762ZM760.989 144.658C761.331 144.658 761.599 144.39 761.599 144.048C761.599 143.706 761.331 143.438 760.989 143.438C760.647 143.438 760.379 143.706 760.379 144.048C760.379 144.39 760.647 144.658 760.989 144.658ZM762.845 140.575C762.845 141.335 763.326 141.838 764.306 142.09L765.285 142.341C765.911 142.507 766.141 142.721 766.141 143.117C766.141 143.62 765.675 143.941 764.921 143.941C764.166 143.941 763.728 143.631 763.626 143.053H762.695C762.791 144.037 763.642 144.701 764.862 144.701C766.162 144.701 767.077 144.016 767.077 143.047C767.077 142.229 766.671 141.822 765.547 141.538L764.685 141.33C764.054 141.169 763.76 140.912 763.76 140.527C763.76 140.04 764.209 139.703 764.889 139.703C765.574 139.703 766.007 140.035 766.071 140.57H766.96C766.917 139.628 766.071 138.943 764.921 138.943C763.696 138.943 762.845 139.623 762.845 140.575ZM768.05 144.604H768.981V141.362C768.981 140.399 769.554 139.767 770.479 139.767C771.352 139.767 771.796 140.297 771.796 141.18V144.604H772.727V141.009C772.727 139.767 771.988 138.943 770.768 138.943C769.923 138.943 769.313 139.307 769.003 139.928H768.981V136.883H768.05V144.604ZM773.914 144.604H774.845V139.04H773.914V144.604ZM774.379 138.103C774.7 138.103 774.962 137.841 774.962 137.525C774.962 137.204 774.7 136.947 774.379 136.947C774.063 136.947 773.801 137.204 773.801 137.525C773.801 137.841 774.063 138.103 774.379 138.103ZM778.761 138.943C777.953 138.943 777.305 139.355 776.963 139.981H776.941V139.04H776.058V146.461H776.989V143.7H777.011C777.343 144.31 777.985 144.701 778.782 144.701C780.184 144.701 781.142 143.566 781.142 141.822C781.142 140.078 780.178 138.943 778.761 138.943ZM778.579 143.882C777.626 143.882 776.984 143.063 776.984 141.822C776.984 140.586 777.626 139.762 778.579 139.762C779.568 139.762 780.189 140.565 780.189 141.822C780.189 143.085 779.568 143.882 778.579 143.882ZM784.148 144.701C784.95 144.701 785.587 144.305 785.946 143.663H785.962V144.604H786.85V136.883H785.919V139.944H785.898C785.566 139.334 784.924 138.943 784.126 138.943C782.724 138.943 781.767 140.078 781.767 141.822C781.767 143.566 782.73 144.701 784.148 144.701ZM784.324 139.762C785.282 139.762 785.924 140.581 785.924 141.822C785.924 143.069 785.282 143.882 784.324 143.882C783.34 143.882 782.719 143.085 782.719 141.822C782.719 140.565 783.34 139.762 784.324 139.762ZM788.112 144.604H789.043V139.04H788.112V144.604ZM788.577 138.103C788.898 138.103 789.161 137.841 789.161 137.525C789.161 137.204 788.898 136.947 788.577 136.947C788.262 136.947 787.999 137.204 787.999 137.525C787.999 137.841 788.262 138.103 788.577 138.103ZM790.256 144.604H791.188V141.137C791.188 140.351 791.658 139.832 792.381 139.832C792.605 139.832 792.803 139.858 792.878 139.885V138.981C792.803 138.97 792.664 138.943 792.504 138.943C791.851 138.943 791.337 139.334 791.155 139.949H791.134V139.04H790.256V144.604ZM795.558 139.751C796.436 139.751 797.019 140.415 797.04 141.346H794.017C794.076 140.42 794.686 139.751 795.558 139.751ZM797.019 143.01C796.864 143.534 796.345 143.893 795.638 143.893C794.638 143.893 794.012 143.192 794.012 142.127V142.074H798.003V141.72C798.003 140.035 797.078 138.943 795.574 138.943C794.038 138.943 793.054 140.115 793.054 141.843C793.054 143.593 794.022 144.701 795.617 144.701C796.832 144.701 797.773 143.984 797.934 143.01H797.019ZM803.525 140.864C803.407 139.864 802.577 138.943 801.186 138.943C799.651 138.943 798.629 140.067 798.629 141.822C798.629 143.615 799.656 144.701 801.197 144.701C802.46 144.701 803.391 143.92 803.535 142.812H802.62C802.46 143.481 801.962 143.882 801.202 143.882C800.239 143.882 799.576 143.117 799.576 141.822C799.576 140.559 800.228 139.762 801.192 139.762C802.01 139.762 802.481 140.26 802.615 140.864H803.525ZM804.647 137.697V139.04H803.818V139.805H804.647V143.16C804.647 144.23 805.043 144.647 806.065 144.647C806.285 144.647 806.541 144.631 806.654 144.604V143.823C806.59 143.834 806.376 143.85 806.269 143.85C805.792 143.85 805.578 143.62 805.578 143.112V139.805H806.659V139.04H805.578V137.697H804.647ZM808.397 144.658C808.74 144.658 809.007 144.39 809.007 144.048C809.007 143.706 808.74 143.438 808.397 143.438C808.055 143.438 807.787 143.706 807.787 144.048C807.787 144.39 808.055 144.658 808.397 144.658ZM810.397 144.604H811.328V139.04H810.397V144.604ZM810.863 138.103C811.184 138.103 811.446 137.841 811.446 137.525C811.446 137.204 811.184 136.947 810.863 136.947C810.547 136.947 810.285 137.204 810.285 137.525C810.285 137.841 810.547 138.103 810.863 138.103ZM814.848 144.701C816.384 144.701 817.422 143.593 817.422 141.822C817.422 140.046 816.384 138.943 814.848 138.943C813.307 138.943 812.269 140.046 812.269 141.822C812.269 143.593 813.307 144.701 814.848 144.701ZM814.848 143.882C813.864 143.882 813.216 143.133 813.216 141.822C813.216 140.511 813.864 139.762 814.848 139.762C815.833 139.762 816.475 140.511 816.475 141.822C816.475 143.133 815.833 143.882 814.848 143.882Z" fill="#4C4C4C"/>
</g>
<path d="M966.109 140.78C966.233 140.78 966.326 140.741 966.396 140.666L968.431 138.622C968.519 138.538 968.554 138.439 968.554 138.325C968.554 138.217 968.51 138.108 968.431 138.029L966.396 135.964C966.326 135.885 966.228 135.846 966.109 135.846C965.887 135.846 965.719 136.024 965.719 136.251C965.719 136.354 965.758 136.453 965.828 136.532L967.146 137.826C966.865 137.777 966.578 137.747 966.292 137.747C963.872 137.747 961.926 139.688 961.926 142.109C961.926 144.534 963.872 146.48 966.292 146.48C968.712 146.48 970.653 144.534 970.653 142.109C970.653 141.872 970.485 141.699 970.243 141.699C970.011 141.699 969.858 141.872 969.858 142.109C969.858 144.094 968.273 145.685 966.292 145.685C964.311 145.685 962.721 144.094 962.721 142.109C962.721 140.128 964.311 138.543 966.292 138.543C966.667 138.543 967.013 138.572 967.309 138.636L965.833 140.103C965.758 140.182 965.719 140.281 965.719 140.385C965.719 140.612 965.887 140.78 966.109 140.78Z" fill="#797979"/>
</g>
</g>
</g>
</g>
<path opacity="0.15" d="M265.295 720.066L263.475 719.488L267.32 713.091H269.582L265.295 720.066ZM263.372 725V719.284H265.346V725H263.372ZM263.423 720.066L259.136 713.091H261.399L265.244 719.488L263.423 720.066ZM276.25 725.204C275.07 725.204 274.026 724.943 273.119 724.422C272.212 723.9 271.497 723.174 270.975 722.244C270.465 721.314 270.21 720.248 270.21 719.045C270.21 717.843 270.465 716.783 270.975 715.864C271.497 714.934 272.206 714.208 273.102 713.686C273.998 713.153 275.03 712.887 276.198 712.887C277.378 712.887 278.416 713.153 279.312 713.686C280.219 714.208 280.923 714.934 281.422 715.864C281.932 716.783 282.187 717.843 282.187 719.045C282.187 720.248 281.932 721.314 281.422 722.244C280.923 723.174 280.225 723.9 279.329 724.422C278.444 724.943 277.418 725.204 276.25 725.204ZM276.25 723.401C277.021 723.401 277.701 723.214 278.291 722.839C278.881 722.465 279.34 721.955 279.669 721.308C280.009 720.65 280.18 719.896 280.18 719.045C280.18 718.206 280.009 717.457 279.669 716.8C279.329 716.142 278.858 715.631 278.257 715.268C277.667 714.894 276.981 714.707 276.198 714.707C275.427 714.707 274.741 714.894 274.14 715.268C273.55 715.631 273.079 716.142 272.728 716.8C272.387 717.446 272.217 718.195 272.217 719.045C272.217 719.896 272.387 720.65 272.728 721.308C273.079 721.955 273.556 722.465 274.157 722.839C274.769 723.214 275.467 723.401 276.25 723.401ZM288.656 725.238C287.714 725.238 286.886 725.051 286.172 724.677C285.469 724.291 284.918 723.752 284.521 723.06C284.136 722.369 283.943 721.563 283.943 720.645H285.917C285.917 721.2 286.03 721.688 286.257 722.108C286.495 722.516 286.824 722.839 287.244 723.077C287.663 723.304 288.145 723.418 288.69 723.418C289.245 723.418 289.733 723.304 290.153 723.077C290.584 722.839 290.913 722.516 291.14 722.108C291.366 721.688 291.48 721.2 291.48 720.645H293.453C293.453 721.563 293.255 722.369 292.858 723.06C292.472 723.752 291.917 724.291 291.191 724.677C290.476 725.051 289.631 725.238 288.656 725.238ZM283.943 720.645V713.091H285.917V720.645H283.943ZM291.48 720.645V713.091H293.453V720.645H291.48ZM297.725 720.611V718.79H300.226C300.612 718.79 300.952 718.705 301.247 718.535C301.553 718.365 301.797 718.132 301.978 717.837C302.171 717.542 302.268 717.208 302.268 716.834C302.268 716.266 302.064 715.801 301.655 715.439C301.247 715.076 300.719 714.894 300.073 714.894H297.725V713.091L300.141 713.074C300.958 713.062 301.678 713.221 302.302 713.55C302.926 713.868 303.413 714.31 303.765 714.877C304.116 715.444 304.292 716.096 304.292 716.834C304.292 717.571 304.105 718.223 303.731 718.79C303.368 719.357 302.863 719.805 302.217 720.134C301.57 720.452 300.839 720.611 300.022 720.611H297.725ZM295.939 725V713.091H297.912V725H295.939ZM302.54 725L299.75 720.168L301.281 719.113L304.769 725H302.54ZM314.278 725V723.163C314.834 723.163 315.355 723.06 315.843 722.856C316.331 722.641 316.756 722.346 317.119 721.972C317.482 721.597 317.766 721.161 317.97 720.662C318.174 720.163 318.276 719.624 318.276 719.045C318.276 718.467 318.174 717.928 317.97 717.429C317.766 716.93 317.482 716.493 317.119 716.119C316.756 715.745 316.331 715.456 315.843 715.251C315.355 715.036 314.834 714.928 314.278 714.928V713.091C315.446 713.091 316.478 713.346 317.374 713.856C318.282 714.355 318.991 715.053 319.501 715.949C320.023 716.845 320.284 717.877 320.284 719.045C320.284 720.202 320.023 721.229 319.501 722.125C318.991 723.021 318.282 723.724 317.374 724.234C316.478 724.745 315.446 725 314.278 725ZM311.811 725V723.163H314.278V725H311.811ZM310.535 725V713.091H312.509V725H310.535ZM311.811 714.928V713.091H314.278V714.928H311.811ZM330.446 725L325.801 713.091H327.775L332.539 725H330.446ZM320.935 725L325.682 713.091H327.673L323.028 725H320.935ZM323.164 722.074V720.321H330.293V722.074H323.164ZM337.833 725.204C337.21 725.204 336.637 725.13 336.115 724.983C335.605 724.836 335.151 724.631 334.754 724.371C334.368 724.11 334.045 723.82 333.784 723.503C333.535 723.174 333.359 722.834 333.257 722.482L335.196 721.887C335.344 722.306 335.633 722.675 336.064 722.992C336.495 723.31 337.028 723.474 337.663 723.486C338.401 723.486 338.985 723.333 339.416 723.026C339.847 722.72 340.062 722.318 340.062 721.819C340.062 721.365 339.881 720.996 339.518 720.713C339.155 720.418 338.667 720.191 338.055 720.032L336.591 719.658C336.036 719.51 335.531 719.295 335.077 719.011C334.635 718.728 334.283 718.37 334.022 717.939C333.773 717.508 333.648 716.998 333.648 716.408C333.648 715.297 334.011 714.435 334.737 713.822C335.463 713.198 336.501 712.887 337.85 712.887C338.61 712.887 339.274 713.006 339.841 713.244C340.419 713.471 340.896 713.788 341.27 714.197C341.644 714.594 341.922 715.047 342.104 715.558L340.198 716.17C340.028 715.716 339.733 715.342 339.314 715.047C338.894 714.752 338.372 714.605 337.748 714.605C337.102 714.605 336.591 714.758 336.217 715.064C335.854 715.37 335.673 715.796 335.673 716.34C335.673 716.783 335.814 717.128 336.098 717.378C336.393 717.616 336.79 717.798 337.289 717.922L338.752 718.28C339.818 718.541 340.646 718.989 341.236 719.624C341.826 720.259 342.121 720.962 342.121 721.733C342.121 722.414 341.956 723.015 341.627 723.537C341.298 724.059 340.811 724.467 340.164 724.762C339.529 725.057 338.752 725.204 337.833 725.204ZM352.097 725V713.091H354.07V725H352.097ZM344.134 725V713.091H346.108V725H344.134ZM345.683 719.794V717.991H352.896V719.794H345.683ZM357.694 725V723.231H361.012C361.635 723.231 362.129 723.077 362.492 722.771C362.855 722.465 363.036 722.051 363.036 721.529C363.036 720.962 362.832 720.52 362.424 720.202C362.027 719.873 361.465 719.715 360.739 719.726H357.694V718.161L359.753 718.195C360.83 718.195 361.766 718.319 362.56 718.569C363.354 718.807 363.966 719.181 364.397 719.692C364.828 720.202 365.044 720.86 365.044 721.665C365.044 722.369 364.885 722.97 364.567 723.469C364.25 723.968 363.802 724.348 363.223 724.609C362.645 724.87 361.959 725 361.165 725H357.694ZM356.724 725V713.091H358.664V725H356.724ZM357.643 719.811V718.093H360.824C361.392 718.093 361.834 717.945 362.151 717.65C362.48 717.344 362.645 716.924 362.645 716.391C362.645 715.847 362.458 715.427 362.083 715.132C361.72 714.837 361.21 714.696 360.552 714.707H357.643V713.108L360.654 713.074C361.471 713.074 362.174 713.204 362.764 713.465C363.365 713.714 363.83 714.089 364.159 714.588C364.488 715.076 364.652 715.688 364.652 716.425C364.652 717.049 364.46 717.611 364.074 718.11C363.7 718.597 363.161 718.983 362.458 719.267C361.766 719.55 360.949 719.692 360.008 719.692L357.643 719.811ZM372.263 725.204C371.083 725.204 370.039 724.943 369.132 724.422C368.225 723.9 367.51 723.174 366.988 722.244C366.478 721.314 366.223 720.248 366.223 719.045C366.223 717.843 366.478 716.783 366.988 715.864C367.51 714.934 368.219 714.208 369.115 713.686C370.011 713.153 371.043 712.887 372.212 712.887C373.391 712.887 374.429 713.153 375.325 713.686C376.232 714.208 376.936 714.934 377.435 715.864C377.945 716.783 378.2 717.843 378.2 719.045C378.2 720.248 377.945 721.314 377.435 722.244C376.936 723.174 376.238 723.9 375.342 724.422C374.457 724.943 373.431 725.204 372.263 725.204ZM372.263 723.401C373.034 723.401 373.714 723.214 374.304 722.839C374.894 722.465 375.353 721.955 375.682 721.308C376.022 720.65 376.193 719.896 376.193 719.045C376.193 718.206 376.022 717.457 375.682 716.8C375.342 716.142 374.871 715.631 374.27 715.268C373.68 714.894 372.994 714.707 372.212 714.707C371.44 714.707 370.754 714.894 370.153 715.268C369.563 715.631 369.092 716.142 368.741 716.8C368.401 717.446 368.23 718.195 368.23 719.045C368.23 719.896 368.401 720.65 368.741 721.308C369.092 721.955 369.569 722.465 370.17 722.839C370.782 723.214 371.48 723.401 372.263 723.401ZM388.378 725L383.733 713.091H385.707L390.47 725H388.378ZM378.867 725L383.614 713.091H385.604L380.96 725H378.867ZM381.096 722.074V720.321H388.225V722.074H381.096ZM393.638 720.611V718.79H396.139C396.525 718.79 396.865 718.705 397.16 718.535C397.466 718.365 397.71 718.132 397.892 717.837C398.085 717.542 398.181 717.208 398.181 716.834C398.181 716.266 397.977 715.801 397.569 715.439C397.16 715.076 396.633 714.894 395.986 714.894H393.638V713.091L396.054 713.074C396.871 713.062 397.591 713.221 398.215 713.55C398.839 713.868 399.327 714.31 399.678 714.877C400.03 715.444 400.206 716.096 400.206 716.834C400.206 717.571 400.018 718.223 399.644 718.79C399.281 719.357 398.776 719.805 398.13 720.134C397.483 720.452 396.752 720.611 395.935 720.611H393.638ZM391.852 725V713.091H393.826V725H391.852ZM398.453 725L395.663 720.168L397.194 719.113L400.682 725H398.453ZM406.258 725V723.163C406.813 723.163 407.335 723.06 407.823 722.856C408.311 722.641 408.736 722.346 409.099 721.972C409.462 721.597 409.745 721.161 409.949 720.662C410.154 720.163 410.256 719.624 410.256 719.045C410.256 718.467 410.154 717.928 409.949 717.429C409.745 716.93 409.462 716.493 409.099 716.119C408.736 715.745 408.311 715.456 407.823 715.251C407.335 715.036 406.813 714.928 406.258 714.928V713.091C407.426 713.091 408.458 713.346 409.354 713.856C410.261 714.355 410.97 715.053 411.481 715.949C412.002 716.845 412.263 717.877 412.263 719.045C412.263 720.202 412.002 721.229 411.481 722.125C410.97 723.021 410.261 723.724 409.354 724.234C408.458 724.745 407.426 725 406.258 725ZM403.791 725V723.163H406.258V725H403.791ZM402.515 725V713.091H404.488V725H402.515ZM403.791 714.928V713.091H406.258V714.928H403.791ZM262.199 740.883V739.062H264.836C265.403 739.062 265.868 738.87 266.231 738.484C266.594 738.098 266.775 737.599 266.775 736.987C266.775 736.567 266.679 736.204 266.486 735.898C266.304 735.58 266.049 735.331 265.72 735.149C265.391 734.968 265.011 734.883 264.58 734.894H262.199V733.091L264.614 733.074C265.431 733.074 266.151 733.244 266.775 733.584C267.399 733.913 267.887 734.372 268.238 734.962C268.59 735.541 268.766 736.215 268.766 736.987C268.766 737.735 268.601 738.404 268.272 738.994C267.943 739.584 267.484 740.049 266.894 740.389C266.316 740.718 265.641 740.883 264.87 740.883H262.199ZM260.412 745V733.091H262.386V745H260.412ZM272.13 740.611V738.79H274.631C275.017 738.79 275.357 738.705 275.652 738.535C275.958 738.365 276.202 738.132 276.383 737.837C276.576 737.542 276.673 737.208 276.673 736.834C276.673 736.266 276.468 735.801 276.06 735.439C275.652 735.076 275.124 734.894 274.478 734.894H272.13V733.091L274.546 733.074C275.363 733.062 276.083 733.221 276.707 733.55C277.33 733.868 277.818 734.31 278.17 734.877C278.521 735.444 278.697 736.096 278.697 736.834C278.697 737.571 278.51 738.223 278.136 738.79C277.773 739.357 277.268 739.805 276.622 740.134C275.975 740.452 275.243 740.611 274.427 740.611H272.13ZM270.344 745V733.091H272.317V745H270.344ZM276.945 745L274.155 740.168L275.686 739.113L279.174 745H276.945ZM281.006 745V733.091H282.98V745H281.006ZM282.571 745V743.197H288.39V745H282.571ZM282.571 739.828V738.059H287.709V739.828H282.571ZM282.571 734.894V733.091H288.339V734.894H282.571ZM294.631 745L299.293 733.091H301.403L296.588 745H294.631ZM294.427 745L289.612 733.091H291.705L296.367 745H294.427ZM302.797 745V733.091H304.77V745H302.797ZM307.428 745V733.091H309.402V745H307.428ZM308.993 745V743.197H314.812V745H308.993ZM308.993 739.828V738.059H314.131V739.828H308.993ZM308.993 734.894V733.091H314.761V734.894H308.993ZM326.804 745L330.308 733.091H332.316L328.709 745H326.804ZM319.59 745L316.034 733.091H318.025L321.512 745H319.59ZM319.845 745L323.197 733.091H325.017L321.683 745H319.845ZM326.616 745L323.333 733.091H325.153L328.539 745H326.616ZM337.638 745V733.091H339.612V745H337.638ZM350.64 745L342.729 734.18L344.311 733.091L352.205 743.877L350.64 745ZM342.269 745V733.091H344.311L344.243 734.792V745H342.269ZM350.64 745V733.091H352.614V745H350.64ZM361.675 745V734.077H363.649V745H361.675ZM358.017 734.894V733.091H367.307V734.894H358.017ZM376.737 745V733.091H378.71V745H376.737ZM368.774 745V733.091H370.748V745H368.774ZM370.323 739.794V737.991H377.536V739.794H370.323ZM381.364 745V733.091H383.338V745H381.364ZM389.909 745.204C389.285 745.204 388.712 745.13 388.19 744.983C387.68 744.836 387.226 744.631 386.829 744.371C386.444 744.11 386.121 743.82 385.86 743.503C385.61 743.174 385.434 742.834 385.332 742.482L387.272 741.887C387.419 742.306 387.708 742.675 388.139 742.992C388.57 743.31 389.104 743.474 389.739 743.486C390.476 743.486 391.06 743.333 391.491 743.026C391.922 742.72 392.138 742.318 392.138 741.819C392.138 741.365 391.956 740.996 391.593 740.713C391.23 740.418 390.742 740.191 390.13 740.032L388.667 739.658C388.111 739.51 387.606 739.295 387.153 739.011C386.71 738.728 386.359 738.37 386.098 737.939C385.848 737.508 385.724 736.998 385.724 736.408C385.724 735.297 386.086 734.435 386.812 733.822C387.538 733.198 388.576 732.887 389.926 732.887C390.686 732.887 391.349 733.006 391.916 733.244C392.495 733.471 392.971 733.788 393.346 734.197C393.72 734.594 393.998 735.047 394.179 735.558L392.274 736.17C392.104 735.716 391.809 735.342 391.389 735.047C390.969 734.752 390.448 734.605 389.824 734.605C389.177 734.605 388.667 734.758 388.293 735.064C387.93 735.37 387.748 735.796 387.748 736.34C387.748 736.783 387.89 737.128 388.173 737.378C388.468 737.616 388.865 737.798 389.364 737.922L390.828 738.28C391.894 738.541 392.722 738.989 393.311 739.624C393.901 740.259 394.196 740.962 394.196 741.733C394.196 742.414 394.032 743.015 393.703 743.537C393.374 744.059 392.886 744.467 392.24 744.762C391.604 745.057 390.828 745.204 389.909 745.204ZM404.056 745.204C403.433 745.204 402.86 745.13 402.338 744.983C401.828 744.836 401.374 744.631 400.977 744.371C400.591 744.11 400.268 743.82 400.007 743.503C399.758 743.174 399.582 742.834 399.48 742.482L401.419 741.887C401.567 742.306 401.856 742.675 402.287 742.992C402.718 743.31 403.251 743.474 403.886 743.486C404.624 743.486 405.208 743.333 405.639 743.026C406.07 742.72 406.285 742.318 406.285 741.819C406.285 741.365 406.104 740.996 405.741 740.713C405.378 740.418 404.89 740.191 404.278 740.032L402.814 739.658C402.259 739.51 401.754 739.295 401.3 739.011C400.858 738.728 400.506 738.37 400.245 737.939C399.996 737.508 399.871 736.998 399.871 736.408C399.871 735.297 400.234 734.435 400.96 733.822C401.686 733.198 402.724 732.887 404.073 732.887C404.833 732.887 405.497 733.006 406.064 733.244C406.642 733.471 407.119 733.788 407.493 734.197C407.867 734.594 408.145 735.047 408.327 735.558L406.421 736.17C406.251 735.716 405.956 735.342 405.537 735.047C405.117 734.752 404.595 734.605 403.971 734.605C403.325 734.605 402.814 734.758 402.44 735.064C402.077 735.37 401.896 735.796 401.896 736.34C401.896 736.783 402.038 737.128 402.321 737.378C402.616 737.616 403.013 737.798 403.512 737.922L404.975 738.28C406.041 738.541 406.869 738.989 407.459 739.624C408.049 740.259 408.344 740.962 408.344 741.733C408.344 742.414 408.179 743.015 407.85 743.537C407.522 744.059 407.034 744.467 406.387 744.762C405.752 745.057 404.975 745.204 404.056 745.204ZM410.357 745V733.091H412.331V745H410.357ZM411.923 745V743.197H417.741V745H411.923ZM411.923 739.828V738.059H417.061V739.828H411.923ZM411.923 734.894V733.091H417.69V734.894H411.923ZM425.377 745.204C424.232 745.204 423.211 744.943 422.315 744.422C421.43 743.888 420.733 743.163 420.222 742.244C419.723 741.314 419.474 740.248 419.474 739.045C419.474 737.843 419.723 736.783 420.222 735.864C420.733 734.934 421.43 734.208 422.315 733.686C423.2 733.153 424.215 732.887 425.36 732.887C426.132 732.887 426.858 733.028 427.538 733.312C428.219 733.584 428.82 733.964 429.342 734.452C429.875 734.939 430.283 735.507 430.567 736.153L428.763 736.885C428.559 736.454 428.281 736.074 427.929 735.745C427.589 735.404 427.198 735.144 426.756 734.962C426.313 734.781 425.848 734.69 425.36 734.69C424.612 734.69 423.943 734.877 423.353 735.251C422.774 735.626 422.315 736.142 421.975 736.8C421.646 737.446 421.481 738.195 421.481 739.045C421.481 739.896 421.646 740.65 421.975 741.308C422.315 741.966 422.78 742.482 423.37 742.856C423.971 743.231 424.652 743.418 425.412 743.418C425.911 743.418 426.376 743.321 426.807 743.129C427.249 742.924 427.64 742.646 427.981 742.295C428.332 741.943 428.61 741.535 428.814 741.07L430.618 741.801C430.334 742.471 429.931 743.066 429.41 743.588C428.888 744.098 428.281 744.495 427.589 744.779C426.897 745.062 426.16 745.204 425.377 745.204ZM434.814 745V734.077H436.788V745H434.814ZM431.156 734.894V733.091H440.445V734.894H431.156ZM441.913 745V733.091H443.887V745H441.913ZM451.836 745.204C450.656 745.204 449.613 744.943 448.705 744.422C447.798 743.9 447.083 743.174 446.562 742.244C446.051 741.314 445.796 740.248 445.796 739.045C445.796 737.843 446.051 736.783 446.562 735.864C447.083 734.934 447.792 734.208 448.688 733.686C449.584 733.153 450.616 732.887 451.785 732.887C452.964 732.887 454.002 733.153 454.898 733.686C455.806 734.208 456.509 734.934 457.008 735.864C457.518 736.783 457.773 737.843 457.773 739.045C457.773 740.248 457.518 741.314 457.008 742.244C456.509 743.174 455.811 743.9 454.915 744.422C454.03 744.943 453.004 745.204 451.836 745.204ZM451.836 743.401C452.607 743.401 453.288 743.214 453.877 742.839C454.467 742.465 454.927 741.955 455.255 741.308C455.596 740.65 455.766 739.896 455.766 739.045C455.766 738.206 455.596 737.457 455.255 736.8C454.915 736.142 454.444 735.631 453.843 735.268C453.254 734.894 452.567 734.707 451.785 734.707C451.013 734.707 450.327 734.894 449.726 735.268C449.136 735.631 448.666 736.142 448.314 736.8C447.974 737.446 447.804 738.195 447.804 739.045C447.804 739.896 447.974 740.65 448.314 741.308C448.666 741.955 449.142 742.465 449.743 742.839C450.356 743.214 451.053 743.401 451.836 743.401ZM468.07 745L460.159 734.18L461.741 733.091L469.635 743.877L468.07 745ZM459.699 745V733.091H461.741L461.673 734.792V745H459.699ZM468.07 745V733.091H470.043V745H468.07Z" fill="black"/>
<defs>
<filter id="filter0_d_6_2721" x="176.852" y="85.4688" width="1163.3" height="745.185" filterUnits="userSpaceOnUse" color-interpolation-filters="sRGB">
<feFlood flood-opacity="0" result="BackgroundImageFix"/>
<feColorMatrix in="SourceAlpha" type="matrix" values="0 0 0 0 0 0 0 0 0 0 0 0 0 0 0 0 0 0 127 0" result="hardAlpha"/>
<feOffset dy="8.42969"/>
<feGaussianBlur stdDeviation="21.0742"/>
<feColorMatrix type="matrix" values="0 0 0 0 0 0 0 0 0 0 0 0 0 0 0 0 0 0 0.08 0"/>
<feBlend mode="normal" in2="BackgroundImageFix" result="effect1_dropShadow_6_2721"/>
<feBlend mode="normal" in="SourceGraphic" in2="effect1_dropShadow_6_2721" result="shape"/>
</filter>
<filter id="filter1_di_6_2721" x="219" y="119.188" width="1079" height="45.0992" filterUnits="userSpaceOnUse" color-interpolation-filters="sRGB">
<feFlood flood-opacity="0" result="BackgroundImageFix"/>
<feColorMatrix in="SourceAlpha" type="matrix" values="0 0 0 0 0 0 0 0 0 0 0 0 0 0 0 0 0 0 127 0" result="hardAlpha"/>
<feOffset dy="0.421484"/>
<feColorMatrix type="matrix" values="0 0 0 0 0 0 0 0 0 0 0 0 0 0 0 0 0 0 0.15 0"/>
<feBlend mode="normal" in2="BackgroundImageFix" result="effect1_dropShadow_6_2721"/>
<feBlend mode="normal" in="SourceGraphic" in2="effect1_dropShadow_6_2721" result="shape"/>
<feColorMatrix in="SourceAlpha" type="matrix" values="0 0 0 0 0 0 0 0 0 0 0 0 0 0 0 0 0 0 127 0" result="hardAlpha"/>
<feOffset dy="-0.421484"/>
<feComposite in2="hardAlpha" operator="arithmetic" k2="-1" k3="1"/>
<feColorMatrix type="matrix" values="0 0 0 0 0 0 0 0 0 0 0 0 0 0 0 0 0 0 0.05 0"/>
<feBlend mode="normal" in2="shape" result="effect2_innerShadow_6_2721"/>
</filter>
<filter id="filter2_i_6_2721" x="236.702" y="136.047" width="10.1156" height="10.1152" filterUnits="userSpaceOnUse" color-interpolation-filters="sRGB">
<feFlood flood-opacity="0" result="BackgroundImageFix"/>
<feBlend mode="normal" in="SourceGraphic" in2="BackgroundImageFix" result="shape"/>
<feColorMatrix in="SourceAlpha" type="matrix" values="0 0 0 0 0 0 0 0 0 0 0 0 0 0 0 0 0 0 127 0" result="hardAlpha"/>
<feOffset/>
<feGaussianBlur stdDeviation="2.52891"/>
<feComposite in2="hardAlpha" operator="arithmetic" k2="-1" k3="1"/>
<feColorMatrix type="matrix" values="0 0 0 0 0.92549 0 0 0 0 0.427451 0 0 0 0 0.384314 0 0 0 1 0"/>
<feBlend mode="normal" in2="shape" result="effect1_innerShadow_6_2721"/>
</filter>
<filter id="filter3_i_6_2721" x="253.562" y="136.047" width="10.1156" height="10.1152" filterUnits="userSpaceOnUse" color-interpolation-filters="sRGB">
<feFlood flood-opacity="0" result="BackgroundImageFix"/>
<feBlend mode="normal" in="SourceGraphic" in2="BackgroundImageFix" result="shape"/>
<feColorMatrix in="SourceAlpha" type="matrix" values="0 0 0 0 0 0 0 0 0 0 0 0 0 0 0 0 0 0 127 0" result="hardAlpha"/>
<feOffset/>
<feGaussianBlur stdDeviation="2.52891"/>
<feComposite in2="hardAlpha" operator="arithmetic" k2="-1" k3="1"/>
<feColorMatrix type="matrix" values="0 0 0 0 0.960784 0 0 0 0 0.768627 0 0 0 0 0.317647 0 0 0 1 0"/>
<feBlend mode="normal" in2="shape" result="effect1_innerShadow_6_2721"/>
</filter>
<filter id="filter4_i_6_2721" x="270.421" y="136.047" width="10.1156" height="10.1152" filterUnits="userSpaceOnUse" color-interpolation-filters="sRGB">
<feFlood flood-opacity="0" result="BackgroundImageFix"/>
<feBlend mode="normal" in="SourceGraphic" in2="BackgroundImageFix" result="shape"/>
<feColorMatrix in="SourceAlpha" type="matrix" values="0 0 0 0 0 0 0 0 0 0 0 0 0 0 0 0 0 0 127 0" result="hardAlpha"/>
<feOffset/>
<feGaussianBlur stdDeviation="2.52891"/>
<feComposite in2="hardAlpha" operator="arithmetic" k2="-1" k3="1"/>
<feColorMatrix type="matrix" values="0 0 0 0 0.407843 0 0 0 0 0.8 0 0 0 0 0.345098 0 0 0 1 0"/>
<feBlend mode="normal" in2="shape" result="effect1_innerShadow_6_2721"/>
</filter>
<radialGradient id="paint0_radial_6_2721" cx="0" cy="0" r="1" gradientUnits="userSpaceOnUse" gradientTransform="translate(392.85 586.282) rotate(-54.7142) scale(642.735 642.735)">
<stop offset="0.286706" stop-color="#0393FB" stop-opacity="0.25"/>
<stop offset="0.851522" stop-color="#0393FB" stop-opacity="0.98"/>
<stop offset="1" stop-color="#0393FB"/>
</radialGradient>
<radialGradient id="paint1_radial_6_2721" cx="0" cy="0" r="1" gradientUnits="userSpaceOnUse" gradientTransform="translate(23.0219 465.376) rotate(0.151466) scale(648.041 648.041)">
<stop stop-color="#0393FB" stop-opacity="0.2"/>
<stop offset="0.78111" stop-color="#0393FB" stop-opacity="0.98"/>
<stop offset="1" stop-color="#0393FB" stop-opacity="0.98"/>
</radialGradient>
<radialGradient id="paint2_radial_6_2721" cx="0" cy="0" r="1" gradientUnits="userSpaceOnUse" gradientTransform="translate(575.887 304.015) rotate(-84.2442) scale(304.63 304.63)">
<stop stop-color="#00C5FF" stop-opacity="0.25"/>
<stop offset="0.0001" stop-color="#0393FB" stop-opacity="0.25"/>
<stop offset="0.791667" stop-color="#0393FB"/>
<stop offset="1" stop-color="#0393FB" stop-opacity="0.98"/>
</radialGradient>
<radialGradient id="paint3_radial_6_2721" cx="0" cy="0" r="1" gradientUnits="userSpaceOnUse" gradientTransform="translate(168.706 413.45) rotate(8.637) scale(443.036 443.036)">
<stop stop-color="#0393FB" stop-opacity="0.25"/>
<stop offset="0.869025" stop-color="#0393FB" stop-opacity="0.98"/>
<stop offset="1" stop-color="#0393FB" stop-opacity="0.98"/>
</radialGradient>
<clipPath id="clip0_6_2721">
<rect width="828" height="653.517" fill="white" transform="matrix(1 -8.74228e-08 -8.74228e-08 -1 0 653.843)"/>
</clipPath>
<clipPath id="clip1_6_2721">
<rect x="219" y="119.188" width="1079" height="660.888" rx="8.42969" fill="white"/>
</clipPath>
<clipPath id="clip2_6_2721">
<rect width="55.6359" height="23.6031" fill="white" transform="translate(331.958 129.303)"/>
</clipPath>
<clipPath id="clip3_6_2721">
<rect width="505.781" height="23.6031" fill="white" transform="translate(505.609 129.303)"/>
</clipPath>
<clipPath id="clip4_6_2721">
<rect x="699.172" y="134.604" width="118.657" height="13" fill="white"/>
</clipPath>
</defs>
</svg>
