<svg width="75" height="75" viewBox="0 0 75 75" fill="none" xmlns="http://www.w3.org/2000/svg">
<path d="M31.125 43.875V40.4063C31.125 39.0625 30.125 38.4063 28.9063 38.9375L13.25 45.6875C10.7812 46.75 8.78125 45.4375 8.78125 42.7813V38.6563C8.78125 36.5313 10.375 34.0625 12.3438 33.25L30.1562 25.5937C30.6562 25.3437 31.0937 24.6875 31.0937 24.125V14.5625C31.0937 11.5625 33.3125 7.96875 35.9688 6.59375C36.9063 6.125 38.0312 6.125 38.9687 6.59375C41.6562 7.96875 43.875 11.5313 43.875 14.5313V24.0938C43.875 24.6563 44.3125 25.3125 44.8125 25.5625L48.0625 26.9375L31.125 43.875Z" fill="#2299F5"/>
<path opacity="0.4" d="M66.2186 38.6561V42.7811C66.2186 45.4374 64.2186 46.7499 61.7499 45.6874L46.0936 38.9374C44.8436 38.4374 43.8749 39.0624 43.8749 40.4061V49.4999C43.8749 50.2186 44.2811 51.2499 44.8124 51.7499L52.0624 59.0311C52.8124 59.7811 53.1561 61.2811 52.8124 62.3124L51.4061 66.5624C50.7811 68.4061 48.6874 69.2499 46.9686 68.4061L39.5311 62.1561C38.4061 61.1874 36.5624 61.1874 35.4374 62.1561L27.9999 68.4061C26.2811 69.2811 24.1874 68.4061 23.6249 66.5624L22.2186 62.3124C21.8749 61.2499 22.2186 59.7811 22.9686 59.0311L30.2186 51.7499C30.7186 51.2499 31.1249 50.2186 31.1249 49.4999V43.8749L48.0624 26.9374L62.6561 33.2186C64.6249 34.0624 66.2186 36.5311 66.2186 38.6561Z" fill="#2299F5"/>
</svg>
