<svg width="65" height="65" viewBox="0 0 65 65" fill="none" xmlns="http://www.w3.org/2000/svg">
<rect width="65" height="65" rx="10" fill="#FF9F0A"/>
<path opacity="0.4" d="M46.685 30.7902L45.2967 36.7119C44.1067 41.826 41.755 43.8944 37.335 43.4694C36.6267 43.4127 35.8617 43.2852 35.04 43.0869L32.66 42.5202C26.7525 41.1177 24.925 38.1994 26.3133 32.2777L27.7017 26.3419C27.985 25.1377 28.325 24.0894 28.75 23.2252C30.4075 19.7969 33.2267 18.876 37.9583 19.9952L40.3242 20.5477C46.26 21.936 48.0733 24.8685 46.685 30.7902Z" fill="white"/>
<path d="M37.335 43.4688C36.4567 44.0638 35.3517 44.5596 34.0058 44.9988L31.7675 45.7354C26.1433 47.5488 23.1825 46.0329 21.355 40.4088L19.5417 34.8129C17.7283 29.1888 19.23 26.2138 24.8542 24.4004L27.0925 23.6638C27.6733 23.4796 28.2258 23.3238 28.75 23.2246C28.325 24.0888 27.985 25.1371 27.7017 26.3413L26.3133 32.2771C24.925 38.1988 26.7525 41.1171 32.66 42.5196L35.04 43.0863C35.8617 43.2846 36.6267 43.4121 37.335 43.4688Z" fill="white"/>
<path d="M40.7775 30.8893C40.6925 30.8893 40.6075 30.8752 40.5083 30.861L33.6375 29.1185C33.0708 28.9768 32.7308 28.396 32.8725 27.8293C33.0142 27.2627 33.595 26.9227 34.1617 27.0643L41.0325 28.8068C41.5992 28.9485 41.9392 29.5293 41.7975 30.096C41.6842 30.5635 41.245 30.8893 40.7775 30.8893Z" fill="white"/>
<path d="M36.6266 35.6776C36.5416 35.6776 36.4566 35.6634 36.3575 35.6493L32.235 34.6009C31.6683 34.4593 31.3283 33.8784 31.47 33.3118C31.6116 32.7451 32.1925 32.4051 32.7591 32.5468L36.8816 33.5951C37.4483 33.7368 37.7883 34.3176 37.6466 34.8843C37.5333 35.3659 37.1083 35.6776 36.6266 35.6776Z" fill="white"/>
</svg>
