<svg width="65" height="65" viewBox="0 0 65 65" fill="none" xmlns="http://www.w3.org/2000/svg">
<rect width="65" height="65" rx="10" fill="#0393FB"/>
<path opacity="0.4" d="M40.123 16H25.877C19.689 16 16 19.689 16 25.877V40.123C16 46.311 19.689 50 25.877 50H40.123C46.311 50 50 46.311 50 40.123V25.877C50 19.689 46.311 16 40.123 16Z" fill="white"/>
<path d="M43.727 27.6793C43.727 28.3763 43.166 28.9543 42.452 28.9543H33.527C32.83 28.9543 32.252 28.3763 32.252 27.6793C32.252 26.9823 32.83 26.4043 33.527 26.4043H42.452C43.166 26.4043 43.727 26.9823 43.727 27.6793Z" fill="white"/>
<path d="M29.549 26.0301L25.724 29.8551C25.469 30.1101 25.146 30.2291 24.823 30.2291C24.5 30.2291 24.16 30.1101 23.922 29.8551L22.647 28.5801C22.137 28.0871 22.137 27.2711 22.647 26.7781C23.14 26.2851 23.939 26.2851 24.449 26.7781L24.823 27.1521L27.747 24.2281C28.24 23.7351 29.039 23.7351 29.549 24.2281C30.042 24.7211 30.042 25.5371 29.549 26.0301Z" fill="white"/>
<path d="M43.727 39.5787C43.727 40.2757 43.166 40.8537 42.452 40.8537H33.527C32.83 40.8537 32.252 40.2757 32.252 39.5787C32.252 38.8817 32.83 38.3037 33.527 38.3037H42.452C43.166 38.3037 43.727 38.8817 43.727 39.5787Z" fill="white"/>
<path d="M29.549 37.9296L25.724 41.7546C25.469 42.0096 25.146 42.1286 24.823 42.1286C24.5 42.1286 24.16 42.0096 23.922 41.7546L22.647 40.4796C22.137 39.9866 22.137 39.1706 22.647 38.6776C23.14 38.1846 23.939 38.1846 24.449 38.6776L24.823 39.0516L27.747 36.1276C28.24 35.6346 29.039 35.6346 29.549 36.1276C30.042 36.6206 30.042 37.4366 29.549 37.9296Z" fill="white"/>
</svg>
