<svg width="68" height="68" viewBox="0 0 68 68" fill="none" xmlns="http://www.w3.org/2000/svg">
<g filter="url(#filter0_i_21_602)">
<rect width="68" height="68" rx="10" fill="#0393FB"/>
</g>
<rect x="1.5" y="1.5" width="65" height="65" rx="8.5" stroke="#0086E8" stroke-width="3"/>
<path d="M46.7557 35.5295C46.3326 36.4471 45.8008 37.3378 45.1605 38.2011C41.7239 42.8349 37.4403 47.7388 34 52.3699C32.3544 50.1399 30.4261 47.7502 28.4936 45.3639C26.5607 42.9772 24.6233 40.5943 22.9592 38.3783C20.9306 35.6771 19.8444 32.6554 20.0181 29.2791C20.2705 24.3646 22.3972 20.6241 26.2754 18.061C26.2735 18.0849 26.2727 18.1103 26.2727 18.1369C26.2792 22.8534 26.2799 27.5699 26.2712 32.2863C26.2708 32.5352 26.3568 32.6566 26.563 32.7757C30.621 35.1203 34.6753 37.4725 38.7291 39.8246C38.8176 39.8759 38.8971 39.9433 38.9807 40.0029H39.0958C39.7021 39.6403 40.3043 39.2705 40.9155 38.9158C42.8616 37.7861 44.8081 36.6569 46.7557 35.5295Z" fill="white"/>
<path d="M38.1809 25.9635C38.1729 29.7085 38.1752 33.4536 38.1752 37.1982V37.485C38.0522 37.4201 37.9686 37.3803 37.8887 37.334C34.6709 35.4686 31.4535 33.6019 28.2342 31.7391C28.0821 31.651 27.9977 31.565 27.998 31.3647C28.0056 27.6006 28.0037 23.8362 28.0041 20.0722C28.0041 20.007 28.0094 19.9414 28.0139 19.8401C28.1184 19.8921 28.2028 19.9281 28.2811 19.9736C31.4996 21.838 34.7171 23.7042 37.9372 25.566C38.0999 25.66 38.1816 25.7556 38.1809 25.9635Z" fill="white"/>
<path d="M44.8354 20.8506C42.9933 21.9177 41.152 22.9854 39.3126 24.057C39.1117 24.1742 38.9701 24.1746 38.7688 24.057C35.5794 22.1999 32.3851 20.3518 29.1919 18.5011C29.1018 18.4488 29.014 18.3919 28.8975 18.3205C28.9936 18.258 29.0663 18.206 29.1435 18.1612C30.5635 17.3373 31.9843 16.5138 33.4043 15.6899H33.5432C34.6007 15.6899 35.6573 15.7768 36.6978 15.9649C36.8579 15.9938 37.0172 16.0253 37.1758 16.0602C40.1941 16.724 42.893 18.4764 44.8354 20.8506Z" fill="white"/>
<path d="M47.6268 33.0254C45.1145 34.4793 42.6034 35.9362 40.0918 37.3921C40.0445 37.4194 39.993 37.4403 39.9101 37.4809C39.9056 37.3845 39.9018 37.3363 39.9018 37.2885C39.9014 33.5055 39.9018 29.7222 39.8984 25.9392C39.8984 25.7788 39.9389 25.6843 40.0873 25.5989C42.0103 24.4883 43.9321 23.3754 45.8537 22.2621C46.8237 23.7949 47.5004 25.5144 47.7933 27.3238C48.1158 29.3148 48.0609 31.2167 47.6268 33.0254Z" fill="white"/>
<defs>
<filter id="filter0_i_21_602" x="0" y="0" width="68" height="68" filterUnits="userSpaceOnUse" color-interpolation-filters="sRGB">
<feFlood flood-opacity="0" result="BackgroundImageFix"/>
<feBlend mode="normal" in="SourceGraphic" in2="BackgroundImageFix" result="shape"/>
<feColorMatrix in="SourceAlpha" type="matrix" values="0 0 0 0 0 0 0 0 0 0 0 0 0 0 0 0 0 0 127 0" result="hardAlpha"/>
<feOffset/>
<feGaussianBlur stdDeviation="25"/>
<feComposite in2="hardAlpha" operator="arithmetic" k2="-1" k3="1"/>
<feColorMatrix type="matrix" values="0 0 0 0 0 0 0 0 0 0 0 0 0 0 0 0 0 0 0.1 0"/>
<feBlend mode="normal" in2="shape" result="effect1_innerShadow_21_602"/>
</filter>
</defs>
</svg>
