<svg width="174" height="23" viewBox="0 0 174 23" fill="none" xmlns="http://www.w3.org/2000/svg">
<g opacity="0.75">
<path d="M2.12867 6.20186C1.14146 12.044 5.77836 13.1526 9.18865 13.6319C11.1032 13.9016 12.5989 14.2312 12.3896 15.3997C12.1503 16.6879 10.8939 17.1074 8.85962 17.1074C7.18433 17.1074 6.1373 16.5681 5.77836 15.5195C5.47913 14.6507 5.09028 14.5607 4.13299 14.8604L1.14146 15.879C0.21408 16.2086 -0.114951 16.6281 0.0346093 17.5268C0.632957 20.5828 3.80395 22.1707 8.26127 22.1707C13.7956 22.1707 17.535 20.2832 18.3427 15.879C19.3299 10.3963 15.052 8.8383 11.7016 8.35896C9.54759 8.08932 7.87242 7.81969 8.0818 6.53133C8.26127 5.4828 9.15874 4.97344 11.193 4.97344C12.569 4.97344 13.5562 5.39285 13.9452 6.53133C14.2742 7.40028 14.5734 7.52003 15.4409 7.16055L18.4025 5.99205C19.3598 5.60255 19.5991 5.303 19.3 4.43416C18.4025 1.64784 16.3384 0 11.911 0C6.19713 0 2.84666 2.24705 2.12867 6.20186Z" fill="white"/>
<path d="M39.4211 0.419418H36.0107C35.0834 0.419418 34.6945 0.748987 34.515 1.70778L33.3484 8.32906H27.5747L28.7414 1.70778C28.9208 0.748987 28.6516 0.419418 27.6943 0.419418H24.314C23.3567 0.419418 22.9976 0.748987 22.8181 1.70778L19.4976 20.4629C19.348 21.3917 19.5873 21.7213 20.5446 21.7213H23.925C24.8823 21.7213 25.2713 21.3917 25.4208 20.4629L26.6473 13.572H32.421L31.2244 20.4629C31.0448 21.3917 31.3141 21.7213 32.2714 21.7213H35.6518C36.6091 21.7213 36.968 21.3917 37.1475 20.4629L40.4383 1.70778C40.6177 0.748987 40.3485 0.419418 39.4211 0.419418Z" fill="white"/>
<path d="M43.5309 1.64784L40.2103 20.5229C40.0608 21.4217 40.3001 21.7213 41.1975 21.7213H44.7276C45.625 21.7213 45.984 21.4217 46.1336 20.5229L49.4541 1.64784C49.6336 0.748982 49.3644 0.449432 48.4669 0.449432H44.937C44.0395 0.449432 43.7105 0.748982 43.5309 1.64784Z" fill="white"/>
<path d="M62.2226 0.449432H53.9655C53.0082 0.449432 52.6492 0.779001 52.4698 1.70777L49.179 20.4629C48.9995 21.3917 49.2689 21.7213 50.2262 21.7213H53.6065C54.5638 21.7213 54.9228 21.3917 55.1022 20.4629L55.9997 15.3397H59.6495C64.3164 15.3397 67.6968 13.1227 68.5341 8.38888C69.3414 3.62525 66.8884 0.449432 62.2226 0.449432ZM59.8586 10.0966H56.9271L57.7049 5.69251H60.6369C62.0725 5.69251 62.7308 6.59126 62.4917 7.90953C62.2515 9.22781 61.2652 10.0966 59.8586 10.0966Z" fill="white"/>
<path d="M80.6327 0.449432H73.3638C72.4064 0.449432 72.0472 0.779001 71.8671 1.70777L68.5768 20.4629C68.3977 21.3917 68.6668 21.7213 69.6242 21.7213H76.9832C82.9067 21.7213 86.5862 18.965 87.5136 13.7818L88.2908 9.28774C89.2182 4.1046 86.5562 0.449432 80.6327 0.449432ZM82.4274 8.92826L81.6802 13.2426C81.291 15.3697 80.0645 16.4782 77.6415 16.4782H75.1885L77.1022 5.69251H79.5263C81.9493 5.69251 82.8166 6.80107 82.4274 8.92826Z" fill="white"/>
<path d="M92.1433 1.64784L88.8229 20.5229C88.6728 21.4217 88.9119 21.7213 89.8093 21.7213H93.3397C94.2371 21.7213 94.5962 21.4217 94.7453 20.5229L98.0667 1.64784C98.2457 0.748982 97.9766 0.449432 97.0793 0.449432H93.5488C92.6514 0.449432 92.3223 0.748982 92.1433 1.64784Z" fill="white"/>
<path d="M111.104 0.449432H102.578C101.621 0.449432 101.262 0.779001 101.081 1.70777L97.7911 20.4629C97.6121 21.3917 97.8812 21.7213 98.8386 21.7213H102.219C103.176 21.7213 103.534 21.3917 103.715 20.4629L104.732 14.6507H105.509C106.826 14.6507 107.035 15.1599 107.364 16.1787L108.561 20.2832C108.86 21.3318 109.488 21.7213 111.074 21.7213H114.305C115.291 21.7213 115.62 21.0621 115.351 20.2532L113.557 15.13C113.378 14.6507 113.197 14.2312 112.988 13.8418C115.202 12.7032 116.758 10.8157 117.266 7.90953C118.103 3.26566 115.62 0.449432 111.104 0.449432ZM111.134 7.6399C110.925 8.86833 110.086 9.64722 108.83 9.64722H105.599L106.317 5.69251H109.518C110.804 5.69251 111.373 6.44149 111.134 7.6399Z" fill="white"/>
<path d="M134.889 0.449432H122.355C121.398 0.449432 121.039 0.779001 120.86 1.70777L117.569 20.4629C117.389 21.3917 117.658 21.7213 118.616 21.7213H131.39C132.348 21.7213 132.736 21.3917 132.886 20.4629L133.364 17.7365C133.544 16.7779 133.275 16.4782 132.348 16.4782H124.18L124.689 13.602H131.001C131.958 13.602 132.317 13.2725 132.497 12.3138L132.976 9.61731C133.125 8.68853 132.886 8.35896 131.928 8.35896H125.617L126.095 5.69251H133.992C134.92 5.69251 135.309 5.36294 135.489 4.40415L135.967 1.70777C136.116 0.779001 135.847 0.449432 134.889 0.449432Z" fill="white"/>
<path d="M136.686 7.96946L135.699 13.5122C134.831 18.6653 137.583 22.1707 143.476 22.1707C148.084 22.1707 151.314 20.3431 153.139 16.9876C153.618 16.1187 153.468 15.6693 152.631 15.3697L149.519 14.1713C148.682 13.8418 148.293 14.0515 147.755 14.9802C147.036 16.2685 145.989 16.9276 144.314 16.9276C141.95 16.9276 141.203 15.909 141.562 13.8117L142.548 8.35896C142.908 6.26169 144.015 5.24307 146.378 5.24307C148.054 5.24307 148.831 5.84228 149.1 7.19046C149.31 8.11924 149.638 8.29903 150.596 7.99948L153.677 6.95085C154.634 6.65119 154.873 6.20187 154.694 5.33292C154.066 1.97741 151.852 0 147.245 0C141.352 0 137.583 2.81634 136.686 7.96946Z" fill="white"/>
<path d="M172.747 0.449432H157.939C156.982 0.449432 156.623 0.779001 156.443 1.70777L155.965 4.40415C155.815 5.36294 156.055 5.69251 157.011 5.69251H161.469L158.866 20.4629C158.687 21.3917 158.956 21.7213 159.914 21.7213H163.294C164.251 21.7213 164.611 21.3917 164.79 20.4629L167.393 5.69251H171.819C172.777 5.69251 173.166 5.36294 173.316 4.40415L173.794 1.70777C173.973 0.779001 173.704 0.449432 172.747 0.449432Z" fill="white"/>
</g>
</svg>
