<svg width="719" height="690" viewBox="0 0 719 690" fill="none" xmlns="http://www.w3.org/2000/svg">
<path d="M507.984 295.828H609.174C639.708 295.828 662.639 323.714 656.741 353.673L637.107 453.404C632.633 476.133 612.704 492.52 589.54 492.52H430.742L460.341 335.336C464.656 312.424 484.669 295.828 507.984 295.828Z" fill="#2299F5"/>
<path d="M211.067 394.172H109.878C79.3439 394.172 56.4123 366.286 62.3103 336.327L81.9444 236.596C86.4189 213.867 106.347 197.48 129.512 197.48H288.31L258.711 354.664C254.396 377.576 234.383 394.172 211.067 394.172Z" fill="white"/>
<path d="M77.2966 492.52H430.743L399.721 650.096C395.246 672.824 375.318 689.212 352.153 689.212H58.5162C28.1452 689.212 5.25266 661.606 10.873 631.76L29.6535 532.028C33.9681 509.116 53.9814 492.52 77.2966 492.52Z" fill="#2299F5"/>
<path d="M641.758 197.48H288.311L319.333 39.904C323.808 17.1756 343.736 0.78804 366.901 0.78804H660.538C690.909 0.78804 713.802 28.3939 708.181 58.2403L689.401 157.972C685.086 180.884 665.073 197.48 641.758 197.48Z" fill="white"/>
</svg>
