<svg width="222" height="38" viewBox="0 0 222 38" fill="none" xmlns="http://www.w3.org/2000/svg">
<path d="M27.7037 16.0918H33.2228C34.8882 16.0918 36.1389 17.6128 35.8172 19.2468L34.7464 24.6864C34.5023 25.926 33.4154 26.8198 32.1519 26.8198H23.4907L25.1051 18.2467C25.3405 16.997 26.432 16.0918 27.7037 16.0918Z" fill="#2299F5"/>
<path d="M11.5092 21.4561H5.99009C4.3247 21.4561 3.07396 19.9351 3.39565 18.301L4.46653 12.8615C4.71058 11.6218 5.79752 10.728 7.06097 10.728H15.7222L14.1078 19.3012C13.8724 20.5509 12.7809 21.4561 11.5092 21.4561Z" fill="white"/>
<path d="M4.21298 26.8203H23.4907L21.7987 35.4149C21.5547 36.6545 20.4677 37.5484 19.2043 37.5484H3.18865C1.53215 37.5484 0.283536 36.0427 0.590084 34.4148L1.61441 28.9752C1.84974 27.7255 2.94131 26.8203 4.21298 26.8203Z" fill="#2299F5"/>
<path d="M34.9999 10.7285H15.7222L17.4142 2.13394C17.6582 0.89428 18.7452 0.000466347 20.0086 0.000466347H36.0242C37.6807 0.000466347 38.9294 1.50616 38.6228 3.13404L37.5985 8.57361C37.3631 9.82332 36.2716 10.7285 34.9999 10.7285Z" fill="white"/>
<path d="M66.2204 25.6772C65.6301 28.5752 64.2615 30.6414 62.1148 31.8758C59.9681 33.0833 57.3921 33.687 54.3867 33.687C52.3742 33.687 50.5629 33.365 48.9529 32.721C47.3697 32.0502 45.8536 31.0708 44.4046 29.7827C44.2167 29.5949 44.1228 29.4205 44.1228 29.2595C44.1228 29.1253 44.1899 28.9643 44.3241 28.7765L47.2221 25.1942C47.3831 25.0063 47.5575 24.9124 47.7454 24.9124C47.8795 24.9124 48.0405 24.9795 48.2284 25.1137C49.3554 25.9992 50.469 26.67 51.5692 27.1262C52.6962 27.5555 53.8635 27.7702 55.071 27.7702C56.3053 27.7702 57.3518 27.5287 58.2105 27.0457C59.096 26.5627 59.6193 25.865 59.7803 24.9527C59.8071 24.8722 59.8206 24.738 59.8206 24.5502C59.8206 23.772 59.4315 23.1548 58.6533 22.6986C57.9019 22.2425 56.7078 21.7729 55.071 21.2899C50.1336 19.8408 47.6649 17.1977 47.6649 13.3605C47.6649 13.0385 47.7185 12.475 47.8259 11.67C48.282 8.98658 49.4761 7.0143 51.4082 5.75311C53.367 4.49192 55.7955 3.86133 58.6935 3.86133C60.5719 3.86133 62.249 4.11625 63.7249 4.62609C65.2276 5.1091 66.69 5.87386 68.1122 6.92038C68.3269 7.05455 68.4342 7.21555 68.4342 7.40338C68.4342 7.53755 68.3671 7.69856 68.2329 7.88639L65.4154 11.5089C65.2544 11.6968 65.08 11.7907 64.8921 11.7907C64.7311 11.7907 64.5835 11.737 64.4494 11.6297C63.5102 11.0394 62.4771 10.5698 61.3501 10.2209C60.2231 9.84526 59.096 9.65742 57.969 9.65742C56.8957 9.65742 56.0236 9.89892 55.3527 10.3819C54.6819 10.8381 54.266 11.4821 54.105 12.314C54.0781 12.4213 54.0647 12.5689 54.0647 12.7567C54.0647 13.5081 54.3867 14.085 55.0307 14.4875C55.6747 14.89 56.681 15.2925 58.0495 15.695C59.5522 16.1512 60.8805 16.6744 62.0343 17.2648C63.215 17.8283 64.2347 18.6467 65.0934 19.7201C65.9789 20.7934 66.4217 22.1485 66.4217 23.7854C66.4217 24.2952 66.3546 24.9258 66.2204 25.6772Z" fill="white"/>
<path d="M87.779 5.0286C87.8059 4.84076 87.8729 4.69318 87.9803 4.58584C88.1144 4.45167 88.2889 4.38459 88.5035 4.38459H93.4946C93.7093 4.38459 93.8703 4.46509 93.9776 4.62609C94.1118 4.76026 94.1655 4.93468 94.1386 5.14935L89.2683 32.5198C89.2146 32.9491 88.9731 33.1638 88.5438 33.1638H83.5527C83.338 33.1638 83.1636 33.0967 83.0294 32.9625C82.9221 32.8015 82.8953 32.6137 82.9489 32.399L84.881 21.5314H76.5491L74.6171 32.5198C74.5366 32.9491 74.2816 33.1638 73.8523 33.1638H68.9015C68.66 33.1638 68.4721 33.0967 68.338 32.9625C68.2306 32.8015 68.2038 32.6137 68.2575 32.399L73.0875 5.0286C73.168 4.59926 73.4095 4.38459 73.812 4.38459H78.8031C79.0446 4.38459 79.2191 4.45167 79.3264 4.58584C79.4337 4.72001 79.474 4.90784 79.4471 5.14935L77.5956 15.695H85.8872L87.779 5.0286Z" fill="white"/>
<path d="M100.58 32.5198C100.5 32.9491 100.258 33.1638 99.8558 33.1638H94.8647C94.65 33.1638 94.4756 33.0967 94.3414 32.9625C94.2341 32.8015 94.1939 32.6137 94.2207 32.399L99.0508 5.0286C99.1313 4.59926 99.3862 4.38459 99.8155 4.38459H104.766C105.008 4.38459 105.182 4.46509 105.29 4.62609C105.424 4.76026 105.464 4.93468 105.41 5.14935L100.58 32.5198Z" fill="white"/>
<path d="M120.174 4.38459C123.099 4.38459 125.38 5.14935 127.017 6.67887C128.681 8.2084 129.513 10.2612 129.513 12.8372C129.513 13.7227 129.446 14.5009 129.311 15.1718C128.775 18.0966 127.5 20.4043 125.488 22.0949C123.502 23.7586 120.912 24.5904 117.719 24.5904H113.251L111.843 32.5198C111.762 32.9491 111.507 33.1638 111.078 33.1638H106.087C105.872 33.1638 105.698 33.0967 105.564 32.9625C105.456 32.8015 105.429 32.6137 105.483 32.399L110.313 5.0286C110.34 4.84076 110.407 4.69318 110.514 4.58584C110.649 4.45167 110.823 4.38459 111.038 4.38459H120.174ZM117.84 18.8346C119.262 18.8346 120.403 18.4857 121.261 17.788C122.12 17.0635 122.657 16.017 122.871 14.6485C122.925 14.3802 122.952 14.0179 122.952 13.5617C122.952 12.4615 122.63 11.6297 121.986 11.0662C121.369 10.4758 120.47 10.1807 119.289 10.1807H115.787L114.258 18.8346H117.84Z" fill="white"/>
<path d="M151.538 9.49642C151.457 9.92576 151.216 10.1404 150.813 10.1404H139.865L138.859 15.7353H148.439C148.653 15.7353 148.814 15.8024 148.922 15.9365C149.029 16.0707 149.069 16.2585 149.042 16.5L148.278 20.7263C148.197 21.1557 147.956 21.3704 147.553 21.3704H137.853L136.806 27.3677H148.197C148.412 27.3677 148.573 27.4482 148.68 27.6092C148.814 27.7434 148.868 27.9178 148.841 28.1325L148.117 32.5198C148.036 32.9491 147.781 33.1638 147.352 33.1638H130.165C129.923 33.1638 129.749 33.0967 129.641 32.9625C129.534 32.8284 129.494 32.6405 129.521 32.399L134.391 5.0286C134.472 4.59926 134.713 4.38459 135.116 4.38459H151.659C151.9 4.38459 152.075 4.46509 152.182 4.62609C152.316 4.76026 152.356 4.93468 152.303 5.14935L151.538 9.49642Z" fill="#2299F5"/>
<path d="M168.494 33.1638C168.038 33.1638 167.796 32.9491 167.77 32.5198L167.206 27.8105H158.15L155.976 32.6405C155.869 32.9894 155.6 33.1638 155.171 33.1638H149.657C149.254 33.1638 149.053 33.0162 149.053 32.721C149.053 32.6137 149.093 32.4795 149.174 32.3185L162.577 4.90785C162.738 4.55901 163.007 4.38459 163.382 4.38459H169.259C169.688 4.38459 169.943 4.59926 170.024 5.0286L174.169 32.4393V32.6003C174.169 32.976 173.955 33.1638 173.525 33.1638H168.494ZM165.314 11.3882L164.63 13.0385C162.966 16.983 161.651 20.0018 160.685 22.0949H166.562L165.475 11.3882H165.314Z" fill="#2299F5"/>
<path d="M197.158 25.6772C196.568 28.5752 195.199 30.6414 193.053 31.8758C190.906 33.0833 188.33 33.687 185.324 33.687C183.312 33.687 181.501 33.365 179.891 32.721C178.307 32.0502 176.791 31.0708 175.342 29.7827C175.154 29.5949 175.061 29.4205 175.061 29.2595C175.061 29.1253 175.128 28.9643 175.262 28.7765L178.16 25.1942C178.321 25.0063 178.495 24.9124 178.683 24.9124C178.817 24.9124 178.978 24.9795 179.166 25.1137C180.293 25.9992 181.407 26.67 182.507 27.1262C183.634 27.5555 184.801 27.7702 186.009 27.7702C187.243 27.7702 188.29 27.5287 189.148 27.0457C190.034 26.5627 190.557 25.865 190.718 24.9527C190.745 24.8722 190.758 24.738 190.758 24.5502C190.758 23.772 190.369 23.1548 189.591 22.6986C188.84 22.2425 187.646 21.7729 186.009 21.2899C181.071 19.8408 178.603 17.1977 178.603 13.3605C178.603 13.0385 178.656 12.475 178.764 11.67C179.22 8.98658 180.414 7.0143 182.346 5.75311C184.305 4.49192 186.733 3.86133 189.631 3.86133C191.51 3.86133 193.187 4.11625 194.663 4.62609C196.165 5.1091 197.628 5.87386 199.05 6.92038C199.265 7.05455 199.372 7.21555 199.372 7.40338C199.372 7.53755 199.305 7.69856 199.171 7.88639L196.353 11.5089C196.192 11.6968 196.018 11.7907 195.83 11.7907C195.669 11.7907 195.521 11.737 195.387 11.6297C194.448 11.0394 193.415 10.5698 192.288 10.2209C191.161 9.84526 190.034 9.65742 188.907 9.65742C187.833 9.65742 186.961 9.89892 186.29 10.3819C185.62 10.8381 185.204 11.4821 185.043 12.314C185.016 12.4213 185.002 12.5689 185.002 12.7567C185.002 13.5081 185.324 14.085 185.968 14.4875C186.612 14.89 187.619 15.2925 188.987 15.695C190.49 16.1512 191.818 16.6744 192.972 17.2648C194.153 17.8283 195.172 18.6467 196.031 19.7201C196.917 20.7934 197.359 22.1485 197.359 23.7854C197.359 24.2952 197.292 24.9258 197.158 25.6772Z" fill="#2299F5"/>
<path d="M221.212 9.49642C221.132 9.92576 220.89 10.1404 220.488 10.1404H209.54L208.533 15.7353H218.113C218.328 15.7353 218.489 15.8024 218.596 15.9365C218.703 16.0707 218.744 16.2585 218.717 16.5L217.952 20.7263C217.872 21.1557 217.63 21.3704 217.228 21.3704H207.527L206.481 27.3677H217.872C218.086 27.3677 218.247 27.4482 218.355 27.6092C218.489 27.7434 218.542 27.9178 218.516 28.1325L217.791 32.5198C217.711 32.9491 217.456 33.1638 217.026 33.1638H199.839C199.598 33.1638 199.423 33.0967 199.316 32.9625C199.209 32.8284 199.168 32.6405 199.195 32.399L204.066 5.0286C204.146 4.59926 204.388 4.38459 204.79 4.38459H221.333C221.575 4.38459 221.749 4.46509 221.856 4.62609C221.991 4.76026 222.031 4.93468 221.977 5.14935L221.212 9.49642Z" fill="#2299F5"/>
</svg>
