<svg width="204" height="35" viewBox="0 0 204 35" fill="none" xmlns="http://www.w3.org/2000/svg">
<path d="M24.8446 18.4229C24.4517 19.275 23.9579 20.102 23.3633 20.9037C20.1722 25.2065 16.1946 29.7601 13 34.0604C11.472 31.9897 9.68137 29.7707 7.88693 27.5548C6.09212 25.3386 4.2931 23.1259 2.74782 21.0682C0.864103 18.5599 -0.144532 15.7541 0.0167789 12.6189C0.25119 8.0555 2.22593 4.58215 5.82713 2.20215C5.82538 2.22433 5.82468 2.24794 5.82468 2.27259C5.83065 6.65219 5.83136 11.0318 5.82327 15.4114C5.82292 15.6424 5.9027 15.7551 6.09423 15.8658C9.86236 18.0429 13.627 20.2271 17.3913 22.4112C17.4735 22.4588 17.5473 22.5214 17.625 22.5767H17.7318C18.2948 22.24 18.854 21.8966 19.4215 21.5673C21.2287 20.5183 23.0361 19.4697 24.8446 18.4229Z" fill="#0393FB"/>
<path d="M16.8824 9.53953C16.875 13.0171 16.8771 16.4946 16.8771 19.9718V20.2381C16.7629 20.1778 16.6852 20.1408 16.6111 20.0979C13.6231 18.3657 10.6355 16.6323 7.64618 14.9026C7.50489 14.8208 7.42652 14.7409 7.42688 14.5549C7.43391 11.0597 7.43215 7.56423 7.43251 4.06908C7.43251 4.0085 7.43742 3.94756 7.44164 3.85352C7.53864 3.90177 7.61701 3.93523 7.68975 3.9775C10.6784 5.70869 13.666 7.44165 16.6561 9.17041C16.8072 9.2577 16.8831 9.3465 16.8824 9.53953Z" fill="#0393FB"/>
<path d="M23.0614 4.79206C21.351 5.78287 19.6412 6.77439 17.9332 7.76944C17.7466 7.87827 17.6152 7.87863 17.4282 7.76944C14.4666 6.04493 11.5004 4.32887 8.53539 2.61036C8.45175 2.56175 8.37016 2.50892 8.26196 2.4427C8.35123 2.38458 8.41872 2.33633 8.4904 2.29476C9.809 1.52972 11.1283 0.765038 12.4469 0H12.5759C13.5578 0 14.539 0.0806597 15.5051 0.255365C15.6538 0.282134 15.8017 0.311369 15.949 0.343774C18.7517 0.960168 21.2578 2.58746 23.0614 4.79206Z" fill="#0393FB"/>
<path d="M25.6537 16.097C23.3208 17.4471 20.989 18.8 18.6569 20.1518C18.6129 20.1772 18.5651 20.1966 18.4881 20.2343C18.4839 20.1448 18.4804 20.1 18.4804 20.0557C18.4801 16.5429 18.4804 13.0298 18.4773 9.51702C18.4773 9.36803 18.5148 9.28034 18.6527 9.20105C20.4383 8.16975 22.2229 7.13632 24.0071 6.10254C24.9079 7.52589 25.5363 9.12256 25.8083 10.8027C26.1077 12.6515 26.0568 14.4175 25.6537 16.097Z" fill="#0393FB"/>
<path d="M32.1287 12.1462C31.1415 17.9884 35.7784 19.0969 39.1887 19.5763C41.1032 19.8459 42.5989 20.1755 42.3896 21.344C42.1503 22.6322 40.8939 23.0518 38.8596 23.0518C37.1843 23.0518 36.1373 22.5125 35.7784 21.4638C35.4791 20.595 35.0903 20.5051 34.133 20.8047L31.1415 21.8233C30.2141 22.1529 29.885 22.5724 30.0346 23.4712C30.633 26.5271 33.804 28.115 38.2613 28.115C43.7956 28.115 47.535 26.2276 48.3427 21.8233C49.3299 16.3406 45.052 14.7826 41.7016 14.3033C39.5476 14.0337 37.8724 13.764 38.0818 12.4757C38.2613 11.4271 39.1587 10.9178 41.193 10.9178C42.569 10.9178 43.5562 11.3372 43.9452 12.4757C44.2742 13.3446 44.5734 13.4644 45.4409 13.1049L48.4025 11.9364C49.3598 11.5469 49.5991 11.2473 49.3 10.3785C48.4025 7.59218 46.3384 5.94434 41.911 5.94434C36.1971 5.94434 32.8467 8.19138 32.1287 12.1462Z" fill="#282828"/>
<path d="M69.421 6.36328H66.0106C65.0832 6.36328 64.6944 6.69285 64.5149 7.65164L63.3482 14.2729H57.5746L58.7412 7.65164C58.9207 6.69285 58.6515 6.36328 57.6942 6.36328H54.3138C53.3565 6.36328 52.9975 6.69285 52.818 7.65164L49.4975 26.4068C49.3479 27.3356 49.5872 27.6651 50.5445 27.6651H53.9249C54.8822 27.6651 55.2711 27.3356 55.4207 26.4068L56.6472 19.5159H62.4209L61.2243 26.4068C61.0447 27.3356 61.314 27.6651 62.2713 27.6651H65.6517C66.609 27.6651 66.9679 27.3356 67.1474 26.4068L70.4381 7.65164C70.6176 6.69285 70.3484 6.36328 69.421 6.36328Z" fill="#282828"/>
<path d="M73.5308 7.59197L70.2102 26.467C70.0607 27.3658 70.3 27.6654 71.1974 27.6654H74.7275C75.6248 27.6654 75.9839 27.3658 76.1334 26.467L79.454 7.59197C79.6335 6.6931 79.3643 6.39355 78.4668 6.39355H74.9369C74.0394 6.39355 73.7104 6.6931 73.5308 7.59197Z" fill="#282828"/>
<path d="M92.2225 6.39355H83.9653C83.0081 6.39355 82.6491 6.72312 82.4696 7.6519L79.1789 26.4071C78.9994 27.3358 79.2687 27.6654 80.226 27.6654H83.6064C84.5637 27.6654 84.9226 27.3358 85.1021 26.4071L85.9996 21.2838H89.6494C94.3163 21.2838 97.6967 19.0668 98.534 14.333C99.3413 9.56938 96.8883 6.39355 92.2225 6.39355ZM89.8584 16.0408H86.927L87.7048 11.6366H90.6368C92.0724 11.6366 92.7306 12.5354 92.4916 13.8537C92.2514 15.1719 91.2651 16.0408 89.8584 16.0408Z" fill="#282828"/>
<path d="M110.633 6.39355H103.364C102.406 6.39355 102.047 6.72312 101.867 7.6519L98.5769 26.4071C98.3979 27.3358 98.667 27.6654 99.6244 27.6654H106.983C112.907 27.6654 116.586 24.9091 117.514 19.726L118.291 15.2319C119.218 10.0487 116.556 6.39355 110.633 6.39355ZM112.428 14.8724L111.68 19.1867C111.291 21.3139 110.065 22.4223 107.642 22.4223H105.189L107.102 11.6366H109.526C111.949 11.6366 112.817 12.7452 112.428 14.8724Z" fill="#282828"/>
<path d="M122.143 7.59197L118.823 26.467C118.673 27.3658 118.912 27.6654 119.809 27.6654H123.339C124.237 27.6654 124.596 27.3658 124.745 26.467L128.066 7.59197C128.245 6.6931 127.976 6.39355 127.079 6.39355H123.549C122.651 6.39355 122.322 6.6931 122.143 7.59197Z" fill="#282828"/>
<path d="M141.103 6.39355H132.578C131.621 6.39355 131.261 6.72312 131.081 7.6519L127.791 26.4071C127.612 27.3358 127.881 27.6654 128.838 27.6654H132.219C133.176 27.6654 133.534 27.3358 133.714 26.4071L134.732 20.5948H135.509C136.826 20.5948 137.035 21.104 137.364 22.1228L138.56 26.2274C138.859 27.2759 139.488 27.6654 141.073 27.6654H144.305C145.291 27.6654 145.62 27.0063 145.351 26.1973L143.556 21.0741C143.377 20.5948 143.197 20.1753 142.988 19.7859C145.202 18.6473 146.758 16.7598 147.266 13.8537C148.103 9.20979 145.62 6.39355 141.103 6.39355ZM141.133 13.584C140.924 14.8124 140.086 15.5913 138.829 15.5913H135.599L136.316 11.6366H139.518C140.804 11.6366 141.373 12.3856 141.133 13.584Z" fill="#282828"/>
<path d="M164.889 6.39355H152.355C151.398 6.39355 151.039 6.72312 150.86 7.6519L147.569 26.4071C147.389 27.3358 147.658 27.6654 148.616 27.6654H161.39C162.347 27.6654 162.736 27.3358 162.886 26.4071L163.364 23.6807C163.544 22.722 163.275 22.4223 162.347 22.4223H154.18L154.689 19.5462H161.001C161.958 19.5462 162.317 19.2166 162.496 18.2579L162.976 15.5614C163.125 14.6327 162.886 14.3031 161.928 14.3031H155.617L156.095 11.6366H163.992C164.919 11.6366 165.309 11.3071 165.489 10.3483L165.967 7.6519C166.116 6.72312 165.847 6.39355 164.889 6.39355Z" fill="#282828"/>
<path d="M166.686 13.9138L165.699 19.4565C164.831 24.6096 167.584 28.115 173.476 28.115C178.084 28.115 181.314 26.2874 183.139 22.9319C183.618 22.0631 183.468 21.6136 182.631 21.3141L179.519 20.1157C178.682 19.7861 178.293 19.9958 177.755 20.9246C177.036 22.2128 175.989 22.872 174.314 22.872C171.95 22.872 171.203 21.8533 171.562 19.7561L172.549 14.3033C172.908 12.206 174.015 11.1874 176.378 11.1874C178.054 11.1874 178.831 11.7866 179.1 13.1348C179.31 14.0636 179.638 14.2434 180.596 13.9438L183.677 12.8952C184.635 12.5955 184.874 12.1462 184.695 11.2773C184.066 7.92175 181.852 5.94434 177.246 5.94434C171.352 5.94434 167.584 8.76068 166.686 13.9138Z" fill="#282828"/>
<path d="M202.747 6.39355H187.939C186.982 6.39355 186.623 6.72312 186.443 7.6519L185.965 10.3483C185.815 11.3071 186.055 11.6366 187.011 11.6366H191.469L188.866 26.4071C188.687 27.3358 188.956 27.6654 189.914 27.6654H193.294C194.251 27.6654 194.611 27.3358 194.79 26.4071L197.393 11.6366H201.819C202.777 11.6366 203.166 11.3071 203.316 10.3483L203.794 7.6519C203.973 6.72312 203.704 6.39355 202.747 6.39355Z" fill="#282828"/>
</svg>
