<svg width="506" height="242" viewBox="0 0 506 242" fill="none" xmlns="http://www.w3.org/2000/svg">
<path d="M150.539 195.744L146.357 147.506L135.902 137.051L126.932 137.804L125.51 120.95L115.055 110.496L81.3071 113.339L108.49 45.4668L98.0348 35.012L49.7545 39.0893L0.0732422 157.438L3.39786 196.999L13.8527 207.454L76.6652 201.975L78.3798 222.258L88.8346 232.712L134.522 228.865L131.846 197.229L150.539 195.744ZM73.1733 142.257L69.5141 142.571L72.5669 135.002L73.1733 142.257Z" fill="#2299F5"/>
<path opacity="0.2" d="M150.539 195.744L146.357 147.506L135.902 137.051L126.932 137.804L125.51 120.95L115.055 110.496L81.3071 113.339L108.49 45.4668L98.0348 35.012L49.7545 39.0893L0.0732422 157.438L3.39786 196.999L13.8527 207.454L76.6652 201.975L78.3798 222.258L88.8346 232.712L134.522 228.865L131.846 197.229L150.539 195.744ZM73.1733 142.257L69.5141 142.571L72.5669 135.002L73.1733 142.257Z" fill="white"/>
<path opacity="0.6" d="M140 185.498L121.453 187.045L124.108 218.682L78.4417 222.55L75.7653 190.914L3.35532 197.019L0.00976562 157.479L49.691 39.1099L97.9713 35.0535L54.0611 144.139L73.0052 142.55L70.6215 114.343L114.908 110.6L117.292 138.807L135.839 137.239L140 185.498Z" fill="white"/>
<path d="M249.901 0.762072C206.263 -1.91436 172.975 31.5619 169.211 92.7644C168.862 98.3332 168.792 103.916 169.002 109.492C166.911 168.039 195.494 203.69 238.004 206.304C281.642 208.98 314.951 175.483 318.694 114.301C319.043 108.732 319.113 103.149 318.903 97.5736C321.078 38.943 292.473 3.37577 249.901 0.762072ZM262.865 98.5772C260.67 134.124 251.971 144.829 241.119 144.16C232.316 143.617 225.834 135.796 224.852 113.946C224.852 112.21 224.998 110.412 225.123 108.551C227.214 73.0048 235.996 62.2991 246.848 62.9682C255.651 63.5118 262.154 71.332 263.116 93.1825C263.06 94.925 262.977 96.7232 262.865 98.5772Z" fill="#2299F5"/>
<path opacity="0.2" d="M249.901 0.762072C206.263 -1.91436 172.975 31.5619 169.211 92.7644C168.862 98.3332 168.792 103.916 169.002 109.492C166.911 168.039 195.494 203.69 238.004 206.304C281.642 208.98 314.951 175.483 318.694 114.301C319.043 108.732 319.113 103.149 318.903 97.5736C321.078 38.943 292.473 3.37577 249.901 0.762072ZM262.865 98.5772C260.67 134.124 251.971 144.829 241.119 144.16C232.316 143.617 225.834 135.796 224.852 113.946C224.852 112.21 224.998 110.412 225.123 108.551C227.214 73.0048 235.996 62.2991 246.848 62.9682C255.651 63.5118 262.154 71.332 263.116 93.1825C263.06 94.925 262.977 96.7232 262.865 98.5772Z" fill="white"/>
<path opacity="0.6" d="M169.21 93.1198C172.973 31.8546 206.261 -1.62165 249.9 1.11751C293.538 3.85667 322.519 41.0758 318.755 102.341C314.991 163.606 281.703 197.082 238.065 194.343C194.427 191.604 165.467 154.385 169.21 93.1198ZM262.864 98.8491C264.955 63.1982 257.699 51.6142 246.847 50.966C235.995 50.3178 227.213 60.8981 225.122 96.549C223.031 132.2 230.266 143.763 241.118 144.432C251.97 145.101 260.668 134.5 262.864 98.8491Z" fill="white"/>
<path d="M506.001 158.17L485.488 156.539L487.726 128.311L438.734 124.422L429.346 130.193L482.122 50.9034L428.719 46.7214L412.911 51.9907L338.347 160.177L335.211 199.738L415.295 206.115L412.786 237.752L463.324 241.766L479.132 236.497L481.223 211.406L486.429 211.824L502.258 206.555L506.001 158.17ZM421.212 151.416L415.546 150.977L422.007 141.233L421.212 151.416Z" fill="#2299F5"/>
<path opacity="0.2" d="M506.001 158.17L485.488 156.539L487.726 128.311L438.734 124.422L429.346 130.193L482.122 50.9034L428.719 46.7214L412.911 51.9907L338.347 160.177L335.211 199.738L415.295 206.115L412.786 237.752L463.324 241.766L479.132 236.497L481.223 211.406L486.429 211.824L502.258 206.555L506.001 158.17ZM421.212 151.416L415.546 150.977L422.007 141.233L421.212 151.416Z" fill="white"/>
<path opacity="0.6" d="M502.175 206.429L481.642 204.798L479.133 236.351L428.594 232.336L431.124 200.804L351.02 194.427L354.156 154.866L428.72 46.6794L482.123 50.8614L415.547 150.935L436.456 152.587L438.694 124.38L487.685 128.269L485.447 156.497L505.96 158.128L502.175 206.429Z" fill="white"/>
</svg>
