<svg width="16" height="17" viewBox="0 0 16 17" fill="none" xmlns="http://www.w3.org/2000/svg">
<path opacity="0.75" d="M12.8934 10.1603L12.2267 9.05359C12.0867 8.80693 11.96 8.34026 11.96 8.06693V6.38026C11.96 4.20693 10.1934 2.43359 8.01338 2.43359C5.83338 2.43359 4.06671 4.20693 4.06671 6.38026V8.06693C4.06671 8.34026 3.94004 8.80693 3.80004 9.04693L3.12671 10.1603C2.86004 10.6069 2.80004 11.1003 2.96671 11.5536C3.12671 12.0003 3.50671 12.3469 4.00004 12.5136C5.29338 12.9536 6.65338 13.1669 8.01338 13.1669C9.37338 13.1669 10.7334 12.9536 12.0267 12.5203C12.4934 12.3669 12.8534 12.0136 13.0267 11.5536C13.2 11.0936 13.1534 10.5869 12.8934 10.1603Z" fill="#0393FB"/>
<path d="M9.49999 2.71301C9.03999 2.53301 8.53999 2.43301 8.01333 2.43301C7.49333 2.43301 6.99333 2.52634 6.53333 2.71301C6.81999 2.17301 7.38666 1.83301 8.01333 1.83301C8.64666 1.83301 9.20666 2.17301 9.49999 2.71301Z" fill="#0393FB"/>
<path d="M9.88666 13.8397C9.60666 14.613 8.86666 15.1663 7.99999 15.1663C7.47333 15.1663 6.95333 14.953 6.58666 14.573C6.37333 14.373 6.21333 14.1063 6.12 13.833C6.20666 13.8463 6.29333 13.853 6.38666 13.8663C6.53999 13.8863 6.69999 13.9063 6.85999 13.9197C7.23999 13.953 7.62666 13.973 8.01333 13.973C8.39333 13.973 8.77333 13.953 9.14666 13.9197C9.28666 13.9063 9.42666 13.8997 9.56 13.8797C9.66666 13.8663 9.77333 13.853 9.88666 13.8397Z" fill="#0393FB"/>
</svg>
