<svg width="121" height="49" viewBox="0 0 121 49" fill="none" xmlns="http://www.w3.org/2000/svg">
<rect width="121" height="49" rx="4" fill="#6C1CD3"/>
<path d="M32.3554 14.1644L26.388 14.1094L26.388 18.0684H36.2776L26 31.2423V34.5925H32.3554V38.4512H36.1687V34.5925H42.6512C42.7057 34.4382 42.7248 34.0219 42.3798 33.6406C41.8078 33.0051 41.3529 32.3409 40.9352 31.5056C40.7446 31.1333 40.5998 30.6875 40.5453 30.6512C39.2687 30.5927 31.9247 30.6078 31.9287 30.5614L42.2154 17.3067V14.1644H36.1687V10.2603H32.3554V14.1644Z" fill="white"/>
<path d="M59.8927 12.3215C59.8019 12.3578 59.7747 14.3643 59.7747 21.9636C59.7747 32.2322 59.7656 32.0597 60.2196 32.9404C60.6281 33.7302 61.6268 34.4384 62.7436 34.729C63.361 34.8924 65.1768 34.9105 65.8759 34.7653C66.7747 34.5746 66.9472 34.3022 66.5931 33.6031C66.3662 33.1673 66.0666 32.214 65.9939 31.6874C65.894 31.061 65.7669 30.9611 65.0043 30.9792C64.6411 30.9883 64.2961 30.9611 64.2326 30.9248C63.8603 30.6887 63.8603 30.6252 63.8603 21.4279C63.8603 15.5174 63.8331 12.5485 63.7695 12.4305C63.6787 12.267 63.5607 12.258 61.8356 12.267C60.8279 12.267 59.9472 12.2943 59.8927 12.3215Z" fill="white"/>
<path d="M68.2183 12.3488C68.1003 12.4214 68.0821 13.5835 68.0821 21.9001C68.0821 30.8612 68.0912 31.406 68.2546 32.0325C68.5633 33.2672 69.2624 34.0208 70.5879 34.5746C71.0964 34.7834 71.3234 34.8198 72.3493 34.847C73.7203 34.8833 74.4194 34.7834 75.1185 34.4294C75.8085 34.0934 75.8266 33.8574 75.2365 32.9948C75.0004 32.6498 74.6373 32.0597 74.4375 31.6874L74.0744 31.0065L73.4116 30.9974C72.5854 30.9793 72.5037 30.9429 72.3493 30.5525C72.2313 30.2892 72.2131 28.9364 72.2131 21.428C72.2131 15.5174 72.1859 12.5485 72.1223 12.4305C72.0315 12.2671 71.9135 12.258 70.1885 12.258C69.1807 12.258 68.2909 12.3034 68.2183 12.3488Z" fill="white"/>
<path d="M92.3689 14.3007C91.6335 14.6367 91.2522 15.2177 91.2431 16.0258C91.234 16.7158 91.5154 17.2424 92.0874 17.6146C92.7956 18.0958 93.9305 17.9596 94.5207 17.3241C95.2742 16.516 95.1199 15.1178 94.1938 14.4914C93.7126 14.1645 92.8682 14.0828 92.3689 14.3007ZM93.8216 14.6367C94.8475 15.1542 95.0019 16.4797 94.1303 17.2515C93.758 17.5783 93.4947 17.6509 92.9227 17.5965C91.3429 17.4421 91.0343 15.2268 92.5051 14.564C92.9046 14.3824 93.3676 14.4097 93.8216 14.6367Z" fill="white"/>
<path d="M92.4324 15.0452C92.3688 15.1541 92.3598 16.8429 92.4233 17.0154C92.4505 17.0971 92.5323 17.1606 92.6049 17.1606C92.6957 17.1606 92.732 17.0335 92.732 16.7067C92.732 16.2981 92.7502 16.2527 92.9408 16.2527C93.0861 16.2527 93.2132 16.3798 93.4129 16.7067C93.5764 16.9791 93.7398 17.1606 93.8397 17.1606C94.0576 17.1606 94.0485 17.1243 93.7126 16.6341C93.5128 16.3435 93.4583 16.2073 93.5401 16.1801C93.7761 16.0984 94.0031 15.7988 94.0031 15.5718C94.0031 15.1632 93.7126 14.9816 93.0589 14.9816C92.732 14.9816 92.4505 15.0089 92.4324 15.0452ZM93.531 15.3357C93.6036 15.372 93.6399 15.5082 93.6218 15.6263C93.5945 15.8169 93.5401 15.8442 93.1678 15.8714L92.732 15.8986V15.5809C92.732 15.2631 92.7411 15.254 93.077 15.254C93.2586 15.254 93.4674 15.2903 93.531 15.3357Z" fill="white"/>
<path d="M48.471 18.0233C48.4256 18.0415 48.0715 18.1232 47.6992 18.2049C45.3659 18.7406 43.3049 20.5292 42.4333 22.799C41.9521 24.0519 41.7796 25.0234 41.7705 26.467C41.7615 28.4916 42.17 29.9806 43.1052 31.397C44.1584 32.9858 45.7018 34.0663 47.6992 34.611C48.3802 34.7926 48.6798 34.8198 50.2414 34.8198C51.7849 34.8198 52.1027 34.7926 52.7473 34.6201C54.3452 34.1752 55.7071 33.4398 56.8057 32.3957C57.5048 31.742 57.4957 31.5604 56.7875 31.0156C56.497 30.7887 55.9704 30.2984 55.6254 29.9171C55.1896 29.454 54.9263 29.2361 54.7901 29.2361C54.663 29.2361 54.3724 29.4177 54.091 29.6901C53.1195 30.5708 51.8938 30.9884 50.2868 30.9793C48.816 30.9702 47.7446 30.5889 47.0637 29.8081C46.7187 29.4177 46.2829 28.5279 46.1921 28.0286L46.1376 27.6927H51.794C54.9081 27.6927 57.5138 27.6563 57.5774 27.6109C57.877 27.4203 57.9496 26.1038 57.7317 24.6693C57.2142 21.2374 55.1623 18.9312 51.9392 18.1595C51.3672 18.0233 50.8951 17.9779 49.8782 17.987C49.1519 17.987 48.5255 18.0052 48.471 18.0233ZM50.8951 21.5279C51.5579 21.6641 52.375 22.118 52.7564 22.5538C53.1104 22.9533 53.4736 23.6706 53.5644 24.1336L53.628 24.4242H49.9236H46.2284L46.292 24.1336C46.5643 22.9079 47.6175 21.882 48.9249 21.5551C49.506 21.4099 50.2868 21.4008 50.8951 21.5279Z" fill="white"/>
<path d="M81.4738 18.105C78.2507 18.8223 76.0717 21.0921 75.3908 24.4423C74.9822 26.4216 75.2092 28.7277 75.9809 30.3801C77.0341 32.6681 78.9498 34.148 81.5646 34.6836C82.3908 34.8561 82.7177 34.8743 84.016 34.838C85.1146 34.8017 85.7047 34.7381 86.2132 34.6019C87.7657 34.1934 89.1276 33.4489 90.1717 32.4502C90.9707 31.6784 90.9707 31.6421 90.1081 30.9248C89.7087 30.598 89.173 30.0805 88.9188 29.7809C88.3286 29.0999 88.1743 29.0909 87.5115 29.6901C86.5219 30.5889 85.3416 30.9884 83.6982 30.9793C81.3921 30.9702 80.0484 29.9806 79.6126 27.9832L79.5491 27.7476H91.0524C91.4428 27.4661 91.2975 24.4877 90.8254 23.1077C90.7346 22.8353 90.4895 22.2905 90.2897 21.9092C89.2275 19.8755 87.5297 18.6135 85.1691 18.1141C84.4155 17.9507 82.1911 17.9507 81.4738 18.105ZM84.3065 21.5279C84.9239 21.6641 85.5595 21.9818 86.0134 22.3904C86.3948 22.7445 87.0121 23.8612 87.0121 24.2062V24.4241H79.6398L79.7034 24.1699C80.1755 22.227 82.1729 21.0739 84.3065 21.5279Z" fill="white"/>
</svg>
