<svg width="154" height="30" viewBox="0 0 154 30" fill="none" xmlns="http://www.w3.org/2000/svg">
<g clip-path="url(#clip0_17_262)">
<path fill-rule="evenodd" clip-rule="evenodd" d="M150.115 23.9916C151.282 23.9803 152.448 23.969 153.613 24.046C153.613 22.6686 153.613 21.2911 153.613 19.9137C153.612 13.5315 153.612 7.14939 153.626 0.767121C153.627 0.329176 153.54 0.158807 153.102 0.255503C153.06 0.354073 152.976 0.366133 152.891 0.378365C152.872 0.381021 152.854 0.383685 152.836 0.387245C152.324 0.487013 151.812 0.587634 151.301 0.688252L151.3 0.688408C150.039 0.936536 148.777 1.18465 147.513 1.41995C147.098 1.4972 146.915 1.63073 146.927 2.10961C146.955 3.23842 146.95 4.36815 146.945 5.51173V5.53917C146.943 5.97387 146.941 6.41058 146.941 6.85001C146.899 6.83616 146.864 6.82686 146.833 6.81894C146.781 6.80533 146.745 6.79579 146.718 6.77429C143.757 4.41777 138.098 4.83065 135.139 8.14466C131.877 11.8004 131.861 18.385 135.18 22.0059C137.835 24.902 142.796 25.4371 145.923 23.1584C146.146 22.9952 146.357 22.8145 146.586 22.6181C146.699 22.5216 146.816 22.4213 146.941 22.3175C146.941 22.4609 146.943 22.5952 146.945 22.7233V22.7249C146.95 22.9955 146.954 23.2383 146.935 23.4794C146.907 23.8547 147.008 24.0501 147.424 23.9966C147.566 23.9783 147.711 23.9834 147.856 23.9884C147.903 23.9901 147.951 23.9917 147.998 23.9925C148.704 24.0053 149.41 23.9984 150.115 23.9916ZM143.406 18.6666C141.274 18.6553 139.798 17.1049 139.8 14.8783C139.802 12.6937 141.27 11.2031 143.423 11.2021C145.599 11.2011 147.117 12.7244 147.11 14.9013C147.101 17.1381 145.586 18.6786 143.406 18.6666Z" fill="white"/>
<path fill-rule="evenodd" clip-rule="evenodd" d="M1.67921 5.87931H1.67894C1.16195 5.88058 0.644884 5.88185 0.12787 5.88356C0.12787 7.31784 0.1281 8.75211 0.128329 10.1864C0.129311 16.325 0.130293 22.4635 0.113289 28.6022C0.11201 29.1126 0.263194 29.1791 0.716487 29.1735C2.20141 29.1545 3.68648 29.1573 5.17158 29.1601C5.70735 29.1612 6.24313 29.1622 6.77891 29.1622V22.9468C6.83524 22.9689 6.87948 22.9841 6.91511 22.9963C6.97332 23.0162 7.00855 23.0283 7.036 23.0501C9.88494 25.3164 15.5943 25.1486 18.5973 21.6396C21.4439 18.3131 21.7261 14.4923 20.2283 10.5536C18.1261 5.02583 11.4019 3.46463 6.98995 7.3757C6.96545 7.39749 6.92466 7.40099 6.87723 7.40505C6.85285 7.40714 6.82671 7.40937 6.80014 7.41432C6.80014 7.29731 6.79875 7.18223 6.79738 7.06856C6.79427 6.81029 6.79125 6.55902 6.80475 6.30897C6.82137 5.9974 6.74591 5.85184 6.38906 5.85542C4.81906 5.87159 3.24914 5.87545 1.67921 5.87931ZM10.2635 18.642C8.11014 18.6032 6.60368 17.0327 6.63207 14.8568C6.66149 12.6216 8.18791 11.1154 10.3899 11.1491C12.5656 11.1824 13.9794 12.7625 13.9413 15.118C13.9081 17.1548 12.3172 18.6791 10.2635 18.642Z" fill="white"/>
<path fill-rule="evenodd" clip-rule="evenodd" d="M107.102 5.23611C109.137 5.26732 110.847 5.55254 112.476 6.25013C116.313 7.8932 118.331 11.395 117.997 15.5649C117.598 20.5506 114.206 23.4446 109.733 24.2875C107.076 24.7886 104.466 24.5822 101.967 23.5178C98.017 21.8363 96.2762 18.4804 96.4834 14.4419C96.7791 8.68262 100.978 5.97668 105.466 5.37706C105.923 5.31604 106.383 5.28549 106.741 5.26175C106.879 5.25265 107.001 5.24454 107.102 5.23611ZM103.55 14.9108C103.551 17.0806 105.125 18.6735 107.238 18.6426C109.382 18.6111 110.87 17.0931 110.872 14.9354C110.874 12.6858 109.371 11.1402 107.191 11.1489C105.043 11.1576 103.549 12.7009 103.55 14.9108Z" fill="white"/>
<path fill-rule="evenodd" clip-rule="evenodd" d="M40.6397 7.77553C38.4428 5.93907 35.8348 5.30876 33.0444 5.23943C32.124 5.23688 31.2141 5.33306 30.3137 5.5088C25.9578 6.3586 22.6537 9.16559 22.1899 13.8661C21.7758 18.0667 23.4695 21.8123 27.7461 23.563C30.3234 24.6183 32.9869 24.7896 35.7049 24.2197C37.9974 23.739 40.0112 22.7457 41.5532 20.941C43.3528 18.8344 43.847 16.3375 43.6127 13.6535C43.4075 11.3036 42.4687 9.3045 40.6397 7.77553ZM29.1863 14.895C29.2298 12.6548 30.7537 11.1317 32.9334 11.1491C35.0502 11.166 36.58 12.7725 36.5559 14.9535C36.5321 17.0939 34.9906 18.6397 32.881 18.6382C30.7606 18.6367 29.1454 17 29.1863 14.895Z" fill="white"/>
<path d="M83.0455 7.32914C85.244 5.18392 87.8292 4.83705 90.6032 5.58145C93.1185 6.25653 94.2986 8.14491 94.766 10.5769C94.891 11.2274 94.9297 11.8848 94.9289 12.5474L94.9283 12.9852C94.9236 16.4413 94.9189 19.8971 94.9363 23.353C94.9389 23.8327 94.843 24.0156 94.3145 24.0061C92.4824 23.9721 90.6487 23.9767 88.8163 24.0041C88.3203 24.0115 88.1645 23.8831 88.1671 23.3671C88.1793 20.6561 88.1626 17.9447 88.1459 15.2335L88.1405 14.3537C88.1387 14.0577 88.1055 13.7579 88.0499 13.467C87.7394 11.847 87.0907 11.308 85.5443 11.3661C84.0562 11.4218 83.1471 12.2287 83.0159 13.7146C82.9156 14.8516 82.932 15.9923 82.9484 17.133C82.9563 17.6764 82.9641 18.2198 82.9593 18.7628C82.9455 20.3184 82.9407 21.8745 82.966 23.4298C82.9734 23.8841 82.8261 24.0076 82.3845 24.0023C80.5092 23.981 78.6333 23.9826 76.758 24.0018C76.3469 24.0059 76.2193 23.8987 76.2203 23.4692C76.2351 17.7784 76.2364 12.088 76.219 6.39774C76.2177 5.9227 76.384 5.84852 76.8038 5.85312C78.6367 5.8741 80.4701 5.88228 82.3022 5.84954C82.8378 5.83982 83.0294 5.99381 82.9657 6.52539L82.9636 6.54356C82.9354 6.77881 82.9046 7.03538 83.0455 7.32914Z" fill="white"/>
<path d="M60.2902 5.97361C58.289 5.5042 56.2576 5.33204 54.0308 5.25581C53.8641 5.26602 53.6814 5.27454 53.4875 5.28357C53.026 5.30506 52.5014 5.32951 51.9805 5.38678C49.8821 5.61854 47.8602 6.08232 46.2043 7.51588C43.1899 10.1259 43.9548 14.8581 47.6318 16.3369C48.9039 16.8486 50.2423 17.0924 51.596 17.2704C51.7152 17.2861 51.8347 17.3009 51.9541 17.3156C52.6152 17.3974 53.2776 17.4793 53.907 17.7206C54.2483 17.8513 54.4851 18.0657 54.489 18.4719C54.4928 18.8748 54.2605 19.101 53.9313 19.2478C53.6387 19.3788 53.3253 19.4361 53.0027 19.4604C50.6176 19.6384 48.345 19.1406 46.1383 18.2916C45.7232 18.1317 45.5584 18.165 45.4502 18.6264C45.1154 20.0551 44.7567 21.479 44.3643 22.8928C44.2482 23.3111 44.3541 23.4336 44.7442 23.5439C47.1388 24.22 49.58 24.5497 52.0629 24.495C54.0469 24.4512 56.0167 24.2504 57.8703 23.4525C60.1697 22.462 61.4936 20.8006 61.5708 18.2141C61.636 16.0302 60.7563 14.4931 58.7807 13.5537C58.067 13.2143 57.317 12.982 56.5531 12.784C55.7797 12.5835 54.9915 12.4674 54.2034 12.3512C53.5388 12.2533 52.8742 12.1554 52.2187 12.0069C51.8245 11.9176 51.4694 11.7186 51.4645 11.2607C51.4599 10.8184 51.7725 10.5841 52.1724 10.4664C52.3348 10.4183 52.499 10.3699 52.6661 10.3456C54.8453 10.0279 56.9504 10.426 59.0237 11.0455C59.4624 11.1768 59.6476 11.1617 59.7505 10.6549C60.0257 9.30066 60.3455 7.95459 60.6862 6.61518C60.7914 6.20204 60.7108 6.07235 60.2902 5.97361Z" fill="white"/>
<path d="M62.8009 12.859C62.8009 12.0102 62.8015 11.1615 62.8022 10.3127C62.8041 7.66542 62.8061 5.01818 62.7889 2.37079C62.7855 1.88577 62.9155 1.77092 63.3887 1.77833C65.2429 1.80698 67.0982 1.81082 68.9521 1.77654C69.4614 1.76708 69.5509 1.94384 69.5366 2.39586C69.5212 2.88406 69.5242 3.37278 69.5272 3.86149C69.5302 4.35355 69.5332 4.84561 69.5174 5.33715C69.5031 5.77638 69.6655 5.87384 70.0702 5.86949C70.9261 5.86013 71.7821 5.86094 72.638 5.86176C73.4662 5.86255 74.2944 5.86334 75.1225 5.85491C75.566 5.8503 75.7057 5.91937 75.4578 6.36832C74.5832 7.95152 73.7262 9.5447 72.88 11.1435C72.7276 11.4313 72.5426 11.5277 72.2262 11.518C71.922 11.5087 71.6172 11.5122 71.3125 11.5157C70.9132 11.5203 70.5141 11.5248 70.1165 11.5006C69.633 11.4712 69.5131 11.6232 69.5156 12.1018C69.5316 14.9395 69.5298 17.7773 69.528 20.6152V20.6189C69.5275 21.4678 69.5269 22.3167 69.5269 23.1655C69.5269 23.9918 69.5266 23.992 68.7073 23.9923C68.2227 23.9923 67.7381 23.9906 67.2535 23.989C65.9901 23.9847 64.7264 23.9804 63.4634 24.0053C62.9388 24.0158 62.784 23.8877 62.7879 23.3469C62.8068 20.707 62.8046 18.0668 62.8023 15.4265C62.8016 14.5707 62.8009 13.7148 62.8009 12.859Z" fill="white"/>
<path d="M132.02 5.63722C129.828 5.46864 127.795 5.7421 126.263 7.80367C126.263 7.61112 126.261 7.43626 126.258 7.27348C126.254 6.93497 126.25 6.64865 126.27 6.36397C126.296 5.9823 126.185 5.84775 125.778 5.85261C123.882 5.87384 121.986 5.87435 120.09 5.85235C119.665 5.84749 119.56 5.98102 119.561 6.3916C119.574 12.0795 119.576 17.7679 119.559 23.4561C119.557 23.9411 119.745 24.0038 120.157 23.9997C121.967 23.9816 123.779 23.9636 125.589 24.0082C126.184 24.0227 126.28 23.8222 126.275 23.2868C126.249 20.6028 126.255 17.9184 126.266 15.2339C126.275 13.0148 127.365 11.8483 129.576 11.6602C130.368 11.593 131.154 11.6541 131.92 11.8521C132.325 11.9567 132.454 11.8526 132.46 11.4441C132.491 9.72044 132.526 7.99655 132.593 6.27393C132.611 5.82063 132.418 5.66766 132.02 5.63722Z" fill="white"/>
</g>
<defs>
<clipPath id="clip0_17_262">
<rect width="153.486" height="29.1622" fill="white"/>
</clipPath>
</defs>
</svg>
