<svg width="33" height="33" viewBox="0 0 33 33" fill="none" xmlns="http://www.w3.org/2000/svg">
<path fill-rule="evenodd" clip-rule="evenodd" d="M26.6685 2.57812C25.5033 2.57812 24.4871 3.21627 23.9505 4.16213L19.1501 3.17744C18.6839 3.08182 18.215 3.32794 18.0288 3.7659C17.4811 5.05469 16.6592 7.00795 15.9735 8.67926C15.6715 9.41542 15.3944 10.1007 15.1783 10.6519C12.6215 10.7759 10.2557 11.4392 8.30292 12.4987C7.55924 11.4881 6.36148 10.8315 5.00886 10.8315C2.75128 10.8315 0.921143 12.6616 0.921143 14.9192C0.921143 16.5334 1.85615 17.9276 3.21347 18.5922C3.0976 19.105 3.03687 19.6335 3.03687 20.1746C3.03687 22.8953 4.57237 25.2971 6.93193 26.9931C9.29254 28.6898 12.52 29.7185 16.0544 29.7185C19.5889 29.7185 22.8163 28.6898 25.1769 26.9931C27.5364 25.2971 29.072 22.8953 29.072 20.1746C29.072 19.6335 29.0112 19.1051 28.8954 18.5923C30.2524 17.9278 31.1878 16.5337 31.1878 14.9192C31.1878 12.6616 29.3577 10.8315 27.1001 10.8315C25.7474 10.8315 24.5497 11.4881 23.806 12.4987C21.9531 11.4934 19.7282 10.8448 17.3212 10.6752C17.4737 10.2954 17.6437 9.87751 17.8239 9.43833C18.3825 8.07671 19.0332 6.52413 19.5503 5.30118L23.5744 6.12664C23.7821 7.64993 25.0882 8.82374 26.6685 8.82374C28.3931 8.82374 29.7913 7.42561 29.7913 5.70093C29.7913 3.97625 28.3931 2.57812 26.6685 2.57812ZM25.5457 5.70093C25.5457 5.08082 26.0484 4.57812 26.6685 4.57812C27.2886 4.57812 27.7913 5.08082 27.7913 5.70093C27.7913 6.32104 27.2886 6.82374 26.6685 6.82374C26.0484 6.82374 25.5457 6.32104 25.5457 5.70093ZM28.1885 16.7014C27.5635 15.5237 26.6343 14.4702 25.4904 13.5893C25.8738 13.126 26.4532 12.8315 27.1001 12.8315C28.2531 12.8315 29.1878 13.7662 29.1878 14.9192C29.1878 15.6725 28.7883 16.3342 28.1885 16.7014ZM6.61853 13.5893C6.23513 13.1259 5.65573 12.8315 5.00886 12.8315C3.85585 12.8315 2.92114 13.7662 2.92114 14.9192C2.92114 15.6727 3.32087 16.3342 3.92034 16.7013C4.54539 15.5237 5.47458 14.4701 6.61853 13.5893ZM20.771 20.1746C21.8368 20.1746 22.7008 19.3106 22.7008 18.2448C22.7008 17.179 21.8368 16.3149 20.771 16.3149C19.7052 16.3149 18.8411 17.179 18.8411 18.2448C18.8411 19.3106 19.7052 20.1746 20.771 20.1746ZM13.2608 18.2448C13.2608 19.3106 12.3968 20.1746 11.3309 20.1746C10.2651 20.1746 9.40112 19.3106 9.40112 18.2448C9.40112 17.179 10.2651 16.3149 11.3309 16.3149C12.3968 16.3149 13.2608 17.179 13.2608 18.2448ZM11.8546 22.4165C11.3875 22.1219 10.77 22.2617 10.4753 22.7288C10.1807 23.1959 10.3205 23.8135 10.7876 24.1081L11.2475 24.3982C14.1811 26.2488 17.9172 26.2488 20.8509 24.3982L21.3108 24.1081C21.7779 23.8135 21.9177 23.1959 21.623 22.7288C21.3284 22.2617 20.7108 22.1219 20.2437 22.4165L19.7838 22.7067C17.5021 24.146 14.5963 24.146 12.3145 22.7067L11.8546 22.4165Z" fill="white"/>
</svg>
