<svg width="56" height="23" viewBox="0 0 56 23" fill="none" xmlns="http://www.w3.org/2000/svg">
<path d="M39.001 4.7901C38.4694 4.78703 37.9425 4.88892 37.4503 5.08994C36.9582 5.29095 36.5105 5.58714 36.1331 5.96151L35.9446 5.03246H32.7266V22.4287L36.3889 21.6343V17.4198C37.1173 18.0299 38.0375 18.3636 38.9876 18.3624C41.5997 18.3624 43.9964 16.2215 43.9964 11.482C43.9964 7.14639 41.5728 4.7901 39.001 4.7901ZM38.1258 15.0635C37.8046 15.0821 37.4833 15.0288 37.1852 14.9077C36.8871 14.7866 36.6197 14.6007 36.4024 14.3634V8.82946C36.6206 8.58349 36.891 8.38935 37.1938 8.26123C37.4967 8.13311 37.8243 8.07424 38.1528 8.08891C39.4992 8.08891 40.4148 9.61041 40.4148 11.5628C40.4148 13.5151 39.4858 15.0635 38.1258 15.0635Z" fill="#635BFF"/>
<path d="M50.7565 4.79011C47.2287 4.79011 45.0879 7.8331 45.0879 11.6705C45.0879 16.2081 47.6192 18.5105 51.2277 18.5105C52.6361 18.5335 54.0268 18.1951 55.2671 17.5276V14.4981C54.1407 15.0664 52.8932 15.3529 51.6317 15.3329C50.1775 15.3329 48.9388 14.8077 48.7503 13.0439H55.9942C55.9942 12.8419 55.9942 12.0475 55.9942 11.6974C56.1153 7.8331 54.2842 4.79011 50.7565 4.79011ZM48.7772 10.2702C48.7772 8.57365 49.814 7.86003 50.7295 7.86003C51.6451 7.86003 52.6146 8.57365 52.6146 10.2702H48.7772Z" fill="#635BFF"/>
<path d="M22.8449 6.04236L22.616 4.93827H19.4922V18.0124H23.1007V9.15268C23.4266 8.75701 23.8655 8.47024 24.3587 8.33069C24.852 8.19114 25.376 8.20546 25.8609 8.37173V4.93827C25.3101 4.72248 24.6993 4.71562 24.1437 4.919C23.5882 5.12237 23.1262 5.52193 22.8449 6.04236Z" fill="#635BFF"/>
<path d="M4.61486 8.86985C4.61486 8.27741 5.09958 8.04851 5.86706 8.04851C7.13902 8.07589 8.38579 8.40836 9.50249 9.01796V5.47678C8.34795 5.00996 7.11234 4.77657 5.86706 4.79009C2.8914 4.79009 0.912109 6.37891 0.912109 9.04489C0.912109 13.2189 6.48643 12.5457 6.48643 14.3365C6.48643 15.0366 5.89399 15.2655 5.13998 15.2655C3.7174 15.1824 2.33403 14.7674 1.10061 14.0537V17.6757C2.37185 18.2427 3.74803 18.5362 5.13998 18.5374C8.18297 18.5374 10.2834 16.989 10.2834 14.2826C10.2161 9.75851 4.61486 10.5664 4.61486 8.86985Z" fill="#635BFF"/>
<path d="M15.1448 1.84137L11.5767 2.62232V14.6462C11.5583 15.1529 11.6434 15.658 11.8268 16.1307C12.0103 16.6034 12.2882 17.0338 12.6435 17.3955C12.9989 17.7571 13.4243 18.0426 13.8937 18.2343C14.3631 18.426 14.8667 18.52 15.3737 18.5105C16.2582 18.55 17.1396 18.3793 17.9454 18.0123V14.9828C17.4742 15.1847 15.1717 15.8714 15.1717 13.6363V8.2505H17.9454V5.09979H15.1717L15.1448 1.84137Z" fill="#635BFF"/>
<path d="M27.2207 3.80717L30.8965 3.03969V0.131348L27.2207 0.898827V3.80717Z" fill="#635BFF"/>
<path d="M30.8965 5.03246H27.2207V18.0123H30.8965V5.03246Z" fill="#635BFF"/>
</svg>
