<svg width="24" height="24" viewBox="0 0 24 24" fill="none" xmlns="http://www.w3.org/2000/svg">
<path fill-rule="evenodd" clip-rule="evenodd" d="M18.0435 19.3187L18.0442 19.317L18.0612 19.2746L20.9886 4.51516V4.46722C20.9886 4.09948 20.8527 3.77844 20.5571 3.58587C20.2983 3.41732 20.0007 3.40531 19.7921 3.42115C19.5715 3.4379 19.3634 3.49297 19.2194 3.53881C19.1453 3.5624 19.0833 3.58512 19.0389 3.60231C19.0167 3.61094 18.9986 3.61826 18.9855 3.62371L18.9726 3.62913L2.65054 10.032L2.64605 10.0337C2.63723 10.0369 2.62558 10.0412 2.6115 10.0467C2.58343 10.0576 2.54522 10.0733 2.50033 10.0936C2.4122 10.1335 2.29043 10.1952 2.16694 10.2798C1.95719 10.4234 1.55781 10.7634 1.62525 11.3025C1.68111 11.749 1.98891 12.0326 2.19643 12.1795C2.30766 12.2582 2.41408 12.3149 2.49201 12.352C2.5315 12.3708 2.56504 12.3852 2.59002 12.3954C2.60254 12.4005 2.61301 12.4046 2.62111 12.4076L2.63149 12.4115L2.63812 12.414L5.49377 13.3753C5.48413 13.5545 5.5019 13.7372 5.54942 13.9174L6.97985 19.3436C7.14945 19.987 7.73149 20.4352 8.39685 20.4347C8.99325 20.4343 9.52219 20.0735 9.7469 19.5351L11.9802 17.1473L15.8157 20.0878L15.8702 20.1116C16.2187 20.2637 16.5443 20.3119 16.8419 20.2712C17.1392 20.2306 17.3754 20.106 17.5528 19.964C17.7274 19.8243 17.8471 19.6667 17.9224 19.548C17.9606 19.4877 17.9891 19.4346 18.0089 19.3947C18.0188 19.3747 18.0266 19.3578 18.0325 19.3446L18.0398 19.3276L18.0425 19.3213L18.0435 19.3187ZM6.96532 13.5442C6.93281 13.4208 6.98384 13.2907 7.09151 13.2223L16.7775 7.07126C16.7775 7.07126 17.3472 6.7254 17.3268 7.07126C17.3268 7.07126 17.4285 7.13234 17.1232 7.41713C16.8337 7.68761 10.2198 14.0731 9.55055 14.7192C9.51192 14.7565 9.48886 14.7993 9.47525 14.8512L8.39574 18.9704L6.96532 13.5442Z" fill="white"/>
</svg>
