<svg width="32" height="32" viewBox="0 0 32 32" fill="none" xmlns="http://www.w3.org/2000/svg">
<path d="M29.3333 8.00043V11.2271C29.3333 13.3338 28 14.6671 25.8933 14.6671H21.3333V5.3471C21.3333 3.8671 22.5466 2.65377 24.0266 2.6671C25.48 2.68043 26.8133 3.2671 27.7733 4.2271C28.7333 5.20043 29.3333 6.53377 29.3333 8.00043Z" fill="#0393FB"/>
<path opacity="0.4" d="M2.66669 9.33366V28.0003C2.66669 29.107 3.92002 29.7337 4.80002 29.067L7.08002 27.3603C7.61336 26.9603 8.36002 27.0137 8.84002 27.4937L11.0534 29.7203C11.5734 30.2403 12.4267 30.2403 12.9467 29.7203L15.1867 27.4803C15.6534 27.0137 16.4 26.9603 16.92 27.3603L19.2 29.067C20.08 29.7203 21.3334 29.0937 21.3334 28.0003V5.33366C21.3334 3.86699 22.5334 2.66699 24 2.66699H9.33335H8.00002C4.00002 2.66699 2.66669 5.05366 2.66669 8.00033V9.33366Z" fill="#0393FB"/>
<path d="M15.24 16.1074C14.5067 16.1074 13.9067 16.7074 13.9067 17.4408C13.9067 18.1741 14.5067 18.7741 15.24 18.7741C15.9733 18.7741 16.5733 18.1741 16.5733 17.4408C16.5733 16.7074 15.9733 16.1074 15.24 16.1074Z" fill="#0393FB"/>
<path d="M8.76003 13.3737C9.5067 13.3737 10.0934 12.7737 10.0934 12.0404C10.0934 11.307 9.49336 10.707 8.76003 10.707C8.0267 10.707 7.4267 11.307 7.4267 12.0404C7.4267 12.7737 8.0267 13.3737 8.76003 13.3737Z" fill="#0393FB"/>
<path d="M16.3467 10.3203C15.96 9.93361 15.32 9.93361 14.9333 10.3203L7.65334 17.6003C7.26668 17.9869 7.26668 18.6269 7.65334 19.0136C7.85334 19.2136 8.10667 19.3069 8.36001 19.3069C8.61334 19.3069 8.86667 19.2136 9.06667 19.0136L16.3467 11.7336C16.7333 11.3469 16.7333 10.7069 16.3467 10.3203Z" fill="#0393FB"/>
</svg>
