<svg width="32" height="32" viewBox="0 0 32 32" fill="none" xmlns="http://www.w3.org/2000/svg">
<path opacity="0.8" d="M17.2 3.35979L17.16 3.45313L13.2934 12.4265H9.49335C8.58668 12.4265 7.73335 12.5998 6.93335 12.9465L9.26668 7.37313L9.32002 7.25313L9.40002 7.03979C9.44002 6.94646 9.46668 6.86646 9.50668 6.79979C11.2534 2.75979 13.2267 1.83979 17.2 3.35979Z" fill="#0393FB"/>
<path d="M24.3867 12.6937C23.7867 12.5204 23.16 12.427 22.5067 12.427H13.2933L17.16 3.45368L17.2 3.36035C17.3867 3.42702 17.5867 3.52035 17.7867 3.58702L20.7333 4.82702C22.3733 5.50702 23.52 6.21369 24.2267 7.06702C24.3467 7.22702 24.4533 7.37368 24.56 7.54702C24.68 7.73369 24.7733 7.92035 24.8267 8.12035C24.88 8.24035 24.92 8.34702 24.9467 8.46702C25.2933 9.60035 25.08 10.9737 24.3867 12.6937Z" fill="#0393FB"/>
<path opacity="0.4" d="M29.0134 18.9334V21.5334C29.0134 21.8001 29 22.0668 28.9867 22.3201C28.7334 26.9868 26.1334 29.3334 21.2 29.3334H10.8C10.4667 29.3334 10.16 29.3068 9.85336 29.2668C5.61336 28.9868 3.34669 26.7201 3.05336 22.4801C3.01336 22.1601 2.98669 21.8534 2.98669 21.5334V18.9334C2.98669 16.2534 4.61336 13.9468 6.93336 12.9468C7.73336 12.6001 8.58669 12.4268 9.49336 12.4268H22.5067C23.16 12.4268 23.7867 12.5201 24.3867 12.6934C27.0534 13.5068 29.0134 15.9868 29.0134 18.9334Z" fill="#0393FB"/>
<path opacity="0.6" d="M9.26669 7.37305L6.93336 12.9464C4.61336 13.9464 2.98669 16.253 2.98669 18.933V15.0264C2.98669 11.2397 5.68003 8.07971 9.26669 7.37305Z" fill="#0393FB"/>
<path opacity="0.6" d="M29.0134 15.0268V18.9334C29.0134 15.9868 27.0534 13.5068 24.3867 12.6935C25.0801 10.9735 25.2934 9.60012 24.9467 8.46678C24.92 8.34678 24.8801 8.24012 24.8267 8.12012C27.3201 9.41345 29.0134 12.0401 29.0134 15.0268Z" fill="#0393FB"/>
<path d="M19.3333 19.5863H17V17.333C17 16.7863 16.5466 16.333 16 16.333C15.4533 16.333 15 16.7863 15 17.333V19.5863H12.6666C12.12 19.5863 11.6666 20.0397 11.6666 20.5863C11.6666 21.133 12.12 21.5863 12.6666 21.5863H15V23.9997C15 24.5463 15.4533 24.9997 16 24.9997C16.5466 24.9997 17 24.5463 17 23.9997V21.5863H19.3333C19.88 21.5863 20.3333 21.133 20.3333 20.5863C20.3333 20.0397 19.88 19.5863 19.3333 19.5863Z" fill="#0393FB"/>
</svg>
