<svg width="35" height="42" viewBox="0 0 35 42" fill="none" xmlns="http://www.w3.org/2000/svg">
<g clip-path="url(#clip0_24_116)">
<path d="M17.2588 40.1303C17.604 39.9577 26.5786 36.0745 29.4263 33.7445C32.3603 31.3283 33.9136 27.8765 33.9136 23.7344V4.31813L33.6548 4.23183C26.4923 0.348582 17.604 0.607465 17.1725 0.607465C16.8274 0.607465 7.93903 0.348582 0.776593 4.23183L0.604004 4.31813V23.8207C0.604004 27.9628 2.1573 31.4146 5.09131 33.8308C7.93903 36.1608 16.9136 40.044 17.2588 40.1303Z" fill="#040503"/>
<path d="M17.2588 40.5616C17.2588 40.5616 7.7664 36.4195 4.83239 34.0896C1.72579 31.5007 0.258789 27.9627 0.258789 23.9068V3.71393C7.7664 -0.341903 17.2588 0.00327459 17.2588 0.00327459C17.2588 0.00327459 26.7512 -0.341903 34.2588 3.71393V23.8205C34.2588 27.8764 32.7918 31.4144 29.6852 34.0033C26.7512 36.4195 17.2588 40.5616 17.2588 40.5616ZM1.6395 23.9068C1.6395 27.7038 3.02021 30.8104 5.69534 32.9677C8.11158 34.9525 15.274 38.1454 17.2588 39.0084C19.2436 38.1454 26.4923 34.8662 28.8222 32.9677C31.4974 30.8104 32.8781 27.6175 32.8781 23.9068V4.05911C22.8679 3.10987 10.9593 3.62764 1.6395 12.2571V23.9068Z" fill="#1E231A"/>
<path d="M26.8374 21.0593C28.1318 21.8359 28.6496 22.3537 28.7359 23.3029C28.7359 24.3384 28.0455 24.9425 26.9237 24.9425C25.9745 24.9425 24.8526 24.4247 24.076 23.7344V26.4958C25.0252 27.0136 26.1471 27.445 27.3552 27.445C30.2892 27.445 31.6699 25.374 31.6699 23.4755C31.7562 21.7496 31.2384 20.3689 28.7359 18.9019C27.6141 18.2115 26.7511 17.7801 26.7511 16.7445C26.7511 15.709 27.7004 15.2775 28.477 15.2775C29.5125 15.2775 30.5481 15.8816 31.1521 16.4857V13.8968C30.6344 13.4654 29.5125 12.8613 27.8729 12.9476C25.8882 13.0339 23.8171 14.4146 23.8171 16.8308C23.9034 18.4704 24.4212 19.6785 26.8374 21.0593ZM16.6547 27.2725C16.9136 27.3588 17.345 27.445 18.0354 27.445C21.4009 27.445 23.2993 24.4247 23.2993 20.11C23.2993 15.709 21.3146 13.0339 17.7765 13.0339C16.1369 13.0339 14.8425 13.3791 13.7207 14.0694V33.5719H16.6547V27.2725ZM16.6547 15.5364C16.9136 15.4501 17.345 15.2775 17.6902 15.2775C19.4161 15.2775 20.1064 16.6582 20.1064 20.0237C20.1064 23.3029 19.2435 24.8562 17.5176 24.8562C17.0861 24.8562 16.741 24.7699 16.5684 24.6836V15.5364H16.6547ZM7.59375 27.445C9.40594 27.445 10.9592 27.0136 12.0811 26.2369V13.2065H9.06076V24.511C8.71558 24.7699 8.28411 24.8562 7.68005 24.8562C6.29934 24.8562 6.12675 23.5618 6.12675 22.7851V13.2065H3.10645V22.6126C3.10645 25.8055 4.65974 27.445 7.59375 27.445ZM27.7004 39.0948V41.0796H28.0455V40.3029H28.1318L28.6496 41.0796H29.0811C29.0811 41.0796 28.5633 40.3029 28.477 40.2166C28.7359 40.1303 28.9085 39.9577 28.9085 39.6989C28.9085 39.44 28.7359 39.0948 28.2181 39.0948H27.7004ZM28.2181 39.3537C28.477 39.3537 28.5633 39.5263 28.5633 39.6126C28.5633 39.7851 28.477 39.9577 28.1318 39.9577H28.0455V39.3537H28.2181Z" fill="white"/>
<path d="M29.599 40.044C29.599 40.7344 28.995 41.3384 28.3046 41.3384C27.6143 41.3384 27.0102 40.7344 27.0102 40.044C27.0102 39.3537 27.6143 38.7496 28.3046 38.7496C29.0813 38.7496 29.599 39.3537 29.599 40.044ZM28.3046 38.4044C27.4417 38.4044 26.665 39.0948 26.665 40.044C26.665 40.907 27.3554 41.6836 28.3046 41.6836C29.1676 41.6836 29.9442 40.9933 29.9442 40.044C29.9442 39.1811 29.1676 38.4044 28.3046 38.4044Z" fill="#040503"/>
</g>
<defs>
<clipPath id="clip0_24_116">
<rect width="34" height="41.6871" fill="white" transform="translate(0.258789)"/>
</clipPath>
</defs>
</svg>
