<svg width="54" height="53" viewBox="0 0 54 53" fill="none" xmlns="http://www.w3.org/2000/svg">
<rect x="0.623047" width="52.8974" height="52.8974" rx="26.4487" fill="#2775CA"/>
<path d="M33.5139 29.3918C33.5139 26.0007 31.4829 24.8378 27.4207 24.3542C24.5192 23.9661 23.9389 23.1912 23.9389 21.8348C23.9389 20.4784 24.9061 19.6056 26.8404 19.6056C28.5813 19.6056 29.5532 20.187 30.0321 21.6402C30.0817 21.7806 30.1732 21.9025 30.2943 21.9892C30.4154 22.0759 30.5602 22.1233 30.7091 22.1249H32.2767C32.3664 22.1272 32.4557 22.1112 32.539 22.0779C32.6224 22.0447 32.6981 21.9948 32.7617 21.9314C32.8252 21.868 32.8752 21.7923 32.9086 21.709C32.942 21.6257 32.9581 21.5365 32.956 21.4467V21.35C32.7671 20.3002 32.237 19.342 31.4479 18.6242C30.6588 17.9063 29.655 17.469 28.592 17.3799V15.0669C28.592 14.6789 28.3018 14.3887 27.8182 14.292H26.3615C25.9735 14.292 25.6833 14.5821 25.5866 15.0669V17.2926C22.6851 17.6795 20.8475 19.615 20.8475 22.0341C20.8475 25.227 22.7818 26.4855 26.8451 26.9691C29.5579 27.4527 30.4237 28.0306 30.4237 29.5816C30.4237 31.1327 29.0685 32.1954 27.232 32.1954C24.7162 32.1954 23.8457 31.1338 23.5556 29.6784C23.5264 29.5188 23.4434 29.3742 23.3204 29.2685C23.1974 29.1629 23.0418 29.1027 22.8797 29.0981H21.2214C21.1317 29.096 21.0426 29.1121 20.9594 29.1454C20.8761 29.1787 20.8005 29.2286 20.7371 29.292C20.6737 29.3554 20.6238 29.431 20.5905 29.5143C20.5572 29.5975 20.5411 29.6866 20.5432 29.7763V29.873C20.9312 32.2945 22.4822 34.0377 25.6798 34.5213V36.8532C25.6798 37.2412 25.97 37.5314 26.4535 37.6281H27.9043C28.2912 37.6281 28.5813 37.3379 28.6781 36.8532V34.5272C31.5796 34.0436 33.5139 32.0078 33.5139 29.3918Z" fill="white"/>
<path d="M22.1938 39.5564C14.6451 36.8436 10.7658 28.4197 13.5753 20.9618C15.0272 16.8938 18.2236 13.7953 22.1938 12.3422C22.5818 12.1487 22.7753 11.8586 22.7753 11.3738V10.0186C22.7753 9.63053 22.5818 9.34037 22.1938 9.24365C22.0971 9.24365 21.9036 9.24366 21.8069 9.34038C12.6069 12.2454 7.57054 22.0269 10.4756 31.2281C11.3198 33.8857 12.7895 36.302 14.7612 38.2737C16.733 40.2455 19.1492 41.7152 21.8069 42.5594C21.8875 42.6059 21.978 42.6327 22.0709 42.6375C22.1638 42.6424 22.2566 42.6252 22.3416 42.5874C22.4266 42.5495 22.5014 42.4921 22.56 42.4198C22.6186 42.3475 22.6592 42.2623 22.6786 42.1713C22.7753 42.0746 22.7753 41.9779 22.7753 41.7844V40.428C22.7753 40.1379 22.4875 39.7498 22.1938 39.5564ZM32.4553 9.34038C32.3748 9.29386 32.2844 9.26703 32.1916 9.2621C32.0987 9.25716 32.006 9.27426 31.921 9.31199C31.836 9.34971 31.7612 9.40698 31.7025 9.47915C31.6439 9.55132 31.6032 9.63633 31.5837 9.72724C31.4869 9.82396 31.4869 9.92068 31.4869 10.1153V11.4705C31.4869 11.8586 31.7771 12.2454 32.0684 12.4389C39.6171 15.1517 43.4964 23.5767 40.6869 31.0334C39.9728 33.0157 38.8301 34.8159 37.3404 36.3059C35.8507 37.7958 34.0506 38.9387 32.0684 39.6531C31.6804 39.8466 31.4869 40.1379 31.4869 40.6215V41.9767C31.4869 42.3636 31.6804 42.6549 32.0684 42.7516C32.1651 42.7516 32.3586 42.7516 32.4553 42.6549C41.6553 39.7487 46.6917 29.9672 43.7866 20.7672C42.9451 18.0973 41.4777 15.6671 39.5067 13.6792C37.5356 11.6913 35.118 10.2033 32.4553 9.3392V9.34038Z" fill="white"/>
</svg>
