<svg width="131" height="25" viewBox="0 0 131 25" fill="none" xmlns="http://www.w3.org/2000/svg">
<g clip-path="url(#clip0_30_692)">
<path d="M21.4673 0.501465C22.3491 1.93153 22.7466 3.40451 22.7466 5.26518C22.7466 11.1997 17.5873 18.9092 13.4 24.3227H3.83579L0 1.80082L8.3745 1.0201L10.4025 17.0458C12.2975 14.0145 14.6359 9.25084 14.6359 6.00299C14.6359 4.22524 14.3258 3.01437 13.841 2.01734L21.4673 0.501465Z" fill="white"/>
<path d="M32.3211 10.4201C33.8622 10.4201 37.7419 9.72789 37.7419 7.56265C37.7419 6.52295 36.9932 6.00433 36.1109 6.00433C34.5674 6.00433 32.5418 7.82185 32.3211 10.4201ZM32.1445 14.7084C32.1445 17.3522 33.6416 18.3895 35.6264 18.3895C37.7878 18.3895 39.8572 17.8708 42.547 16.5286L41.5339 23.2839C39.6388 24.1931 36.6852 24.7998 33.8185 24.7998C26.5465 24.7998 23.9438 20.4693 23.9438 15.0556C23.9438 8.03887 28.1774 0.588379 36.9055 0.588379C41.711 0.588379 44.398 3.232 44.398 6.91307C44.3985 12.8475 36.6418 14.6655 32.1445 14.7084Z" fill="white"/>
<path d="M68.5664 5.70045C68.5664 6.56651 68.4329 7.82273 68.2994 8.64371L65.7868 24.2365H57.6322L59.9245 9.94285C59.9679 9.55517 60.1015 8.77468 60.1015 8.34163C60.1015 7.30188 59.44 7.04249 58.6447 7.04249C57.5883 7.04249 56.5294 7.5184 55.8243 7.8659L53.2243 24.2366H45.0239L48.7703 0.891604H55.8677L55.9576 2.75495C57.632 1.67233 59.8369 0.501465 62.965 0.501465C67.1098 0.50102 68.5664 2.58066 68.5664 5.70045Z" fill="white"/>
<path d="M92.7754 3.14397C95.1111 1.49982 97.3163 0.588379 100.357 0.588379C104.544 0.588379 106 2.66802 106 5.78781C106 6.65393 105.867 7.91015 105.734 8.73112L103.224 24.3238H95.067L97.4032 9.72814C97.4461 9.33795 97.5367 8.86204 97.5367 8.56015C97.5367 7.38948 96.8749 7.12984 96.0796 7.12984C95.067 7.12984 94.0544 7.56289 93.3025 7.95326L90.703 24.3241H82.5487L84.8844 9.72832C84.9272 9.3382 85.0154 8.86228 85.0154 8.56039C85.0154 7.38972 84.3529 7.13009 83.5607 7.13009C82.5021 7.13009 81.4455 7.606 80.7402 7.9535L78.1382 24.3243H69.9404L73.6867 0.979184H80.6973L80.9177 2.92811C82.5487 1.76014 84.7515 0.589267 87.7049 0.589267C90.2622 0.588378 91.936 1.67121 92.7754 3.14397Z" fill="white"/>
<path d="M122.227 9.94363C122.227 8.03784 121.741 6.73851 120.288 6.73851C117.07 6.73851 116.409 12.3252 116.409 15.1831C116.409 17.3512 117.026 18.693 118.48 18.693C121.521 18.693 122.227 12.8013 122.227 9.94363ZM108.122 14.8381C108.122 7.47607 112.088 0.587402 121.214 0.587402C128.091 0.587402 130.605 4.57306 130.605 10.0744C130.605 17.351 126.681 24.8866 117.334 24.8866C110.414 24.8866 108.122 20.425 108.122 14.8381Z" fill="white"/>
</g>
<defs>
<clipPath id="clip0_30_692">
<rect width="131" height="25" fill="white"/>
</clipPath>
</defs>
</svg>
