<svg width="22" height="22" viewBox="0 0 22 22" fill="none" xmlns="http://www.w3.org/2000/svg">
<path opacity="0.4" d="M19.2872 6.59084L11.0005 11.385L2.71387 6.59084C3.08053 5.91251 3.6122 5.31668 4.20803 4.98668L9.10303 2.27334C10.148 1.68668 11.853 1.68668 12.898 2.27334L17.793 4.98668C18.3889 5.31668 18.9205 5.91251 19.2872 6.59084Z" fill="white"/>
<path opacity="0.6" d="M11.0006 11.385V20.1667C10.3131 20.1667 9.62557 20.02 9.10307 19.7267L4.20807 17.0133C3.09891 16.3992 2.19141 14.8592 2.19141 13.5942V8.40582C2.19141 7.81915 2.39307 7.17749 2.71391 6.59082L11.0006 11.385Z" fill="white"/>
<path d="M19.8097 8.40582V13.5942C19.8097 14.8592 18.9022 16.3992 17.793 17.0133L12.898 19.7267C12.3755 20.02 11.688 20.1667 11.0005 20.1667V11.385L19.2872 6.59082C19.608 7.17749 19.8097 7.81915 19.8097 8.40582Z" fill="white"/>
</svg>
