<svg width="22" height="22" viewBox="0 0 22 22" fill="none" xmlns="http://www.w3.org/2000/svg">
<path d="M15.3542 3.26334V1.83334C15.3542 1.45751 15.0425 1.14584 14.6667 1.14584C14.2909 1.14584 13.9792 1.45751 13.9792 1.83334V3.20834H8.02088V1.83334C8.02088 1.45751 7.70921 1.14584 7.33338 1.14584C6.95755 1.14584 6.64588 1.45751 6.64588 1.83334V3.26334C4.17088 3.49251 2.97005 4.96834 2.78671 7.15917C2.76838 7.42501 2.98838 7.64501 3.24505 7.64501H18.755C19.0209 7.64501 19.2409 7.41584 19.2134 7.15917C19.03 4.96834 17.8292 3.49251 15.3542 3.26334Z" fill="#292D32"/>
<path opacity="0.4" d="M18.3333 9.01999C18.8375 9.01999 19.25 9.43249 19.25 9.93666V15.5833C19.25 18.3333 17.875 20.1667 14.6667 20.1667H7.33333C4.125 20.1667 2.75 18.3333 2.75 15.5833V9.93666C2.75 9.43249 3.1625 9.01999 3.66667 9.01999H18.3333Z" fill="#292D32"/>
<path d="M7.79167 13.75C7.55333 13.75 7.315 13.6492 7.14083 13.4842C6.97583 13.31 6.875 13.0717 6.875 12.8333C6.875 12.595 6.97583 12.3567 7.14083 12.1825C7.3975 11.9258 7.80083 11.8433 8.14 11.99C8.25917 12.0358 8.36 12.1 8.4425 12.1825C8.6075 12.3567 8.70833 12.595 8.70833 12.8333C8.70833 13.0717 8.6075 13.31 8.4425 13.4842C8.26833 13.6492 8.03 13.75 7.79167 13.75Z" fill="#292D32"/>
<path d="M11.0002 13.75C10.7618 13.75 10.5235 13.6492 10.3493 13.4842C10.1843 13.31 10.0835 13.0717 10.0835 12.8333C10.0835 12.595 10.1843 12.3567 10.3493 12.1825C10.4318 12.1 10.5327 12.0358 10.6518 11.99C10.991 11.8433 11.3943 11.9258 11.651 12.1825C11.816 12.3567 11.9168 12.595 11.9168 12.8333C11.9168 13.0717 11.816 13.31 11.651 13.4842C11.6052 13.5208 11.5593 13.5575 11.5135 13.5942C11.4585 13.6308 11.4035 13.6583 11.3485 13.6767C11.2935 13.7042 11.2385 13.7225 11.1835 13.7317C11.1193 13.7408 11.0643 13.75 11.0002 13.75Z" fill="#292D32"/>
<path d="M14.2082 13.75C13.9698 13.75 13.7315 13.6492 13.5573 13.4842C13.3923 13.31 13.2915 13.0717 13.2915 12.8333C13.2915 12.595 13.3923 12.3567 13.5573 12.1825C13.649 12.1 13.7407 12.0358 13.8598 11.99C14.0248 11.9167 14.2082 11.8983 14.3915 11.935C14.4465 11.9442 14.5015 11.9625 14.5565 11.99C14.6115 12.0083 14.6665 12.0359 14.7215 12.0725C14.7673 12.1092 14.8132 12.1459 14.859 12.1825C15.024 12.3567 15.1248 12.595 15.1248 12.8333C15.1248 13.0717 15.024 13.31 14.859 13.4842C14.8132 13.5208 14.7673 13.5575 14.7215 13.5942C14.6665 13.6308 14.6115 13.6584 14.5565 13.6767C14.5015 13.7042 14.4465 13.7225 14.3915 13.7317C14.3273 13.7409 14.2632 13.75 14.2082 13.75Z" fill="#292D32"/>
<path d="M7.79167 16.9583C7.6725 16.9583 7.55333 16.9309 7.44333 16.885C7.32417 16.8392 7.2325 16.775 7.14083 16.6925C6.97583 16.5183 6.875 16.28 6.875 16.0417C6.875 15.8033 6.97583 15.565 7.14083 15.3909C7.2325 15.3084 7.32417 15.2442 7.44333 15.1983C7.60833 15.125 7.79167 15.1067 7.975 15.1433C8.03 15.1525 8.085 15.1708 8.14 15.1983C8.195 15.2167 8.25 15.2442 8.305 15.2809C8.35083 15.3175 8.39667 15.3542 8.4425 15.3909C8.6075 15.565 8.70833 15.8033 8.70833 16.0417C8.70833 16.28 8.6075 16.5183 8.4425 16.6925C8.39667 16.7292 8.35083 16.775 8.305 16.8025C8.25 16.8392 8.195 16.8667 8.14 16.885C8.085 16.9125 8.03 16.9309 7.975 16.94C7.91083 16.9492 7.85583 16.9583 7.79167 16.9583Z" fill="#292D32"/>
<path d="M11.0002 16.9583C10.7618 16.9583 10.5235 16.8575 10.3493 16.6925C10.1843 16.5183 10.0835 16.28 10.0835 16.0417C10.0835 15.8033 10.1843 15.565 10.3493 15.3908C10.6885 15.0517 11.3118 15.0517 11.651 15.3908C11.816 15.565 11.9168 15.8033 11.9168 16.0417C11.9168 16.28 11.816 16.5183 11.651 16.6925C11.4768 16.8575 11.2385 16.9583 11.0002 16.9583Z" fill="#292D32"/>
<path d="M14.2082 16.9583C13.9698 16.9583 13.7315 16.8575 13.5573 16.6925C13.3923 16.5183 13.2915 16.28 13.2915 16.0417C13.2915 15.8033 13.3923 15.565 13.5573 15.3908C13.8965 15.0517 14.5198 15.0517 14.859 15.3908C15.024 15.565 15.1248 15.8033 15.1248 16.0417C15.1248 16.28 15.024 16.5183 14.859 16.6925C14.6848 16.8575 14.4465 16.9583 14.2082 16.9583Z" fill="#292D32"/>
</svg>
