<svg width="24" height="24" viewBox="0 0 24 24" fill="none" xmlns="http://www.w3.org/2000/svg">
<path opacity="0.4" d="M12 21.9C17.5228 21.9 22 17.4229 22 11.9C22 6.37718 17.5228 1.90002 12 1.90002C6.47715 1.90002 2 6.37718 2 11.9C2 17.4229 6.47715 21.9 12 21.9Z" fill="#2299F5"/>
<path d="M14.2602 12L12.7502 11.47V8.08003H13.1102C13.9202 8.08003 14.5802 8.79003 14.5802 9.66003C14.5802 10.07 14.9202 10.41 15.3302 10.41C15.7402 10.41 16.0802 10.07 16.0802 9.66003C16.0802 7.96003 14.7502 6.58003 13.1102 6.58003H12.7502V6.00003C12.7502 5.59003 12.4102 5.25003 12.0002 5.25003C11.5902 5.25003 11.2502 5.59003 11.2502 6.00003V6.58003H10.6002C9.12016 6.58003 7.91016 7.83003 7.91016 9.36003C7.91016 11.15 8.95016 11.72 9.74016 12L11.2502 12.53V15.91H10.8902C10.0802 15.91 9.42016 15.2 9.42016 14.33C9.42016 13.92 9.08016 13.58 8.67016 13.58C8.26016 13.58 7.92016 13.92 7.92016 14.33C7.92016 16.03 9.25016 17.41 10.8902 17.41H11.2502V18C11.2502 18.41 11.5902 18.75 12.0002 18.75C12.4102 18.75 12.7502 18.41 12.7502 18V17.42H13.4002C14.8802 17.42 16.0902 16.17 16.0902 14.64C16.0802 12.84 15.0402 12.27 14.2602 12ZM10.2402 10.59C9.73016 10.41 9.42016 10.24 9.42016 9.37003C9.42016 8.66003 9.95016 8.09003 10.6102 8.09003H11.2602V10.95L10.2402 10.59ZM13.4002 15.92H12.7502V13.06L13.7602 13.41C14.2702 13.59 14.5802 13.76 14.5802 14.63C14.5802 15.34 14.0502 15.92 13.4002 15.92Z" fill="#2299F5"/>
</svg>
