<svg width="20" height="20" viewBox="0 0 20 20" fill="none" xmlns="http://www.w3.org/2000/svg">
<path d="M8.33317 7.56667V5.20834C7.9915 5.20834 7.70817 4.925 7.70817 4.58334V2.70834H5.83317C2.15817 2.70834 1.0415 3.825 1.0415 7.5V7.91667C1.0415 8.25834 1.32484 8.54167 1.6665 8.54167C2.4665 8.54167 3.12484 9.2 3.12484 10C3.12484 10.8 2.4665 11.4583 1.6665 11.4583C1.32484 11.4583 1.0415 11.7417 1.0415 12.0833V12.5C1.0415 16.175 2.15817 17.2917 5.83317 17.2917H7.70817V15.4167C7.70817 15.075 7.9915 14.7917 8.33317 14.7917V12.4333C7.9915 12.4333 7.70817 12.15 7.70817 11.8083V8.19167C7.70817 7.85 7.9915 7.56667 8.33317 7.56667Z" fill="#0393FB"/>
<path opacity="0.4" d="M16.8752 10.4167C16.8752 11.2167 17.5335 11.875 18.3335 11.875C18.6752 11.875 18.9585 12.1583 18.9585 12.5C18.9585 16.175 17.8418 17.2917 14.1668 17.2917H8.9585V15.4167C8.9585 15.075 8.67516 14.7917 8.3335 14.7917V12.4333C8.67516 12.4333 8.9585 12.15 8.9585 11.8083V8.19167C8.9585 7.85 8.67516 7.56667 8.3335 7.56667V5.20834C8.67516 5.20834 8.9585 4.925 8.9585 4.58334V2.70834H14.1668C17.8418 2.70834 18.9585 3.825 18.9585 7.5V8.33334C18.9585 8.675 18.6752 8.95834 18.3335 8.95834C17.5335 8.95834 16.8752 9.61667 16.8752 10.4167Z" fill="#0393FB"/>
</svg>
