<svg width="168" height="28" viewBox="0 0 168 28" fill="none" xmlns="http://www.w3.org/2000/svg">
<g clip-path="url(#clip0_17_275)">
<path d="M20.1262 3.62361C18.9794 2.45976 17.7303 1.58157 16.3789 1.0018C15.0317 0.413489 13.578 0.123577 12.0433 0.119301C8.69676 0.119301 5.85752 1.39826 3.51281 3.94762C1.17236 6.50123 0.00425638 9.7753 0 13.7698C0 17.6237 1.20646 20.8509 3.62365 23.4386C6.04083 26.0348 8.90565 27.3351 12.2181 27.3351C13.6974 27.3372 15.0701 27.0709 16.332 26.5421C17.5982 26.0093 18.86 25.1439 20.1177 23.9331V26.6743H26.5891V0.797161H20.1262V3.62361ZM18.4124 19.2522C17.0823 20.6761 15.4069 21.3795 13.3862 21.3838C11.4294 21.3817 9.77959 20.659 8.44524 19.2096C7.10662 17.7644 6.43731 15.9184 6.43731 13.6803C6.43731 11.4507 7.09808 9.63036 8.41113 8.20647C9.72843 6.78258 11.3783 6.07917 13.3691 6.07917C15.4069 6.07917 17.0908 6.77832 18.4209 8.17237C19.751 9.57492 20.1816 11.1693 20.1773 13.4245C20.1773 15.7309 19.7468 17.8326 18.4124 19.2522ZM63.6995 3.62361C62.5527 2.45976 61.2994 1.58157 59.9565 1.0018C58.6008 0.413489 57.1557 0.123577 55.6124 0.119301C52.2744 0.119301 49.4266 1.39826 47.0862 3.94762C44.7457 6.50123 43.5776 9.7753 43.5734 13.7698C43.5691 17.6237 44.7755 20.8509 47.197 23.4386C49.6142 26.0348 52.479 27.3351 55.7957 27.3351C57.2708 27.3372 58.6435 27.0709 59.9011 26.5421C61.1672 26.0093 62.4291 25.1439 63.6868 23.9331V26.6743H70.1582V0.797161H63.6995V3.62361ZM61.9858 19.2522C60.6557 20.6761 58.976 21.3795 56.9638 21.3838C55.0028 21.3817 53.353 20.659 52.0143 19.2096C50.6757 17.7644 50.0064 15.9184 50.0107 13.6803C50.0149 11.4507 50.6672 9.63036 51.9845 8.20647C53.3018 6.78258 54.9516 6.07917 56.9425 6.07917C58.976 6.07917 60.6599 6.77832 61.9943 8.17237C63.3244 9.57492 63.7507 11.1693 63.7464 13.4245C63.7464 15.7309 63.3201 17.8326 61.9858 19.2522ZM109.098 1.4281C107.708 0.571211 106.101 0.144896 104.267 0.144896C102.494 0.142779 100.87 0.541398 99.3733 1.34285C97.8812 2.14005 96.6236 3.30389 95.5919 4.84288C94.8075 3.30389 93.7673 2.13577 92.4756 1.33857C91.1753 0.537119 89.7259 0.136393 88.1144 0.132139C86.52 0.132139 85.0492 0.434679 83.6978 1.04444C82.3464 1.64979 81.1187 2.56637 80.0145 3.79839V0.797161H73.5388L73.5301 26.6743H80.0015L80.0058 15.1937C80.01 12.7126 80.2275 10.8922 80.6623 9.73693C81.1014 8.58163 81.7579 7.68636 82.6361 7.04264C83.5186 6.40742 84.4948 6.08345 85.5734 6.08345C86.5369 6.08556 87.3639 6.33927 88.046 6.8465C88.7281 7.35382 89.2354 8.12547 89.5765 9.1614C89.9175 10.1974 90.0881 11.8685 90.0881 14.1833L90.0754 26.6743H96.5553V15.036C96.564 12.5676 96.777 10.7771 97.2033 9.66446C97.6339 8.54751 98.2904 7.67781 99.1686 7.04264C100.043 6.41169 101.044 6.0962 102.157 6.0962C103.615 6.0962 104.702 6.6163 105.435 7.64799C106.169 8.68819 106.531 10.6706 106.531 13.5908L106.522 26.6743H112.994L113.002 11.5189C113.002 8.4111 112.7 6.16442 112.094 4.78746C111.489 3.40618 110.491 2.285 109.097 1.4281M135.592 19.0476C133.862 20.7699 131.79 21.631 129.381 21.631C127.36 21.6289 125.711 21.0726 124.406 19.9727C123.106 18.8728 122.309 17.3892 122.006 15.522L142.767 15.5347L142.793 14.3026C142.793 10.0395 141.527 6.61196 138.986 4.0072C136.449 1.41094 133.15 0.110691 129.091 0.106415C125.271 0.106415 122.091 1.40667 119.563 4.01998C117.027 6.62473 115.76 9.90308 115.76 13.8507C115.756 17.7088 117.027 20.9105 119.559 23.4726C122.091 26.039 125.382 27.3179 129.415 27.3179C132.016 27.32 134.258 26.8575 136.155 25.9282C138.044 25.0031 139.668 23.5664 141.024 21.6309L135.592 19.0476ZM124.679 7.15346C126.039 6.15163 127.62 5.65283 129.419 5.65711C131.086 5.65711 132.544 6.10048 133.793 6.99146C135.055 7.88674 135.895 9.04205 136.321 10.4659L122.309 10.4574C123.033 8.8801 123.826 7.77592 124.679 7.15351M158.127 12.9812L166.875 0.792963H159.496L154.431 7.84842L149.35 0.792963H141.855L150.692 13.0537L140.921 26.6743H148.301L154.384 18.1908L160.502 26.6743H168.001L158.127 12.9812ZM42.1662 0C40.9682 0 39.9238 0.225834 39.0499 0.665039C38.1887 1.09561 37.1996 1.88428 36.087 3.0396V0.797194H29.9097V26.6743H36.3811L36.3769 13.2157C36.3769 8.28325 37.7411 5.81064 41.0408 5.81064C41.612 5.81064 42.1961 5.93447 42.7844 6.15597C43.8459 4.37824 45.0736 2.70711 46.4464 1.16808C44.9671 0.409256 43.5389 0 42.1662 0" fill="white"/>
</g>
<defs>
<clipPath id="clip0_17_275">
<rect width="168.001" height="27.3351" fill="white"/>
</clipPath>
</defs>
</svg>
