<svg width="75" height="75" viewBox="0 0 75 75" fill="none" xmlns="http://www.w3.org/2000/svg">
<path d="M68.75 59.375V68.75H6.25V59.375C6.25 57.6562 7.65625 56.25 9.375 56.25H65.625C67.3438 56.25 68.75 57.6562 68.75 59.375Z" fill="#2299F5" stroke="#2299F5" stroke-width="1.5" stroke-miterlimit="10" stroke-linecap="round" stroke-linejoin="round"/>
<path opacity="0.6" d="M25 34.375H12.5V56.25H25V34.375Z" fill="#2299F5"/>
<path opacity="0.4" d="M37.5 34.375H25V56.25H37.5V34.375Z" fill="#2299F5"/>
<path opacity="0.6" d="M50 34.375H37.5V56.25H50V34.375Z" fill="#2299F5"/>
<path opacity="0.4" d="M62.5 34.375H50V56.25H62.5V34.375Z" fill="#2299F5"/>
<path d="M71.875 71.0938H3.125C1.84375 71.0938 0.78125 70.0312 0.78125 68.75C0.78125 67.4688 1.84375 66.4062 3.125 66.4062H71.875C73.1562 66.4062 74.2188 67.4688 74.2188 68.75C74.2188 70.0312 73.1562 71.0938 71.875 71.0938Z" fill="#2299F5"/>
<path d="M66.7812 17.9687L38.6562 6.71875C38.0312 6.46875 36.9688 6.46875 36.3438 6.71875L8.21877 17.9687C7.12502 18.4062 6.25 19.6874 6.25 20.8749V31.2499C6.25 32.9687 7.65625 34.3749 9.375 34.3749H65.625C67.3438 34.3749 68.75 32.9687 68.75 31.2499V20.8749C68.75 19.6874 67.875 18.4062 66.7812 17.9687ZM37.5 26.5624C34.9062 26.5624 32.8125 24.4687 32.8125 21.8749C32.8125 19.2812 34.9062 17.1874 37.5 17.1874C40.0938 17.1874 42.1875 19.2812 42.1875 21.8749C42.1875 24.4687 40.0938 26.5624 37.5 26.5624Z" fill="#2299F5"/>
</svg>
