<svg width="24" height="24" viewBox="0 0 24 24" fill="none" xmlns="http://www.w3.org/2000/svg">
<path opacity="0.4" d="M21.6601 10.4395L20.6801 14.6195C19.8401 18.2295 18.1801 19.6895 15.0601 19.3895C14.5601 19.3495 14.0201 19.2595 13.4401 19.1195L11.7601 18.7195C7.59006 17.7295 6.30006 15.6695 7.28006 11.4895L8.26006 7.29952C8.46006 6.44952 8.70006 5.70952 9.00006 5.09952C10.1701 2.67952 12.1601 2.02952 15.5001 2.81952L17.1701 3.20952C21.3601 4.18952 22.6401 6.25952 21.6601 10.4395Z" fill="white"/>
<path d="M15.06 19.3896C14.44 19.8096 13.66 20.1596 12.71 20.4696L11.13 20.9896C7.15998 22.2696 5.06997 21.1996 3.77997 17.2296L2.49997 13.2796C1.21997 9.30961 2.27997 7.20961 6.24997 5.92961L7.82997 5.40961C8.23997 5.27961 8.62997 5.16961 8.99997 5.09961C8.69997 5.70961 8.45997 6.44961 8.25997 7.29961L7.27997 11.4896C6.29997 15.6696 7.58998 17.7296 11.76 18.7196L13.44 19.1196C14.02 19.2596 14.56 19.3496 15.06 19.3896Z" fill="white"/>
<path d="M17.49 10.5098C17.43 10.5098 17.37 10.4998 17.3 10.4898L12.45 9.25978C12.05 9.15978 11.81 8.74978 11.91 8.34978C12.01 7.94978 12.42 7.70978 12.82 7.80978L17.67 9.03978C18.07 9.13978 18.31 9.54978 18.21 9.94978C18.13 10.2798 17.82 10.5098 17.49 10.5098Z" fill="white"/>
<path d="M14.56 13.8899C14.5 13.8899 14.44 13.8799 14.37 13.8699L11.46 13.1299C11.06 13.0299 10.82 12.6199 10.92 12.2199C11.02 11.8199 11.43 11.5799 11.83 11.6799L14.74 12.4199C15.14 12.5199 15.38 12.9299 15.28 13.3299C15.2 13.6699 14.9 13.8899 14.56 13.8899Z" fill="white"/>
</svg>
