<svg width="24" height="24" viewBox="0 0 24 24" fill="none" xmlns="http://www.w3.org/2000/svg">
<path opacity="0.4" d="M21.65 10.0297C21.26 9.46973 20.57 9.14973 19.78 9.14973H15.68C15.41 9.14973 15.16 9.03973 14.99 8.83973C14.81 8.63973 14.74 8.35973 14.78 8.06973L15.29 4.78973C15.51 3.80973 14.86 2.70973 13.88 2.37973C12.97 2.03973 11.9 2.49973 11.47 3.14973L7.25 9.41973L7.13 9.61973V18.4597L7.28 18.6097L10.45 21.0597C10.87 21.4797 11.82 21.7097 12.49 21.7097H16.39C17.73 21.7097 19.08 20.6997 19.38 19.4697L21.84 11.9797C22.1 11.2697 22.03 10.5797 21.65 10.0297Z" fill="white"/>
<path d="M5.21 6.37988H4.18C2.63 6.37988 2 6.97988 2 8.45988V18.5199C2 19.9999 2.63 20.5999 4.18 20.5999H5.21C6.76 20.5999 7.39 19.9999 7.39 18.5199V8.45988C7.39 6.97988 6.76 6.37988 5.21 6.37988Z" fill="white"/>
</svg>
