<svg width="53" height="53" viewBox="0 0 53 53" fill="none" xmlns="http://www.w3.org/2000/svg">
<rect width="52.8974" height="52.8974" rx="26.4487" fill="#F6931A"/>
<path d="M36.1408 27.3982C36.6356 27.6602 37.1067 27.9645 37.549 28.3077C39.0931 29.532 39.7459 31.1241 39.4974 33.0758C39.3329 34.5231 38.8214 35.9093 38.0063 37.1165C37.004 38.5728 35.5808 39.3597 33.8645 39.6546C32.4413 39.8998 31.0199 39.8203 29.6001 39.6298C29.0832 39.5619 28.5696 39.4741 28.0576 39.3796C27.892 39.3481 27.8406 39.4012 27.8025 39.5586C27.4115 41.1523 27.0056 42.7428 26.6179 44.3382C26.5633 44.5635 26.497 44.6033 26.27 44.542C25.3737 44.3001 24.4692 44.0798 23.5662 43.8627C23.4006 43.8263 23.3823 43.7799 23.4204 43.6242C23.8214 42.0403 24.2107 40.4532 24.6133 38.8694C24.658 38.6904 24.6415 38.6159 24.4476 38.5695C23.7485 38.3972 23.0515 38.2149 22.3568 38.0228C22.1796 37.9731 22.1282 38.0228 22.0868 38.1884C21.6958 39.7822 21.2916 41.3743 20.9022 42.9681C20.8575 43.147 20.8061 43.1768 20.6289 43.1338C19.7165 42.8974 18.8004 42.6693 17.8803 42.4495C17.7147 42.4098 17.6915 42.3402 17.7296 42.1828C18.1338 40.5841 18.5248 38.982 18.9324 37.3783C18.9854 37.1712 18.9423 37.1033 18.7402 37.0469C16.7521 36.5499 14.7789 36.0529 12.7975 35.5559C12.6567 35.5211 12.6136 35.4863 12.6799 35.3372C13.1636 34.2327 13.6413 33.1282 14.1129 32.0238C14.1726 31.8829 14.2471 31.8862 14.373 31.921C15.0556 32.1 15.7365 32.2855 16.4241 32.4379C17.2823 32.6285 17.7892 32.2921 18.0013 31.4439C18.654 28.8252 19.3079 26.207 19.9628 23.5893C20.4599 21.6013 20.9569 19.6132 21.4539 17.6251C21.6544 16.8199 21.2319 16.0446 20.4052 15.7265C19.7612 15.5071 19.1038 15.3295 18.437 15.1947C18.2415 15.1466 18.0477 15.0953 17.8505 15.0588C17.7428 15.039 17.7279 14.9975 17.7528 14.8932C18.0129 13.861 18.273 12.8289 18.5231 11.7934C18.5662 11.6079 18.6772 11.6675 18.7783 11.6924C19.5636 11.8862 20.3456 12.0883 21.1325 12.2805C22.322 12.5688 23.5016 12.9018 24.6978 13.1685C24.8949 13.2132 24.9695 13.1884 25.0208 12.9796C25.4019 11.4074 25.7995 9.83185 26.1806 8.2679C26.2286 8.07075 26.2882 8.01442 26.4953 8.06909C27.3933 8.30766 28.2962 8.53131 29.1991 8.74668C29.3896 8.79307 29.4079 8.86598 29.3648 9.04325C28.9705 10.5956 28.5878 12.1513 28.1951 13.7036C28.1537 13.8693 28.1703 13.9173 28.3459 13.9571C29.0484 14.1112 29.7508 14.2769 30.4483 14.4541C30.6488 14.5071 30.7051 14.4425 30.7498 14.2636C31.1209 12.746 31.502 11.2318 31.8714 9.71422C31.9228 9.50547 31.9808 9.43092 32.2193 9.49553C33.1073 9.73576 34.0036 9.95444 34.8983 10.1682C35.0739 10.2096 35.1087 10.2676 35.0639 10.4448C34.663 12.0287 34.277 13.6158 33.8711 15.198C33.8197 15.4001 33.8711 15.4598 34.05 15.5293C35.2932 15.9343 36.4767 16.5037 37.5689 17.2225C38.5944 17.9233 39.4443 18.7782 39.9049 19.9594C40.4019 21.2533 40.3042 22.5555 39.9165 23.8511C39.3698 25.6856 38.1676 26.8454 36.3098 27.3302C36.2469 27.3402 36.2054 27.3634 36.1408 27.3982ZM28.9407 35.2179H29.156C29.9314 35.1931 30.6935 35.1086 31.4009 34.7656C33.1885 33.8975 33.5712 31.5184 32.1597 30.0705C31.3313 29.2255 30.3008 28.7451 29.2223 28.3441C27.8969 27.8471 26.5003 27.5622 25.1219 27.2292C24.9214 27.1811 24.8833 27.2441 24.8419 27.4131C24.304 29.5988 23.7595 31.7824 23.2084 33.9638C23.1637 34.1394 23.2183 34.1825 23.3741 34.2189C23.9655 34.3614 24.552 34.5221 25.1434 34.6662C26.3842 34.9865 27.6566 35.1687 28.9374 35.2096L28.9407 35.2179ZM30.3688 24.8468C30.7944 24.8543 31.2197 24.8177 31.6378 24.7374C32.7429 24.5055 33.5414 23.9091 33.8628 22.7941C34.1842 21.6791 33.9208 20.6735 33.0345 19.8683C32.5645 19.4542 32.0308 19.1185 31.4539 18.8743C30.1667 18.2994 28.7932 18.0111 27.4248 17.703C27.2591 17.6649 27.2458 17.7676 27.2177 17.8819C27.0189 18.6816 26.8184 19.4818 26.6163 20.2825C26.3264 21.4422 26.0381 22.6135 25.7399 23.7765C25.6968 23.9422 25.725 24.0151 25.9055 24.0549C26.2501 24.1278 26.5865 24.2321 26.9294 24.3166C28.0593 24.5817 29.1942 24.8335 30.3655 24.8385L30.3688 24.8468Z" fill="white"/>
</svg>
