<svg width="165" height="38" viewBox="0 0 165 38" fill="none" xmlns="http://www.w3.org/2000/svg">
<path d="M62.7419 14.783C62.5914 14.8743 62.4123 14.906 62.2396 14.8719C62.0669 14.8379 61.9132 14.7405 61.8087 14.599C61.2946 13.8611 60.6049 13.2628 59.8018 12.8581C58.9986 12.4535 58.1073 12.2553 57.2084 12.2814C53.7035 12.2814 51.5522 15.0546 51.5522 19.0153C51.5522 22.9759 53.7429 25.8019 57.2478 25.8019C58.1588 25.8236 59.0602 25.6125 59.8667 25.1885C60.6733 24.7645 61.3583 24.1417 61.8569 23.379C61.9565 23.2356 62.1064 23.1349 62.2768 23.0967C62.4472 23.0586 62.6257 23.0859 62.777 23.1731L64.4419 24.137C64.5328 24.1831 64.6127 24.2482 64.6762 24.328C64.7397 24.4078 64.7852 24.5003 64.8098 24.5992C64.8343 24.6981 64.8372 24.8012 64.8183 24.9014C64.7994 25.0016 64.7592 25.0965 64.7003 25.1797C63.8864 26.3997 62.776 27.393 61.4733 28.0665C60.1706 28.7401 58.7182 29.0719 57.2523 29.0307C51.6486 29.0307 47.8501 24.9652 47.8501 19.0374C47.8501 13.1096 51.6486 9.09617 57.169 9.09617C58.6105 9.05616 60.0399 9.36988 61.3322 10.0099C62.6244 10.6499 63.7402 11.5968 64.582 12.7677C64.6399 12.8465 64.681 12.9364 64.7028 13.0318C64.7245 13.1271 64.7264 13.226 64.7083 13.3221C64.6902 13.4182 64.6526 13.5096 64.5977 13.5906C64.5428 13.6716 64.4718 13.7404 64.3892 13.7928L62.7419 14.783Z" fill="white"/>
<path fill-rule="evenodd" clip-rule="evenodd" d="M74.9917 27.1514V27.9574C74.9917 28.0521 75.0108 28.1458 75.048 28.2329C75.0851 28.32 75.1395 28.3987 75.2079 28.4642C75.2762 28.5297 75.3572 28.5807 75.4458 28.614C75.5343 28.6474 75.6288 28.6625 75.7234 28.6585H77.5547C77.6468 28.6585 77.738 28.6403 77.823 28.6051C77.9081 28.5699 77.9853 28.5182 78.0504 28.4531C78.1155 28.388 78.1672 28.3108 78.2024 28.2257C78.2376 28.1406 78.2558 28.0495 78.2558 27.9574V18.8007C78.2558 15.4841 75.8987 14.1128 72.5602 14.1128C70.6836 14.1171 68.8365 14.5804 67.18 15.4622C67.0218 15.5503 66.9036 15.6959 66.8497 15.8688C66.7959 16.0417 66.8106 16.2287 66.8909 16.391L67.4911 17.644C67.5323 17.7281 67.5901 17.803 67.661 17.8641C67.732 17.9252 67.8146 17.9713 67.9039 17.9996C67.9932 18.0279 68.0873 18.0377 68.1805 18.0286C68.2737 18.0194 68.3641 17.9915 68.4462 17.9464C69.6289 17.3318 70.9383 17.0003 72.271 16.9781C73.4321 16.9781 74.8034 17.2981 74.8034 18.4853C74.8034 19.7272 73.3032 19.939 71.4523 20.2003C71.3031 20.2212 71.154 20.2425 71.0049 20.264C69.0947 20.5313 65.9971 21.1272 65.9971 24.6014C65.9971 27.3923 68.0169 28.9827 70.926 28.9827C72.8932 28.9827 74.1156 28.2817 74.9917 27.1514ZM72.1205 22.4296C73.2268 22.2354 74.2303 22.0594 74.8034 21.6267V23.2566C74.8034 25.3857 73.27 26.3014 71.6269 26.3014C70.3038 26.3014 69.3882 25.7099 69.3882 24.4438C69.3882 23.068 70.4396 22.7307 71.7059 22.5029C71.8452 22.4778 71.9836 22.4535 72.1205 22.4295V22.4296Z" fill="white"/>
<path d="M81.2657 25.0308C81.3839 24.8933 81.5508 24.8068 81.7313 24.7897C81.9119 24.7725 82.092 24.826 82.234 24.9389C83.4054 25.8235 84.8411 26.2866 86.3086 26.2532C87.82 26.2532 88.9372 25.767 88.9372 24.584C88.9372 23.5062 87.9121 23.2916 85.4323 22.8578C82.8036 22.4196 80.2887 21.5434 80.2887 18.5467C80.2887 15.4228 82.9832 14.1043 86.0544 14.1043C87.9803 14.0757 89.8604 14.6926 91.3951 15.8565C91.47 15.9152 91.5322 15.9884 91.5778 16.0719C91.6235 16.1553 91.6517 16.2472 91.6607 16.3419C91.6697 16.4365 91.6594 16.5321 91.6303 16.6226C91.6012 16.7132 91.554 16.7969 91.4915 16.8686L90.6152 17.8982C90.4991 18.0363 90.3344 18.1246 90.1551 18.145C89.9758 18.1654 89.7956 18.1163 89.6514 18.0078C88.5717 17.2181 87.2649 16.7999 85.9274 16.8161C84.6349 16.8161 83.5046 17.193 83.5046 18.2137C83.5046 19.3485 85.0905 19.5631 86.6809 19.8347C90.0763 20.4263 92.2319 21.3945 92.2319 24.216C92.2319 27.1777 89.8617 29.009 86.0983 29.009C84.0413 29.0719 82.027 28.4149 80.4027 27.1514C80.3298 27.0917 80.2695 27.0181 80.2254 26.9349C80.1812 26.8518 80.1541 26.7606 80.1455 26.6668C80.137 26.5731 80.1471 26.4785 80.1755 26.3887C80.2038 26.2989 80.2497 26.2156 80.3106 26.1437L81.2657 25.0308ZM94.313 27.9574V10.1258C94.313 10.0338 94.3311 9.94262 94.3663 9.85757C94.4016 9.77252 94.4532 9.69524 94.5183 9.63014C94.5834 9.56504 94.6606 9.5134 94.7457 9.47817C94.8307 9.44294 94.9219 9.4248 95.0139 9.4248H97.0337C97.4209 9.4248 97.7348 9.73868 97.7348 10.1258V16.2158C98.2376 15.5447 98.8937 15.0037 99.6482 14.6378C100.403 14.272 101.234 14.0919 102.072 14.1127C105.06 14.1127 106.813 16.242 106.813 19.2826V27.9574C106.813 28.0495 106.794 28.1406 106.759 28.2257C106.724 28.3107 106.672 28.388 106.607 28.4531C106.542 28.5182 106.465 28.5699 106.38 28.6051C106.295 28.6403 106.204 28.6585 106.112 28.6585H104.092C103.906 28.6585 103.728 28.5846 103.596 28.4531C103.465 28.3217 103.391 28.1434 103.391 27.9574V20.0712C103.391 18.5597 102.905 17.1884 100.968 17.1884C99.1324 17.1884 97.7348 18.481 97.7348 20.6363V27.9618C97.7348 28.1477 97.6609 28.326 97.5294 28.4575C97.398 28.5889 97.2197 28.6628 97.0337 28.6628H95.0139C94.9214 28.6634 94.8296 28.6455 94.744 28.6102C94.6584 28.5749 94.5807 28.5228 94.5155 28.4572C94.4502 28.3915 94.3987 28.3135 94.3639 28.2277C94.3292 28.1419 94.3119 28.05 94.313 27.9574Z" fill="white"/>
<path fill-rule="evenodd" clip-rule="evenodd" d="M127.585 23.8912L129.039 28.1849C129.083 28.3246 129.17 28.447 129.287 28.535C129.404 28.6231 129.545 28.6722 129.692 28.6756H132.194C132.307 28.6761 132.418 28.6492 132.519 28.5973C132.619 28.5454 132.705 28.4699 132.77 28.3774C132.835 28.285 132.877 28.1781 132.892 28.066C132.907 27.9539 132.894 27.8398 132.855 27.7336L126.261 9.90201C126.211 9.76737 126.12 9.65128 126.002 9.56912C125.884 9.48696 125.744 9.44261 125.6 9.44194H122.362C122.222 9.44028 122.083 9.48122 121.966 9.55941C121.849 9.6376 121.758 9.74938 121.705 9.88013L115.085 27.7161C115.046 27.8219 115.033 27.9355 115.048 28.0473C115.062 28.159 115.104 28.2656 115.168 28.3581C115.233 28.4505 115.318 28.526 115.418 28.5782C115.518 28.6305 115.629 28.6578 115.742 28.6581H118.112C118.258 28.6585 118.4 28.6131 118.519 28.5282C118.638 28.4433 118.727 28.3232 118.774 28.1849L120.232 23.8912H127.585ZM121.118 20.8989L123.948 12.5483L126.669 20.8989H121.118ZM137.933 16.2417V15.1376C137.938 15.0426 137.923 14.9476 137.89 14.8584C137.857 14.7692 137.806 14.6878 137.74 14.6192C137.674 14.5504 137.596 14.4956 137.508 14.4582C137.421 14.4208 137.327 14.4016 137.232 14.4017H135.212C134.825 14.4017 134.511 14.7155 134.511 15.1026V32.6275C134.511 33.0146 134.825 33.3285 135.212 33.3285H137.232C137.619 33.3285 137.933 33.0146 137.933 32.6275V26.8136C138.427 27.5081 139.086 28.0687 139.851 28.445C140.616 28.8213 141.463 29.0014 142.315 28.9691C146.191 28.9691 148.697 25.7228 148.697 21.5211C148.697 17.3196 146.191 14.1124 142.315 14.1124C141.465 14.078 140.621 14.2545 139.856 14.626C139.091 14.9976 138.431 15.5526 137.933 16.2417ZM145.1 21.5211C145.1 23.9703 143.966 25.9944 141.595 25.9944C139.182 25.9944 137.933 23.9745 137.933 21.5211C137.933 19.0675 139.248 17.1004 141.595 17.1004C143.943 17.1004 145.1 19.072 145.1 21.5211ZM154.231 16.2416V15.1374C154.236 15.0424 154.222 14.9472 154.189 14.8578C154.157 14.7684 154.106 14.6866 154.04 14.6176C153.975 14.5486 153.895 14.4938 153.808 14.4567C153.72 14.4195 153.625 14.4007 153.53 14.4014H151.51C151.324 14.4015 151.146 14.4754 151.014 14.6068C150.883 14.7382 150.809 14.9165 150.809 15.1023V32.6275C150.809 33.0145 151.123 33.3282 151.51 33.3282H153.53C153.917 33.3282 154.231 33.0145 154.231 32.6273V26.8134C154.726 27.5072 155.385 28.0673 156.15 28.4436C156.915 28.8198 157.761 29.0003 158.613 28.969C162.494 28.969 165 25.7225 165 21.5208C165 17.3194 162.494 14.1123 158.613 14.1123C157.763 14.0786 156.919 14.2554 156.154 14.6269C155.39 14.9984 154.729 15.553 154.231 16.2416ZM161.403 21.5208C161.403 23.9701 160.269 25.9942 157.898 25.9942C155.497 25.9942 154.231 23.9744 154.231 21.5208C154.231 19.0674 155.549 17.1003 157.898 17.1003C160.246 17.1003 161.403 19.0717 161.403 21.5208Z" fill="white"/>
<path fill-rule="evenodd" clip-rule="evenodd" d="M25.5037 0.118652C29.3242 0.118652 31.2038 0.118652 33.2673 0.76704C34.3747 1.16806 35.3804 1.80762 36.2133 2.64044C37.0461 3.47326 37.6856 4.47898 38.0867 5.58639C38.7351 7.63251 38.7351 9.52961 38.7351 13.3324V24.7762C38.7351 28.5748 38.7351 30.4718 38.0867 32.5222C37.6856 33.6296 37.0461 34.6353 36.2132 35.4681C35.3804 36.301 34.3747 36.9405 33.2673 37.3416C31.2212 37.99 29.3242 37.99 25.5213 37.99H14.0424C10.2439 37.99 8.34695 37.99 6.29638 37.3416C5.18897 36.9406 4.18325 36.301 3.35043 35.4682C2.51761 34.6354 1.87805 33.6296 1.47703 32.5222C0.846191 30.4761 0.846191 28.5966 0.846191 24.7762V13.315C0.846191 9.51638 0.846191 7.61954 1.49458 5.56884C1.89559 4.46142 2.53514 3.4557 3.36796 2.62288C4.20079 1.79006 5.20651 1.1505 6.31393 0.749493C8.3425 0.118652 10.2439 0.118652 14.0426 0.118652H25.5037Z" fill="white"/>
<path d="M20.737 12.5312C22.5982 12.5341 24.3984 13.1952 25.8192 14.3975C25.9659 14.5305 26.1579 14.6023 26.3558 14.5982C26.5538 14.5941 26.7426 14.5145 26.8838 14.3757L28.3471 12.908C28.4205 12.8352 28.4781 12.748 28.5161 12.6519C28.5541 12.5557 28.5719 12.4528 28.5682 12.3495C28.5645 12.2461 28.5394 12.1447 28.4946 12.0516C28.4498 11.9584 28.3861 11.8755 28.3077 11.8082C27.1584 10.8306 25.8294 10.0865 24.3952 9.61773L24.8334 7.45767C24.8562 7.34667 24.8539 7.23199 24.8267 7.12199C24.7996 7.01198 24.7483 6.9094 24.6765 6.82171C24.6048 6.73401 24.5144 6.66341 24.4119 6.61502C24.3095 6.56664 24.1975 6.54169 24.0842 6.54199H21.2671C21.0926 6.54183 20.9232 6.60123 20.7869 6.71038C20.6507 6.81954 20.5558 6.97191 20.5179 7.14231L20.1236 9.07438C16.3733 9.2585 13.1925 11.1161 13.1925 14.9233C13.1925 18.2136 15.8213 19.6288 18.5989 20.6189C21.2276 21.5959 22.6209 21.9597 22.6209 23.3353C22.6209 24.7109 21.232 25.5784 19.186 25.5784C17.2005 25.6102 15.2821 24.8596 13.8453 23.4888C13.7027 23.3486 13.5108 23.27 13.3108 23.27C13.1108 23.27 12.9189 23.3486 12.7763 23.4888L11.2078 25.022C11.1345 25.0927 11.0762 25.1774 11.0364 25.2711C10.9966 25.3648 10.9761 25.4656 10.9761 25.5674C10.9761 25.6692 10.9966 25.77 11.0364 25.8637C11.0762 25.9575 11.1345 26.0422 11.2078 26.1129C12.4857 27.3099 14.0456 28.1644 15.7423 28.5971L15.3042 30.5993C15.2811 30.7112 15.2827 30.8268 15.3092 30.9379C15.3356 31.049 15.3861 31.153 15.4572 31.2424C15.5282 31.3319 15.6181 31.4046 15.7203 31.4555C15.8226 31.5064 15.9348 31.5342 16.049 31.537H18.8749C19.0508 31.5379 19.2217 31.4784 19.3589 31.3683C19.4961 31.2582 19.5913 31.1043 19.6285 30.9324L20.036 29.0353C24.5311 28.7592 27.2781 26.3409 27.2781 22.8008C27.2781 19.5411 24.5398 18.1655 21.2145 17.0439C19.3131 16.3297 17.67 15.8609 17.67 14.4502C17.67 13.0395 19.2034 12.5312 20.737 12.5312Z" fill="#00D54B"/>
</svg>
