<svg id="Layer_1" data-name="Layer 1" xmlns="http://www.w3.org/2000/svg" viewBox="0 0 738.64 163.24"><defs><style>.cls-1{fill:#00d54b;}.cls-2{fill:#fff;}</style></defs><title>cashapp-logo-freelogovectors.net</title><path class="cls-1" d="M299.72,356.45a3.08,3.08,0,0,1-2.18.39,3.14,3.14,0,0,1-1.88-1.19,23.53,23.53,0,0,0-20-10.08c-15.24,0-24.59,12.06-24.59,29.28s9.52,29.51,24.76,29.51a23.39,23.39,0,0,0,11.39-2.67,23.13,23.13,0,0,0,8.65-7.87,3,3,0,0,1,1.83-1.22,3,3,0,0,1,2.17.33l7.24,4.19a3,3,0,0,1,1,.83,3.1,3.1,0,0,1,.58,1.18,3.05,3.05,0,0,1,0,1.31,3.1,3.1,0,0,1-.51,1.21,37.69,37.69,0,0,1-32.39,16.75C251.49,418.4,235,400.72,235,375s16.52-43.23,40.52-43.23a38.42,38.42,0,0,1,32.23,16,3.18,3.18,0,0,1,.53,1.15,3.14,3.14,0,0,1,0,1.26,3,3,0,0,1-.48,1.16,2.94,2.94,0,0,1-.91.88Z" transform="translate(-5.68 -293.38)"/><path class="cls-1" d="M353,413.72v-3.5c-3.81,4.91-9.12,8-17.68,8-12.65,0-21.43-6.91-21.43-19.05,0-15.1,13.47-17.69,21.78-18.86,8.91-1.29,16.51-1.9,16.51-7.73,0-5.16-6-6.55-11-6.55a37.37,37.37,0,0,0-16.63,4.21,3.15,3.15,0,0,1-1.15.36,3.09,3.09,0,0,1-1.21-.13,3,3,0,0,1-1.05-.59,3,3,0,0,1-.74-1l-2.61-5.44a3.1,3.1,0,0,1-.18-2.28A3,3,0,0,1,319,359.4a50,50,0,0,1,23.39-5.87c14.51,0,24.76,6,24.76,20.38v39.81a3,3,0,0,1-3.05,3h-8a3.13,3.13,0,0,1-1.21-.19,3.27,3.27,0,0,1-1-.65,3.21,3.21,0,0,1-.7-1,3.06,3.06,0,0,1-.24-1.2Zm-.82-27.52c-2.8,2.11-8,2.82-13.47,3.81s-10.07,2.46-10.07,8.44c0,5.5,4,8.07,9.73,8.07,7.14,0,13.81-4,13.81-13.24Z" transform="translate(-5.68 -293.38)"/><path class="cls-1" d="M380.26,401a3,3,0,0,1,4.21-.4,28.31,28.31,0,0,0,17.71,5.71c6.58,0,11.43-2.11,11.43-7.26,0-4.68-4.45-5.62-15.24-7.5-11.43-1.91-22.36-5.72-22.36-18.75,0-13.58,11.72-19.31,25.07-19.31a37.48,37.48,0,0,1,23.22,7.62,3,3,0,0,1,1.15,2.11,3,3,0,0,1-.13,1.22,3.14,3.14,0,0,1-.6,1.07L420.91,370a3.09,3.09,0,0,1-2,1.08,3.06,3.06,0,0,1-2.19-.6,26.9,26.9,0,0,0-16.19-5.18c-5.62,0-10.54,1.64-10.54,6.08,0,4.93,6.9,5.86,13.81,7,14.76,2.58,24.14,6.79,24.14,19,0,12.88-10.31,20.84-26.67,20.84a38.39,38.39,0,0,1-24.76-8.07,3.05,3.05,0,0,1-1.12-2.11,3.09,3.09,0,0,1,.13-1.21,3,3,0,0,1,.59-1.07Z" transform="translate(-5.68 -293.38)"/><path class="cls-1" d="M437,413.73V336.2a3.06,3.06,0,0,1,3-3.05h8.79a3.06,3.06,0,0,1,3,3.05v26.48a22.85,22.85,0,0,1,18.86-9.14c13,0,20.61,9.25,20.61,22.47v37.72a3,3,0,0,1-3,3h-8.78a3,3,0,0,1-3.05-3V379.44c0-6.57-2.12-12.53-10.54-12.53-8,0-14.06,5.62-14.06,15v31.85a3,3,0,0,1-.89,2.15,3,3,0,0,1-2.15.9H440a3.13,3.13,0,0,1-1.17-.23,3.09,3.09,0,0,1-1.65-1.66,3,3,0,0,1-.22-1.18Z" transform="translate(-5.68 -293.38)"/><path class="cls-1" d="M588,414.73l-6.33-18.67h-32l-6.34,18.67a3.12,3.12,0,0,1-1.11,1.49,3.06,3.06,0,0,1-1.77.57H530.15a3.06,3.06,0,0,1-2.49-1.31,3.11,3.11,0,0,1-.53-1.35,3.08,3.08,0,0,1,.17-1.44l28.78-77.54a3,3,0,0,1,2.86-1.91H573a3.1,3.1,0,0,1,1.75.55,3.05,3.05,0,0,1,1.13,1.45l28.67,77.53a3.08,3.08,0,0,1,.16,1.44,3.15,3.15,0,0,1-.53,1.36,3,3,0,0,1-1.09.95,3,3,0,0,1-1.42.34H590.81a3,3,0,0,1-2.84-2.13Zm-22.14-68-12.31,36.3h24.14Z" transform="translate(-5.68 -293.38)"/><path class="cls-1" d="M626.63,358v4.8a22.45,22.45,0,0,1,19-9.26c16.86,0,27.76,14,27.76,32.22s-10.9,32.38-27.76,32.38a22.39,22.39,0,0,1-19-9.37V434a3,3,0,0,1-3,3.05h-8.78a3,3,0,0,1-3-3.05V357.84a3,3,0,0,1,3-3h8.78a2.93,2.93,0,0,1,1.2.25,3.06,3.06,0,0,1,1,.7,3.2,3.2,0,0,1,.65,1A3,3,0,0,1,626.63,358Zm15.93,47.2c10.31,0,15.24-8.8,15.24-19.44s-5-19.22-15.24-19.22-15.93,8.55-15.93,19.22S632.07,405.19,642.56,405.19Z" transform="translate(-5.68 -293.38)"/><path class="cls-1" d="M697.5,358v4.8a22.42,22.42,0,0,1,19-9.26c16.88,0,27.77,14,27.77,32.21s-10.89,32.39-27.77,32.39a22.42,22.42,0,0,1-19-9.37V434a3,3,0,0,1-3,3.05h-8.78a3.06,3.06,0,0,1-3-3.05V357.84a3.06,3.06,0,0,1,3-3h8.78a3.15,3.15,0,0,1,1.21.24,3.06,3.06,0,0,1,1,.7,3.14,3.14,0,0,1,.65,1,3.17,3.17,0,0,1,.18,1.22Zm15.94,47.2c10.31,0,15.24-8.8,15.24-19.45s-5-19.22-15.24-19.22-15.94,8.56-15.94,19.22S703,405.19,713.44,405.19Z" transform="translate(-5.68 -293.38)"/><rect class="cls-1" width="162.36" height="163.24" rx="37.62" ry="37.62"/><path class="cls-2" d="M113.24,354.1A34.43,34.43,0,0,0,91.07,346c-6.69,0-13.38,2.22-13.38,8.37,0,5.61,6,7.81,13.29,10.51l2.17.81c14.51,4.89,26.45,10.89,26.45,25.11,0,15.45-12,26-31.59,27.2l-1.78,8.27A3.33,3.33,0,0,1,83,428.86H70.62A3.38,3.38,0,0,1,68,427.58a3.42,3.42,0,0,1-.67-2.81L69.28,416A45.4,45.4,0,0,1,49.5,405.2a3.31,3.31,0,0,1,0-4.76l6.84-6.69a3.34,3.34,0,0,1,4.67,0,33,33,0,0,0,23.29,9.12c8.93,0,15-3.78,15-9.79,0-5.42-5-7.24-14.4-10.69l-3.15-1.16c-12.11-4.31-23.58-10.49-23.58-24.84,0-16.61,13.87-24.71,30.23-25.52l1.72-8.42a3.34,3.34,0,0,1,3.27-2.62h12.29a3.32,3.32,0,0,1,3.27,4L107,333.24a50.75,50.75,0,0,1,17.07,9.56,3.25,3.25,0,0,1,1.13,2.36,3.32,3.32,0,0,1-1,2.44l-6.39,6.4A3.38,3.38,0,0,1,113.24,354.1Z" transform="translate(-5.68 -293.38)"/></svg>