<svg width="26" height="27" viewBox="0 0 26 27" fill="none" xmlns="http://www.w3.org/2000/svg">
<path opacity="0.4" d="M19.4784 11.9602V16.2935C19.4784 16.5752 19.4675 16.846 19.435 17.106C19.1859 20.031 17.4634 21.4826 14.2892 21.4826H13.8559C13.585 21.4826 13.325 21.6127 13.1625 21.8293L11.8625 23.5627C11.2884 24.3318 10.3567 24.3318 9.78252 23.5627L8.48251 21.8293C8.34167 21.6452 8.02752 21.4826 7.78919 21.4826H7.35586C3.90003 21.4826 2.16669 20.6268 2.16669 16.2935V11.9602C2.16669 8.78601 3.6292 7.06351 6.54336 6.81434C6.80336 6.78184 7.0742 6.771 7.35586 6.771H14.2892C17.745 6.771 19.4784 8.50434 19.4784 11.9602Z" fill="white"/>
<path d="M10.8225 15.4377C10.2158 15.4377 9.73914 14.9502 9.73914 14.3543C9.73914 13.7585 10.2266 13.271 10.8225 13.271C11.4183 13.271 11.9058 13.7585 11.9058 14.3543C11.9058 14.9502 11.4291 15.4377 10.8225 15.4377Z" fill="white"/>
<path d="M14.6142 15.4377C14.0075 15.4377 13.5308 14.9502 13.5308 14.3543C13.5308 13.7585 14.0183 13.271 14.6142 13.271C15.21 13.271 15.6975 13.7585 15.6975 14.3543C15.6975 14.9502 15.21 15.4377 14.6142 15.4377Z" fill="white"/>
<path d="M7.04165 15.4377C6.43498 15.4377 5.95831 14.9502 5.95831 14.3543C5.95831 13.7585 6.44581 13.271 7.04165 13.271C7.63748 13.271 8.12498 13.7585 8.12498 14.3543C8.12498 14.9502 7.63748 15.4377 7.04165 15.4377Z" fill="white"/>
<path d="M23.8117 7.62692V11.9603C23.8117 15.1453 22.3492 16.8569 19.435 17.1061C19.4675 16.8461 19.4783 16.5753 19.4783 16.2936V11.9603C19.4783 8.50442 17.745 6.77108 14.2892 6.77108H7.35583C7.07417 6.77108 6.80333 6.78192 6.54333 6.81442C6.7925 3.90025 8.515 2.43774 11.6892 2.43774H18.6225C22.0783 2.43774 23.8117 4.17109 23.8117 7.62692Z" fill="white"/>
</svg>
