<svg width="148" height="27" viewBox="0 0 148 27" fill="none" xmlns="http://www.w3.org/2000/svg">
<path d="M36.4173 26.9333L41.9787 0.767578H5.56145L0 26.9333H36.4173Z" fill="white"/>
<path d="M40.7792 1.73063L6.33495 1.73227L6.3142 1.84715C6.3142 1.84715 26.5637 6.00482 26.9649 6.07632C31.6173 6.89751 31.4733 7.7951 31.4733 7.7951C34.7336 7.77875 35.1341 7.91063 35.704 8.38554C37.4179 9.81751 34.6316 14.0366 34.6316 14.0366C34.2332 14.3308 4.11112 25.9631 4.11112 25.9631H35.6252L40.7783 1.73104L40.7792 1.73063ZM47.383 1.73063L46.0743 7.88923C45.6055 10.0168 47.0405 10.9805 49.4305 10.9805C51.8297 10.9805 53.6531 10.0167 54.1097 7.88923C55.4406 1.73031 54.0956 7.88955 55.4407 1.73063H53.4346C53.4346 1.73063 52.4213 6.46861 52.2457 7.27958C51.9433 8.70036 51.1939 9.54893 49.7241 9.54893C48.189 9.53667 47.8743 8.68705 48.1889 7.27958C48.1532 7.42152 49.3826 1.73063 49.3826 1.73063H47.383ZM57.3623 1.73063L55.4344 10.816H57.2106L58.6134 4.07327H58.6533L60.8972 10.816H63.4187L65.3433 1.73063H63.5703L62.1387 8.54838H62.1148L59.9587 1.73063H57.3623ZM67.2664 1.73063L65.3433 10.816H67.3446L69.2708 1.73063H67.2664ZM70.613 1.73063L70.2954 3.1765H73.1218L71.4987 10.8161H73.5016L75.1231 3.1765H77.9478L78.2526 1.73063H70.613ZM79.5979 1.73063L77.6589 10.816H84.2436L84.55 9.37015H79.9778L80.498 6.88688H84.4878L84.7766 5.54471H80.7884L81.2927 3.17642H85.8698L86.1715 1.73055L79.5979 1.73063ZM87.6316 1.73063L85.7086 10.816H89.8117C92.3468 10.816 94.7791 9.14454 95.3255 5.87506C95.7157 3.55653 94.7907 1.73047 92.0412 1.73047L87.6316 1.73063ZM102.693 1.73063C100.338 1.73063 99.1678 2.56653 98.9932 3.8739C98.7021 6.0505 102.553 7.34397 102.263 8.64725C102.085 9.4092 101.148 9.37023 100.388 9.37023H97.9192L97.6128 10.8161H100.68C103.19 10.8161 104.279 9.91581 104.48 8.67283C104.846 6.44312 100.933 5.29165 101.239 3.8484C101.339 3.40406 101.831 3.1765 102.921 3.1765H105.063L105.377 1.73063H102.693ZM106.406 1.73063L106.092 3.1765H108.916L107.295 10.8161H109.296L110.918 3.1765H113.744L114.049 1.73063H106.406ZM116.17 1.73063L110.964 10.816H112.967L116.957 3.53226L117.756 9.37006H114.89L114.106 10.8159H119.982L118.565 1.73055L116.17 1.73063ZM120.776 1.73063L120.46 3.1765H123.284L121.663 10.8161H123.664L125.286 3.1765H128.109L128.415 1.73063H120.776ZM129.751 1.73063L127.81 10.816H134.398L134.704 9.37015H130.127L130.647 6.88688H134.639L134.929 5.54471H130.94L131.447 3.17642H136.019L136.324 1.73055L129.751 1.73063ZM140.729 1.73063C138.372 1.73063 137.206 2.56653 137.028 3.8739C136.737 6.0505 140.588 7.34397 140.298 8.64725C140.12 9.4092 139.181 9.37023 138.422 9.37023H135.951L135.648 10.8161H138.712C141.222 10.8161 142.312 9.91581 142.517 8.67283C142.881 6.44312 138.968 5.29165 139.271 3.8484C139.373 3.40406 139.868 3.1765 140.957 3.1765H143.094L143.415 1.73063H140.729ZM89.3423 3.1765H91.3851C93.0428 3.1765 93.6355 4.4064 93.3832 5.84965C93.0298 7.89037 91.7243 9.37023 89.4589 9.37023H88.0273L89.3423 3.1765ZM22.8807 7.33392C21.9675 7.32673 21.3249 7.33989 21.2513 7.33556H5.14868L1.19226 25.9696C1.19226 25.9696 13.3107 20.0223 14.793 19.2604C17.8296 17.7007 22.0289 15.6395 25.9097 14.3179C26.6491 14.0677 29.8168 13.0907 31.6614 12.7619C32.3764 12.6342 32.6808 12.5126 32.6716 12.3789C32.644 11.9969 31.9245 11.9717 30.707 12.031C26.9923 12.2057 19.8739 15.0407 17.8246 16.1214L15.5121 8.95252H30.2919C30.7895 7.55797 25.6205 7.35541 22.8807 7.33392ZM30.7166 9.06071C30.6093 9.06071 30.5172 9.13318 30.3926 9.30175C30.2793 9.44777 30.1873 9.54615 29.8931 9.69429C29.4365 9.91899 28.2431 10.0447 27.6844 10.0916C27.1481 10.1366 27.0025 10.1908 26.9934 10.3981C26.9882 10.583 27.0733 10.6885 27.8424 10.6885C29.6124 10.6885 32.7983 10.0209 33.7584 10.3262C34.265 10.4887 33.8581 11.3913 33.4425 12.5782C33.2811 13.0367 33.5969 13.0044 33.7807 12.8031C33.9646 12.6009 34.7904 11.0884 34.8803 10.3183C35.008 9.22437 34.0694 9.06079 32.7753 9.06079L30.7166 9.06071ZM56.9023 16.7131C54.0905 16.7131 51.7477 18.1824 51.0613 21.413C50.5189 23.9971 52.0903 26.1241 54.8899 26.1241C57.7283 26.1241 60.0083 24.7203 60.7181 21.413C61.2992 18.7156 59.6896 16.7131 56.9023 16.7131ZM137.098 16.7131C134.309 16.7131 131.626 18.1558 130.941 21.413C130.245 24.6682 132.309 26.1241 135.098 26.1241C135.869 26.1241 136.609 26.037 137.342 25.9247L137.835 24.3623C137.114 24.541 136.351 24.6814 135.4 24.6814C133.588 24.6814 132.565 23.466 132.995 21.413C133.426 19.3601 134.97 18.1558 136.78 18.1558C137.708 18.1558 138.339 18.2824 138.909 18.4478L139.088 16.9158C138.443 16.8024 137.772 16.7131 137.098 16.7131ZM65.6143 16.8758C63.256 16.8758 62.0885 17.7128 61.9118 19.0191C61.6207 21.1987 65.4715 22.4903 65.1834 23.7956C65.0057 24.5555 64.0665 24.517 63.3066 24.517H60.8362L60.5298 25.9613H63.5987C66.1072 25.9613 67.1964 25.0616 67.3986 23.8196C67.7663 21.5909 63.8524 20.4368 64.1557 18.9936C64.2568 18.5493 64.7513 18.3218 65.8441 18.3218H67.981L68.3002 16.8759L65.6143 16.8758ZM69.3264 16.8758L69.0104 18.3217H71.8351L70.2137 25.9613H72.2149L73.8396 18.3217H76.6627L76.9644 16.8758H69.3264ZM98.5697 16.8758C96.2114 16.8758 95.0445 17.7128 94.8688 19.0191C94.5756 21.1987 98.4268 22.4903 98.1389 23.7956C97.9611 24.5555 97.022 24.517 96.2621 24.517H93.7916L93.4869 25.9613H96.5542C99.0617 25.9613 100.152 25.0616 100.354 23.8196C100.722 21.5909 96.8086 20.4368 97.1079 18.9936C97.2101 18.5493 97.7065 18.3218 98.7964 18.3218H100.936L101.252 16.8759L98.5697 16.8758ZM102.987 16.8758L101.048 25.9612H107.638L107.941 24.5169H103.367L103.887 22.0321H107.879L108.169 20.6883H104.179L104.684 18.3216H109.259L109.561 16.8757L102.987 16.8758ZM111.016 16.8758L109.09 25.9612H111.091L112.713 18.3089H114.511C115.626 18.3089 115.726 18.9285 115.612 19.4994C115.399 20.5759 114.46 21.006 113.434 21.006C113.244 21.006 112.925 21.0193 112.673 20.9805L114.321 25.9613H116.513L115.017 22.0449C116.348 21.8559 117.49 20.9064 117.614 19.1946C117.73 17.6737 117.021 16.8757 115.249 16.8757L111.016 16.8758ZM140.705 16.8758L138.771 25.9612H145.358L145.662 24.5169H141.089L141.608 22.0321H145.6L145.89 20.6883H141.9L142.408 18.3216H146.98L147.283 16.8757L140.705 16.8758ZM44.1722 16.8775L42.2459 25.9612H44.2488L45.8703 18.3216H47.5029C48.2403 18.3216 48.7441 18.6878 48.5306 19.6765C48.4183 20.221 47.9219 21.1592 46.5533 21.1592C46.25 21.1592 45.9214 21.1208 45.6692 21.0953L45.7697 22.4151C46.0598 22.4406 46.4033 22.4885 46.721 22.4885C48.5195 22.4885 50.1026 21.4511 50.4712 19.726C50.7113 18.5871 50.4826 16.8773 48.5195 16.8773L44.1722 16.8775ZM79.1034 16.8775L73.9007 25.9612H75.8988L79.8933 18.6759L80.6881 24.5169H77.8266L77.0414 25.9612H82.9175L81.502 16.8775H79.1034ZM85.8875 16.8775L83.9629 25.9612H90.1087L90.4247 24.5169H86.2817L87.9032 16.8773L85.8875 16.8775ZM118.677 16.8775L120.045 25.9612H122.412L127.584 16.8775H125.607L121.617 24.1644L120.678 16.8775H118.677ZM128.79 16.8775L126.866 25.9612H128.867L130.793 16.8775H128.79ZM56.5862 18.1562C58.436 18.1562 59.0578 19.574 58.6656 21.4134C58.2315 23.4664 57.0166 24.6819 55.2057 24.6819C53.3295 24.6819 52.7085 23.1743 53.1007 21.4134C53.5694 19.3605 54.7753 18.1562 56.5862 18.1562Z" fill="#15569C"/>
<path d="M44.8846 13.5127L44.7426 14.1868H147.861L148 13.5127H44.8917H44.8846Z" fill="#ED192D"/>
</svg>
