<svg width="30" height="36" viewBox="0 0 30 36" fill="none" xmlns="http://www.w3.org/2000/svg">
<mask id="mask0_1_187" style="mask-type:luminance" maskUnits="userSpaceOnUse" x="0" y="0" width="30" height="36">
<path d="M0 3.32917V20.9875C0 24.7025 1.39458 27.8104 4.03333 29.9729C6.44708 31.9521 14.1187 35.3187 15 35.7012C15.8808 35.3187 23.5529 31.9521 25.9667 29.9733C28.6054 27.8108 30 24.7025 30 20.9879V3.32917C25.8333 1.11958 20.7862 0 15 0C9.21375 0 4.1675 1.12 0 3.33" fill="white"/>
</mask>
<g mask="url(#mask0_1_187)">
<path d="M0 0.000976562H30V35.701H0V0.000976562Z" fill="url(#paint0_radial_1_187)"/>
</g>
<mask id="mask1_1_187" style="mask-type:luminance" maskUnits="userSpaceOnUse" x="1" y="3" width="28" height="32">
<path d="M14.4841 13.7592V21.7775C14.6708 21.8471 14.977 21.935 15.3308 21.935C16.8333 21.935 17.55 20.5567 17.55 17.7038C17.55 14.78 16.9229 13.5713 15.4083 13.5713C15.0541 13.5713 14.6958 13.6546 14.4841 13.7588M7.92871 21.57V11.7342H10.5337V23.055C9.53663 23.7325 8.19871 24.1034 6.60163 24.1034C4.01913 24.1034 2.70996 22.7025 2.70996 19.9367V11.7342H5.3183V20.053C5.3183 20.7934 5.49746 21.8892 6.6933 21.8892C7.22371 21.8892 7.64455 21.7655 7.9283 21.57M11.8725 12.398C12.8191 11.7871 13.967 11.4696 15.3904 11.4696C18.5054 11.4696 20.217 13.833 20.217 17.6375C20.217 21.4492 18.5545 24.0584 15.6579 24.0584C15.1225 24.0584 14.7441 23.9875 14.4837 23.9105V29.405H11.8725V12.3984V12.398ZM24.9808 20.498C24.9616 19.6784 24.4987 19.2342 23.3516 18.5605C21.1991 17.2971 20.8125 16.2588 20.8087 14.8705C20.7975 12.7621 22.5929 11.5196 24.31 11.4696C25.7433 11.4259 26.7141 11.9642 27.1733 12.3171V14.5863C26.6295 14.028 25.7475 13.5221 24.8358 13.5138C24.0966 13.5071 23.3266 13.8325 23.3008 14.7609C23.2758 15.71 24.0437 16.0859 25.0175 16.6559C27.1975 17.9375 27.6191 19.0892 27.5691 20.6117C27.5191 22.28 26.3691 24.1034 23.7908 24.1034C22.7591 24.1034 21.7391 23.7809 20.922 23.293V20.89C21.5887 21.4838 22.5845 21.9459 23.417 21.9517H23.4275C24.3791 21.9517 25.0041 21.4046 24.9816 20.4975M1.37871 10.8884V20.9884C1.37871 24.2784 2.59538 27.0259 4.90705 28.9092C6.94746 30.5717 13.2287 33.4134 15 34.1967C16.7483 33.4259 23.0137 30.6192 25.0904 28.9092C27.4175 26.9925 28.6216 24.3092 28.6216 20.9884V3.70087C26.7691 3.52837 24.845 3.41504 22.8841 3.41504C15.6145 3.41504 7.82163 4.97754 1.3783 10.8875" fill="white"/>
</mask>
<g mask="url(#mask1_1_187)">
<path d="M1.3783 3.41504H28.6216V34.1967H1.3783V3.41504Z" fill="url(#paint1_radial_1_187)"/>
</g>
<defs>
<radialGradient id="paint0_radial_1_187" cx="0" cy="0" r="1" gradientUnits="userSpaceOnUse" gradientTransform="translate(4.58551 6.1704) rotate(90) scale(49.8367 24.9183)">
<stop stop-color="#FFDC00"/>
<stop offset="0.35" stop-color="#FFBE00"/>
<stop offset="1" stop-color="#C86E14"/>
</radialGradient>
<radialGradient id="paint1_radial_1_187" cx="0" cy="0" r="1" gradientUnits="userSpaceOnUse" gradientTransform="translate(4.60041 6.19751) rotate(90) scale(49.4514 24.7257)">
<stop stop-color="#4B3333"/>
<stop offset="0.35" stop-color="#351A1A"/>
<stop offset="0.85" stop-color="#1E0000"/>
<stop offset="1" stop-color="#1E0000"/>
</radialGradient>
</defs>
</svg>
