<svg width="41" height="41" viewBox="0 0 41 41" fill="none" xmlns="http://www.w3.org/2000/svg">
<rect width="41" height="41" rx="6.30769" fill="#0393FB"/>
<path opacity="0.4" d="M25.19 10.5H16.81C13.17 10.5 11 12.67 11 16.31V24.68C11 28.33 13.17 30.5 16.81 30.5H25.18C28.82 30.5 30.99 28.33 30.99 24.69V16.31C31 12.67 28.83 10.5 25.19 10.5Z" fill="white"/>
<path d="M23.26 20.5L21.75 19.97V16.58H22.11C22.92 16.58 23.58 17.29 23.58 18.16C23.58 18.57 23.92 18.91 24.33 18.91C24.74 18.91 25.08 18.57 25.08 18.16C25.08 16.46 23.75 15.08 22.11 15.08H21.75V14.5C21.75 14.09 21.41 13.75 21 13.75C20.59 13.75 20.25 14.09 20.25 14.5V15.08H19.6C18.12 15.08 16.91 16.33 16.91 17.86C16.91 19.65 17.95 20.22 18.74 20.5L20.25 21.03V24.41H19.89C19.08 24.41 18.42 23.7 18.42 22.83C18.42 22.42 18.08 22.08 17.67 22.08C17.26 22.08 16.92 22.42 16.92 22.83C16.92 24.53 18.25 25.91 19.89 25.91H20.25V26.5C20.25 26.91 20.59 27.25 21 27.25C21.41 27.25 21.75 26.91 21.75 26.5V25.92H22.4C23.88 25.92 25.09 24.67 25.09 23.14C25.08 21.34 24.04 20.77 23.26 20.5ZM19.24 19.09C18.73 18.91 18.42 18.74 18.42 17.87C18.42 17.16 18.95 16.59 19.61 16.59H20.26V19.45L19.24 19.09ZM22.4 24.42H21.75V21.56L22.76 21.91C23.27 22.09 23.58 22.26 23.58 23.13C23.58 23.84 23.05 24.42 22.4 24.42Z" fill="white"/>
</svg>
