<svg width="41" height="41" viewBox="0 0 41 41" fill="none" xmlns="http://www.w3.org/2000/svg">
<rect width="41" height="41" rx="6.30769" fill="#0393FB"/>
<path d="M25.75 12.06V10.5C25.75 10.09 25.41 9.75 25 9.75C24.59 9.75 24.25 10.09 24.25 10.5V12H17.75V10.5C17.75 10.09 17.41 9.75 17 9.75C16.59 9.75 16.25 10.09 16.25 10.5V12.06C13.55 12.31 12.24 13.92 12.04 16.31C12.02 16.6 12.26 16.84 12.54 16.84H29.46C29.75 16.84 29.99 16.59 29.96 16.31C29.76 13.92 28.45 12.31 25.75 12.06Z" fill="white"/>
<path opacity="0.4" d="M29 18.3398C29.55 18.3398 30 18.7898 30 19.3398V25.4998C30 28.4998 28.5 30.4998 25 30.4998H17C13.5 30.4998 12 28.4998 12 25.4998V19.3398C12 18.7898 12.45 18.3398 13 18.3398H29Z" fill="white"/>
<path d="M17.5 23.4999C17.24 23.4999 16.98 23.3899 16.79 23.2099C16.61 23.0199 16.5 22.7599 16.5 22.4999C16.5 22.2399 16.61 21.9799 16.79 21.7899C17.07 21.5099 17.51 21.4199 17.88 21.5799C18.01 21.6299 18.12 21.6999 18.21 21.7899C18.39 21.9799 18.5 22.2399 18.5 22.4999C18.5 22.7599 18.39 23.0199 18.21 23.2099C18.02 23.3899 17.76 23.4999 17.5 23.4999Z" fill="white"/>
<path d="M21 23.4999C20.74 23.4999 20.48 23.3899 20.29 23.2099C20.11 23.0199 20 22.7599 20 22.4999C20 22.2399 20.11 21.9799 20.29 21.7899C20.38 21.6999 20.49 21.6299 20.62 21.5799C20.99 21.4199 21.43 21.5099 21.71 21.7899C21.89 21.9799 22 22.2399 22 22.4999C22 22.7599 21.89 23.0199 21.71 23.2099C21.66 23.2499 21.61 23.2899 21.56 23.3299C21.5 23.3699 21.44 23.3999 21.38 23.4199C21.32 23.4499 21.26 23.4699 21.2 23.4799C21.13 23.4899 21.07 23.4999 21 23.4999Z" fill="white"/>
<path d="M24.5 23.5C24.24 23.5 23.98 23.39 23.79 23.21C23.61 23.02 23.5 22.76 23.5 22.5C23.5 22.24 23.61 21.98 23.79 21.79C23.89 21.7 23.99 21.63 24.12 21.58C24.3 21.5 24.5 21.48 24.7 21.52C24.76 21.53 24.82 21.55 24.88 21.58C24.94 21.6 25 21.63 25.06 21.67C25.11 21.71 25.16 21.75 25.21 21.79C25.39 21.98 25.5 22.24 25.5 22.5C25.5 22.76 25.39 23.02 25.21 23.21C25.16 23.25 25.11 23.29 25.06 23.33C25 23.37 24.94 23.4 24.88 23.42C24.82 23.45 24.76 23.47 24.7 23.48C24.63 23.49 24.56 23.5 24.5 23.5Z" fill="white"/>
<path d="M17.5 27C17.37 27 17.24 26.97 17.12 26.92C16.99 26.87 16.89 26.8 16.79 26.71C16.61 26.52 16.5 26.26 16.5 26C16.5 25.74 16.61 25.48 16.79 25.29C16.89 25.2 16.99 25.13 17.12 25.08C17.3 25 17.5 24.98 17.7 25.02C17.76 25.03 17.82 25.05 17.88 25.08C17.94 25.1 18 25.13 18.06 25.17C18.11 25.21 18.16 25.25 18.21 25.29C18.39 25.48 18.5 25.74 18.5 26C18.5 26.26 18.39 26.52 18.21 26.71C18.16 26.75 18.11 26.8 18.06 26.83C18 26.87 17.94 26.9 17.88 26.92C17.82 26.95 17.76 26.97 17.7 26.98C17.63 26.99 17.57 27 17.5 27Z" fill="white"/>
<path d="M21 27.0002C20.74 27.0002 20.48 26.8902 20.29 26.7102C20.11 26.5202 20 26.2602 20 26.0002C20 25.7402 20.11 25.4802 20.29 25.2902C20.66 24.9202 21.34 24.9202 21.71 25.2902C21.89 25.4802 22 25.7402 22 26.0002C22 26.2602 21.89 26.5202 21.71 26.7102C21.52 26.8902 21.26 27.0002 21 27.0002Z" fill="white"/>
<path d="M24.5 27.0002C24.24 27.0002 23.98 26.8902 23.79 26.7102C23.61 26.5202 23.5 26.2602 23.5 26.0002C23.5 25.7402 23.61 25.4802 23.79 25.2902C24.16 24.9202 24.84 24.9202 25.21 25.2902C25.39 25.4802 25.5 25.7402 25.5 26.0002C25.5 26.2602 25.39 26.5202 25.21 26.7102C25.02 26.8902 24.76 27.0002 24.5 27.0002Z" fill="white"/>
</svg>
