<svg width="156" height="35" viewBox="0 0 156 35" fill="none" xmlns="http://www.w3.org/2000/svg">
<g clip-path="url(#clip0_17_40)">
<path d="M0.603516 21.5985V23.144H22.3973L23.5366 21.5985H0.603516Z" fill="#040503"/>
<path d="M0.604059 24.4699V26.0171H20.2843L21.4214 24.4699H0.604059Z" fill="#040503"/>
<path d="M0.604059 28.8796V27.3428H19.3079L18.1756 28.8796H0.604059Z" fill="#040503"/>
<path d="M132.827 27.3424L131.695 28.8815L154.54 28.88L154.54 27.3425L132.827 27.3424Z" fill="#040503"/>
<path d="M134.941 24.4705L133.804 26.0172L154.54 26.0172L154.54 24.4707L134.941 24.4705Z" fill="#040503"/>
<path d="M135.916 23.1456L137.054 21.5982L154.54 21.598L154.54 23.1448L135.916 23.1456Z" fill="#040503"/>
<path d="M22.7569 13.7942L27.6754 7.11247L56.0406 7.11247C63.2437 7.11247 65.0841 12.8015 63.0688 15.5358C61.5879 17.5456 59.8214 19.9502 59.8214 19.9502L48.8599 19.9502C46.7773 19.9502 47.4061 19.0938 47.7537 18.6252C48.1057 18.1498 48.5742 17.5001 49.0377 16.8573L49.038 16.8568C49.4762 16.2492 49.9099 15.6478 50.2365 15.2056C50.8985 14.3085 50.9164 13.7942 49.5615 13.7942L22.7569 13.7942Z" fill="#040503"/>
<path d="M20.7671 28.8797L30.6458 15.4581L42.9041 15.4581C44.259 15.4581 44.2416 15.9724 43.5791 16.87C43.294 17.2565 42.924 17.7607 42.5401 18.2839L42.5389 18.2856C42.0179 18.9955 41.4716 19.7401 41.0773 20.2723C40.7297 20.7425 40.1014 21.5984 42.184 21.5984L58.6065 21.5984C57.2407 23.4692 52.8105 28.8797 44.8558 28.8797L20.7671 28.8797Z" fill="#040503"/>
<path d="M77.3414 21.5974L71.9847 28.8797L57.8537 28.8793C57.8537 28.8793 63.2078 21.5985 63.2128 21.5982L77.3414 21.5974Z" fill="#040503"/>
<path d="M92.4163 28.8797L97.7758 21.5982L83.6494 21.5981C83.6447 21.598 78.2898 28.8796 78.2898 28.8796L92.4163 28.8797Z" fill="#040503"/>
<path d="M102.371 21.5983C102.371 21.5983 101.339 23.0102 100.838 23.688C99.0629 26.0861 100.631 28.8795 106.422 28.8795H129.108L134.467 21.5983L102.371 21.5983Z" fill="#040503"/>
<path d="M98.989 19.95L64.4264 19.95L73.8777 7.11224L88.0036 7.11224L82.5877 14.4728L88.8926 14.4728L94.3133 7.11224L108.437 7.11224L98.989 19.95Z" fill="#040503"/>
<path d="M118.552 19.9502L128.001 7.11254L113.04 7.11242C113.035 7.11235 103.582 19.9502 103.582 19.9502L118.552 19.9502Z" fill="#040503"/>
</g>
<defs>
<clipPath id="clip0_17_40">
<rect width="154.655" height="34" fill="white" transform="translate(0.604004 0.843567)"/>
</clipPath>
</defs>
</svg>
