<svg width="177" height="39" viewBox="0 0 177 39" fill="none" xmlns="http://www.w3.org/2000/svg">
<g clip-path="url(#clip0_17_253)">
<path d="M-0.000244141 23.6238V25.3829H24.8061L26.1029 23.6238H-0.000244141Z" fill="white"/>
<path d="M0.000373806 26.8921V28.6531H22.401L23.6953 26.8921H0.000373806Z" fill="white"/>
<path d="M0.000373806 31.9113V30.1621H21.2896L20.0008 31.9113H0.000373806Z" fill="white"/>
<path d="M150.5 30.1617L149.212 31.9136L175.215 31.9118L175.215 30.1618L150.5 30.1617Z" fill="white"/>
<path d="M152.906 26.8928L151.613 28.6533L175.215 28.6533L175.215 26.8931L152.906 26.8928Z" fill="white"/>
<path d="M154.016 25.3848L155.311 23.6235L175.215 23.6233L175.214 25.3839L154.016 25.3848Z" fill="white"/>
<path d="M25.2149 14.7408L30.8132 7.13551L63.0993 7.13551C71.298 7.13551 73.3928 13.6109 71.099 16.7231C69.4134 19.0108 67.4027 21.7478 67.4027 21.7478L54.9259 21.7478C52.5555 21.7478 53.2712 20.7731 53.6668 20.2396C54.0675 19.6985 54.6008 18.959 55.1284 18.2273L55.1287 18.2268C55.6274 17.5352 56.1211 16.8507 56.4929 16.3473C57.2464 15.3262 57.2668 14.7408 55.7246 14.7408L25.2149 14.7408Z" fill="white"/>
<path d="M22.95 31.9115L34.1941 16.6347L48.1469 16.6347C49.6891 16.6347 49.6694 17.2201 48.9152 18.2419C48.5907 18.6817 48.1696 19.2557 47.7327 19.8511L47.7312 19.8531C47.1383 20.6612 46.5165 21.5086 46.0676 22.1144C45.672 22.6497 44.9568 23.6238 47.3273 23.6238L66.0198 23.6238C64.4652 25.7532 59.4226 31.9115 50.3684 31.9115L22.95 31.9115Z" fill="white"/>
<path d="M87.3444 23.6227L81.2473 31.9116L65.163 31.9111C65.163 31.9111 71.2572 23.624 71.2629 23.6235L87.3444 23.6227Z" fill="white"/>
<path d="M104.503 31.9116L110.603 23.6236L94.5243 23.6235C94.519 23.6234 88.4239 31.9115 88.4239 31.9115L104.503 31.9116Z" fill="white"/>
<path d="M115.834 23.6237C115.834 23.6237 114.66 25.2308 114.088 26.0022C112.068 28.7318 113.854 31.9114 120.445 31.9114H146.267L152.367 23.6237L115.834 23.6237Z" fill="white"/>
<path d="M111.984 21.7476L72.6442 21.7476L83.402 7.13525L99.4805 7.13525L93.316 15.5132L100.492 15.5132L106.662 7.13525L122.738 7.13525L111.984 21.7476Z" fill="white"/>
<path d="M134.251 21.7478L145.006 7.1356L127.977 7.13545C127.972 7.13538 117.213 21.7478 117.213 21.7478L134.251 21.7478Z" fill="white"/>
</g>
<defs>
<clipPath id="clip0_17_253">
<rect width="176.033" height="38.6998" fill="white"/>
</clipPath>
</defs>
</svg>
