<svg width="24" height="24" viewBox="0 0 24 24" fill="none" xmlns="http://www.w3.org/2000/svg">
<path d="M19.9535 5.85865C19.9535 5.85865 17.7151 4.10637 15.0725 3.90625L14.8343 4.38312C17.2231 4.96835 18.3194 5.80495 19.4654 6.83484C17.4901 5.82643 15.5411 4.88245 12.1439 4.88245C8.74677 4.88245 6.79779 5.82643 4.82245 6.83484C5.96851 5.80495 7.27271 4.87464 9.45354 4.38312L9.21534 3.90625C6.44294 4.16738 4.33435 5.85865 4.33435 5.85865C4.33435 5.85865 1.8348 9.48327 1.40576 16.5968C3.92435 19.5025 7.75105 19.5254 7.75105 19.5254L8.55153 18.4594C7.19266 17.9869 5.66003 17.144 4.33435 15.6206C5.91482 16.8165 8.30016 18.0611 12.1439 18.0611C15.9877 18.0611 18.3731 16.8165 19.9535 15.6206C18.6283 17.144 17.0957 17.9869 15.7363 18.4594L16.5368 19.5254C16.5368 19.5254 20.3635 19.5025 22.8821 16.5968C22.4531 9.48327 19.9535 5.85865 19.9535 5.85865ZM8.97129 14.6444C8.02731 14.6444 7.26295 13.7707 7.26295 12.692C7.26295 11.6133 8.02731 10.7396 8.97129 10.7396C9.91528 10.7396 10.6796 11.6133 10.6796 12.692C10.6796 13.7707 9.91528 14.6444 8.97129 14.6444ZM15.3166 14.6444C14.3726 14.6444 13.6082 13.7707 13.6082 12.692C13.6082 11.6133 14.3726 10.7396 15.3166 10.7396C16.2606 10.7396 17.0249 11.6133 17.0249 12.692C17.0249 13.7707 16.2606 14.6444 15.3166 14.6444Z" fill="#040503"/>
</svg>
