<svg width="30" height="30" viewBox="0 0 30 30" fill="none" xmlns="http://www.w3.org/2000/svg">
<path d="M23.9734 7.44335C23.9734 7.44335 21.1783 5.25526 17.8785 5.00537L17.5811 5.60085C20.5639 6.33163 21.9329 7.3763 23.3639 8.66233C20.8973 7.40312 18.4636 6.22436 14.2215 6.22436C9.97947 6.22436 7.54576 7.40312 5.07914 8.66233C6.51023 7.3763 8.1388 6.21461 10.862 5.60085L10.5646 5.00537C7.10266 5.33145 4.46965 7.44335 4.46965 7.44335C4.46965 7.44335 1.34843 11.9694 0.812683 20.8522C3.95767 24.4805 8.7361 24.5092 8.7361 24.5092L9.73567 23.178C8.03884 22.588 6.12503 21.5354 4.46965 19.6332C6.44319 21.1265 9.42178 22.6807 14.2215 22.6807C19.0213 22.6807 21.9999 21.1265 23.9734 19.6332C22.3187 21.5354 20.4049 22.588 18.7074 23.178L19.707 24.5092C19.707 24.5092 24.4854 24.4805 27.6304 20.8522C27.0947 11.9694 23.9734 7.44335 23.9734 7.44335ZM10.2598 18.4142C9.08107 18.4142 8.12661 17.3232 8.12661 15.9763C8.12661 14.6293 9.08107 13.5383 10.2598 13.5383C11.4386 13.5383 12.3931 14.6293 12.3931 15.9763C12.3931 17.3232 11.4386 18.4142 10.2598 18.4142ZM18.1833 18.4142C17.0045 18.4142 16.05 17.3232 16.05 15.9763C16.05 14.6293 17.0045 13.5383 18.1833 13.5383C19.362 13.5383 20.3165 14.6293 20.3165 15.9763C20.3165 17.3232 19.362 18.4142 18.1833 18.4142Z" fill="white"/>
</svg>
