<svg width="54" height="53" viewBox="0 0 54 53" fill="none" xmlns="http://www.w3.org/2000/svg">
<rect x="0.541016" width="52.8974" height="52.8974" rx="26.4487" fill="#EDEFF0"/>
<g clip-path="url(#clip0_30_721)">
<path d="M27.0265 33.3193C26.9146 33.3573 26.8509 33.26 26.7748 33.2152C23.0453 31.0141 19.32 28.8115 15.5987 26.6074C15.5627 26.5892 15.5253 26.5738 15.4868 26.5615V26.5123L15.5528 26.4742C15.6466 26.4496 15.7388 26.4197 15.8292 26.3847L24.6177 22.386C25.4009 22.0291 26.184 21.6778 26.9672 21.3242H27.0232C27.0232 21.4361 27.0232 21.5357 27.0232 21.642C27.0262 25.5348 27.0273 29.4272 27.0265 33.3193Z" fill="#393939"/>
<path d="M27.032 21.327H26.9761C26.9761 21.2151 26.9873 21.1033 26.9873 20.9858C26.9873 16.6134 26.9873 12.2406 26.9873 7.86739C26.9744 7.75507 26.982 7.64135 27.0096 7.53174H27.0331C27.493 8.21087 27.8935 8.92693 28.3164 9.62844C31.667 15.1861 35.0157 20.743 38.3625 26.2992C38.395 26.354 38.4207 26.411 38.4498 26.4715C38.355 26.4512 38.2619 26.4239 38.1712 26.3898C37.5569 26.1123 36.9405 25.8304 36.3318 25.5473C35.3786 25.111 34.4249 24.6753 33.4709 24.2405L28.8747 22.1583C28.2627 21.8764 27.6474 21.6023 27.032 21.327Z" fill="#343434"/>
<path d="M27.0129 7.5262C26.9853 7.63581 26.9777 7.74953 26.9905 7.86185C26.9905 12.2343 26.9905 16.6071 26.9905 20.9802C26.9905 21.0921 26.9838 21.204 26.9793 21.3215C26.1962 21.675 25.413 22.0264 24.6298 22.3833L15.8413 26.382C15.7509 26.417 15.6587 26.4469 15.5649 26.4715C15.8189 25.9434 16.149 25.4646 16.4499 24.9588C19.937 19.1625 23.4267 13.3673 26.9189 7.57319C26.942 7.54109 26.967 7.51045 26.9939 7.48145L27.0129 7.5262Z" fill="#8C8C8C"/>
<path d="M27.032 21.3276C27.6473 21.6029 28.2627 21.877 28.8769 22.1545L33.4731 24.2366C34.4279 24.6707 35.3815 25.1063 36.334 25.5434C36.9471 25.8243 37.5647 26.1084 38.1734 26.3859C38.2641 26.42 38.3572 26.4473 38.452 26.4676C38.5638 26.6074 38.3983 26.613 38.3479 26.6432C37.3935 27.2139 36.4347 27.7766 35.4781 28.3428C32.7325 29.9673 29.9876 31.5915 27.2434 33.2153C27.1741 33.2556 27.0991 33.2858 27.0264 33.3205C27.0264 29.4292 27.0264 25.5375 27.0264 21.6454C27.0275 21.5391 27.0308 21.4339 27.032 21.3276Z" fill="#141414"/>
<path d="M26.9872 35.5301L34.1757 31.2931C35.5482 30.483 36.9199 29.6723 38.2908 28.8607L38.415 28.7925C38.4273 28.9044 38.3501 28.9637 38.3031 29.0286C35.1704 33.445 32.0376 37.8599 28.9049 42.2734C28.3119 43.1103 27.72 43.9516 27.1215 44.7818C27.0901 44.8255 27.042 45.0302 26.9458 44.8131C27.0219 44.7483 26.9883 44.661 26.9883 44.5894C26.9891 41.5685 26.9887 38.5488 26.9872 35.5301Z" fill="#3D3D3C"/>
<path d="M26.986 35.5306C26.986 38.5492 26.986 41.5671 26.986 44.5843C26.986 44.6615 27.0196 44.7487 26.9435 44.808C26.7835 44.7118 26.7141 44.5395 26.6079 44.3974C22.9754 39.2806 19.3447 34.163 15.7159 29.0447C15.6701 28.9798 15.6276 28.9104 15.5806 28.8388C15.6745 28.784 15.7249 28.859 15.7797 28.8914C19.4532 31.0605 23.126 33.2314 26.7981 35.4042C26.8663 35.4467 26.9245 35.4903 26.986 35.5306Z" fill="#8C8C8C"/>
<path d="M27.0142 7.52626L26.9873 7.48474C27.0367 7.45333 27.0299 7.49933 27.0378 7.52289L27.0142 7.52626Z" fill="#393939"/>
</g>
<defs>
<clipPath id="clip0_30_721">
<rect width="22.9989" height="37.4375" fill="white" transform="translate(15.4897 7.47461)"/>
</clipPath>
</defs>
</svg>
