<svg width="117" height="36" viewBox="0 0 117 36" fill="none" xmlns="http://www.w3.org/2000/svg">
<path d="M87.3287 19.9264V12.6601H76.4905V7.84025H87.3287V0.289001H68.5254V34.1661H87.3287V26.5942H76.4905V19.9264H87.3287Z" fill="#040503"/>
<path d="M102.165 17.8842L97.4252 12.6601H87.3287L96.8983 23.4139L87.3287 34.1661H97.118L101.771 28.9006L106.466 34.1661H116.604L106.95 23.3693L116.474 12.6601H106.729L102.165 17.8842Z" fill="#040503"/>
<path d="M58.5938 0.289001V14.1531H58.5062C56.749 12.1348 54.5555 11.4328 52.0103 11.4328C46.7958 11.4328 42.8673 14.9792 41.4889 19.6653C39.9146 14.5017 35.8589 11.3357 29.8452 11.3357C24.9618 11.3357 21.105 13.5276 19.093 17.0994V12.6601H8.99814V7.84025H20.0146V0.289001H0V34.1661H8.99814V19.9264H17.9676C17.7002 20.9722 17.557 22.0927 17.557 23.2754C17.557 30.3412 22.9562 35.3011 29.8452 35.3011C35.6392 35.3011 39.4578 32.5808 41.4761 27.6225H33.7641C32.7215 29.1139 31.9304 29.5549 29.8452 29.5549C27.4274 29.5549 25.3422 27.4458 25.3422 24.9452H41.0448C41.726 30.5577 46.0986 35.3982 52.0979 35.3982C54.686 35.3982 57.0562 34.1248 58.5046 31.9759H58.5922V34.1693H66.5239V0.289001H58.5938ZM25.5937 20.0267C26.0935 17.8746 27.7632 16.4691 29.8468 16.4691C32.1405 16.4691 33.7243 17.8316 34.1414 20.0267C34.3165 20.0267 25.5937 20.0267 25.5937 20.0267ZM53.7787 29.0089C50.8547 29.0089 49.0369 26.2838 49.0369 23.4394C49.0369 20.3991 50.6175 17.4751 53.7787 17.4751C57.0562 17.4751 58.3614 20.3991 58.3614 23.4394C58.3614 26.322 56.9782 29.0089 53.7787 29.0089Z" fill="#040503"/>
</svg>
