<svg width="204" height="35" viewBox="0 0 204 35" fill="none" xmlns="http://www.w3.org/2000/svg">
<path d="M24.8446 18.4224C24.4517 19.2745 23.9579 20.1015 23.3633 20.9032C20.1722 25.206 16.1946 29.7596 13 34.0599C11.472 31.9892 9.68137 29.7702 7.88693 27.5543C6.09212 25.3381 4.2931 23.1254 2.74782 21.0677C0.864103 18.5594 -0.144532 15.7536 0.0167789 12.6184C0.25119 8.05501 2.22593 4.58166 5.82713 2.20166C5.82538 2.22385 5.82468 2.24745 5.82468 2.2721C5.83065 6.6517 5.83136 11.0313 5.82327 15.4109C5.82292 15.6419 5.9027 15.7546 6.09423 15.8653C9.86236 18.0424 13.627 20.2266 17.3913 22.4107C17.4735 22.4583 17.5473 22.5209 17.625 22.5762H17.7318C18.2948 22.2395 18.854 21.8961 19.4215 21.5668C21.2287 20.5178 23.0361 19.4692 24.8446 18.4224Z" fill="#0393FB"/>
<path d="M16.8824 9.53978C16.875 13.0173 16.8771 16.4948 16.8771 19.972V20.2384C16.7629 20.1781 16.6852 20.1411 16.6111 20.0982C13.6231 18.3659 10.6355 16.6326 7.64618 14.9028C7.50489 14.8211 7.42652 14.7411 7.42688 14.5552C7.43391 11.06 7.43215 7.56447 7.43251 4.06932C7.43251 4.00874 7.43742 3.94781 7.44164 3.85376C7.53864 3.90201 7.61701 3.93547 7.68975 3.97775C10.6784 5.70894 13.666 7.4419 16.6561 9.17066C16.8072 9.25795 16.8831 9.34674 16.8824 9.53978Z" fill="#0393FB"/>
<path d="M23.0614 4.79206C21.351 5.78287 19.6412 6.77439 17.9332 7.76944C17.7466 7.87827 17.6152 7.87863 17.4282 7.76944C14.4666 6.04493 11.5004 4.32887 8.53539 2.61036C8.45175 2.56175 8.37016 2.50892 8.26196 2.4427C8.35123 2.38458 8.41872 2.33633 8.4904 2.29476C9.809 1.52972 11.1283 0.765038 12.4469 0H12.5759C13.5578 0 14.539 0.0806597 15.5051 0.255365C15.6538 0.282134 15.8017 0.311369 15.949 0.343774C18.7517 0.960168 21.2578 2.58746 23.0614 4.79206Z" fill="#0393FB"/>
<path d="M25.6537 16.0973C23.3208 17.4473 20.989 18.8002 18.6569 20.1521C18.6129 20.1774 18.5651 20.1968 18.4881 20.2345C18.4839 20.145 18.4804 20.1003 18.4804 20.0559C18.4801 16.5431 18.4804 13.03 18.4773 9.51726C18.4773 9.36827 18.5148 9.28058 18.6527 9.2013C20.4383 8.16999 22.2229 7.13657 24.0071 6.10278C24.9079 7.52614 25.5363 9.1228 25.8083 10.8029C26.1077 12.6517 26.0568 14.4178 25.6537 16.0973Z" fill="#0393FB"/>
<path d="M32.1287 12.1464C31.1415 17.9886 35.7784 19.0972 39.1887 19.5765C41.1032 19.8462 42.5989 20.1757 42.3896 21.3442C42.1503 22.6325 40.8939 23.052 38.8596 23.052C37.1843 23.052 36.1373 22.5127 35.7784 21.4641C35.4791 20.5953 35.0903 20.5053 34.133 20.805L31.1415 21.8236C30.2141 22.1531 29.885 22.5727 30.0346 23.4714C30.633 26.5274 33.804 28.1153 38.2613 28.1153C43.7956 28.1153 47.535 26.2278 48.3427 21.8236C49.3299 16.3409 45.052 14.7829 41.7016 14.3035C39.5476 14.0339 37.8724 13.7643 38.0818 12.4759C38.2613 11.4274 39.1587 10.918 41.193 10.918C42.569 10.918 43.5562 11.3374 43.9452 12.4759C44.2742 13.3449 44.5734 13.4646 45.4409 13.1051L48.4025 11.9366C49.3598 11.5471 49.5991 11.2476 49.3 10.3787C48.4025 7.59242 46.3384 5.94458 41.911 5.94458C36.1971 5.94458 32.8467 8.19163 32.1287 12.1464Z" fill="white"/>
<path d="M69.421 6.36401H66.0106C65.0832 6.36401 64.6944 6.69358 64.5149 7.65237L63.3482 14.2737H57.5746L58.7412 7.65237C58.9207 6.69358 58.6515 6.36401 57.6942 6.36401H54.3138C53.3565 6.36401 52.9975 6.69358 52.818 7.65237L49.4975 26.4075C49.3479 27.3363 49.5872 27.6659 50.5445 27.6659H53.9249C54.8822 27.6659 55.2711 27.3363 55.4207 26.4075L56.6472 19.5166H62.4209L61.2243 26.4075C61.0447 27.3363 61.314 27.6659 62.2713 27.6659H65.6517C66.609 27.6659 66.9679 27.3363 67.1474 26.4075L70.4381 7.65237C70.6176 6.69358 70.3484 6.36401 69.421 6.36401Z" fill="white"/>
<path d="M73.5308 7.59245L70.2102 26.4675C70.0607 27.3663 70.3 27.6659 71.1974 27.6659H74.7275C75.6248 27.6659 75.9839 27.3663 76.1334 26.4675L79.454 7.59245C79.6335 6.69359 79.3643 6.39404 78.4668 6.39404H74.9369C74.0394 6.39404 73.7104 6.69359 73.5308 7.59245Z" fill="white"/>
<path d="M92.2225 6.39404H83.9653C83.0081 6.39404 82.6491 6.72361 82.4696 7.65239L79.1789 26.4075C78.9994 27.3363 79.2687 27.6659 80.226 27.6659H83.6064C84.5637 27.6659 84.9226 27.3363 85.1021 26.4075L85.9996 21.2843H89.6494C94.3163 21.2843 97.6967 19.0673 98.534 14.3335C99.3413 9.56986 96.8883 6.39404 92.2225 6.39404ZM89.8584 16.0413H86.927L87.7048 11.6371H90.6368C92.0724 11.6371 92.7306 12.5359 92.4916 13.8541C92.2514 15.1724 91.2651 16.0413 89.8584 16.0413Z" fill="white"/>
<path d="M110.633 6.39404H103.364C102.406 6.39404 102.047 6.72361 101.867 7.65239L98.5769 26.4075C98.3979 27.3363 98.667 27.6659 99.6244 27.6659H106.983C112.907 27.6659 116.586 24.9096 117.514 19.7264L118.291 15.2323C119.218 10.0492 116.556 6.39404 110.633 6.39404ZM112.428 14.8729L111.68 19.1872C111.291 21.3144 110.065 22.4228 107.642 22.4228H105.189L107.102 11.6371H109.526C111.949 11.6371 112.817 12.7457 112.428 14.8729Z" fill="white"/>
<path d="M122.143 7.59245L118.823 26.4675C118.673 27.3663 118.912 27.6659 119.809 27.6659H123.339C124.237 27.6659 124.596 27.3663 124.745 26.4675L128.066 7.59245C128.245 6.69359 127.976 6.39404 127.079 6.39404H123.549C122.651 6.39404 122.322 6.69359 122.143 7.59245Z" fill="white"/>
<path d="M141.103 6.39404H132.578C131.62 6.39404 131.261 6.72361 131.081 7.65239L127.791 26.4075C127.612 27.3363 127.881 27.6659 128.838 27.6659H132.219C133.176 27.6659 133.534 27.3363 133.714 26.4075L134.732 20.5953H135.509C136.826 20.5953 137.035 21.1045 137.364 22.1233L138.56 26.2279C138.859 27.2764 139.488 27.6659 141.073 27.6659H144.305C145.291 27.6659 145.62 27.0068 145.351 26.1978L143.556 21.0746C143.377 20.5953 143.197 20.1758 142.988 19.7864C145.202 18.6478 146.758 16.7603 147.266 13.8541C148.103 9.21028 145.62 6.39404 141.103 6.39404ZM141.133 13.5845C140.924 14.8129 140.086 15.5918 138.829 15.5918H135.599L136.316 11.6371H139.518C140.804 11.6371 141.372 12.3861 141.133 13.5845Z" fill="white"/>
<path d="M164.889 6.39404H152.355C151.398 6.39404 151.039 6.72361 150.86 7.65239L147.569 26.4075C147.389 27.3363 147.658 27.6659 148.616 27.6659H161.39C162.347 27.6659 162.736 27.3363 162.886 26.4075L163.364 23.6812C163.544 22.7225 163.275 22.4228 162.347 22.4228H154.18L154.689 19.5466H161.001C161.958 19.5466 162.317 19.2171 162.496 18.2584L162.976 15.5619C163.125 14.6331 162.886 14.3036 161.928 14.3036H155.617L156.095 11.6371H163.992C164.919 11.6371 165.309 11.3075 165.489 10.3488L165.967 7.65239C166.116 6.72361 165.847 6.39404 164.889 6.39404Z" fill="white"/>
<path d="M166.686 13.914L165.699 19.4568C164.831 24.6099 167.584 28.1153 173.476 28.1153C178.084 28.1153 181.314 26.2876 183.139 22.9321C183.618 22.0633 183.468 21.6139 182.631 21.3143L179.519 20.1159C178.682 19.7863 178.293 19.996 177.755 20.9248C177.036 22.2131 175.989 22.8722 174.314 22.8722C171.95 22.8722 171.203 21.8536 171.562 19.7563L172.549 14.3035C172.908 12.2063 174.015 11.1877 176.378 11.1877C178.054 11.1877 178.831 11.7869 179.1 13.135C179.31 14.0638 179.638 14.2436 180.596 13.9441L183.677 12.8954C184.635 12.5958 184.874 12.1464 184.695 11.2775C184.066 7.92199 181.852 5.94458 177.246 5.94458C171.352 5.94458 167.584 8.76092 166.686 13.914Z" fill="white"/>
<path d="M202.747 6.39404H187.939C186.982 6.39404 186.623 6.72361 186.443 7.65239L185.965 10.3488C185.815 11.3075 186.055 11.6371 187.011 11.6371H191.469L188.866 26.4075C188.687 27.3363 188.956 27.6659 189.914 27.6659H193.294C194.251 27.6659 194.611 27.3363 194.79 26.4075L197.393 11.6371H201.819C202.777 11.6371 203.166 11.3075 203.316 10.3488L203.794 7.65239C203.973 6.72361 203.704 6.39404 202.747 6.39404Z" fill="white"/>
</svg>
