<svg width="75" height="75" viewBox="0 0 75 75" fill="none" xmlns="http://www.w3.org/2000/svg">
<path opacity="0.4" d="M68.7502 43.75V53.125C68.7502 58.3125 64.5627 62.5 59.3752 62.5H56.2502C56.2502 59.0625 53.4377 56.25 50.0002 56.25C46.5627 56.25 43.7502 59.0625 43.7502 62.5H31.2502C31.2502 59.0625 28.4377 56.25 25.0002 56.25C21.5627 56.25 18.7502 59.0625 18.7502 62.5H15.6252C10.4377 62.5 6.25024 58.3125 6.25024 53.125V43.75H40.6252C44.0627 43.75 46.8752 40.9375 46.8752 37.5V15.625H52.6253C54.8753 15.625 56.9378 16.8438 58.0628 18.7813L63.4064 28.125H59.3752C57.6565 28.125 56.2502 29.5312 56.2502 31.25V40.625C56.2502 42.3437 57.6565 43.75 59.3752 43.75H68.7502Z" fill="#2299F5"/>
<path d="M25.0002 68.7501C28.452 68.7501 31.2502 65.9519 31.2502 62.5001C31.2502 59.0483 28.452 56.2501 25.0002 56.2501C21.5485 56.2501 18.7502 59.0483 18.7502 62.5001C18.7502 65.9519 21.5485 68.7501 25.0002 68.7501Z" fill="#2299F5"/>
<path d="M50 68.7501C53.4518 68.7501 56.25 65.9519 56.25 62.5001C56.25 59.0483 53.4518 56.2501 50 56.2501C46.5482 56.2501 43.75 59.0483 43.75 62.5001C43.75 65.9519 46.5482 68.7501 50 68.7501Z" fill="#2299F5"/>
<path d="M68.7498 39.1562V43.7499H59.3748C57.656 43.7499 56.2498 42.3436 56.2498 40.6249V31.2499C56.2498 29.5311 57.656 28.1249 59.3748 28.1249H63.4059L67.9372 36.0623C68.4685 36.9998 68.7498 38.0625 68.7498 39.1562Z" fill="#2299F5"/>
<path d="M43.7502 6.25H18.7502C12.6565 6.25 7.59405 10.625 6.5003 16.4062H21.8752C23.1565 16.4062 24.219 17.4687 24.219 18.75C24.219 20.0312 23.1565 21.0937 21.8752 21.0937H6.25024V25.7812H15.6252C16.9065 25.7812 17.969 26.8437 17.969 28.125C17.969 29.4062 16.9065 30.4687 15.6252 30.4687H6.25024V35.1562H9.37524C10.6565 35.1562 11.719 36.2187 11.719 37.5C11.719 38.7812 10.6565 39.8437 9.37524 39.8437H6.25024V43.75H40.6252C44.0627 43.75 46.8752 40.9375 46.8752 37.5V9.375C46.8752 7.65625 45.469 6.25 43.7502 6.25Z" fill="#2299F5"/>
<path d="M6.50005 16.4062H3.125C1.84375 16.4062 0.78125 17.4687 0.78125 18.75C0.78125 20.0312 1.84375 21.0937 3.125 21.0937H6.25V18.75C6.25 17.9375 6.3438 17.1562 6.50005 16.4062Z" fill="#2299F5"/>
<path d="M3.125 25.7812C1.84375 25.7812 0.78125 26.8437 0.78125 28.125C0.78125 29.4062 1.84375 30.4687 3.125 30.4687H6.25V25.7812H3.125Z" fill="#2299F5"/>
<path d="M3.125 35.1564C1.84375 35.1564 0.78125 36.2189 0.78125 37.5001C0.78125 38.7814 1.84375 39.8439 3.125 39.8439H6.25V35.1564H3.125Z" fill="#2299F5"/>
</svg>
