<svg width="25" height="24" viewBox="0 0 25 24" fill="none" xmlns="http://www.w3.org/2000/svg">
<path d="M12.4302 8.54241C10.678 8.54241 9.25751 9.96287 9.25751 11.7151C9.25751 13.4673 10.678 14.8878 12.4302 14.8878C14.1824 14.8878 15.6029 13.4673 15.6029 11.7151C15.6029 9.96287 14.1824 8.54241 12.4302 8.54241Z" fill="#040503"/>
<path fill-rule="evenodd" clip-rule="evenodd" d="M7.32416 3.00872C10.6903 2.63251 14.1702 2.63251 17.5363 3.00872C19.3895 3.21585 20.8843 4.67604 21.1018 6.53578C21.5043 9.97693 21.5043 13.4533 21.1018 16.8944C20.8843 18.7542 19.3895 20.2143 17.5363 20.4215C14.1702 20.7977 10.6903 20.7977 7.32416 20.4215C5.47093 20.2143 3.97616 18.7542 3.75864 16.8944C3.35617 13.4533 3.35617 9.97693 3.75864 6.53578C3.97616 4.67604 5.47092 3.21585 7.32416 3.00872ZM17.3113 5.85783C16.7721 5.85783 16.3351 6.29489 16.3351 6.83404C16.3351 7.37319 16.7721 7.81025 17.3113 7.81025C17.8504 7.81025 18.2875 7.37319 18.2875 6.83404C18.2875 6.29489 17.8504 5.85783 17.3113 5.85783ZM7.7932 11.7151C7.7932 9.15415 9.86926 7.07809 12.4302 7.07809C14.9912 7.07809 17.0672 9.15415 17.0672 11.7151C17.0672 14.276 14.9912 16.3521 12.4302 16.3521C9.86926 16.3521 7.7932 14.276 7.7932 11.7151Z" fill="#040503"/>
</svg>
