<svg width="65" height="65" viewBox="0 0 65 65" fill="none" xmlns="http://www.w3.org/2000/svg">
<rect width="65" height="65" rx="10" fill="#30D158"/>
<path opacity="0.4" d="M37.25 20.2497V32.9997C37.25 34.558 35.975 35.833 34.4166 35.833H18.8333V26.7947C19.8675 28.0272 21.4542 28.7922 23.2109 28.7497C24.6417 28.7213 25.9308 28.1688 26.8941 27.248C27.3333 26.8797 27.7017 26.4122 27.985 25.9022C28.495 25.038 28.7783 24.018 28.75 22.9555C28.7075 21.298 27.9708 19.8388 26.8233 18.833H35.8333C36.6125 18.833 37.25 19.4705 37.25 20.2497Z" fill="white"/>
<path d="M47.1666 35.833V40.083C47.1666 42.4347 45.2683 44.333 42.9166 44.333H41.5C41.5 42.7747 40.225 41.4997 38.6666 41.4997C37.1083 41.4997 35.8333 42.7747 35.8333 44.333H30.1666C30.1666 42.7747 28.8916 41.4997 27.3333 41.4997C25.775 41.4997 24.5 42.7747 24.5 44.333H23.0833C20.7316 44.333 18.8333 42.4347 18.8333 40.083V35.833H34.4166C35.975 35.833 37.25 34.558 37.25 32.9997V23.083H39.8567C40.8767 23.083 41.8117 23.6355 42.3217 24.5139L44.7441 28.7497H42.9166C42.1375 28.7497 41.5 29.3872 41.5 30.1663V34.4163C41.5 35.1955 42.1375 35.833 42.9166 35.833H47.1666Z" fill="white"/>
<path opacity="0.4" d="M27.3333 47.1667C28.8981 47.1667 30.1667 45.8981 30.1667 44.3333C30.1667 42.7685 28.8981 41.5 27.3333 41.5C25.7685 41.5 24.5 42.7685 24.5 44.3333C24.5 45.8981 25.7685 47.1667 27.3333 47.1667Z" fill="white"/>
<path opacity="0.4" d="M38.6666 47.1667C40.2315 47.1667 41.5 45.8981 41.5 44.3333C41.5 42.7685 40.2315 41.5 38.6666 41.5C37.1018 41.5 35.8333 42.7685 35.8333 44.3333C35.8333 45.8981 37.1018 47.1667 38.6666 47.1667Z" fill="white"/>
<path opacity="0.4" d="M47.1667 33.7509V35.8333H42.9167C42.1375 35.8333 41.5 35.1958 41.5 34.4167V30.1667C41.5 29.3875 42.1375 28.75 42.9167 28.75H44.7441L46.7983 32.3483C47.0392 32.7733 47.1667 33.255 47.1667 33.7509Z" fill="white"/>
<path d="M26.8234 18.8337C25.8034 17.9271 24.4433 17.3887 22.9558 17.4171C21.6241 17.4454 20.4058 17.9412 19.4425 18.7346C18.1675 19.7971 17.3742 21.4263 17.4167 23.2113C17.445 24.2738 17.7567 25.2654 18.3092 26.1013C18.465 26.3421 18.635 26.5829 18.8333 26.7954C19.8675 28.0279 21.4542 28.7929 23.2109 28.7504C24.6417 28.7221 25.9308 28.1696 26.8942 27.2488C27.3333 26.8804 27.7017 26.4129 27.985 25.9029C28.495 25.0387 28.7783 24.0187 28.75 22.9562C28.7075 21.2987 27.9709 19.8396 26.8234 18.8337ZM26.0017 22.4038L23.0408 25.2654C22.8283 25.4637 22.5733 25.5629 22.3042 25.5629C22.035 25.5629 21.78 25.4637 21.5675 25.2654L20.1366 23.9054C19.7116 23.4946 19.6975 22.8288 20.1084 22.4038C20.5192 21.9788 21.185 21.9646 21.61 22.3754L22.3042 23.0412L24.5284 20.8879C24.9534 20.4771 25.6192 20.4912 26.03 20.9162C26.4409 21.327 26.4267 21.9929 26.0017 22.4038Z" fill="white"/>
</svg>
