<svg width="24" height="24" viewBox="0 0 24 24" fill="none" xmlns="http://www.w3.org/2000/svg">
<path d="M4.92357 1.83008C3.77788 1.83008 2.84912 2.75884 2.84912 3.90453C2.84912 5.05022 3.77788 5.97898 4.92357 5.97898C6.06926 5.97898 6.99802 5.05022 6.99802 3.90453C6.99802 2.75884 6.06926 1.83008 4.92357 1.83008Z" fill="#040503"/>
<path d="M2.97115 7.68735C2.90375 7.68735 2.84912 7.74198 2.84912 7.80938V20.5001C2.84912 20.5675 2.90375 20.6222 2.97115 20.6222H6.876C6.94339 20.6222 6.99802 20.5675 6.99802 20.5001V7.80938C6.99802 7.74198 6.94339 7.68735 6.876 7.68735H2.97115Z" fill="#040503"/>
<path d="M9.31653 7.68735C9.24913 7.68735 9.1945 7.74198 9.1945 7.80938V20.5001C9.1945 20.5675 9.24913 20.6222 9.31653 20.6222H13.2214C13.2888 20.6222 13.3434 20.5675 13.3434 20.5001V13.6666C13.3434 13.1812 13.5362 12.7156 13.8795 12.3724C14.2228 12.0291 14.6883 11.8363 15.1738 11.8363C15.6593 11.8363 16.1248 12.0291 16.4681 12.3724C16.8114 12.7156 17.0042 13.1812 17.0042 13.6666V20.5001C17.0042 20.5675 17.0588 20.6222 17.1262 20.6222H21.0311C21.0985 20.6222 21.1531 20.5675 21.1531 20.5001V12.0854C21.1531 9.71641 19.0927 7.86306 16.7356 8.07735C16.0086 8.14343 15.2899 8.32414 14.6188 8.61177L13.3434 9.15837V7.80938C13.3434 7.74198 13.2888 7.68735 13.2214 7.68735H9.31653Z" fill="#040503"/>
</svg>
