<svg width="200" height="44" viewBox="0 0 200 44" fill="none" xmlns="http://www.w3.org/2000/svg">
<path d="M52.8244 17.8998C51.9783 22.907 55.9525 23.8572 58.8754 24.268C60.5164 24.4991 61.7983 24.7816 61.6188 25.783C61.4137 26.8872 60.3369 27.2467 58.5934 27.2467C57.1575 27.2467 56.2602 26.7845 55.9525 25.8858C55.6961 25.1411 55.3628 25.064 54.5423 25.3208L51.9783 26.1939C51.1835 26.4763 50.9015 26.8359 51.0297 27.6062C51.5425 30.2254 54.2603 31.5864 58.0806 31.5864C62.824 31.5864 66.0289 29.9687 66.7212 26.1939C67.5673 21.4948 63.9008 20.1595 61.0292 19.7486C59.183 19.5175 57.7473 19.2864 57.9267 18.1822C58.0806 17.2835 58.8498 16.847 60.5933 16.847C61.7727 16.847 62.6188 17.2064 62.9521 18.1822C63.2342 18.9269 63.4905 19.0296 64.2341 18.7215L66.7724 17.72C67.5929 17.3862 67.798 17.1294 67.5416 16.3848C66.7724 13.9967 65.0033 12.5843 61.2086 12.5843C56.3114 12.5843 53.4398 14.5102 52.8244 17.8998Z" fill="#282828"/>
<path d="M84.787 12.9438H81.864C81.0692 12.9438 80.7359 13.2263 80.5821 14.048L79.5822 19.723H74.6337L75.6336 14.048C75.7874 13.2263 75.5567 12.9438 74.7362 12.9438H71.839C71.0185 12.9438 70.7108 13.2263 70.5569 14.048L67.711 30.1227C67.5828 30.9187 67.7879 31.2012 68.6083 31.2012H71.5056C72.3261 31.2012 72.6595 30.9187 72.7876 30.1227L73.8388 24.2166H78.7873L77.7618 30.1227C77.6078 30.9187 77.8387 31.2012 78.6592 31.2012H81.5564C82.3769 31.2012 82.6845 30.9187 82.8383 30.1227L85.6588 14.048C85.8126 13.2263 85.5819 12.9438 84.787 12.9438Z" fill="#282828"/>
<path d="M88.3097 13.9966L85.4637 30.174C85.3355 30.9444 85.5406 31.2012 86.3098 31.2012H89.3353C90.1045 31.2012 90.4122 30.9444 90.5404 30.174L93.3864 13.9966C93.5402 13.2263 93.3094 12.9695 92.5402 12.9695H89.5148C88.7456 12.9695 88.4636 13.2263 88.3097 13.9966Z" fill="#282828"/>
<path d="M104.329 12.9695H97.2525C96.432 12.9695 96.1243 13.252 95.9705 14.048L93.1501 30.1227C92.9963 30.9187 93.2271 31.2012 94.0476 31.2012H96.9448C97.7653 31.2012 98.0729 30.9187 98.2268 30.1227L98.996 25.7317H102.124C106.124 25.7317 109.021 23.8315 109.739 19.7742C110.431 15.6914 108.328 12.9695 104.329 12.9695ZM102.303 21.2379H99.7908L100.457 17.4632H102.97C104.201 17.4632 104.765 18.2335 104.56 19.3634C104.354 20.4933 103.509 21.2379 102.303 21.2379Z" fill="#282828"/>
<path d="M120.109 12.9695H113.879C113.058 12.9695 112.75 13.252 112.596 14.048L109.776 30.1227C109.622 30.9187 109.853 31.2012 110.674 31.2012H116.981C122.058 31.2012 125.211 28.8388 126.006 24.3964L126.672 20.5446C127.467 16.1023 125.186 12.9695 120.109 12.9695ZM121.647 20.2365L121.007 23.9342C120.673 25.7574 119.622 26.7074 117.545 26.7074H115.443L117.083 17.4632H119.161C121.237 17.4632 121.981 18.4134 121.647 20.2365Z" fill="#282828"/>
<path d="M129.974 13.9966L127.128 30.174C127 30.9444 127.205 31.2012 127.974 31.2012H131C131.769 31.2012 132.077 30.9444 132.204 30.174L135.051 13.9966C135.205 13.2263 134.974 12.9695 134.205 12.9695H131.179C130.41 12.9695 130.128 13.2263 129.974 13.9966Z" fill="#282828"/>
<path d="M146.225 12.9695H138.918C138.097 12.9695 137.789 13.252 137.635 14.048L134.815 30.1227C134.662 30.9187 134.892 31.2012 135.713 31.2012H138.61C139.431 31.2012 139.737 30.9187 139.892 30.1227L140.764 25.1411H141.43C142.558 25.1411 142.738 25.5776 143.02 26.4507L144.045 29.9687C144.302 30.8673 144.84 31.2012 146.199 31.2012H148.969C149.814 31.2012 150.096 30.6362 149.865 29.9429L148.327 25.5519C148.174 25.1411 148.019 24.7815 147.84 24.4478C149.738 23.4719 151.071 21.8542 151.507 19.3634C152.224 15.3832 150.096 12.9695 146.225 12.9695ZM146.251 19.1323C146.071 20.1852 145.353 20.8527 144.276 20.8527H141.507L142.122 17.4632H144.866C145.968 17.4632 146.455 18.1052 146.251 19.1323Z" fill="#282828"/>
<path d="M166.611 12.9695H155.868C155.048 12.9695 154.74 13.252 154.587 14.048L151.767 30.1227C151.612 30.9187 151.843 31.2012 152.663 31.2012H163.612C164.433 31.2012 164.765 30.9187 164.894 30.1227L165.304 27.7859C165.458 26.9643 165.227 26.7074 164.433 26.7074H157.432L157.869 24.2423H163.278C164.099 24.2423 164.407 23.9599 164.56 23.1382L164.971 20.8271C165.099 20.0311 164.894 19.7486 164.073 19.7486H158.664L159.074 17.4632H165.842C166.637 17.4632 166.971 17.1808 167.125 16.359L167.535 14.048C167.662 13.252 167.432 12.9695 166.611 12.9695Z" fill="#282828"/>
<path d="M168.151 19.4148L167.305 24.1653C166.561 28.582 168.92 31.5864 173.97 31.5864C177.92 31.5864 180.688 30.02 182.252 27.144C182.663 26.3993 182.534 26.0141 181.817 25.7574L179.15 24.7303C178.432 24.4478 178.099 24.6275 177.638 25.4236C177.022 26.5277 176.124 27.0926 174.689 27.0926C172.663 27.0926 172.022 26.2196 172.33 24.4221L173.176 19.7486C173.483 17.9511 174.433 17.0781 176.458 17.0781C177.894 17.0781 178.56 17.5916 178.791 18.7471C178.971 19.5432 179.252 19.6973 180.073 19.4405L182.714 18.5417C183.534 18.2849 183.739 17.8998 183.586 17.1551C183.047 14.2791 181.15 12.5843 177.201 12.5843C172.15 12.5843 168.92 14.9981 168.151 19.4148Z" fill="#282828"/>
<path d="M199.058 12.9695H186.366C185.547 12.9695 185.239 13.252 185.084 14.048L184.674 16.359C184.546 17.1808 184.752 17.4632 185.571 17.4632H189.392L187.161 30.1227C187.008 30.9187 187.238 31.2012 188.059 31.2012H190.956C191.777 31.2012 192.084 30.9187 192.238 30.1227L194.469 17.4632H198.263C199.084 17.4632 199.417 17.1808 199.546 16.359L199.956 14.048C200.109 13.252 199.878 12.9695 199.058 12.9695Z" fill="#282828"/>
<g filter="url(#filter0_i_21_1069)">
<rect width="44" height="44" rx="6.47059" fill="#0393FB"/>
</g>
<rect x="0.970588" y="0.970588" width="42.0588" height="42.0588" rx="5.5" stroke="#0393FB" stroke-width="1.94118"/>
<path d="M30.2539 22.9897C29.9802 23.5835 29.6361 24.1598 29.2217 24.7184C26.998 27.7167 24.2263 30.8898 22.0002 33.8865C20.9355 32.4435 19.6877 30.8972 18.4373 29.3531C17.1866 27.8088 15.933 26.2669 14.8562 24.8331C13.5435 23.0852 12.8407 21.13 12.9531 18.9453C13.1164 15.7654 14.4925 13.345 17.0019 11.6866C17.0007 11.702 17.0002 11.7185 17.0002 11.7357C17.0044 14.7875 17.0049 17.8394 16.9992 20.8912C16.999 21.0522 17.0546 21.1307 17.1881 21.2079C19.8138 22.7249 22.4372 24.2469 25.0602 25.7689C25.1175 25.8021 25.169 25.8457 25.2231 25.8843H25.2975C25.6898 25.6496 26.0795 25.4103 26.4749 25.1808C27.7342 24.4499 28.9937 23.7192 30.2539 22.9897Z" fill="white"/>
<path d="M24.7051 16.7999C24.7 19.2232 24.7015 21.6465 24.7015 24.0695V24.2551C24.6219 24.2131 24.5677 24.1873 24.5161 24.1574C22.434 22.9503 20.3521 21.7424 18.269 20.5371C18.1706 20.4801 18.116 20.4244 18.1162 20.2948C18.1211 17.8593 18.1199 15.4235 18.1201 12.9879C18.1201 12.9457 18.1236 12.9033 18.1265 12.8377C18.1941 12.8714 18.2487 12.8947 18.2994 12.9241C20.382 14.1305 22.4638 15.3381 24.5474 16.5427C24.6527 16.6036 24.7056 16.6654 24.7051 16.7999Z" fill="white"/>
<path d="M29.011 13.4916C27.8191 14.182 26.6277 14.873 25.4375 15.5663C25.3074 15.6422 25.2159 15.6424 25.0856 15.5663C23.0218 14.3646 20.9549 13.1688 18.8888 11.9713C18.8305 11.9375 18.7736 11.9006 18.6982 11.8545C18.7604 11.814 18.8075 11.7804 18.8574 11.7514C19.7763 11.2183 20.6956 10.6854 21.6145 10.1523H21.7043C22.3886 10.1523 23.0723 10.2086 23.7455 10.3303C23.8491 10.3489 23.9522 10.3693 24.0548 10.3919C26.0079 10.8214 27.7542 11.9554 29.011 13.4916Z" fill="white"/>
<path d="M30.8171 21.3694C29.1915 22.3101 27.5667 23.2529 25.9415 24.1949C25.9109 24.2125 25.8776 24.2261 25.824 24.2523C25.821 24.19 25.8186 24.1588 25.8186 24.1279C25.8183 21.6801 25.8186 19.232 25.8164 16.7842C25.8164 16.6804 25.8426 16.6193 25.9386 16.564C27.1829 15.8454 28.4264 15.1253 29.6698 14.4049C30.2975 15.3967 30.7353 16.5093 30.9249 17.6801C31.1335 18.9684 31.098 20.199 30.8171 21.3694Z" fill="white"/>
<defs>
<filter id="filter0_i_21_1069" x="0" y="0" width="44" height="44" filterUnits="userSpaceOnUse" color-interpolation-filters="sRGB">
<feFlood flood-opacity="0" result="BackgroundImageFix"/>
<feBlend mode="normal" in="SourceGraphic" in2="BackgroundImageFix" result="shape"/>
<feColorMatrix in="SourceAlpha" type="matrix" values="0 0 0 0 0 0 0 0 0 0 0 0 0 0 0 0 0 0 127 0" result="hardAlpha"/>
<feOffset/>
<feGaussianBlur stdDeviation="16.1765"/>
<feComposite in2="hardAlpha" operator="arithmetic" k2="-1" k3="1"/>
<feColorMatrix type="matrix" values="0 0 0 0 0 0 0 0 0 0 0 0 0 0 0 0 0 0 0.1 0"/>
<feBlend mode="normal" in2="shape" result="effect1_innerShadow_21_1069"/>
</filter>
</defs>
</svg>
