<svg width="75" height="75" viewBox="0 0 75 75" fill="none" xmlns="http://www.w3.org/2000/svg">
<path d="M52.344 11.1251V6.25012C52.344 4.96887 51.2815 3.90637 50.0002 3.90637C48.719 3.90637 47.6565 4.96887 47.6565 6.25012V10.9376H27.344V6.25012C27.344 4.96887 26.2815 3.90637 25.0002 3.90637C23.719 3.90637 22.6565 4.96887 22.6565 6.25012V11.1251C14.219 11.9064 10.1252 16.9376 9.50023 24.4064C9.43773 25.3126 10.1877 26.0626 11.0627 26.0626H63.9377C64.844 26.0626 65.594 25.2814 65.5002 24.4064C64.8752 16.9376 60.7815 11.9064 52.344 11.1251Z" fill="#2299F5"/>
<path opacity="0.4" d="M62.4995 30.75C64.2183 30.75 65.6245 32.1563 65.6245 33.875V53.125C65.6245 62.5 60.937 68.75 49.9995 68.75H24.9995C14.062 68.75 9.37451 62.5 9.37451 53.125V33.875C9.37451 32.1563 10.7808 30.75 12.4995 30.75H62.4995Z" fill="#2299F5"/>
<path d="M26.5625 46.875C25.75 46.875 24.9375 46.5312 24.3438 45.9687C23.7813 45.3749 23.4375 44.5625 23.4375 43.75C23.4375 42.9375 23.7813 42.125 24.3438 41.5312C25.2188 40.6562 26.5938 40.3749 27.75 40.8749C28.1563 41.0312 28.5 41.25 28.7812 41.5312C29.3437 42.125 29.6875 42.9375 29.6875 43.75C29.6875 44.5625 29.3437 45.3749 28.7812 45.9687C28.1875 46.5312 27.375 46.875 26.5625 46.875Z" fill="#2299F5"/>
<path d="M37.5005 46.875C36.688 46.875 35.8755 46.5312 35.2817 45.9687C34.7192 45.3749 34.3755 44.5625 34.3755 43.75C34.3755 42.9375 34.7192 42.125 35.2817 41.5312C35.563 41.25 35.9067 41.0312 36.313 40.8749C37.4692 40.3749 38.8442 40.6562 39.7192 41.5312C40.2817 42.125 40.6255 42.9375 40.6255 43.75C40.6255 44.5625 40.2817 45.3749 39.7192 45.9687C39.563 46.0937 39.4067 46.2187 39.2505 46.3437C39.063 46.4687 38.8755 46.5625 38.688 46.625C38.5005 46.7188 38.313 46.7813 38.1255 46.8125C37.9067 46.8438 37.7192 46.875 37.5005 46.875Z" fill="#2299F5"/>
<path d="M48.4375 46.8752C47.625 46.8752 46.8125 46.5314 46.2188 45.9689C45.6563 45.3751 45.3125 44.5627 45.3125 43.7502C45.3125 42.9377 45.6563 42.1252 46.2188 41.5314C46.5313 41.2502 46.8437 41.0314 47.25 40.8751C47.8125 40.6251 48.4375 40.5626 49.0625 40.6876C49.25 40.7189 49.4375 40.7814 49.625 40.8751C49.8125 40.9376 50 41.0315 50.1875 41.1565C50.3438 41.2815 50.5 41.4064 50.6562 41.5314C51.2188 42.1252 51.5625 42.9377 51.5625 43.7502C51.5625 44.5627 51.2188 45.3751 50.6562 45.9689C50.5 46.0939 50.3438 46.2189 50.1875 46.3439C50 46.4689 49.8125 46.5627 49.625 46.6252C49.4375 46.719 49.25 46.7814 49.0625 46.8127C48.8438 46.8439 48.625 46.8752 48.4375 46.8752Z" fill="#2299F5"/>
<path d="M26.5625 57.8125C26.1563 57.8125 25.75 57.7188 25.375 57.5626C24.9687 57.4063 24.6563 57.1875 24.3438 56.9063C23.7813 56.3125 23.4375 55.5 23.4375 54.6875C23.4375 53.875 23.7813 53.0626 24.3438 52.4688C24.6563 52.1876 24.9687 51.9687 25.375 51.8125C25.9375 51.5625 26.5625 51.5 27.1875 51.625C27.375 51.6563 27.5625 51.7187 27.75 51.8125C27.9375 51.875 28.125 51.9688 28.3125 52.0938C28.4688 52.2188 28.625 52.3438 28.7812 52.4688C29.3437 53.0626 29.6875 53.875 29.6875 54.6875C29.6875 55.5 29.3437 56.3125 28.7812 56.9063C28.625 57.0313 28.4688 57.1875 28.3125 57.2812C28.125 57.4062 27.9375 57.5001 27.75 57.5626C27.5625 57.6563 27.375 57.7188 27.1875 57.7501C26.9688 57.7813 26.7813 57.8125 26.5625 57.8125Z" fill="#2299F5"/>
<path d="M37.5005 57.8126C36.688 57.8126 35.8755 57.4688 35.2817 56.9063C34.7192 56.3126 34.3755 55.5001 34.3755 54.6876C34.3755 53.8751 34.7192 53.0626 35.2817 52.4689C36.438 51.3126 38.563 51.3126 39.7192 52.4689C40.2817 53.0626 40.6255 53.8751 40.6255 54.6876C40.6255 55.5001 40.2817 56.3126 39.7192 56.9063C39.1255 57.4688 38.313 57.8126 37.5005 57.8126Z" fill="#2299F5"/>
<path d="M48.4375 57.8126C47.625 57.8126 46.8125 57.4688 46.2188 56.9063C45.6563 56.3126 45.3125 55.5001 45.3125 54.6876C45.3125 53.8751 45.6563 53.0626 46.2188 52.4689C47.375 51.3126 49.5 51.3126 50.6562 52.4689C51.2188 53.0626 51.5625 53.8751 51.5625 54.6876C51.5625 55.5001 51.2188 56.3126 50.6562 56.9063C50.0625 57.4688 49.25 57.8126 48.4375 57.8126Z" fill="#2299F5"/>
</svg>
