<svg width="172" height="49" viewBox="0 0 172 49" fill="none" xmlns="http://www.w3.org/2000/svg">
<rect width="172" height="49" rx="4" fill="#0393FB"/>
<rect x="19" y="14.4136" width="20.1726" height="20.1726" rx="10.0863" fill="#26A07B"/>
<path d="M29.0792 19.0492C30.5697 19.0492 32.0603 19.0492 33.5554 19.0492C33.6884 19.0492 33.7251 19.0813 33.7251 19.2166C33.7251 19.8701 33.7251 20.5214 33.7251 21.1726C33.7251 21.2988 33.6884 21.3263 33.5691 21.324C32.5349 21.324 31.5053 21.324 30.4642 21.324C30.3289 21.324 30.3014 21.3607 30.3037 21.4868C30.3129 21.8797 30.3129 22.2718 30.3037 22.6632C30.3037 22.787 30.3289 22.826 30.4619 22.8329C31.5509 22.8688 32.6334 23.0148 33.693 23.2686C34.0412 23.3494 34.3784 23.4718 34.6974 23.6332C34.8258 23.6966 34.9422 23.782 35.0413 23.8854C35.0791 23.9192 35.1093 23.9605 35.1299 24.0068C35.1506 24.053 35.1613 24.1031 35.1613 24.1537C35.1613 24.2044 35.1506 24.2544 35.1299 24.3007C35.1093 24.3469 35.0791 24.3882 35.0413 24.422C34.8473 24.6108 34.6117 24.7514 34.3534 24.8325C33.7246 25.0558 33.0733 25.2096 32.4111 25.2911C31.7564 25.3913 31.0964 25.4525 30.4344 25.4746C30.3106 25.4746 30.3106 25.5388 30.3106 25.6305C30.3106 27.1164 30.3106 28.6116 30.3106 30.0883C30.3106 30.2397 30.2716 30.2718 30.1249 30.2718C29.4094 30.2718 28.6916 30.2718 27.9762 30.2718C27.8547 30.2718 27.8317 30.2374 27.8317 30.125C27.8317 28.6528 27.8317 27.1829 27.8317 25.7108C27.8317 25.4814 27.8317 25.4814 27.6024 25.4814C26.5315 25.4342 25.4677 25.2821 24.4264 25.0274C24.0331 24.9422 23.656 24.7943 23.3097 24.5894C22.851 24.3028 22.851 23.984 23.3097 23.702C23.772 23.4411 24.2765 23.2633 24.8002 23.1768C25.7554 22.9771 26.7258 22.8582 27.701 22.8214C27.8134 22.8214 27.8386 22.7847 27.8363 22.6792C27.8363 22.2802 27.8363 21.8835 27.8363 21.4868C27.8363 21.3584 27.8111 21.3148 27.6712 21.3171C26.6393 21.3171 25.6074 21.3171 24.5778 21.3171C24.4379 21.3171 24.4127 21.2735 24.4127 21.1451C24.4127 20.4985 24.4127 19.8518 24.4127 19.2028C24.4127 19.0607 24.4585 19.04 24.5847 19.04C26.0844 19.0515 27.5818 19.0492 29.0792 19.0492ZM29.1594 25.0939C29.9419 25.1022 30.7242 25.0685 31.503 24.993C32.1997 24.9362 32.8902 24.8196 33.5668 24.6445C33.8394 24.5822 34.1002 24.4769 34.3396 24.3326C34.6446 24.1331 34.64 23.9221 34.3396 23.7226C34.1909 23.6235 34.0287 23.5463 33.8581 23.4933C32.727 23.1819 31.5615 23.0132 30.3886 22.9911C30.2808 22.9911 30.2991 23.0507 30.2991 23.1126C30.2991 23.5713 30.2991 24.0436 30.2991 24.5092C30.2991 24.6146 30.2739 24.6582 30.1638 24.6628C29.4232 24.6903 28.6825 24.6949 27.9418 24.6628C27.8455 24.6628 27.8226 24.6238 27.8226 24.5321C27.8226 24.0597 27.8226 23.5896 27.8226 23.1195C27.8226 23.014 27.7927 22.9911 27.6896 22.9934C27.1805 23.0163 26.6714 23.0599 26.1646 23.1195C25.5206 23.1838 24.8845 23.3121 24.2659 23.5025C24.083 23.5535 23.9084 23.6307 23.7477 23.7318C23.4702 23.9221 23.4725 24.1285 23.7477 24.3188C23.8549 24.3891 23.9695 24.4475 24.0893 24.4931C24.4942 24.6421 24.9128 24.7504 25.3391 24.8164C26.6018 25.0216 27.8803 25.1145 29.1594 25.0939Z" fill="white"/>
<rect x="34.1726" y="14.4136" width="20.1726" height="20.1726" rx="10.0863" fill="#2775CA"/>
<path d="M46.7157 25.6221C46.7157 24.3289 45.9411 23.8854 44.392 23.701C43.2855 23.553 43.0642 23.2575 43.0642 22.7402C43.0642 22.223 43.433 21.8901 44.1707 21.8901C44.8346 21.8901 45.2053 22.1119 45.3879 22.666C45.4068 22.7196 45.4417 22.766 45.4879 22.7991C45.534 22.8322 45.5893 22.8503 45.6461 22.8509H46.2439C46.2781 22.8518 46.3121 22.8457 46.3439 22.833C46.3757 22.8203 46.4046 22.8013 46.4288 22.7771C46.453 22.7529 46.4721 22.7241 46.4848 22.6923C46.4976 22.6605 46.5037 22.6265 46.5029 22.5923V22.5554C46.4309 22.155 46.2287 21.7896 45.9278 21.5159C45.6269 21.2421 45.2441 21.0753 44.8387 21.0413V20.1593C44.8387 20.0113 44.728 19.9007 44.5436 19.8638H43.9881C43.8401 19.8638 43.7295 19.9744 43.6926 20.1593V21.0081C42.5861 21.1556 41.8853 21.8937 41.8853 22.8163C41.8853 24.0339 42.623 24.5138 44.1725 24.6982C45.2071 24.8826 45.5372 25.103 45.5372 25.6945C45.5372 26.286 45.0204 26.6913 44.3201 26.6913C43.3606 26.6913 43.0287 26.2865 42.918 25.7314C42.9069 25.6706 42.8753 25.6154 42.8283 25.5751C42.7814 25.5348 42.7221 25.5119 42.6603 25.5101H42.0279C41.9937 25.5093 41.9597 25.5155 41.928 25.5282C41.8962 25.5409 41.8674 25.5599 41.8432 25.5841C41.819 25.6083 41.8 25.6371 41.7873 25.6688C41.7746 25.7006 41.7684 25.7346 41.7692 25.7688V25.8056C41.9172 26.7291 42.5087 27.3939 43.7281 27.5783V28.4676C43.7281 28.6155 43.8388 28.7262 44.0232 28.7631H44.5764C44.724 28.7631 44.8346 28.6524 44.8715 28.4676V27.5805C45.978 27.3961 46.7157 26.6198 46.7157 25.6221Z" fill="white"/>
<path d="M42.3987 29.4984C39.52 28.4638 38.0406 25.2513 39.112 22.4072C39.6658 20.8559 40.8847 19.6743 42.3987 19.1201C42.5467 19.0463 42.6205 18.9357 42.6205 18.7508V18.234C42.6205 18.086 42.5467 17.9754 42.3987 17.9385C42.3619 17.9385 42.2881 17.9385 42.2512 17.9754C38.7428 19.0832 36.8221 22.8134 37.93 26.3223C38.2519 27.3358 38.8124 28.2573 39.5643 29.0092C40.3163 29.7611 41.2377 30.3216 42.2512 30.6435C42.2819 30.6613 42.3164 30.6715 42.3519 30.6734C42.3873 30.6752 42.4227 30.6687 42.4551 30.6542C42.4875 30.6398 42.5161 30.6179 42.5384 30.5903C42.5607 30.5627 42.5762 30.5303 42.5836 30.4956C42.6205 30.4587 42.6205 30.4218 42.6205 30.348V29.8308C42.6205 29.7201 42.5107 29.5721 42.3987 29.4984ZM46.312 17.9754C46.2813 17.9576 46.2468 17.9474 46.2114 17.9455C46.176 17.9436 46.1407 17.9502 46.1083 17.9645C46.0758 17.9789 46.0473 18.0008 46.0249 18.0283C46.0026 18.0558 45.987 18.0882 45.9796 18.1229C45.9427 18.1598 45.9427 18.1967 45.9427 18.2709V18.7877C45.9427 18.9357 46.0534 19.0832 46.1645 19.157C49.0432 20.1915 50.5226 23.4045 49.4512 26.2481C49.1788 27.004 48.7431 27.6906 48.175 28.2588C47.6068 28.827 46.9204 29.2628 46.1645 29.5352C46.0165 29.609 45.9427 29.7201 45.9427 29.9045V30.4213C45.9427 30.5689 46.0165 30.68 46.1645 30.7169C46.2014 30.7169 46.2751 30.7169 46.312 30.68C49.8205 29.5717 51.7411 25.8415 50.6332 22.333C50.3123 21.3148 49.7527 20.3881 49.0011 19.63C48.2494 18.8719 47.3274 18.3045 46.312 17.9749V17.9754Z" fill="white"/>
<rect x="49.3452" y="14.4136" width="20.1726" height="20.1726" rx="10.0863" fill="#EDEFF0"/>
<g clip-path="url(#clip0_1_637)">
<path d="M59.4455 27.1198C59.4028 27.1343 59.3785 27.0972 59.3495 27.0801C57.9273 26.2407 56.5066 25.4007 55.0875 24.5602C55.0737 24.5532 55.0595 24.5474 55.0448 24.5427V24.5239L55.07 24.5094C55.1057 24.5 55.1409 24.4886 55.1754 24.4753L58.5269 22.9503C58.8256 22.8142 59.1242 22.6802 59.4229 22.5454H59.4442C59.4442 22.5881 59.4442 22.6261 59.4442 22.6666C59.4454 24.1511 59.4458 25.6355 59.4455 27.1198Z" fill="#393939"/>
<path d="M59.4476 22.5465H59.4263C59.4263 22.5039 59.4305 22.4612 59.4305 22.4164C59.4305 20.749 59.4305 19.0814 59.4305 17.4136C59.4256 17.3708 59.4285 17.3274 59.4391 17.2856H59.448C59.6234 17.5446 59.7761 17.8177 59.9374 18.0852C61.2152 20.2047 62.4922 22.3238 63.7685 24.4427C63.7809 24.4636 63.7907 24.4853 63.8018 24.5084C63.7657 24.5007 63.7302 24.4902 63.6956 24.4772C63.4613 24.3714 63.2262 24.2639 62.9941 24.1559C62.6306 23.9895 62.2669 23.8234 61.9031 23.6576L60.1503 22.8636C59.9169 22.756 59.6823 22.6515 59.4476 22.5465Z" fill="#343434"/>
<path d="M59.4404 17.2832C59.4299 17.325 59.427 17.3683 59.4319 17.4112C59.4319 19.0786 59.4319 20.7462 59.4319 22.4139C59.4319 22.4566 59.4293 22.4993 59.4276 22.5441C59.129 22.6789 58.8303 22.8129 58.5316 22.949L55.1801 24.4739C55.1456 24.4873 55.1105 24.4987 55.0747 24.508C55.1716 24.3067 55.2974 24.124 55.4122 23.9312C56.742 21.7207 58.0728 19.5107 59.4046 17.3011C59.4134 17.2889 59.4229 17.2772 59.4332 17.2661L59.4404 17.2832Z" fill="#8C8C8C"/>
<path d="M59.4477 22.5464C59.6824 22.6513 59.917 22.7559 60.1513 22.8617L61.9041 23.6557C62.2681 23.8213 62.6318 23.9874 62.9951 24.1541C63.2289 24.2612 63.4644 24.3696 63.6965 24.4754C63.7311 24.4884 63.7666 24.4988 63.8027 24.5065C63.8454 24.5599 63.7823 24.562 63.7631 24.5735C63.3991 24.7911 63.0335 25.0057 62.6687 25.2216C61.6216 25.8412 60.5748 26.4606 59.5283 27.0798C59.5019 27.0952 59.4733 27.1067 59.4456 27.1199C59.4456 25.6359 59.4456 24.1518 59.4456 22.6676C59.446 22.627 59.4473 22.5869 59.4477 22.5464Z" fill="#141414"/>
<path d="M59.4306 27.963L62.172 26.3472C62.6953 26.0383 63.2185 25.7291 63.7413 25.4196L63.7886 25.3936C63.7933 25.4362 63.7639 25.4588 63.746 25.4836C62.5513 27.1678 61.3566 28.8515 60.1619 30.5345C59.9358 30.8537 59.7101 31.1746 59.4818 31.4911C59.4698 31.5078 59.4515 31.5859 59.4148 31.5031C59.4438 31.4783 59.431 31.4451 59.431 31.4178C59.4313 30.2657 59.4312 29.1141 59.4306 27.963Z" fill="#3D3D3C"/>
<path d="M59.4302 27.9627C59.4302 29.1138 59.4302 30.2647 59.4302 31.4153C59.4302 31.4448 59.443 31.4781 59.414 31.5007C59.353 31.464 59.3265 31.3983 59.286 31.3441C57.9007 29.3928 56.5162 27.4411 55.1323 25.4893C55.1148 25.4645 55.0986 25.4381 55.0807 25.4107C55.1165 25.3898 55.1357 25.4184 55.1566 25.4308C56.5575 26.258 57.9582 27.0859 59.3585 27.9145C59.3845 27.9307 59.4067 27.9473 59.4302 27.9627Z" fill="#8C8C8C"/>
<path d="M59.4415 17.2846L59.4307 17.2679C59.4504 17.2553 59.4478 17.2738 59.4509 17.2832L59.4415 17.2846Z" fill="#393939"/>
</g>
<rect x="64.5178" y="14.4136" width="20.1726" height="20.1726" rx="10.0863" fill="#F6931A"/>
<path d="M78.3002 24.8621C78.4889 24.9621 78.6686 25.0781 78.8372 25.209C79.4261 25.6759 79.675 26.2831 79.5802 27.0273C79.5175 27.5793 79.3225 28.1079 79.0116 28.5683C78.6294 29.1236 78.0867 29.4237 77.4321 29.5362C76.8894 29.6297 76.3473 29.5994 75.8059 29.5267C75.6087 29.5008 75.4129 29.4673 75.2177 29.4313C75.1545 29.4193 75.1349 29.4395 75.1204 29.4996C74.9713 30.1074 74.8165 30.7139 74.6686 31.3223C74.6478 31.4082 74.6225 31.4234 74.5359 31.4C74.1941 31.3078 73.8492 31.2237 73.5048 31.141C73.4417 31.1271 73.4347 31.1094 73.4492 31.05C73.6021 30.446 73.7506 29.8407 73.9041 29.2367C73.9212 29.1685 73.9149 29.1401 73.841 29.1224C73.5743 29.0567 73.3086 28.9872 73.0436 28.9139C72.976 28.8949 72.9564 28.9139 72.9406 28.9771C72.7915 29.5849 72.6374 30.192 72.4889 30.7998C72.4719 30.868 72.4523 30.8794 72.3847 30.863C72.0368 30.7728 71.6874 30.6859 71.3365 30.6021C71.2733 30.5869 71.2645 30.5604 71.279 30.5003C71.4332 29.8906 71.5823 29.2797 71.7377 28.6681C71.7579 28.5891 71.7415 28.5632 71.6644 28.5418C70.9063 28.3522 70.1538 28.1627 69.3981 27.9731C69.3444 27.9599 69.328 27.9466 69.3533 27.8897C69.5378 27.4685 69.7199 27.0473 69.8998 26.6261C69.9225 26.5724 69.951 26.5737 69.999 26.587C70.2593 26.6552 70.519 26.726 70.7812 26.7841C71.1084 26.8567 71.3018 26.7285 71.3826 26.405C71.6316 25.4063 71.8809 24.4079 72.1307 23.4096C72.3202 22.6515 72.5098 21.8933 72.6993 21.1352C72.7757 20.8281 72.6146 20.5324 72.2994 20.4111C72.0538 20.3275 71.8031 20.2597 71.5488 20.2083C71.4742 20.19 71.4003 20.1704 71.3251 20.1565C71.2841 20.1489 71.2784 20.1331 71.2879 20.0933C71.3871 19.6997 71.4862 19.3061 71.5816 18.9112C71.5981 18.8405 71.6404 18.8632 71.6789 18.8727C71.9784 18.9466 72.2766 19.0237 72.5767 19.097C73.0304 19.2069 73.4802 19.3339 73.9364 19.4356C74.0115 19.4527 74.04 19.4432 74.0596 19.3636C74.2049 18.764 74.3565 18.1632 74.5018 17.5668C74.5201 17.4916 74.5429 17.4701 74.6219 17.4909C74.9643 17.5819 75.3086 17.6672 75.653 17.7493C75.7256 17.767 75.7326 17.7948 75.7161 17.8624C75.5658 18.4544 75.4198 19.0477 75.2701 19.6397C75.2543 19.7029 75.2606 19.7212 75.3276 19.7364C75.5955 19.7951 75.8634 19.8583 76.1293 19.9259C76.2058 19.9461 76.2273 19.9215 76.2443 19.8532C76.3859 19.2745 76.5312 18.697 76.6721 18.1183C76.6916 18.0387 76.7138 18.0103 76.8047 18.0349C77.1434 18.1265 77.4852 18.2099 77.8264 18.2914C77.8933 18.3072 77.9066 18.3293 77.8895 18.3969C77.7366 19.0009 77.5894 19.6062 77.4346 20.2096C77.4151 20.2867 77.4346 20.3094 77.5029 20.3359C77.977 20.4904 78.4283 20.7075 78.8448 20.9816C79.2359 21.2489 79.56 21.5749 79.7357 22.0254C79.9252 22.5188 79.8879 23.0154 79.7401 23.5095C79.5316 24.2091 79.0731 24.6513 78.3647 24.8362C78.3406 24.84 78.3249 24.8489 78.3002 24.8621ZM75.5544 27.8442H75.6365C75.9322 27.8348 76.2229 27.8025 76.4926 27.6718C77.1743 27.3407 77.3203 26.4334 76.782 25.8812C76.4661 25.559 76.0731 25.3758 75.6618 25.2229C75.1564 25.0334 74.6238 24.9247 74.0981 24.7977C74.0217 24.7794 74.0071 24.8034 73.9913 24.8678C73.7862 25.7014 73.5786 26.5341 73.3684 27.366C73.3513 27.4329 73.3722 27.4494 73.4316 27.4633C73.6571 27.5176 73.8808 27.5789 74.1063 27.6339C74.5795 27.756 75.0647 27.8255 75.5531 27.8411L75.5544 27.8442ZM76.099 23.8892C76.2613 23.892 76.4235 23.8781 76.583 23.8475C77.0044 23.759 77.3089 23.5316 77.4315 23.1064C77.5541 22.6812 77.4536 22.2977 77.1156 21.9906C76.9364 21.8327 76.7328 21.7047 76.5128 21.6115C76.0219 21.3923 75.4982 21.2824 74.9763 21.1649C74.9131 21.1503 74.9081 21.1895 74.8973 21.2331C74.8215 21.538 74.7451 21.8432 74.668 22.1486C74.5574 22.5908 74.4475 23.0375 74.3338 23.481C74.3173 23.5442 74.3281 23.572 74.3969 23.5872C74.5284 23.615 74.6566 23.6548 74.7874 23.687C75.2183 23.7881 75.6511 23.8841 76.0978 23.886L76.099 23.8892Z" fill="white"/>
<path d="M101.118 32.34C100.634 32.5893 100.018 32.8167 99.2702 33.022C98.5222 33.2273 97.6128 33.33 96.5422 33.33C95.6035 33.33 94.7675 33.1907 94.0342 32.912C93.3008 32.6187 92.6775 32.2007 92.1642 31.658C91.6508 31.1153 91.2548 30.4627 90.9762 29.7C90.7122 28.9373 90.5802 28.0793 90.5802 27.126C90.5802 25.894 90.7855 24.6987 91.1962 23.54C91.6068 22.3667 92.2008 21.3253 92.9782 20.416C93.7555 19.5067 94.7015 18.7807 95.8162 18.238C96.9308 17.6807 98.1922 17.402 99.6002 17.402C100.524 17.402 101.323 17.5047 101.998 17.71C102.687 17.9153 103.289 18.1647 103.802 18.458L102.746 20.68C102.277 20.4013 101.771 20.1887 101.228 20.042C100.7 19.8807 100.099 19.8 99.4242 19.8C98.5002 19.8 97.6715 20.0053 96.9382 20.416C96.2048 20.8267 95.5742 21.3693 95.0462 22.044C94.5328 22.704 94.1368 23.4593 93.8582 24.31C93.5942 25.1607 93.4622 26.026 93.4622 26.906C93.4622 28.27 93.7555 29.282 94.3422 29.942C94.9435 30.5873 95.8162 30.91 96.9602 30.91C97.8402 30.91 98.5882 30.8147 99.2042 30.624C99.8202 30.4187 100.348 30.2133 100.788 30.008L101.118 32.34ZM111.16 23.848C110.867 23.7453 110.551 23.6647 110.214 23.606C109.877 23.5473 109.481 23.518 109.026 23.518C108.777 23.518 108.513 23.54 108.234 23.584C107.955 23.6133 107.721 23.6573 107.53 23.716L105.308 33H102.646L105.286 22.022C105.902 21.8167 106.569 21.6407 107.288 21.494C108.007 21.3327 108.784 21.252 109.62 21.252C109.796 21.252 109.994 21.2667 110.214 21.296C110.434 21.3107 110.647 21.3327 110.852 21.362C111.072 21.3913 111.27 21.428 111.446 21.472C111.637 21.516 111.798 21.5673 111.93 21.626L111.16 23.848ZM122.433 21.494C122.14 22.33 121.817 23.2027 121.465 24.112C121.113 25.0067 120.717 25.9087 120.277 26.818C119.852 27.7273 119.39 28.6367 118.891 29.546C118.392 30.4407 117.857 31.3133 117.285 32.164C116.86 32.8093 116.42 33.4253 115.965 34.012C115.51 34.6133 115.012 35.1413 114.469 35.596C113.941 36.0507 113.354 36.4173 112.709 36.696C112.064 36.9747 111.33 37.114 110.509 37.114C110.054 37.114 109.651 37.0627 109.299 36.96C108.932 36.8573 108.624 36.74 108.375 36.608L109.233 34.474C109.438 34.5913 109.666 34.6867 109.915 34.76C110.179 34.8333 110.465 34.87 110.773 34.87C111.462 34.87 112.064 34.6867 112.577 34.32C113.105 33.968 113.582 33.484 114.007 32.868C113.538 31.24 113.142 29.4727 112.819 27.566C112.496 25.6593 112.284 23.6353 112.181 21.494H114.865C114.88 22.11 114.909 22.792 114.953 23.54C115.012 24.288 115.078 25.058 115.151 25.85C115.239 26.6273 115.342 27.3973 115.459 28.16C115.576 28.9227 115.708 29.6267 115.855 30.272C116.295 29.568 116.706 28.8273 117.087 28.05C117.468 27.2727 117.82 26.5027 118.143 25.74C118.466 24.9627 118.744 24.2147 118.979 23.496C119.228 22.7627 119.441 22.0953 119.617 21.494H122.433ZM125.032 30.932C125.179 30.9613 125.333 30.9833 125.494 30.998C125.655 30.998 125.817 30.998 125.978 30.998C126.682 30.998 127.313 30.866 127.87 30.602C128.442 30.3233 128.926 29.9567 129.322 29.502C129.718 29.0327 130.019 28.49 130.224 27.874C130.444 27.2433 130.554 26.576 130.554 25.872C130.554 25.5493 130.517 25.2487 130.444 24.97C130.371 24.6767 130.246 24.42 130.07 24.2C129.909 23.98 129.681 23.804 129.388 23.672C129.109 23.54 128.75 23.474 128.31 23.474C128.017 23.474 127.738 23.496 127.474 23.54C127.21 23.5693 126.975 23.6133 126.77 23.672L125.032 30.932ZM133.216 25.63C133.216 26.6713 133.047 27.654 132.71 28.578C132.387 29.4873 131.903 30.2867 131.258 30.976C130.627 31.6653 129.85 32.2153 128.926 32.626C128.017 33.022 126.968 33.22 125.78 33.22C125.575 33.22 125.362 33.2053 125.142 33.176C124.937 33.1613 124.731 33.1393 124.526 33.11L123.558 37.07H120.896L124.526 21.956C125.127 21.736 125.795 21.56 126.528 21.428C127.276 21.296 128.024 21.23 128.772 21.23C129.535 21.23 130.195 21.3473 130.752 21.582C131.324 21.802 131.786 22.11 132.138 22.506C132.505 22.902 132.776 23.3713 132.952 23.914C133.128 24.442 133.216 25.014 133.216 25.63ZM137.252 18.458L140.024 18.018L139.188 21.494H142.95L142.422 23.694H138.66L137.56 28.248C137.487 28.5707 137.435 28.842 137.406 29.062C137.377 29.2673 137.362 29.458 137.362 29.634C137.362 29.81 137.377 29.986 137.406 30.162C137.45 30.3233 137.523 30.47 137.626 30.602C137.743 30.7193 137.905 30.822 138.11 30.91C138.33 30.9833 138.623 31.02 138.99 31.02C139.386 31.02 139.767 30.9687 140.134 30.866C140.501 30.7633 140.823 30.6533 141.102 30.536L141.3 32.67C140.963 32.8167 140.537 32.956 140.024 33.088C139.511 33.22 138.909 33.286 138.22 33.286C136.959 33.286 136.057 33.0147 135.514 32.472C134.971 31.9147 134.7 31.1593 134.7 30.206C134.7 29.854 134.722 29.4947 134.766 29.128C134.825 28.7467 134.905 28.3433 135.008 27.918L137.252 18.458ZM147.402 33.308C146.038 33.308 144.997 32.9047 144.278 32.098C143.56 31.2913 143.2 30.228 143.2 28.908C143.2 28.0573 143.332 27.1773 143.596 26.268C143.86 25.3587 144.264 24.53 144.806 23.782C145.349 23.034 146.031 22.418 146.852 21.934C147.674 21.45 148.642 21.208 149.756 21.208C151.12 21.208 152.162 21.6113 152.88 22.418C153.599 23.21 153.958 24.266 153.958 25.586C153.958 26.4513 153.826 27.3387 153.562 28.248C153.313 29.1573 152.917 29.986 152.374 30.734C151.846 31.482 151.164 32.098 150.328 32.582C149.507 33.066 148.532 33.308 147.402 33.308ZM149.426 23.452C148.854 23.452 148.341 23.6207 147.886 23.958C147.446 24.2807 147.072 24.6987 146.764 25.212C146.471 25.7253 146.244 26.29 146.082 26.906C145.921 27.5073 145.84 28.094 145.84 28.666C145.84 29.3993 145.98 29.9787 146.258 30.404C146.537 30.8293 147.028 31.042 147.732 31.042C148.304 31.042 148.81 30.8807 149.25 30.558C149.705 30.2207 150.079 29.8027 150.372 29.304C150.68 28.7907 150.915 28.226 151.076 27.61C151.238 26.994 151.318 26.4073 151.318 25.85C151.318 25.1167 151.179 24.5373 150.9 24.112C150.622 23.672 150.13 23.452 149.426 23.452Z" fill="white"/>
<defs>
<clipPath id="clip0_1_637">
<rect width="8.7707" height="14.2769" fill="white" transform="translate(55.046 17.2637)"/>
</clipPath>
</defs>
</svg>
