<svg width="120" height="49" viewBox="0 0 120 49" fill="none" xmlns="http://www.w3.org/2000/svg">
<rect width="120" height="49" rx="4" fill="#635BFF"/>
<path fill-rule="evenodd" clip-rule="evenodd" d="M98 24.943C98 19.7519 95.4855 15.6558 90.6797 15.6558C85.8536 15.6558 82.9336 19.7519 82.9336 24.9024C82.9336 31.006 86.3808 34.0883 91.3286 34.0883C93.7416 34.0883 95.5666 33.5408 96.9455 32.7702V28.7147C95.5666 29.4041 93.985 29.8299 91.9775 29.8299C90.0105 29.8299 88.2666 29.1405 88.0436 26.7477H97.9594C97.9594 26.4841 98 25.4297 98 24.943ZM87.9828 23.0166C87.9828 20.7252 89.3819 19.7722 90.6594 19.7722C91.8964 19.7722 93.2144 20.7252 93.2144 23.0166H87.9828Z" fill="white"/>
<path fill-rule="evenodd" clip-rule="evenodd" d="M75.1064 15.6558C73.1192 15.6558 71.8417 16.5885 71.1319 17.2374L70.8683 15.9802H66.4072V39.6241L71.4767 38.5494L71.4969 32.8108C72.2269 33.338 73.3017 34.0883 75.0861 34.0883C78.7158 34.0883 82.0211 31.1683 82.0211 24.7402C82.0008 18.8597 78.655 15.6558 75.1064 15.6558ZM73.8897 29.6271C72.6933 29.6271 71.9836 29.2013 71.4969 28.6741L71.4767 21.151C72.0039 20.563 72.7339 20.1574 73.8897 20.1574C75.735 20.1574 77.0125 22.2258 77.0125 24.8821C77.0125 27.5994 75.7553 29.6271 73.8897 29.6271Z" fill="white"/>
<path fill-rule="evenodd" clip-rule="evenodd" d="M64.5214 9.24805L59.4316 10.3228V14.4594L64.5214 13.3644V9.24805Z" fill="white"/>
<path fill-rule="evenodd" clip-rule="evenodd" d="M59.4316 16.0005H64.5214V33.7435H59.4316V16.0005Z" fill="white"/>
<path fill-rule="evenodd" clip-rule="evenodd" d="M53.977 17.5012L53.6525 16.0006H49.2725V33.7437H54.342V21.719C55.5384 20.1576 57.5661 20.4415 58.1947 20.6645V16.0006C57.5459 15.7573 55.1734 15.3112 53.977 17.5012Z" fill="white"/>
<path fill-rule="evenodd" clip-rule="evenodd" d="M43.838 11.6006L38.8903 12.655L38.87 28.8975C38.87 31.8986 41.1208 34.1089 44.1219 34.1089C45.7847 34.1089 47.0014 33.8048 47.6706 33.4398V29.3234C47.0217 29.587 43.8178 30.5198 43.8178 27.5186V20.32H47.6706V16.0009H43.8178L43.838 11.6006Z" fill="white"/>
<path fill-rule="evenodd" clip-rule="evenodd" d="M30.1303 21.151C30.1303 20.3602 30.7792 20.056 31.8539 20.056C33.395 20.056 35.3417 20.5224 36.8828 21.3538V16.5885C35.1997 15.9194 33.5369 15.6558 31.8539 15.6558C27.7375 15.6558 25 17.8052 25 21.3944C25 26.991 32.7056 26.0988 32.7056 28.5119C32.7056 29.4446 31.8944 29.7488 30.7589 29.7488C29.0758 29.7488 26.9264 29.0594 25.2231 28.1266V32.9527C27.1089 33.7638 29.015 34.1085 30.7589 34.1085C34.9767 34.1085 37.8764 32.0199 37.8764 28.3902C37.8561 22.3474 30.1303 23.4221 30.1303 21.151Z" fill="white"/>
</svg>
