<svg width="16" height="16" viewBox="0 0 16 16" fill="none" xmlns="http://www.w3.org/2000/svg">
<path d="M7.20026 2.08389C7.64171 1.70641 8.36467 1.70641 8.81252 2.08389L9.82338 2.95399C10.0153 3.12034 10.3736 3.25469 10.6295 3.25469H11.7171C12.3953 3.25469 12.9519 3.8113 12.9519 4.48948V5.57711C12.9519 5.82662 13.0863 6.1913 13.2526 6.38324L14.1227 7.3941C14.5002 7.83555 14.5002 8.55851 14.1227 9.00635L13.2526 10.0172C13.0863 10.2091 12.9519 10.5674 12.9519 10.8233V11.911C12.9519 12.5891 12.3953 13.1458 11.7171 13.1458H10.6295C10.38 13.1458 10.0153 13.2801 9.82338 13.4465L8.81252 14.3166C8.37107 14.694 7.64811 14.694 7.20026 14.3166L6.1894 13.4465C5.99747 13.2801 5.63919 13.1458 5.38327 13.1458H4.27645C3.59828 13.1458 3.04166 12.5891 3.04166 11.911V10.8169C3.04166 10.5674 2.90731 10.2091 2.74736 10.0172L1.88365 8.99996C1.51258 8.55851 1.51258 7.84195 1.88365 7.4005L2.74736 6.38324C2.90731 6.1913 3.04166 5.83302 3.04166 5.58351V4.48308C3.04166 3.80491 3.59828 3.24829 4.27645 3.24829H5.38327C5.63279 3.24829 5.99747 3.11394 6.1894 2.94759L7.20026 2.08389Z" fill="#0393FB"/>
<path d="M7.22586 10.2216C7.0979 10.2216 6.97634 10.1704 6.88677 10.0808L5.33849 8.53254C5.15296 8.34701 5.15296 8.03991 5.33849 7.85437C5.52403 7.66884 5.83113 7.66884 6.01667 7.85437L7.22586 9.06357L9.97693 6.31249C10.1625 6.12696 10.4696 6.12696 10.6551 6.31249C10.8406 6.49803 10.8406 6.80513 10.6551 6.99066L7.56494 10.0808C7.47537 10.1704 7.35382 10.2216 7.22586 10.2216Z" fill="white"/>
</svg>
