<svg width="33" height="33" viewBox="0 0 33 33" fill="none" xmlns="http://www.w3.org/2000/svg">
<path fill-rule="evenodd" clip-rule="evenodd" d="M26.7129 2.57812C25.5477 2.57812 24.5315 3.21627 23.9949 4.16213L19.1945 3.17744C18.7283 3.08182 18.2594 3.32794 18.0732 3.7659C17.5255 5.05469 16.7036 7.00795 16.0179 8.67926C15.7159 9.41542 15.4388 10.1007 15.2227 10.6519C12.6659 10.7759 10.3001 11.4392 8.34732 12.4987C7.60364 11.4881 6.40588 10.8315 5.05326 10.8315C2.79568 10.8315 0.965546 12.6616 0.965546 14.9192C0.965546 16.5334 1.90055 17.9276 3.25787 18.5922C3.142 19.105 3.08127 19.6335 3.08127 20.1746C3.08127 22.8953 4.61677 25.2971 6.97633 26.9931C9.33695 28.6898 12.5644 29.7185 16.0988 29.7185C19.6333 29.7185 22.8607 28.6898 25.2213 26.9931C27.5809 25.2971 29.1164 22.8953 29.1164 20.1746C29.1164 19.6335 29.0556 19.1051 28.9398 18.5923C30.2968 17.9278 31.2322 16.5337 31.2322 14.9192C31.2322 12.6616 29.4021 10.8315 27.1445 10.8315C25.7918 10.8315 24.5941 11.4881 23.8504 12.4987C21.9975 11.4934 19.7726 10.8448 17.3656 10.6752C17.5181 10.2954 17.6881 9.87751 17.8683 9.43833C18.4269 8.07671 19.0776 6.52413 19.5947 5.30118L23.6188 6.12664C23.8265 7.64993 25.1326 8.82374 26.7129 8.82374C28.4375 8.82374 29.8357 7.42561 29.8357 5.70093C29.8357 3.97625 28.4375 2.57812 26.7129 2.57812ZM25.5901 5.70093C25.5901 5.08082 26.0928 4.57812 26.7129 4.57812C27.333 4.57812 27.8357 5.08082 27.8357 5.70093C27.8357 6.32104 27.333 6.82374 26.7129 6.82374C26.0928 6.82374 25.5901 6.32104 25.5901 5.70093ZM28.2329 16.7014C27.6079 15.5237 26.6787 14.4702 25.5348 13.5893C25.9182 13.126 26.4976 12.8315 27.1445 12.8315C28.2975 12.8315 29.2322 13.7662 29.2322 14.9192C29.2322 15.6725 28.8327 16.3342 28.2329 16.7014ZM6.66293 13.5893C6.27953 13.1259 5.70014 12.8315 5.05326 12.8315C3.90025 12.8315 2.96555 13.7662 2.96555 14.9192C2.96555 15.6727 3.36527 16.3342 3.96474 16.7013C4.58979 15.5237 5.51898 14.4701 6.66293 13.5893ZM20.8154 20.1746C21.8812 20.1746 22.7452 19.3106 22.7452 18.2448C22.7452 17.179 21.8812 16.3149 20.8154 16.3149C19.7496 16.3149 18.8855 17.179 18.8855 18.2448C18.8855 19.3106 19.7496 20.1746 20.8154 20.1746ZM13.3052 18.2448C13.3052 19.3106 12.4412 20.1746 11.3753 20.1746C10.3095 20.1746 9.44553 19.3106 9.44553 18.2448C9.44553 17.179 10.3095 16.3149 11.3753 16.3149C12.4412 16.3149 13.3052 17.179 13.3052 18.2448ZM11.899 22.4165C11.4319 22.1219 10.8144 22.2617 10.5197 22.7288C10.2251 23.1959 10.3649 23.8135 10.832 24.1081L11.2919 24.3982C14.2256 26.2488 17.9616 26.2488 20.8953 24.3982L21.3552 24.1081C21.8223 23.8135 21.9621 23.1959 21.6674 22.7288C21.3728 22.2617 20.7552 22.1219 20.2881 22.4165L19.8282 22.7067C17.5465 24.146 14.6407 24.146 12.3589 22.7067L11.899 22.4165Z" fill="#040503"/>
</svg>
