<svg width="75" height="75" viewBox="0 0 75 75" fill="none" xmlns="http://www.w3.org/2000/svg">
<path fill-rule="evenodd" clip-rule="evenodd" d="M25 3.90637C26.2944 3.90637 27.3438 4.9557 27.3438 6.25012V15.6251C27.3438 16.9195 26.2944 17.9689 25 17.9689C23.7056 17.9689 22.6562 16.9195 22.6562 15.6251V6.25012C22.6562 4.9557 23.7056 3.90637 25 3.90637Z" fill="#2299F5"/>
<path fill-rule="evenodd" clip-rule="evenodd" d="M49.9995 3.90637C51.2939 3.90637 52.3433 4.9557 52.3433 6.25012V15.6251C52.3433 16.9195 51.2939 17.9689 49.9995 17.9689C48.7051 17.9689 47.6558 16.9195 47.6558 15.6251V6.25012C47.6558 4.9557 48.7051 3.90637 49.9995 3.90637Z" fill="#2299F5"/>
<path opacity="0.4" d="M67.187 26.1562V53.5312C67.187 54.0312 67.1558 54.5313 67.1245 55H7.87451C7.84326 54.5313 7.81201 54.0312 7.81201 53.5312V26.1562C7.81201 17.75 14.6245 10.9375 23.0308 10.9375H51.9683C60.3745 10.9375 67.187 17.75 67.187 26.1562Z" fill="#2299F5"/>
<path d="M67.125 55C66.375 62.7187 59.875 68.75 51.9687 68.75H23.0312C15.125 68.75 8.625 62.7187 7.875 55H67.125Z" fill="#2299F5"/>
<path d="M42.2808 36.3124C43.687 35.3436 44.562 33.9061 44.562 31.9686C44.562 27.9061 41.312 25.8124 37.4995 25.8124C33.687 25.8124 30.4058 27.9061 30.4058 31.9686C30.4058 33.9061 31.312 35.3749 32.687 36.3124C30.7808 37.4374 29.687 39.2499 29.687 41.3749C29.687 45.2499 32.6558 47.6561 37.4995 47.6561C42.312 47.6561 45.312 45.2499 45.312 41.3749C45.312 39.2499 44.2183 37.4061 42.2808 36.3124ZM37.4995 29.6874C39.1245 29.6874 40.312 30.5936 40.312 32.1561C40.312 33.6874 39.1245 34.6561 37.4995 34.6561C35.8745 34.6561 34.687 33.6874 34.687 32.1561C34.687 30.5936 35.8745 29.6874 37.4995 29.6874ZM37.4995 43.7499C35.437 43.7499 33.937 42.7186 33.937 40.8436C33.937 38.9686 35.437 37.9686 37.4995 37.9686C39.562 37.9686 41.062 38.9999 41.062 40.8436C41.062 42.7186 39.562 43.7499 37.4995 43.7499Z" fill="#2299F5"/>
</svg>
