<svg width="24" height="24" viewBox="0 0 24 24" fill="none" xmlns="http://www.w3.org/2000/svg">
<path fill-rule="evenodd" clip-rule="evenodd" d="M14.3851 15.446C11.7348 17.5687 7.85538 17.4016 5.3986 14.9448C2.76256 12.3088 2.76256 8.03494 5.3986 5.3989C8.03464 2.76287 12.3085 2.76287 14.9445 5.3989C17.4013 7.85569 17.5684 11.7351 15.4457 14.3854L20.6014 19.541C20.8943 19.8339 20.8943 20.3088 20.6014 20.6017C20.3085 20.8946 19.8336 20.8946 19.5407 20.6017L14.3851 15.446ZM6.45926 13.8842C4.40901 11.8339 4.40901 8.50982 6.45926 6.45956C8.50951 4.40931 11.8336 4.40931 13.8839 6.45956C15.9326 8.50831 15.9341 11.8291 13.8884 13.8797C13.8869 13.8812 13.8854 13.8827 13.8839 13.8842C13.8824 13.8857 13.8809 13.8872 13.8794 13.8887C11.8288 15.9344 8.50801 15.9329 6.45926 13.8842Z" fill="#282828"/>
</svg>
