<svg width="53" height="53" viewBox="0 0 53 53" fill="none" xmlns="http://www.w3.org/2000/svg">
<rect x="0.0820312" width="52.8974" height="52.8974" rx="26.4487" fill="#26A07B"/>
<path d="M26.512 12.1564C30.4205 12.1564 34.3291 12.1564 38.2496 12.1564C38.5984 12.1564 38.6946 12.2405 38.6946 12.5953C38.6946 14.3091 38.6946 16.0168 38.6946 17.7245C38.6946 18.0553 38.5984 18.1274 38.2857 18.1214C35.5738 18.1214 32.8739 18.1214 30.1439 18.1214C29.7891 18.1214 29.717 18.2176 29.723 18.5483C29.747 19.5786 29.747 20.6068 29.723 21.6331C29.723 21.9578 29.7891 22.06 30.1379 22.078C32.9934 22.1722 35.832 22.555 38.6104 23.2205C39.5235 23.4326 40.4077 23.7536 41.2442 24.1766C41.5809 24.3431 41.8862 24.5669 42.1461 24.8381C42.2451 24.9266 42.3243 25.0351 42.3785 25.1563C42.4327 25.2775 42.4607 25.4088 42.4607 25.5416C42.4607 25.6744 42.4327 25.8057 42.3785 25.9269C42.3243 26.0482 42.2451 26.1566 42.1461 26.2451C41.6374 26.7402 41.0195 27.1089 40.3422 27.3215C38.6935 27.9071 36.9856 28.3104 35.2491 28.5241C33.5323 28.7868 31.8015 28.9474 30.0657 29.0052C29.741 29.0052 29.741 29.1735 29.741 29.4141C29.741 33.3106 29.741 37.2312 29.741 41.1036C29.741 41.5005 29.6388 41.5847 29.254 41.5847C27.3779 41.5847 25.4958 41.5847 23.6197 41.5847C23.301 41.5847 23.2408 41.4944 23.2408 41.1998C23.2408 37.3394 23.2408 33.485 23.2408 29.6245C23.2408 29.0232 23.2408 29.0232 22.6395 29.0232C19.8312 28.8992 17.0419 28.5005 14.3113 27.8326C13.2799 27.6092 12.2912 27.2214 11.3829 26.6841C10.1803 25.9324 10.1803 25.0966 11.3829 24.357C12.5952 23.6728 13.9181 23.2068 15.2915 22.98C17.7963 22.4563 20.3409 22.1445 22.8981 22.048C23.1927 22.048 23.2589 21.9518 23.2529 21.6752C23.2529 20.6289 23.2529 19.5886 23.2529 18.5483C23.2529 18.2116 23.1867 18.0974 22.8199 18.1034C20.114 18.1034 17.4081 18.1034 14.7082 18.1034C14.3414 18.1034 14.2752 17.9891 14.2752 17.6524C14.2752 15.9567 14.2752 14.261 14.2752 12.5592C14.2752 12.1864 14.3955 12.1323 14.7262 12.1323C18.6588 12.1624 22.5854 12.1564 26.512 12.1564ZM26.7224 28.007C28.7742 28.0287 30.8256 27.9404 32.8679 27.7424C34.6947 27.5934 36.5053 27.2876 38.2797 26.8284C38.9943 26.6653 39.6784 26.3892 40.3061 26.0106C41.1059 25.4875 41.0938 24.9343 40.3061 24.4111C39.9161 24.1513 39.4909 23.9488 39.0434 23.8098C36.0775 22.9932 33.0212 22.5508 29.9455 22.4929C29.6629 22.4929 29.711 22.6493 29.711 22.8117C29.711 24.0143 29.711 25.253 29.711 26.4736C29.711 26.7502 29.6448 26.8645 29.3562 26.8765C27.4139 26.9487 25.4717 26.9607 23.5295 26.8765C23.2769 26.8765 23.2168 26.7743 23.2168 26.5338C23.2168 25.2951 23.2168 24.0624 23.2168 22.8297C23.2168 22.5531 23.1386 22.493 22.868 22.499C21.5331 22.5591 20.1982 22.6733 18.8693 22.8297C17.1804 22.9983 15.5126 23.3347 13.8904 23.8339C13.4108 23.9677 12.953 24.1702 12.5314 24.4352C11.8038 24.9343 11.8099 25.4754 12.5314 25.9745C12.8127 26.1587 13.1131 26.312 13.4274 26.4315C14.4889 26.8222 15.5867 27.1062 16.7046 27.2794C20.0158 27.8174 23.3682 28.0609 26.7224 28.007Z" fill="white"/>
</svg>
