<svg width="32" height="32" viewBox="0 0 32 32" fill="none" xmlns="http://www.w3.org/2000/svg">
<path opacity="0.4" d="M28.88 13.9197L27.5733 19.493C26.4533 24.3064 24.24 26.253 20.08 25.853C19.4133 25.7997 18.6933 25.6797 17.92 25.493L15.68 24.9597C10.12 23.6397 8.39995 20.893 9.70662 15.3197L11.0133 9.73302C11.28 8.59969 11.6 7.61302 12 6.79969C13.56 3.57302 16.2133 2.70635 20.6666 3.75969L22.8933 4.27969C28.48 5.58635 30.1866 8.34635 28.88 13.9197Z" fill="#0393FB"/>
<path d="M20.08 25.8531C19.2533 26.4131 18.2133 26.8798 16.9466 27.2931L14.84 27.9865C9.54663 29.6931 6.75997 28.2665 5.03997 22.9731L3.3333 17.7065C1.62663 12.4131 3.03997 9.61314 8.3333 7.90647L10.44 7.21314C10.9866 7.0398 11.5066 6.89314 12 6.7998C11.6 7.61314 11.28 8.59981 11.0133 9.73314L9.70663 15.3198C8.39997 20.8931 10.12 23.6398 15.68 24.9598L17.92 25.4931C18.6933 25.6798 19.4133 25.7998 20.08 25.8531Z" fill="#0393FB"/>
<path d="M23.32 14.013C23.24 14.013 23.16 13.9997 23.0666 13.9864L16.6 12.3464C16.0666 12.213 15.7466 11.6664 15.88 11.133C16.0133 10.5997 16.56 10.2797 17.0933 10.413L23.56 12.053C24.0933 12.1864 24.4133 12.733 24.28 13.2664C24.1733 13.7064 23.76 14.013 23.32 14.013Z" fill="#0393FB"/>
<path d="M19.4133 18.5199C19.3333 18.5199 19.2533 18.5065 19.16 18.4932L15.28 17.5065C14.7467 17.3732 14.4267 16.8265 14.56 16.2932C14.6933 15.7599 15.24 15.4399 15.7733 15.5732L19.6533 16.5599C20.1867 16.6932 20.5067 17.2399 20.3733 17.7732C20.2667 18.2265 19.8667 18.5199 19.4133 18.5199Z" fill="#0393FB"/>
</svg>
