<svg width="24" height="24" viewBox="0 0 24 24" fill="none" xmlns="http://www.w3.org/2000/svg">
<path d="M21.4356 6.08051C21.4922 6.00166 21.4086 5.89985 21.3181 5.93492C20.6751 6.18418 20.003 6.35235 19.3175 6.43523C20.0808 5.97921 20.6698 5.28505 20.9964 4.46321C21.0297 4.37949 20.9383 4.30473 20.8594 4.34828C20.15 4.74007 19.3848 5.02219 18.5901 5.18467C18.5568 5.19147 18.5225 5.18015 18.4991 5.1555C17.9027 4.52616 17.1176 4.10714 16.2617 3.96234C15.3879 3.81449 14.4896 3.96088 13.7079 4.37853C12.9262 4.79618 12.3053 5.46148 11.9424 6.27009C11.5974 7.03891 11.5043 7.89594 11.6745 8.71901C11.6877 8.78287 11.6377 8.84316 11.5726 8.83912C10.0262 8.74308 8.51534 8.33177 7.13301 7.62997C5.7542 6.92996 4.53322 5.95613 3.54444 4.76853C3.50056 4.71583 3.41739 4.72265 3.38542 4.78332C3.07774 5.36716 2.91665 6.0179 2.91709 6.67928C2.91584 7.33762 3.0774 7.98605 3.38739 8.56685C3.69737 9.14764 4.14616 9.64277 4.6938 10.0082C4.11302 9.99236 3.54357 9.84878 3.02569 9.58846C2.95895 9.55491 2.87889 9.60268 2.88237 9.6773C2.92275 10.5454 3.24144 11.4169 3.79306 12.0855C4.38008 12.797 5.19484 13.284 6.09954 13.464C5.75128 13.5699 5.38971 13.6258 5.02571 13.6299C4.82759 13.6276 4.62987 13.613 4.43367 13.5862C4.36092 13.5762 4.30152 13.6453 4.32699 13.7142C4.59683 14.4439 5.07354 15.0806 5.70034 15.5454C6.37047 16.0423 7.17882 16.318 8.01292 16.334C6.60444 17.4423 4.8655 18.0471 3.07328 18.0521C2.88913 18.0528 2.70505 18.0468 2.52141 18.0343C2.41793 18.0272 2.37033 18.1651 2.45953 18.218C4.20575 19.2543 6.20164 19.8021 8.23745 19.7996C9.74051 19.8152 11.2316 19.5311 12.6237 18.964C14.0157 18.3969 15.2808 17.5581 16.3451 16.4965C17.4093 15.435 18.2514 14.1721 18.8221 12.7815C19.3928 11.3909 19.6806 9.90051 19.6689 8.39741V7.929C19.6689 7.89817 19.6835 7.86919 19.7081 7.85062C20.3702 7.35066 20.9525 6.75377 21.4356 6.08051Z" fill="white"/>
</svg>
