<svg width="69" height="85" viewBox="0 0 69 85" fill="none" xmlns="http://www.w3.org/2000/svg">
<g clip-path="url(#clip0_37_608)">
<path d="M34.5002 81.7972C35.2007 81.4469 53.4139 73.5662 59.1931 68.8378C65.1474 63.9342 68.2997 56.9292 68.2997 48.5231V9.11952L67.7743 8.94439C53.2388 1.06368 35.2007 1.58906 34.3251 1.58906C33.6245 1.58906 15.5865 1.06368 1.05094 8.94439L0.700684 9.11952V48.6982C0.700684 57.1043 3.85297 64.1094 9.80728 69.0129C15.5865 73.7413 33.7997 81.6221 34.5002 81.7972Z" fill="#FFB406"/>
<path d="M34.5 82.6729C34.5 82.6729 15.236 74.2668 9.28173 69.5383C2.97716 64.2845 0 57.1043 0 48.8734V7.89367C15.236 -0.337297 34.5 0.363209 34.5 0.363209C34.5 0.363209 53.764 -0.337297 69 7.89367V48.6982C69 56.9292 66.0228 64.1094 59.7183 69.3632C53.764 74.2668 34.5 82.6729 34.5 82.6729ZM2.80203 48.8734C2.80203 56.5789 5.60406 62.8835 11.033 67.2617C15.9365 71.2896 30.4721 77.7693 34.5 79.5206C38.5279 77.7693 53.2386 71.1145 57.967 67.2617C63.3959 62.8835 66.198 56.4038 66.198 48.8734V8.59417C45.8832 6.66778 21.7157 7.71854 2.80203 25.2312V48.8734Z" fill="white"/>
<path d="M53.9389 43.0943C56.5659 44.6704 57.6166 45.7212 57.7917 47.6476C57.7917 49.7491 56.3907 50.975 54.1141 50.975C52.1877 50.975 49.911 49.9242 48.3349 48.5232V54.1273C50.2613 55.178 52.5379 56.0537 54.9897 56.0537C60.944 56.0537 63.7461 51.8506 63.7461 47.9978C63.9212 44.4953 62.8704 41.6933 57.7917 38.7161C55.5151 37.3151 53.7638 36.4395 53.7638 34.3379C53.7638 32.2364 55.6902 31.3608 57.2664 31.3608C59.3679 31.3608 61.4694 32.5867 62.6953 33.8126V28.5587C61.6445 27.6831 59.3679 26.4572 56.0405 26.6324C52.0126 26.8075 47.8095 29.6095 47.8095 34.5131C47.9846 37.8405 49.0354 40.2922 53.9389 43.0943ZM33.274 55.7034C33.7994 55.8785 34.675 56.0537 36.076 56.0537C42.906 56.0537 46.7588 49.9242 46.7588 41.1679C46.7588 32.2364 42.7308 26.8075 35.5506 26.8075C32.2232 26.8075 29.5963 27.508 27.3197 28.909V68.4877H33.274V55.7034ZM33.274 31.8862C33.7994 31.711 34.675 31.3608 35.3755 31.3608C38.878 31.3608 40.2791 34.1628 40.2791 40.9928C40.2791 47.6476 38.5278 50.7999 35.0252 50.7999C34.1496 50.7999 33.4491 50.6247 33.0988 50.4496V31.8862H33.274ZM14.8857 56.0537C18.5633 56.0537 21.7156 55.178 23.9922 53.6019V27.1577H17.8628V50.0994C17.1623 50.6247 16.2867 50.7999 15.0608 50.7999C12.2587 50.7999 11.9085 48.173 11.9085 46.5968V27.1577H5.77905V46.2466C5.77905 52.7263 8.93134 56.0537 14.8857 56.0537ZM55.6902 79.6958V83.7237H56.3907V82.1476H56.5659L57.6166 83.7237H58.4923C58.4923 83.7237 57.4415 82.1476 57.2664 81.9724C57.7917 81.7973 58.142 81.4471 58.142 80.9217C58.142 80.3963 57.7917 79.6958 56.741 79.6958H55.6902ZM56.741 80.2212C57.2664 80.2212 57.4415 80.5714 57.4415 80.7466C57.4415 81.0968 57.2664 81.4471 56.5659 81.4471H56.3907V80.2212H56.741Z" fill="white"/>
<path d="M59.5432 81.6223C59.5432 83.0234 58.3173 84.2492 56.9163 84.2492C55.5153 84.2492 54.2894 83.0234 54.2894 81.6223C54.2894 80.2213 55.5153 78.9954 56.9163 78.9954C58.4924 78.9954 59.5432 80.2213 59.5432 81.6223ZM56.9163 78.2949C55.165 78.2949 53.5889 79.6959 53.5889 81.6223C53.5889 83.3736 54.9899 84.9497 56.9163 84.9497C58.6675 84.9497 60.2437 83.5487 60.2437 81.6223C60.2437 79.8711 58.6675 78.2949 56.9163 78.2949Z" fill="white"/>
</g>
<defs>
<clipPath id="clip0_37_608">
<rect width="69" height="84.6003" fill="white" transform="translate(0 0.356445)"/>
</clipPath>
</defs>
</svg>
