<svg width="173" height="33" viewBox="0 0 173 33" fill="none" xmlns="http://www.w3.org/2000/svg">
<path d="M42.9993 31.5081L49.4054 1.36798H7.45668L1.05054 31.5081H42.9993Z" fill="white"/>
<path d="M8.3478 2.47962L48.0237 2.47778L48.0228 2.47828L42.0869 30.3909H5.7862C5.7862 30.3909 40.4836 16.9918 40.9424 16.653C40.9424 16.653 44.152 11.793 42.1778 10.1435C41.5213 9.59645 41.0599 9.44453 37.3045 9.46335C37.3045 9.46335 37.4703 8.42943 32.1112 7.48351C31.6491 7.40115 8.3239 2.61197 8.3239 2.61197L8.3478 2.47962Z" fill="#15569C"/>
<path d="M25.5299 8.93399C25.6146 8.939 26.3548 8.9239 27.4067 8.93216C30.5626 8.95691 36.5167 9.19026 35.9435 10.7966H18.9188L21.5826 19.0543C23.9431 17.8095 32.1428 14.5438 36.4218 14.3427C37.8242 14.2744 38.653 14.3034 38.6847 14.7434C38.6954 14.8975 38.3447 15.0375 37.5211 15.1846C35.3963 15.5634 31.7476 16.6887 30.8958 16.977C26.4255 18.4994 21.5883 20.8736 18.0906 22.6702C16.3832 23.5478 2.42407 30.3984 2.42407 30.3984L6.98143 8.93399H6.98511H25.5299Z" fill="#15569C"/>
<path d="M36.0596 11.1988C36.2031 11.0047 36.3092 10.9212 36.4328 10.9212L38.8042 10.9212C40.2949 10.9212 41.376 11.1098 41.229 12.3699C41.1254 13.257 40.1741 14.9991 39.9624 15.2321C39.7506 15.4639 39.3868 15.5012 39.5726 14.9729C40.0515 13.6058 40.5202 12.5661 39.9366 12.379C38.8307 12.0272 35.1609 12.7963 33.1221 12.7963C32.2361 12.7963 32.1381 12.6747 32.144 12.4617C32.1546 12.2229 32.3223 12.1605 32.94 12.1088C33.5835 12.0547 34.9583 11.9099 35.4842 11.651C35.8231 11.4804 35.929 11.3671 36.0596 11.1988Z" fill="#15569C"/>
<path d="M55.6307 2.47773C55.6307 2.47773 55.0257 5.32452 54.1232 9.57175C53.5832 12.0225 55.2361 13.1326 57.9892 13.1326C60.7528 13.1326 62.8532 12.0224 63.3792 9.57175C64.9122 2.47735 63.3628 9.57212 64.9123 2.47773H62.6015C62.6015 2.47773 61.4343 7.93536 61.232 8.86951C60.8837 10.5061 60.0204 11.4835 58.3275 11.4835C56.5591 11.4694 56.1966 10.4908 56.559 8.86951C56.5178 9.03305 57.934 2.47773 57.934 2.47773H55.6307ZM67.1257 2.47773L64.9051 12.9431H66.9511L68.5669 5.17619H68.6129L71.1976 12.9431H74.1021L76.3191 2.47773H74.2767L72.6277 10.331H72.6002L70.1166 2.47773H67.1257ZM78.5342 2.47773L76.3191 12.9431H78.6243L80.8431 2.47773H78.5342ZM82.3891 2.47773L82.0233 4.14321H85.279L83.4094 12.9432H85.7165L87.5843 4.14321H90.8381L91.1892 2.47773H82.3891ZM92.7387 2.47773L90.5052 12.9431H98.0901L98.4431 11.2776H93.1763L93.7756 8.41717H98.3713L98.7041 6.87113H94.1101L94.691 4.14311H99.9633L100.311 2.47763L92.7387 2.47773ZM101.993 2.47773L99.7776 12.9431H104.504C107.424 12.9431 110.226 11.0177 110.855 7.25166C111.305 4.58096 110.239 2.47754 107.072 2.47754L101.993 2.47773ZM119.341 2.47773C116.629 2.47773 115.281 3.44059 115.08 4.94653C114.745 7.45374 119.181 8.94368 118.847 10.4449C118.641 11.3226 117.562 11.2777 116.687 11.2777H113.843L113.49 12.9432H117.023C119.914 12.9432 121.168 11.9061 121.4 10.4743C121.821 7.90596 117.315 6.5796 117.667 4.91714C117.782 4.40535 118.349 4.14321 119.604 4.14321H122.071L122.433 2.47773H119.341ZM123.619 2.47773L123.257 4.14321H126.511L124.643 12.9432H126.948L128.816 4.14321H132.071L132.423 2.47773H123.619ZM134.865 2.47773L128.869 12.9431H131.176L135.772 4.55301L136.693 11.2775H133.391L132.489 12.943H139.257L137.625 2.47763L134.865 2.47773ZM140.171 2.47773L139.807 4.14321H143.061L141.193 12.9432H143.498L145.366 4.14321H148.618L148.971 2.47773H140.171ZM150.509 2.47773L148.274 12.9431H155.862L156.215 11.2776H150.943L151.542 8.41717H156.14L156.474 6.87113H151.879L152.463 4.14311H157.73L158.081 2.47763L150.509 2.47773ZM163.155 2.47773C160.44 2.47773 159.097 3.44059 158.892 4.94653C158.557 7.45374 162.993 8.94368 162.659 10.4449C162.453 11.3226 161.372 11.2777 160.497 11.2777H157.651L157.302 12.9432H160.832C163.722 12.9432 164.979 11.9061 165.214 10.4743C165.634 7.90596 161.127 6.5796 161.475 4.91714C161.593 4.40535 162.163 4.14321 163.418 4.14321H165.88L166.249 2.47773H163.155ZM103.963 4.14321H106.316C108.226 4.14321 108.909 5.55992 108.618 7.22239C108.211 9.57307 106.707 11.2777 104.097 11.2777H102.448L103.963 4.14321ZM66.5959 19.7358C63.357 19.7358 60.6584 21.4283 59.8678 25.1497C59.243 28.1263 61.053 30.5764 64.2778 30.5764C67.5474 30.5764 70.1737 28.9593 70.9913 25.1497C71.6608 22.0426 69.8066 19.7358 66.5959 19.7358ZM158.972 19.7358C155.76 19.7358 152.67 21.3977 151.88 25.1497C151.079 28.8993 153.456 30.5764 156.669 30.5764C157.557 30.5764 158.409 30.476 159.254 30.3466L159.822 28.5469C158.991 28.7528 158.112 28.9145 157.016 28.9145C154.929 28.9145 153.751 27.5145 154.246 25.1497C154.742 22.7849 156.522 21.3977 158.606 21.3977C159.675 21.3977 160.402 21.5435 161.059 21.7341L161.265 19.9693C160.522 19.8387 159.749 19.7358 158.972 19.7358ZM76.6312 19.9233C73.9146 19.9233 72.5698 20.8874 72.3663 22.3921C72.031 24.9028 76.4666 26.3906 76.1349 27.8942C75.9301 28.7695 74.8483 28.7251 73.973 28.7251H71.1273L70.7744 30.3888H74.3095C77.199 30.3888 78.4535 29.3524 78.6865 27.9218C79.11 25.3546 74.6016 24.0252 74.951 22.3628C75.0675 21.851 75.6371 21.5889 76.8959 21.5889H79.3574L79.725 19.9234L76.6312 19.9233ZM80.9071 19.9233L80.5431 21.5888H83.7969L81.9291 30.3888H84.2344L86.1058 21.5888H89.3578L89.7052 19.9233H80.9071ZM114.592 19.9233C111.876 19.9233 110.532 20.8874 110.329 22.3921C109.992 24.9028 114.428 26.3906 114.096 27.8942C113.891 28.7695 112.809 28.7251 111.934 28.7251H109.088L108.737 30.3888H112.27C115.159 30.3888 116.415 29.3524 116.647 27.9218C117.071 25.3546 112.564 24.0252 112.908 22.3628C113.026 21.851 113.598 21.5889 114.853 21.5889H117.318L117.682 19.9234L114.592 19.9233ZM119.681 19.9233L117.447 30.3887H125.037L125.387 28.725H120.118L120.717 25.8628H125.315L125.65 24.315H121.054L121.635 21.5887H126.905L127.253 19.9232L119.681 19.9233ZM128.929 19.9233L126.71 30.3887H129.016L130.883 21.574H132.955C134.239 21.574 134.354 22.2877 134.223 22.9454C133.978 24.1854 132.897 24.6808 131.714 24.6808C131.495 24.6808 131.128 24.6961 130.837 24.6514L132.736 30.3887H135.26L133.538 25.8775C135.071 25.6598 136.386 24.5661 136.529 22.5943C136.663 20.8424 135.846 19.9232 133.804 19.9232L128.929 19.9233ZM163.127 19.9233L160.899 30.3887H168.488L168.837 28.725H163.57L164.168 25.8628H168.765L169.1 24.315H164.504L165.089 21.5887H170.355L170.705 19.9232L163.127 19.9233ZM51.9322 19.9252L49.7134 30.3887H52.0205L53.8882 21.5887H55.7688C56.6182 21.5887 57.1986 22.0106 56.9526 23.1494C56.8232 23.7765 56.2515 24.8573 54.675 24.8573C54.3256 24.8573 53.9472 24.8132 53.6566 24.7837L53.7724 26.304C54.1065 26.3334 54.5021 26.3885 54.8681 26.3885C56.9399 26.3885 58.7634 25.1936 59.1881 23.2064C59.4645 21.8945 59.2011 19.925 56.9398 19.925L51.9322 19.9252ZM92.1691 19.9252L86.1762 30.3887H88.4778L93.0791 21.9968L93.9945 28.725H90.6984L89.794 30.3887H96.5626L94.9321 19.9252H92.1691ZM99.9837 19.9252L97.7667 30.3887H104.846L105.21 28.725H100.438L102.306 19.925L99.9837 19.9252ZM137.754 19.9252L139.329 30.3887H142.055L148.013 19.9252H145.736L141.14 28.319L140.059 19.9252H137.754ZM149.403 19.9252L147.186 30.3887H149.491L151.71 19.9252H149.403ZM66.2318 21.3982C68.3625 21.3982 69.0789 23.0313 68.6271 25.1502C68.1271 27.515 66.7276 28.915 64.6416 28.915C62.4804 28.915 61.7651 27.1785 62.2168 25.1502C62.7569 22.7854 64.1459 21.3982 66.2318 21.3982Z" fill="white"/>
<path d="M52.7526 16.0487L52.5891 16.8252H171.37L171.53 16.0487H52.7609H52.7526Z" fill="#ED192D"/>
</svg>
