<svg width="210" height="41" viewBox="0 0 210 41" fill="none" xmlns="http://www.w3.org/2000/svg">
<path fill-rule="evenodd" clip-rule="evenodd" d="M52.3897 39.1506L60.1948 2.42847H9.08516L1.28003 39.1506H52.3897ZM58.5113 3.78056L10.1709 3.7828L10.1417 3.94406C10.1417 3.94406 38.5607 9.77911 39.1238 9.87945C45.6532 11.0319 45.4512 12.2917 45.4512 12.2917C50.0267 12.2687 50.5889 12.4538 51.3887 13.1204C53.7941 15.1301 49.8836 21.0514 49.8836 21.0514C49.3246 21.4642 7.04985 37.7895 7.04985 37.7895H51.2781L58.5102 3.78117L58.5113 3.78056ZM31.5295 11.6461C31.2921 11.6479 31.1435 11.649 31.1052 11.6467H8.5061L2.95349 37.7985C2.95349 37.7985 19.9611 29.452 22.0413 28.3826C26.3029 26.1937 32.1964 23.301 37.643 21.4461C38.6808 21.0949 43.1263 19.7239 45.7151 19.2623C46.7185 19.0831 47.1458 18.9126 47.1329 18.7248C47.0941 18.1887 46.0844 18.1534 44.3757 18.2365C39.1623 18.4816 29.172 22.4605 26.2959 23.9771L23.0504 13.9161H43.793C44.4914 11.9589 37.237 11.6746 33.3919 11.6445C32.5865 11.6381 31.931 11.6431 31.5295 11.6461ZM43.9345 14.4061C44.1093 14.1696 44.2386 14.0679 44.3891 14.0679L47.2784 14.0679C49.0946 14.0679 50.4119 14.2976 50.2327 15.8329C50.1066 16.9137 48.9475 19.0364 48.6895 19.3202C48.4315 19.6026 47.9882 19.648 48.2147 19.0044C48.2884 18.7939 48.362 18.5897 48.4327 18.3933C48.922 17.0351 49.2793 16.0432 48.6582 15.844C47.8676 15.5926 46.0019 15.8112 44.093 16.0348C42.7482 16.1924 41.3821 16.3525 40.3554 16.3525C39.276 16.3525 39.1566 16.2043 39.1638 15.9448C39.1767 15.6538 39.381 15.5779 40.1336 15.5148C40.9176 15.4489 42.5927 15.2725 43.2334 14.9571C43.6462 14.7492 43.7753 14.6111 43.9345 14.4061Z" fill="#040503"/>
<path d="M67.7794 3.78056C67.7794 3.78056 67.0422 7.24905 65.9427 12.4238C65.2848 15.4097 67.2987 16.7622 70.6529 16.7622C74.0201 16.7622 76.5792 15.4096 77.22 12.4238C78.1539 8.10184 78.1489 8.10207 78.1465 8.10218C78.1443 8.10161 78.1555 8.04955 79.0274 4.0576L79.0879 3.78056H76.2725C76.2725 3.78056 74.8504 10.43 74.6039 11.5682C74.1796 13.5622 73.1278 14.7531 71.0651 14.7531C68.9105 14.7359 68.4689 13.5435 68.9104 11.5682C68.8603 11.7675 70.5857 3.78056 70.5857 3.78056H67.7794Z" fill="#040503"/>
<path d="M81.7848 3.78056L79.0791 16.5314H81.5719L83.5407 7.06832H83.5967L86.7458 16.5314H90.2846L92.9858 3.78056H90.4974L88.4883 13.3489H88.4547L85.4287 3.78056H81.7848Z" fill="#040503"/>
<path d="M95.6846 3.78056L92.9857 16.5314H95.7944L98.4977 3.78056H95.6846Z" fill="#040503"/>
<path d="M100.381 3.78056L99.9357 5.80975H103.902L101.625 16.5315H104.435L106.711 5.80975H110.675L111.103 3.78056H100.381Z" fill="#040503"/>
<path d="M112.991 3.78056L110.27 16.5314H119.511L119.941 14.5022H113.524L114.254 11.0171H119.854L120.259 9.13341H114.662L115.37 5.80964H121.793L122.217 3.78045L112.991 3.78056Z" fill="#040503"/>
<path fill-rule="evenodd" clip-rule="evenodd" d="M124.266 3.78056L121.567 16.5314H127.326C130.883 16.5314 134.297 14.1856 135.064 9.59704C135.612 6.34311 134.313 3.78033 130.455 3.78033L124.266 3.78056ZM126.667 5.80975H129.534C131.86 5.80975 132.692 7.53586 132.338 9.56138C131.842 12.4254 130.01 14.5023 126.83 14.5023H124.821L126.667 5.80975Z" fill="#040503"/>
<path d="M145.403 3.78056C142.099 3.78056 140.457 4.9537 140.211 6.78851C139.984 8.48626 141.553 9.80117 142.922 10.9484C144.016 11.8653 144.982 12.6751 144.801 13.4877C144.561 14.5077 143.354 14.5049 142.318 14.5025C142.268 14.5024 142.218 14.5023 142.169 14.5023H138.704L138.274 16.5315H142.579C146.101 16.5315 147.629 15.268 147.912 13.5235C148.194 11.8025 146.66 10.5392 145.294 9.41383C144.176 8.49289 143.17 7.66426 143.363 6.7527C143.503 6.12915 144.194 5.80975 145.724 5.80975H148.729L149.171 3.78056H145.403Z" fill="#040503"/>
<path d="M150.615 3.78056L150.174 5.80975H154.138L151.863 16.5315H154.671L156.947 5.80975H160.913L161.341 3.78056H150.615Z" fill="#040503"/>
<path d="M164.318 3.78056L157.012 16.5314H159.823L165.422 6.30905L166.544 14.5021H162.521L161.422 16.5313H169.669L167.68 3.78045L164.318 3.78056Z" fill="#040503"/>
<path d="M170.782 3.78056L170.338 5.80975H174.303L172.027 16.5315H174.836L177.111 5.80975H181.073L181.503 3.78056H170.782Z" fill="#040503"/>
<path d="M183.378 3.78056L180.654 16.5314H189.9L190.33 14.5022H183.906L184.636 11.0171H190.238L190.646 9.13341H185.046L185.758 5.80964H192.175L192.603 3.78045L183.378 3.78056Z" fill="#040503"/>
<path d="M198.786 3.78056C195.477 3.78056 193.841 4.9537 193.591 6.78851C193.364 8.48626 194.933 9.80117 196.302 10.9484C197.396 11.8653 198.362 12.6751 198.181 13.4877C197.941 14.5078 196.732 14.5049 195.696 14.5025C195.646 14.5024 195.596 14.5023 195.547 14.5023H192.08L191.654 16.5315H195.954C199.476 16.5315 201.007 15.268 201.294 13.5235C201.576 11.8021 200.04 10.5386 198.673 9.41295C197.554 8.49236 196.548 7.66397 196.738 6.7527C196.882 6.12915 197.576 5.80975 199.106 5.80975H202.105L202.555 3.78056H198.786Z" fill="#040503"/>
<path fill-rule="evenodd" clip-rule="evenodd" d="M81.1392 24.8075C77.193 24.8075 73.905 26.8696 72.9417 31.4037C72.1806 35.0303 74.3859 38.0155 78.3149 38.0155C82.2985 38.0155 85.4983 36.0452 86.4945 31.4037C87.3101 27.618 85.0511 24.8075 81.1392 24.8075ZM80.6956 26.833C83.2916 26.833 84.1644 28.8227 83.614 31.4043C83.0047 34.2855 81.2997 35.9913 78.7581 35.9913C76.1249 35.9913 75.2534 33.8756 75.8038 31.4043C76.4618 28.5231 78.1541 26.833 80.6956 26.833Z" fill="#040503"/>
<path d="M193.689 24.8075C189.776 24.8075 186.01 26.8324 185.048 31.4037C184.072 35.9722 186.968 38.0155 190.883 38.0155C191.965 38.0155 193.003 37.8932 194.032 37.7355L194.724 35.5428C193.712 35.7936 192.641 35.9907 191.306 35.9907C188.763 35.9907 187.327 34.2849 187.931 31.4037C188.535 28.5224 190.703 26.8323 193.243 26.8323C194.545 26.8323 195.431 27.01 196.231 27.2422L196.482 25.0921C195.577 24.9329 194.635 24.8075 193.689 24.8075Z" fill="#040503"/>
<path d="M93.366 25.036C90.0562 25.036 88.4177 26.2106 88.1698 28.0439C87.9427 29.7444 89.5119 31.0598 90.881 32.2074C91.9748 33.1242 92.9408 33.934 92.7613 34.7476C92.5233 35.7653 91.312 35.7625 90.275 35.7602C90.2253 35.76 90.1761 35.7599 90.1273 35.7599H86.6602L86.2302 37.7869H90.5373C94.0578 37.7869 95.5863 36.5242 95.8702 34.7812C96.1541 33.0605 94.6194 31.7962 93.252 30.6697C92.1338 29.7485 91.1274 28.9194 91.3189 28.0082C91.4608 27.3846 92.1548 27.0652 93.6886 27.0652H96.6876L97.1355 25.036L93.366 25.036Z" fill="#040503"/>
<path d="M98.5757 25.036L98.1323 27.0652H102.097L99.821 37.7869H102.63L104.91 27.0652H108.872L109.295 25.036H98.5757Z" fill="#040503"/>
<path d="M139.617 25.036C136.307 25.036 134.67 26.2106 134.423 28.0439C134.194 29.7447 135.764 31.0602 137.133 32.208C138.226 33.1246 139.192 33.9342 139.012 34.7476C138.774 35.7653 137.563 35.7625 136.526 35.7602C136.49 35.7601 136.455 35.76 136.42 35.76L132.911 35.7599L132.483 37.7869H136.788C140.307 37.7869 141.837 36.5242 142.121 34.7812C142.405 33.0597 140.869 31.7951 139.501 30.6682C138.383 29.7476 137.377 28.9189 137.565 28.0082C137.709 27.3846 138.406 27.0652 139.935 27.0652H142.939L143.382 25.036L139.617 25.036Z" fill="#040503"/>
<path d="M145.817 25.036L143.095 37.7868H152.343L152.769 35.7598H146.35L147.08 32.2725H152.682L153.089 30.3867H147.49L148.198 27.0651H154.619L155.042 25.0359L145.817 25.036Z" fill="#040503"/>
<path d="M157.085 25.036L154.382 37.7868H157.19L159.466 27.0472H161.99C163.554 27.0472 163.695 27.9167 163.535 28.718C163.236 30.2289 161.919 30.8324 160.478 30.8324C160.428 30.8324 160.372 30.8331 160.312 30.8338C160.048 30.8368 159.698 30.8409 159.41 30.7966L161.724 37.7869H164.799L162.7 32.2905C164.568 32.0253 166.171 30.6927 166.344 28.2902C166.507 26.1558 165.512 25.0358 163.025 25.0358L157.085 25.036Z" fill="#040503"/>
<path d="M198.751 25.036L196.037 37.7868H205.282L205.708 35.7598H199.291L200.019 32.2725H205.621L206.028 30.3867H200.429L201.141 27.0651H207.558L207.984 25.0359L198.751 25.036Z" fill="#040503"/>
<path d="M63.2732 25.0383L60.5698 37.7868H63.3808L65.6564 27.0651H67.9476C68.9826 27.0651 69.6897 27.5791 69.39 28.9666C69.2323 29.7307 68.5358 31.0474 66.615 31.0474C66.2402 31.0474 65.8381 31.0058 65.5058 30.9714L65.5043 30.9712C65.4596 30.9666 65.4161 30.9621 65.3742 30.9578L65.5153 32.8101C65.6256 32.8198 65.7414 32.8318 65.8605 32.8442C66.1809 32.8774 66.5252 32.9131 66.8502 32.9131C69.3745 32.9131 71.5962 31.4572 72.1136 29.036C72.4505 27.4377 72.1295 25.0381 69.3744 25.0381L63.2732 25.0383Z" fill="#040503"/>
<path d="M112.297 25.0383L104.996 37.7868H107.8L113.406 27.5623L114.521 35.7598H110.505L109.403 37.7868H117.65L115.663 25.0383H112.297Z" fill="#040503"/>
<path d="M121.818 25.0383L119.117 37.7868H127.743L128.186 35.7598H122.372L124.647 25.0381L121.818 25.0383Z" fill="#040503"/>
<path d="M167.837 25.0383L169.756 37.7868H173.078L180.337 25.0383H177.562L171.962 35.2651L170.645 25.0383H167.837Z" fill="#040503"/>
<path d="M182.03 25.0383L179.329 37.7868H182.138L184.841 25.0383H182.03Z" fill="#040503"/>
<path d="M64.2728 20.3151L64.0736 21.2612H208.795L208.99 20.3151H64.2728Z" fill="#040503"/>
</svg>
