<svg width="25" height="24" viewBox="0 0 25 24" fill="none" xmlns="http://www.w3.org/2000/svg">
<path d="M3.64705 0C2.11329 0 0.85791 1.25538 0.85791 2.78914V20.6396C0.85791 22.1734 2.11329 23.4287 3.64705 23.4287H21.4975C23.0313 23.4287 24.2867 22.1734 24.2867 20.6396V2.78914C24.2867 1.25538 23.0313 0 21.4975 0H3.64705ZM3.64705 1.11565H7.31759C5.32554 3.18837 4.20487 5.86727 4.20487 8.64632C4.20487 11.5247 5.38198 14.2803 7.50172 16.3666C7.56866 16.4837 7.62431 17.0581 7.36771 17.7219C7.20594 18.1403 6.88227 18.6867 6.2575 18.8931C6.01764 18.9712 5.86162 19.2065 5.87836 19.4575C5.89509 19.7085 6.07961 19.9204 6.32505 19.9707C7.92602 20.2886 8.96275 19.8085 9.79949 19.4292C10.5526 19.0833 11.0498 18.8488 11.814 19.1611C13.3759 19.7692 15.0379 20.0818 16.756 20.0818C19.0396 20.0818 21.2362 19.5244 23.171 18.4715V20.6396C23.171 21.5703 22.4282 22.3131 21.4975 22.3131H3.64705C2.71632 22.3131 1.97356 21.5703 1.97356 20.6396V2.78914C1.97356 1.85841 2.71632 1.11565 3.64705 1.11565ZM17.0349 6.1361C17.3417 6.1361 17.5927 6.38712 17.5927 6.69393V11.7144C17.5927 12.0212 17.3417 12.2722 17.0349 12.2722C16.7281 12.2722 16.4771 12.0212 16.4771 11.7144V6.69393C16.4771 6.38712 16.7281 6.1361 17.0349 6.1361ZM8.66749 6.69393H11.4566C11.6574 6.69393 11.8476 6.80523 11.948 6.98374C12.0428 7.15666 12.0365 7.37408 11.9306 7.54701L9.67202 11.1565H11.4566C11.7634 11.1565 12.0145 11.4076 12.0145 11.7144C12.0145 12.0212 11.7634 12.2722 11.4566 12.2722H8.66749C8.46667 12.2722 8.27653 12.1609 8.17612 11.9824C8.08129 11.8095 8.08757 11.592 8.19356 11.4191L10.4521 7.80958H8.66749C8.36069 7.80958 8.10966 7.55856 8.10966 7.25175C8.10966 6.94495 8.36069 6.69393 8.66749 6.69393ZM13.9669 8.36741C14.3071 8.36741 14.6248 8.4618 14.9093 8.618C15.0097 8.47296 15.1662 8.36741 15.3614 8.36741C15.6682 8.36741 15.9192 8.61843 15.9192 8.92524V11.7144C15.9192 12.0212 15.6682 12.2722 15.3614 12.2722C15.1662 12.2722 15.0097 12.1666 14.9093 12.0216C14.6248 12.1778 14.3071 12.2722 13.9669 12.2722C12.8902 12.2722 12.0145 11.3964 12.0145 10.3198C12.0145 9.2432 12.8902 8.36741 13.9669 8.36741ZM20.1029 8.36741C21.1796 8.36741 22.0553 9.2432 22.0553 10.3198C22.0553 11.3964 21.1796 12.2722 20.1029 12.2722C19.0263 12.2722 18.1506 11.3964 18.1506 10.3198C18.1506 9.2432 19.0263 8.36741 20.1029 8.36741ZM13.9669 9.48306C13.909 9.48306 13.8525 9.48937 13.798 9.50049C13.6889 9.52274 13.5874 9.56571 13.4984 9.62579C13.4094 9.68586 13.3329 9.7623 13.2728 9.85132C13.2128 9.94033 13.1698 10.0419 13.1475 10.1509C13.1364 10.2055 13.1301 10.2619 13.1301 10.3198C13.1301 10.3777 13.1364 10.4341 13.1475 10.4887C13.1587 10.5432 13.1743 10.5955 13.1955 10.6456C13.2166 10.6956 13.2428 10.7438 13.2728 10.7883C13.3029 10.8328 13.3374 10.8736 13.3752 10.9114C13.4131 10.9492 13.4539 10.9838 13.4984 11.0138C13.5874 11.0739 13.6889 11.1169 13.798 11.1391C13.8525 11.1502 13.909 11.1565 13.9669 11.1565C14.0247 11.1565 14.0812 11.1502 14.1357 11.1391C14.5174 11.0612 14.8036 10.7249 14.8036 10.3198C14.8036 9.85681 14.4298 9.48306 13.9669 9.48306ZM20.1029 9.48306C20.0451 9.48306 19.9886 9.48937 19.9341 9.50049C19.8795 9.51162 19.8273 9.5273 19.7772 9.54843C19.7271 9.56957 19.679 9.59575 19.6345 9.62579C19.59 9.65583 19.5492 9.69037 19.5113 9.7282C19.4357 9.80386 19.3739 9.89389 19.3316 9.99404C19.3104 10.0441 19.2948 10.0964 19.2836 10.1509C19.2725 10.2055 19.2662 10.2619 19.2662 10.3198C19.2662 10.3777 19.2725 10.4341 19.2836 10.4887C19.2948 10.5432 19.3104 10.5955 19.3316 10.6456C19.3527 10.6956 19.3789 10.7438 19.4089 10.7883C19.439 10.8328 19.4735 10.8736 19.5113 10.9114C19.5492 10.9492 19.59 10.9838 19.6345 11.0138C19.679 11.0439 19.7271 11.07 19.7772 11.0912C19.8273 11.1123 19.8795 11.128 19.9341 11.1391C19.9886 11.1502 20.0451 11.1565 20.1029 11.1565C20.1608 11.1565 20.2173 11.1502 20.2718 11.1391C20.6535 11.0612 20.9397 10.7249 20.9397 10.3198C20.9397 9.85681 20.5659 9.48306 20.1029 9.48306Z" fill="white"/>
</svg>
