<svg width="126" height="52" viewBox="0 0 126 52" fill="none" xmlns="http://www.w3.org/2000/svg">
<path d="M12.0258 7.80678L1.16881 7.7068L1.1688 14.9097H19.1618L0.462891 38.878V44.9733H12.0258V51.9937H18.9635V44.9733H30.7577C30.8568 44.6925 30.8916 43.9352 30.2639 43.2414C29.2233 42.0851 28.3956 40.8767 27.6357 39.357C27.2888 38.6797 27.0254 37.8686 26.9263 37.8025C24.6037 37.6961 11.2422 37.7236 11.2494 37.6391L29.9648 13.5239V7.80678H18.9635V0.703796H12.0258V7.80678Z" fill="white"/>
<path d="M62.1264 4.45393C61.9612 4.52 61.9116 8.17059 61.9116 21.9965C61.9116 40.6789 61.8951 40.3651 62.7211 41.9674C63.4644 43.4045 65.2814 44.6929 67.3132 45.2215C68.4364 45.5188 71.7401 45.5519 73.0121 45.2876C74.6474 44.9407 74.9612 44.4451 74.317 43.1732C73.9041 42.3803 73.3589 40.6459 73.2268 39.6878C73.0451 38.5481 72.8138 38.3663 71.4263 38.3994C70.7655 38.4159 70.1378 38.3663 70.0222 38.3003C69.345 37.8708 69.345 37.7552 69.345 21.022C69.345 10.2684 69.2954 4.86689 69.1798 4.65215C69.0146 4.35482 68.7998 4.3383 65.6613 4.35482C63.8278 4.35482 62.2255 4.40437 62.1264 4.45393Z" fill="white"/>
<path d="M77.2737 4.50322C77.0589 4.63536 77.0259 6.74973 77.0259 21.8806C77.0259 38.1844 77.0424 39.1755 77.3397 40.3153C77.9014 42.5618 79.1733 43.9328 81.585 44.9404C82.51 45.3204 82.923 45.3864 84.7896 45.436C87.2838 45.5021 88.5558 45.3204 89.8277 44.6761C91.0831 44.065 91.1161 43.6355 90.0424 42.0662C89.613 41.4385 88.9522 40.3648 88.5888 39.6876L87.9281 38.4487L86.7222 38.4322C85.219 38.3991 85.0704 38.333 84.7896 37.6227C84.5748 37.1437 84.5418 34.6825 84.5418 21.0217C84.5418 10.2682 84.4922 4.86662 84.3766 4.65189C84.2114 4.35455 83.9967 4.33803 80.8582 4.33803C79.0246 4.33803 77.4058 4.42063 77.2737 4.50322Z" fill="white"/>
<path d="M121.213 8.05489C119.875 8.66607 119.181 9.72325 119.165 11.1934C119.148 12.4488 119.66 13.4069 120.701 14.0841C121.99 14.9596 124.054 14.7118 125.128 13.5555C126.499 12.0854 126.218 9.54155 124.533 8.40177C123.658 7.80711 122.122 7.65844 121.213 8.05489ZM123.856 8.66607C125.723 9.60762 126.004 12.0193 124.418 13.4234C123.741 14.0181 123.262 14.1502 122.221 14.0511C119.347 13.7703 118.785 9.73977 121.461 8.53392C122.188 8.20355 123.03 8.25311 123.856 8.66607Z" fill="white"/>
<path d="M121.328 9.40901C121.213 9.60723 121.196 12.6797 121.312 12.9935C121.361 13.1422 121.51 13.2578 121.642 13.2578C121.807 13.2578 121.873 13.0266 121.873 12.4319C121.873 11.6886 121.906 11.606 122.253 11.606C122.518 11.606 122.749 11.8372 123.112 12.4319C123.41 12.9274 123.707 13.2578 123.889 13.2578C124.285 13.2578 124.269 13.1917 123.657 12.2997C123.294 11.7711 123.195 11.5234 123.344 11.4738C123.773 11.3252 124.186 10.78 124.186 10.3671C124.186 9.62375 123.657 9.29338 122.468 9.29338C121.873 9.29338 121.361 9.34293 121.328 9.40901ZM123.327 9.9376C123.459 10.0037 123.525 10.2515 123.492 10.4662C123.443 10.8131 123.344 10.8626 122.666 10.9122L121.873 10.9617V10.3836C121.873 9.80545 121.89 9.78893 122.501 9.78893C122.832 9.78893 123.211 9.85501 123.327 9.9376Z" fill="white"/>
<path d="M41.3462 14.8275C41.2636 14.8606 40.6194 15.0092 39.9421 15.1579C35.6969 16.1325 31.9472 19.3866 30.3614 23.5163C29.4859 25.7958 29.1721 27.5633 29.1555 30.1897C29.139 33.8733 29.8824 36.5824 31.5838 39.1593C33.4999 42.05 36.308 44.0157 39.9421 45.0068C41.181 45.3372 41.7261 45.3867 44.5673 45.3867C47.3754 45.3867 47.9536 45.3372 49.1264 45.0233C52.0336 44.2139 54.5114 42.8759 56.5101 40.9763C57.7821 39.787 57.7655 39.4566 56.4771 38.4655C55.9485 38.0525 54.9904 37.1605 54.3627 36.4667C53.5698 35.6243 53.0908 35.2279 52.843 35.2279C52.6118 35.2279 52.0832 35.5582 51.5711 36.0538C49.8036 37.6561 47.5736 38.4159 44.6499 38.3994C41.9739 38.3829 40.0247 37.6891 38.7858 36.2685C38.1581 35.5582 37.3652 33.9394 37.2 33.0309L37.1009 32.4197H47.3919C53.0578 32.4197 57.7986 32.3536 57.9142 32.2711C58.4593 31.9242 58.5915 29.529 58.195 26.9191C57.2535 20.6751 53.5203 16.4794 47.6562 15.0753C46.6156 14.8275 45.7566 14.745 43.9065 14.7615C42.5851 14.7615 41.4453 14.7945 41.3462 14.8275ZM45.7566 21.2037C46.9625 21.4515 48.4491 22.2774 49.1429 23.0703C49.7871 23.7971 50.4479 25.102 50.613 25.9445L50.7287 26.4731H43.9891H37.2661L37.3817 25.9445C37.8773 23.7145 39.7934 21.8479 42.1721 21.2532C43.2293 20.9889 44.6499 20.9724 45.7566 21.2037Z" fill="white"/>
<path d="M101.391 14.9759C95.5269 16.2809 91.5624 20.4105 90.3235 26.5058C89.5802 30.1069 89.9932 34.3026 91.3972 37.3089C93.3134 41.4716 96.7988 44.1641 101.556 45.1387C103.059 45.4525 103.654 45.4856 106.016 45.4195C108.015 45.3534 109.089 45.2378 110.014 44.99C112.838 44.2467 115.316 42.8922 117.216 41.0751C118.669 39.6711 118.669 39.605 117.1 38.3C116.373 37.7054 115.399 36.7638 114.936 36.2187C113.862 34.9798 113.582 34.9633 112.376 36.0535C110.575 37.6888 108.428 38.4157 105.438 38.3991C101.242 38.3826 98.7975 36.5821 98.0046 32.948L97.889 32.5194H118.818C119.528 32.0073 119.264 26.5884 118.405 24.0776C118.24 23.5821 117.794 22.591 117.43 21.8972C115.498 18.197 112.409 15.901 108.114 14.9925C106.743 14.6951 102.696 14.6951 101.391 14.9759ZM106.545 21.2034C107.668 21.4512 108.824 22.0293 109.65 22.7727C110.344 23.4169 111.467 25.4487 111.467 26.0764V26.4728H98.0542L98.1698 26.0103C99.0288 22.4753 102.663 20.3775 106.545 21.2034Z" fill="white"/>
</svg>
