<svg width="27" height="26" viewBox="0 0 27 26" fill="none" xmlns="http://www.w3.org/2000/svg">
<rect x="0.873047" width="25.7014" height="25.7014" rx="12.8507" fill="#EDEFF0"/>
<g clip-path="url(#clip0_28_7619)">
<path d="M13.7416 16.189C13.6872 16.2075 13.6563 16.1602 13.6193 16.1385C11.8072 15.069 9.99719 13.9988 8.18913 12.9279C8.17162 12.919 8.15344 12.9116 8.13477 12.9056V12.8817L8.16684 12.8632C8.21238 12.8512 8.25721 12.8367 8.30111 12.8197L12.5712 10.8768C12.9517 10.7034 13.3323 10.5327 13.7128 10.3609H13.74C13.74 10.4153 13.74 10.4637 13.74 10.5153C13.7414 12.4067 13.742 14.298 13.7416 16.189Z" fill="#393939"/>
<path d="M13.744 10.3623H13.7168C13.7168 10.3079 13.7222 10.2535 13.7222 10.1965C13.7222 8.07201 13.7222 5.94739 13.7222 3.82258C13.716 3.76801 13.7197 3.71276 13.7331 3.6595H13.7445C13.9679 3.98947 14.1626 4.33739 14.368 4.67823C15.996 7.37854 17.623 10.0785 19.2492 12.7781C19.2649 12.8047 19.2774 12.8324 19.2916 12.8618C19.2455 12.852 19.2003 12.8387 19.1562 12.8221C18.8578 12.6873 18.5582 12.5503 18.2625 12.4128C17.7993 12.2008 17.336 11.9891 16.8725 11.7778L14.6393 10.7662C14.342 10.6292 14.043 10.496 13.744 10.3623Z" fill="#343434"/>
<path d="M13.7361 3.65675C13.7226 3.71001 13.719 3.76526 13.7252 3.81983C13.7252 5.94428 13.7252 8.0689 13.7252 10.1937C13.7252 10.2481 13.722 10.3024 13.7198 10.3595C13.3392 10.5313 12.9587 10.702 12.5782 10.8754L8.3081 12.8183C8.2642 12.8353 8.21937 12.8498 8.17383 12.8618C8.29723 12.6052 8.4576 12.3725 8.60383 12.1268C10.2981 9.31051 11.9936 6.49478 13.6904 3.67958C13.7016 3.66399 13.7138 3.6491 13.7268 3.63501L13.7361 3.65675Z" fill="#8C8C8C"/>
<path d="M13.7449 10.3625C14.0439 10.4962 14.3429 10.6294 14.6413 10.7642L16.8745 11.7759C17.3384 11.9868 17.8017 12.1984 18.2645 12.4108C18.5624 12.5472 18.8625 12.6853 19.1582 12.8201C19.2023 12.8367 19.2475 12.85 19.2936 12.8598C19.3479 12.9278 19.2675 12.9305 19.243 12.9452C18.7793 13.2224 18.3134 13.4958 17.8486 13.7709C16.5146 14.5602 15.181 15.3494 13.8476 16.1384C13.8139 16.1579 13.7775 16.1726 13.7422 16.1895C13.7422 14.2988 13.7422 12.4079 13.7422 10.5168C13.7427 10.4652 13.7444 10.4141 13.7449 10.3625Z" fill="#141414"/>
<path d="M13.7232 17.2632L17.216 15.2045C17.8828 14.811 18.5493 14.417 19.2154 14.0227L19.2757 13.9896C19.2817 14.0439 19.2442 14.0727 19.2213 14.1043C17.6992 16.2501 16.1771 18.3952 14.655 20.5396C14.3669 20.9462 14.0793 21.355 13.7885 21.7583C13.7733 21.7795 13.7499 21.879 13.7031 21.7736C13.7401 21.742 13.7238 21.6996 13.7238 21.6648C13.7241 20.1971 13.724 18.7299 13.7232 17.2632Z" fill="#3D3D3C"/>
<path d="M13.7232 17.2633C13.7232 18.7299 13.7232 20.1962 13.7232 21.6622C13.7232 21.6997 13.7395 21.7421 13.7026 21.7709C13.6248 21.7241 13.5911 21.6404 13.5395 21.5714C11.7746 19.0853 10.0105 16.5988 8.24742 14.1119C8.22513 14.0804 8.20447 14.0467 8.18164 14.0119C8.2273 13.9853 8.25177 14.0217 8.27841 14.0374C10.0633 15.0913 11.8478 16.1461 13.6319 17.2018C13.6651 17.2225 13.6933 17.2437 13.7232 17.2633Z" fill="#8C8C8C"/>
<path d="M13.7357 3.6568L13.7227 3.63663C13.7466 3.62137 13.7434 3.64372 13.7472 3.65517L13.7357 3.6568Z" fill="#393939"/>
</g>
<defs>
<clipPath id="clip0_28_7619">
<rect width="11.1745" height="18.1899" fill="white" transform="translate(8.13672 3.63172)"/>
</clipPath>
</defs>
</svg>
