<svg width="27" height="26" viewBox="0 0 27 26" fill="none" xmlns="http://www.w3.org/2000/svg">
<rect x="0.746094" width="25.7014" height="25.7014" rx="12.8507" fill="#26A07B"/>
<path d="M13.5879 5.90642C15.4869 5.90642 17.386 5.90642 19.2909 5.90642C19.4603 5.90642 19.5071 5.94731 19.5071 6.11969C19.5071 6.95235 19.5071 7.7821 19.5071 8.61184C19.5071 8.77253 19.4603 8.80758 19.3084 8.80466C17.9907 8.80466 16.6789 8.80466 15.3525 8.80466C15.1801 8.80466 15.1451 8.85141 15.148 9.0121C15.1597 9.51267 15.1597 10.0123 15.148 10.5109C15.148 10.6687 15.1801 10.7183 15.3496 10.7271C16.737 10.7728 18.1162 10.9588 19.4662 11.2822C19.9098 11.3852 20.3394 11.5412 20.7458 11.7467C20.9095 11.8276 21.0578 11.9364 21.1841 12.0681C21.2322 12.1111 21.2706 12.1638 21.297 12.2227C21.3233 12.2816 21.3369 12.3454 21.3369 12.4099C21.3369 12.4745 21.3233 12.5383 21.297 12.5972C21.2706 12.6561 21.2322 12.7087 21.1841 12.7518C20.9369 12.9923 20.6367 13.1714 20.3076 13.2747C19.5065 13.5593 18.6767 13.7552 17.833 13.8591C16.9989 13.9867 16.1579 14.0647 15.3145 14.0928C15.1568 14.0928 15.1568 14.1746 15.1568 14.2915C15.1568 16.1847 15.1568 18.0896 15.1568 19.9711C15.1568 20.1639 15.1071 20.2048 14.9201 20.2048C14.0086 20.2048 13.0941 20.2048 12.1826 20.2048C12.0277 20.2048 11.9985 20.161 11.9985 20.0178C11.9985 18.1422 11.9985 16.2694 11.9985 14.3937C11.9985 14.1016 11.9985 14.1016 11.7063 14.1016C10.3419 14.0413 8.98659 13.8476 7.6599 13.5231C7.15878 13.4145 6.67837 13.2261 6.23707 12.965C5.65275 12.5998 5.65275 12.1937 6.23707 11.8344C6.82606 11.502 7.46883 11.2755 8.13612 11.1653C9.35317 10.9109 10.5895 10.7594 11.832 10.7125C11.9751 10.7125 12.0073 10.6657 12.0043 10.5313C12.0043 10.023 12.0043 9.51754 12.0043 9.0121C12.0043 8.84849 11.9722 8.79298 11.794 8.7959C10.4793 8.7959 9.16453 8.7959 7.85273 8.7959C7.67451 8.7959 7.64237 8.74039 7.64237 8.57678C7.64237 7.75288 7.64237 6.92898 7.64237 6.10216C7.64237 5.92102 7.7008 5.89474 7.86149 5.89474C9.77223 5.90935 11.68 5.90642 13.5879 5.90642ZM13.6901 13.6078C14.687 13.6184 15.6837 13.5754 16.676 13.4792C17.5636 13.4068 18.4433 13.2583 19.3055 13.0352C19.6527 12.9559 19.9851 12.8217 20.2901 12.6378C20.6786 12.3836 20.6728 12.1149 20.2901 11.8607C20.1006 11.7344 19.894 11.636 19.6765 11.5685C18.2355 11.1717 16.7505 10.9568 15.2561 10.9287C15.1188 10.9287 15.1422 11.0047 15.1422 11.0835C15.1422 11.6679 15.1422 12.2697 15.1422 12.8628C15.1422 12.9972 15.11 13.0527 14.9698 13.0585C14.0261 13.0936 13.0824 13.0994 12.1387 13.0585C12.016 13.0585 11.9868 13.0089 11.9868 12.892C11.9868 12.2901 11.9868 11.6912 11.9868 11.0923C11.9868 10.9579 11.9488 10.9287 11.8174 10.9316C11.1688 10.9608 10.5202 11.0163 9.87449 11.0923C9.05392 11.1742 8.24356 11.3377 7.45539 11.5802C7.22235 11.6452 6.99994 11.7436 6.7951 11.8724C6.44159 12.1149 6.44451 12.3778 6.7951 12.6203C6.93177 12.7098 7.07773 12.7842 7.23042 12.8423C7.7462 13.0321 8.27959 13.1701 8.82271 13.2543C10.4315 13.5157 12.0604 13.634 13.6901 13.6078Z" fill="white"/>
</svg>
