<svg width="26" height="26" viewBox="0 0 26 26" fill="none" xmlns="http://www.w3.org/2000/svg">
<rect width="25.7014" height="25.7014" rx="12.8507" fill="#F6931A"/>
<path d="M17.5603 13.3121C17.8007 13.4394 18.0296 13.5872 18.2445 13.754C18.9948 14.3489 19.3119 15.1224 19.1912 16.0707C19.1113 16.7739 18.8627 17.4474 18.4667 18.034C17.9797 18.7415 17.2882 19.1239 16.4543 19.2672C15.7628 19.3863 15.0722 19.3477 14.3823 19.2551C14.1312 19.2221 13.8817 19.1794 13.6329 19.1335C13.5524 19.1182 13.5275 19.144 13.509 19.2205C13.319 19.9948 13.1218 20.7676 12.9334 21.5428C12.9068 21.6523 12.8746 21.6716 12.7644 21.6418C12.3289 21.5243 11.8894 21.4172 11.4507 21.3118C11.3702 21.2941 11.3613 21.2715 11.3798 21.1958C11.5746 20.4263 11.7638 19.6552 11.9594 18.8856C11.9811 18.7987 11.9731 18.7625 11.8789 18.7399C11.5392 18.6562 11.2006 18.5677 10.863 18.4743C10.7769 18.4501 10.752 18.4743 10.7318 18.5548C10.5419 19.3291 10.3455 20.1027 10.1563 20.8771C10.1346 20.964 10.1096 20.9785 10.0235 20.9576C9.58021 20.8427 9.13507 20.7319 8.68805 20.6251C8.60755 20.6058 8.59628 20.572 8.6148 20.4955C8.81121 19.7187 9.00118 18.9403 9.1992 18.1611C9.22496 18.0605 9.20403 18.0275 9.10582 18.0002C8.13987 17.7587 7.18116 17.5172 6.21843 17.2757C6.15001 17.2588 6.12908 17.2419 6.16128 17.1694C6.39633 16.6328 6.62842 16.0962 6.85757 15.5595C6.88655 15.4911 6.92277 15.4927 6.98395 15.5096C7.31559 15.5965 7.64643 15.6867 7.98049 15.7608C8.39746 15.8533 8.64378 15.6899 8.74681 15.2778C9.06397 14.0054 9.38165 12.7333 9.69988 11.4615C9.94137 10.4955 10.1829 9.52956 10.4243 8.56361C10.5217 8.1724 10.3165 7.79568 9.91481 7.64112C9.60193 7.53453 9.2825 7.44823 8.95852 7.38274C8.86353 7.35939 8.76935 7.33444 8.67356 7.31673C8.62123 7.30707 8.61399 7.28694 8.62607 7.23623C8.75245 6.73474 8.87882 6.23325 9.00037 5.73015C9.0213 5.63999 9.07524 5.66897 9.12434 5.68105C9.50589 5.77523 9.88583 5.87343 10.2682 5.96681C10.8461 6.10687 11.4193 6.26867 12.0005 6.39827C12.0962 6.42 12.1325 6.40792 12.1574 6.3065C12.3426 5.54259 12.5358 4.77708 12.7209 4.0172C12.7442 3.92141 12.7732 3.89404 12.8738 3.9206C13.3101 4.03652 13.7488 4.14518 14.1875 4.24983C14.2801 4.27237 14.289 4.30779 14.268 4.39392C14.0764 5.14817 13.8905 5.90402 13.6997 6.65827C13.6796 6.73877 13.6877 6.76211 13.773 6.78143C14.1143 6.85629 14.4556 6.93678 14.7945 7.02292C14.8919 7.04867 14.9192 7.01728 14.941 6.93034C15.1213 6.193 15.3064 5.45727 15.4859 4.71993C15.5109 4.6185 15.5391 4.58228 15.655 4.61367C16.0864 4.73039 16.5219 4.83664 16.9566 4.94048C17.0419 4.96061 17.0588 4.98878 17.0371 5.07491C16.8423 5.84445 16.6547 6.6156 16.4575 7.38434C16.4326 7.48255 16.4575 7.51153 16.5445 7.54533C17.1485 7.7421 17.7235 8.01877 18.2542 8.368C18.7525 8.7085 19.1654 9.12386 19.3892 9.6978C19.6307 10.3265 19.5832 10.9592 19.3948 11.5886C19.1292 12.48 18.5451 13.0435 17.6424 13.2791C17.6118 13.2839 17.5917 13.2952 17.5603 13.3121ZM14.062 17.1115H14.1666C14.5433 17.0994 14.9136 17.0583 15.2573 16.8917C16.1259 16.4699 16.3118 15.314 15.626 14.6105C15.2235 14.1999 14.7228 13.9665 14.1988 13.7717C13.5548 13.5302 12.8763 13.3918 12.2065 13.23C12.1091 13.2066 12.0906 13.2372 12.0705 13.3193C11.8091 14.3813 11.5446 15.4423 11.2768 16.5021C11.2551 16.5875 11.2816 16.6084 11.3573 16.6261C11.6447 16.6953 11.9296 16.7734 12.217 16.8434C12.8199 16.999 13.4381 17.0876 14.0604 17.1075L14.062 17.1115ZM14.7558 12.0724C14.9627 12.0761 15.1693 12.0583 15.3724 12.0193C15.9093 11.9066 16.2973 11.6168 16.4535 11.0751C16.6097 10.5333 16.4817 10.0447 16.051 9.65353C15.8227 9.4523 15.5634 9.28922 15.2831 9.17055C14.6576 8.89123 13.9903 8.75116 13.3254 8.60144C13.2449 8.58293 13.2385 8.63284 13.2248 8.68838C13.1282 9.07691 13.0308 9.4657 12.9326 9.85477C12.7917 10.4182 12.6517 10.9873 12.5068 11.5524C12.4858 11.6329 12.4995 11.6683 12.5873 11.6877C12.7547 11.7231 12.9181 11.7738 13.0847 11.8148C13.6337 11.9436 14.1851 12.066 14.7542 12.0684L14.7558 12.0724Z" fill="white"/>
</svg>
