<svg width="27" height="26" viewBox="0 0 27 26" fill="none" xmlns="http://www.w3.org/2000/svg">
<rect x="0.619141" width="25.7014" height="25.7014" rx="12.8507" fill="#2775CA"/>
<path d="M16.5991 14.2808C16.5991 12.6332 15.6123 12.0681 13.6386 11.8331C12.2288 11.6446 11.9469 11.2681 11.9469 10.6091C11.9469 9.95001 12.4168 9.52593 13.3566 9.52593C14.2025 9.52593 14.6747 9.80846 14.9074 10.5145C14.9315 10.5827 14.9759 10.6419 15.0348 10.6841C15.0936 10.7262 15.164 10.7492 15.2363 10.75H15.998C16.0416 10.7511 16.0849 10.7434 16.1254 10.7272C16.1659 10.711 16.2027 10.6868 16.2336 10.656C16.2645 10.6252 16.2888 10.5884 16.305 10.5479C16.3212 10.5075 16.3291 10.4641 16.328 10.4205V10.3735C16.2362 9.86342 15.9787 9.39787 15.5953 9.0491C15.2119 8.70032 14.7241 8.48781 14.2077 8.44453V7.32072C14.2077 7.13218 14.0667 6.99121 13.8317 6.94421H13.124C12.9354 6.94421 12.7944 7.08519 12.7474 7.32072V8.40212C11.3377 8.59009 10.4448 9.53052 10.4448 10.7059C10.4448 12.2572 11.3847 12.8687 13.3589 13.1037C14.677 13.3386 15.0976 13.6194 15.0976 14.373C15.0976 15.1266 14.4392 15.643 13.5469 15.643C12.3245 15.643 11.9016 15.1272 11.7606 14.42C11.7465 14.3425 11.7061 14.2722 11.6463 14.2209C11.5866 14.1696 11.511 14.1403 11.4322 14.1381H10.6265C10.5829 14.1371 10.5396 14.1449 10.4992 14.1611C10.4587 14.1773 10.422 14.2015 10.3912 14.2323C10.3604 14.2631 10.3362 14.2999 10.32 14.3403C10.3038 14.3807 10.2959 14.424 10.297 14.4676V14.5146C10.4855 15.6911 11.2391 16.5381 12.7927 16.7731V17.9061C12.7927 18.0946 12.9337 18.2356 13.1687 18.2826H13.8736C14.0615 18.2826 14.2025 18.1416 14.2495 17.9061V16.776C15.6593 16.541 16.5991 15.5519 16.5991 14.2808Z" fill="white"/>
<path d="M11.0987 19.2194C7.43098 17.9013 5.54613 13.8084 6.9112 10.1848C7.61666 8.20826 9.16971 6.70279 11.0987 5.99675C11.2872 5.90277 11.3812 5.76179 11.3812 5.52626V4.86779C11.3812 4.67925 11.2872 4.53826 11.0987 4.49127C11.0517 4.49127 10.9577 4.49128 10.9107 4.53827C6.4407 5.94976 3.99366 10.7023 5.40515 15.1729C5.8153 16.4642 6.52939 17.6382 7.48742 18.5962C8.44545 19.5542 9.61943 20.2683 10.9107 20.6785C10.9499 20.7011 10.9938 20.7141 11.039 20.7164C11.0841 20.7188 11.1292 20.7105 11.1705 20.6921C11.2118 20.6737 11.2482 20.6458 11.2766 20.6106C11.3051 20.5755 11.3248 20.5341 11.3342 20.4899C11.3812 20.4429 11.3812 20.3959 11.3812 20.302V19.6429C11.3812 19.5019 11.2414 19.3134 11.0987 19.2194ZM16.0845 4.53827C16.0454 4.51567 16.0015 4.50263 15.9563 4.50023C15.9112 4.49784 15.8662 4.50615 15.8249 4.52447C15.7836 4.5428 15.7472 4.57063 15.7187 4.60569C15.6902 4.64076 15.6705 4.68206 15.661 4.72623C15.614 4.77323 15.614 4.82022 15.614 4.91478V5.57325C15.614 5.76179 15.755 5.94976 15.8965 6.04374C19.5642 7.36182 21.4491 11.4553 20.084 15.0783C19.737 16.0414 19.1818 16.9162 18.458 17.6401C17.7342 18.364 16.8596 18.9193 15.8965 19.2664C15.708 19.3604 15.614 19.5019 15.614 19.7369V20.3954C15.614 20.5833 15.708 20.7249 15.8965 20.7719C15.9435 20.7719 16.0375 20.7719 16.0845 20.7249C20.5545 19.3128 23.0015 14.5603 21.59 10.0903C21.1812 8.793 20.4682 7.61225 19.5105 6.64639C18.5529 5.68054 17.3782 4.95756 16.0845 4.53769V4.53827Z" fill="white"/>
</svg>
